G04 #@! TF.GenerationSoftware,KiCad,Pcbnew,6.0.7-1.fc36*
G04 #@! TF.CreationDate,2022-08-13T19:37:31+02:00*
G04 #@! TF.ProjectId,drahtlos_klingel,64726168-746c-46f7-935f-6b6c696e6765,rev?*
G04 #@! TF.SameCoordinates,Original*
G04 #@! TF.FileFunction,Legend,Top*
G04 #@! TF.FilePolarity,Positive*
%FSLAX46Y46*%
G04 Gerber Fmt 4.6, Leading zero omitted, Abs format (unit mm)*
G04 Created by KiCad (PCBNEW 6.0.7-1.fc36) date 2022-08-13 19:37:31*
%MOMM*%
%LPD*%
G01*
G04 APERTURE LIST*
G04 Aperture macros list*
%AMRoundRect*
0 Rectangle with rounded corners*
0 $1 Rounding radius*
0 $2 $3 $4 $5 $6 $7 $8 $9 X,Y pos of 4 corners*
0 Add a 4 corners polygon primitive as box body*
4,1,4,$2,$3,$4,$5,$6,$7,$8,$9,$2,$3,0*
0 Add four circle primitives for the rounded corners*
1,1,$1+$1,$2,$3*
1,1,$1+$1,$4,$5*
1,1,$1+$1,$6,$7*
1,1,$1+$1,$8,$9*
0 Add four rect primitives between the rounded corners*
20,1,$1+$1,$2,$3,$4,$5,0*
20,1,$1+$1,$4,$5,$6,$7,0*
20,1,$1+$1,$6,$7,$8,$9,0*
20,1,$1+$1,$8,$9,$2,$3,0*%
%AMHorizOval*
0 Thick line with rounded ends*
0 $1 width*
0 $2 $3 position (X,Y) of the first rounded end (center of the circle)*
0 $4 $5 position (X,Y) of the second rounded end (center of the circle)*
0 Add line between two ends*
20,1,$1,$2,$3,$4,$5,0*
0 Add two circle primitives to create the rounded ends*
1,1,$1,$2,$3*
1,1,$1,$4,$5*%
%AMRotRect*
0 Rectangle, with rotation*
0 The origin of the aperture is its center*
0 $1 length*
0 $2 width*
0 $3 Rotation angle, in degrees counterclockwise*
0 Add horizontal line*
21,1,$1,$2,0,0,$3*%
G04 Aperture macros list end*
%ADD10C,0.500000*%
%ADD11C,0.150000*%
%ADD12C,0.300000*%
%ADD13C,0.120000*%
%ADD14C,3.100000*%
%ADD15C,0.200000*%
%ADD16O,1.200000X2.000000*%
%ADD17R,1.800000X2.500000*%
%ADD18C,1.600000*%
%ADD19C,2.700000*%
%ADD20R,1.700000X1.700000*%
%ADD21O,1.700000X1.700000*%
%ADD22RoundRect,0.250001X-0.624999X0.462499X-0.624999X-0.462499X0.624999X-0.462499X0.624999X0.462499X0*%
%ADD23R,2.400000X2.400000*%
%ADD24O,2.400000X2.400000*%
%ADD25R,3.000000X3.000000*%
%ADD26C,3.000000*%
%ADD27RoundRect,0.250000X-0.650000X0.412500X-0.650000X-0.412500X0.650000X-0.412500X0.650000X0.412500X0*%
%ADD28RotRect,1.600000X0.550000X45.000000*%
%ADD29RotRect,1.600000X0.550000X135.000000*%
%ADD30R,1.600000X1.600000*%
%ADD31O,1.600000X1.600000*%
%ADD32RoundRect,0.250000X-0.412500X-0.650000X0.412500X-0.650000X0.412500X0.650000X-0.412500X0.650000X0*%
%ADD33R,2.200000X1.200000*%
%ADD34R,6.400000X5.800000*%
%ADD35RoundRect,0.250000X0.625000X-0.400000X0.625000X0.400000X-0.625000X0.400000X-0.625000X-0.400000X0*%
%ADD36C,1.400000*%
%ADD37O,1.400000X1.400000*%
%ADD38RoundRect,0.250000X-0.625000X0.400000X-0.625000X-0.400000X0.625000X-0.400000X0.625000X0.400000X0*%
%ADD39C,2.400000*%
%ADD40R,1.000000X3.200000*%
%ADD41RoundRect,0.250000X0.650000X-0.412500X0.650000X0.412500X-0.650000X0.412500X-0.650000X-0.412500X0*%
%ADD42RotRect,2.000000X2.000000X225.000000*%
%ADD43HorizOval,2.000000X0.000000X0.000000X0.000000X0.000000X0*%
G04 APERTURE END LIST*
D10*
X58134000Y-23775200D02*
X60334000Y-23775200D01*
X50534000Y-23775200D02*
X52734000Y-23775200D01*
X40334000Y-23775200D02*
X42534000Y-23775200D01*
X75934000Y-23875200D02*
X78134000Y-23875200D01*
X65734000Y-29275200D02*
X67934000Y-29275200D01*
X83534000Y-29275200D02*
X85734000Y-29275200D01*
X70834000Y-23875200D02*
X73034000Y-23875200D01*
D11*
X65619714Y-41441866D02*
X65976857Y-41441866D01*
X65548285Y-41727580D02*
X65798285Y-40727580D01*
X66048285Y-41727580D01*
X66726857Y-41727580D02*
X66476857Y-41251390D01*
X66298285Y-41727580D02*
X66298285Y-40727580D01*
X66584000Y-40727580D01*
X66655428Y-40775200D01*
X66691142Y-40822819D01*
X66726857Y-40918057D01*
X66726857Y-41060914D01*
X66691142Y-41156152D01*
X66655428Y-41203771D01*
X66584000Y-41251390D01*
X66298285Y-41251390D01*
X67048285Y-41203771D02*
X67298285Y-41203771D01*
X67405428Y-41727580D02*
X67048285Y-41727580D01*
X67048285Y-40727580D01*
X67405428Y-40727580D01*
X67976857Y-41203771D02*
X67726857Y-41203771D01*
X67726857Y-41727580D02*
X67726857Y-40727580D01*
X68084000Y-40727580D01*
X45519714Y-41441866D02*
X45995904Y-41441866D01*
X45424476Y-41727580D02*
X45757809Y-40727580D01*
X46091142Y-41727580D01*
X46329238Y-40727580D02*
X46995904Y-40727580D01*
X46567333Y-41727580D01*
X66667333Y-61432342D02*
X66619714Y-61479961D01*
X66476857Y-61527580D01*
X66381619Y-61527580D01*
X66238761Y-61479961D01*
X66143523Y-61384723D01*
X66095904Y-61289485D01*
X66048285Y-61099009D01*
X66048285Y-60956152D01*
X66095904Y-60765676D01*
X66143523Y-60670438D01*
X66238761Y-60575200D01*
X66381619Y-60527580D01*
X66476857Y-60527580D01*
X66619714Y-60575200D01*
X66667333Y-60622819D01*
X67048285Y-61479961D02*
X67191142Y-61527580D01*
X67429238Y-61527580D01*
X67524476Y-61479961D01*
X67572095Y-61432342D01*
X67619714Y-61337104D01*
X67619714Y-61241866D01*
X67572095Y-61146628D01*
X67524476Y-61099009D01*
X67429238Y-61051390D01*
X67238761Y-61003771D01*
X67143523Y-60956152D01*
X67095904Y-60908533D01*
X67048285Y-60813295D01*
X67048285Y-60718057D01*
X67095904Y-60622819D01*
X67143523Y-60575200D01*
X67238761Y-60527580D01*
X67476857Y-60527580D01*
X67619714Y-60575200D01*
X41023285Y-41727580D02*
X40773285Y-41251390D01*
X40594714Y-41727580D02*
X40594714Y-40727580D01*
X40880428Y-40727580D01*
X40951857Y-40775200D01*
X40987571Y-40822819D01*
X41023285Y-40918057D01*
X41023285Y-41060914D01*
X40987571Y-41156152D01*
X40951857Y-41203771D01*
X40880428Y-41251390D01*
X40594714Y-41251390D01*
X41309000Y-41679961D02*
X41416142Y-41727580D01*
X41594714Y-41727580D01*
X41666142Y-41679961D01*
X41701857Y-41632342D01*
X41737571Y-41537104D01*
X41737571Y-41441866D01*
X41701857Y-41346628D01*
X41666142Y-41299009D01*
X41594714Y-41251390D01*
X41451857Y-41203771D01*
X41380428Y-41156152D01*
X41344714Y-41108533D01*
X41309000Y-41013295D01*
X41309000Y-40918057D01*
X41344714Y-40822819D01*
X41380428Y-40775200D01*
X41451857Y-40727580D01*
X41630428Y-40727580D01*
X41737571Y-40775200D01*
X41951857Y-40727580D02*
X42380428Y-40727580D01*
X42166142Y-41727580D02*
X42166142Y-40727580D01*
D12*
X116142857Y-57107142D02*
X116357142Y-57178571D01*
X116714285Y-57178571D01*
X116857142Y-57107142D01*
X116928571Y-57035714D01*
X117000000Y-56892857D01*
X117000000Y-56750000D01*
X116928571Y-56607142D01*
X116857142Y-56535714D01*
X116714285Y-56464285D01*
X116428571Y-56392857D01*
X116285714Y-56321428D01*
X116214285Y-56250000D01*
X116142857Y-56107142D01*
X116142857Y-55964285D01*
X116214285Y-55821428D01*
X116285714Y-55750000D01*
X116428571Y-55678571D01*
X116785714Y-55678571D01*
X117000000Y-55750000D01*
X117500000Y-55678571D02*
X117857142Y-57178571D01*
X118142857Y-56107142D01*
X118428571Y-57178571D01*
X118785714Y-55678571D01*
D11*
X55895904Y-61527580D02*
X55895904Y-60527580D01*
X56134000Y-60527580D01*
X56276857Y-60575200D01*
X56372095Y-60670438D01*
X56419714Y-60765676D01*
X56467333Y-60956152D01*
X56467333Y-61099009D01*
X56419714Y-61289485D01*
X56372095Y-61384723D01*
X56276857Y-61479961D01*
X56134000Y-61527580D01*
X55895904Y-61527580D01*
X57324476Y-60527580D02*
X57134000Y-60527580D01*
X57038761Y-60575200D01*
X56991142Y-60622819D01*
X56895904Y-60765676D01*
X56848285Y-60956152D01*
X56848285Y-61337104D01*
X56895904Y-61432342D01*
X56943523Y-61479961D01*
X57038761Y-61527580D01*
X57229238Y-61527580D01*
X57324476Y-61479961D01*
X57372095Y-61432342D01*
X57419714Y-61337104D01*
X57419714Y-61099009D01*
X57372095Y-61003771D01*
X57324476Y-60956152D01*
X57229238Y-60908533D01*
X57038761Y-60908533D01*
X56943523Y-60956152D01*
X56895904Y-61003771D01*
X56848285Y-61099009D01*
D12*
X100393571Y-42652142D02*
X101536428Y-42652142D01*
X100965000Y-43223571D02*
X100965000Y-42080714D01*
D11*
X48319714Y-41441866D02*
X48795904Y-41441866D01*
X48224476Y-41727580D02*
X48557809Y-40727580D01*
X48891142Y-41727580D01*
X49653047Y-40727580D02*
X49462571Y-40727580D01*
X49367333Y-40775200D01*
X49319714Y-40822819D01*
X49224476Y-40965676D01*
X49176857Y-41156152D01*
X49176857Y-41537104D01*
X49224476Y-41632342D01*
X49272095Y-41679961D01*
X49367333Y-41727580D01*
X49557809Y-41727580D01*
X49653047Y-41679961D01*
X49700666Y-41632342D01*
X49748285Y-41537104D01*
X49748285Y-41299009D01*
X49700666Y-41203771D01*
X49653047Y-41156152D01*
X49557809Y-41108533D01*
X49367333Y-41108533D01*
X49272095Y-41156152D01*
X49224476Y-41203771D01*
X49176857Y-41299009D01*
X58519714Y-41441866D02*
X58995904Y-41441866D01*
X58424476Y-41727580D02*
X58757809Y-40727580D01*
X59091142Y-41727580D01*
X59376857Y-40822819D02*
X59424476Y-40775200D01*
X59519714Y-40727580D01*
X59757809Y-40727580D01*
X59853047Y-40775200D01*
X59900666Y-40822819D01*
X59948285Y-40918057D01*
X59948285Y-41013295D01*
X59900666Y-41156152D01*
X59329238Y-41727580D01*
X59948285Y-41727580D01*
X70969714Y-41679961D02*
X71076857Y-41727580D01*
X71255428Y-41727580D01*
X71326857Y-41679961D01*
X71362571Y-41632342D01*
X71398285Y-41537104D01*
X71398285Y-41441866D01*
X71362571Y-41346628D01*
X71326857Y-41299009D01*
X71255428Y-41251390D01*
X71112571Y-41203771D01*
X71041142Y-41156152D01*
X71005428Y-41108533D01*
X70969714Y-41013295D01*
X70969714Y-40918057D01*
X71005428Y-40822819D01*
X71041142Y-40775200D01*
X71112571Y-40727580D01*
X71291142Y-40727580D01*
X71398285Y-40775200D01*
X72148285Y-41632342D02*
X72112571Y-41679961D01*
X72005428Y-41727580D01*
X71934000Y-41727580D01*
X71826857Y-41679961D01*
X71755428Y-41584723D01*
X71719714Y-41489485D01*
X71684000Y-41299009D01*
X71684000Y-41156152D01*
X71719714Y-40965676D01*
X71755428Y-40870438D01*
X71826857Y-40775200D01*
X71934000Y-40727580D01*
X72005428Y-40727580D01*
X72112571Y-40775200D01*
X72148285Y-40822819D01*
X72469714Y-41727580D02*
X72469714Y-40727580D01*
X72898285Y-41727580D02*
X72576857Y-41156152D01*
X72898285Y-40727580D02*
X72469714Y-41299009D01*
X50706857Y-62964961D02*
X50814000Y-63012580D01*
X50992571Y-63012580D01*
X51064000Y-62964961D01*
X51099714Y-62917342D01*
X51135428Y-62822104D01*
X51135428Y-62726866D01*
X51099714Y-62631628D01*
X51064000Y-62584009D01*
X50992571Y-62536390D01*
X50849714Y-62488771D01*
X50778285Y-62441152D01*
X50742571Y-62393533D01*
X50706857Y-62298295D01*
X50706857Y-62203057D01*
X50742571Y-62107819D01*
X50778285Y-62060200D01*
X50849714Y-62012580D01*
X51028285Y-62012580D01*
X51135428Y-62060200D01*
X51456857Y-63012580D02*
X51456857Y-62012580D01*
X51635428Y-62012580D01*
X51742571Y-62060200D01*
X51814000Y-62155438D01*
X51849714Y-62250676D01*
X51885428Y-62441152D01*
X51885428Y-62584009D01*
X51849714Y-62774485D01*
X51814000Y-62869723D01*
X51742571Y-62964961D01*
X51635428Y-63012580D01*
X51456857Y-63012580D01*
X52206857Y-63012580D02*
X52206857Y-62012580D01*
X52635428Y-63012580D01*
X52635428Y-62012580D01*
X63269714Y-30379961D02*
X63376857Y-30427580D01*
X63555428Y-30427580D01*
X63626857Y-30379961D01*
X63662571Y-30332342D01*
X63698285Y-30237104D01*
X63698285Y-30141866D01*
X63662571Y-30046628D01*
X63626857Y-29999009D01*
X63555428Y-29951390D01*
X63412571Y-29903771D01*
X63341142Y-29856152D01*
X63305428Y-29808533D01*
X63269714Y-29713295D01*
X63269714Y-29618057D01*
X63305428Y-29522819D01*
X63341142Y-29475200D01*
X63412571Y-29427580D01*
X63591142Y-29427580D01*
X63698285Y-29475200D01*
X64448285Y-30332342D02*
X64412571Y-30379961D01*
X64305428Y-30427580D01*
X64234000Y-30427580D01*
X64126857Y-30379961D01*
X64055428Y-30284723D01*
X64019714Y-30189485D01*
X63984000Y-29999009D01*
X63984000Y-29856152D01*
X64019714Y-29665676D01*
X64055428Y-29570438D01*
X64126857Y-29475200D01*
X64234000Y-29427580D01*
X64305428Y-29427580D01*
X64412571Y-29475200D01*
X64448285Y-29522819D01*
X64769714Y-30427580D02*
X64769714Y-29427580D01*
X65198285Y-30427580D02*
X64876857Y-29856152D01*
X65198285Y-29427580D02*
X64769714Y-29999009D01*
X63619714Y-41441866D02*
X64095904Y-41441866D01*
X63524476Y-41727580D02*
X63857809Y-40727580D01*
X64191142Y-41727580D01*
X64714952Y-40727580D02*
X64810190Y-40727580D01*
X64905428Y-40775200D01*
X64953047Y-40822819D01*
X65000666Y-40918057D01*
X65048285Y-41108533D01*
X65048285Y-41346628D01*
X65000666Y-41537104D01*
X64953047Y-41632342D01*
X64905428Y-41679961D01*
X64810190Y-41727580D01*
X64714952Y-41727580D01*
X64619714Y-41679961D01*
X64572095Y-41632342D01*
X64524476Y-41537104D01*
X64476857Y-41346628D01*
X64476857Y-41108533D01*
X64524476Y-40918057D01*
X64572095Y-40822819D01*
X64619714Y-40775200D01*
X64714952Y-40727580D01*
X58019714Y-30332342D02*
X57984000Y-30379961D01*
X57876857Y-30427580D01*
X57805428Y-30427580D01*
X57698285Y-30379961D01*
X57626857Y-30284723D01*
X57591142Y-30189485D01*
X57555428Y-29999009D01*
X57555428Y-29856152D01*
X57591142Y-29665676D01*
X57626857Y-29570438D01*
X57698285Y-29475200D01*
X57805428Y-29427580D01*
X57876857Y-29427580D01*
X57984000Y-29475200D01*
X58019714Y-29522819D01*
X58484000Y-29427580D02*
X58626857Y-29427580D01*
X58698285Y-29475200D01*
X58769714Y-29570438D01*
X58805428Y-29760914D01*
X58805428Y-30094247D01*
X58769714Y-30284723D01*
X58698285Y-30379961D01*
X58626857Y-30427580D01*
X58484000Y-30427580D01*
X58412571Y-30379961D01*
X58341142Y-30284723D01*
X58305428Y-30094247D01*
X58305428Y-29760914D01*
X58341142Y-29570438D01*
X58412571Y-29475200D01*
X58484000Y-29427580D01*
X59126857Y-30427580D02*
X59126857Y-29427580D01*
X59412571Y-29427580D01*
X59484000Y-29475200D01*
X59519714Y-29522819D01*
X59555428Y-29618057D01*
X59555428Y-29760914D01*
X59519714Y-29856152D01*
X59484000Y-29903771D01*
X59412571Y-29951390D01*
X59126857Y-29951390D01*
X59876857Y-30427580D02*
X59876857Y-29427580D01*
D12*
X101770571Y-40397857D02*
X100270571Y-40397857D01*
X100270571Y-40040714D01*
X100342000Y-39826428D01*
X100484857Y-39683571D01*
X100627714Y-39612142D01*
X100913428Y-39540714D01*
X101127714Y-39540714D01*
X101413428Y-39612142D01*
X101556285Y-39683571D01*
X101699142Y-39826428D01*
X101770571Y-40040714D01*
X101770571Y-40397857D01*
D11*
X48295904Y-61527580D02*
X48295904Y-60527580D01*
X48534000Y-60527580D01*
X48676857Y-60575200D01*
X48772095Y-60670438D01*
X48819714Y-60765676D01*
X48867333Y-60956152D01*
X48867333Y-61099009D01*
X48819714Y-61289485D01*
X48772095Y-61384723D01*
X48676857Y-61479961D01*
X48534000Y-61527580D01*
X48295904Y-61527580D01*
X49200666Y-60527580D02*
X49819714Y-60527580D01*
X49486380Y-60908533D01*
X49629238Y-60908533D01*
X49724476Y-60956152D01*
X49772095Y-61003771D01*
X49819714Y-61099009D01*
X49819714Y-61337104D01*
X49772095Y-61432342D01*
X49724476Y-61479961D01*
X49629238Y-61527580D01*
X49343523Y-61527580D01*
X49248285Y-61479961D01*
X49200666Y-61432342D01*
X45841142Y-63067580D02*
X45841142Y-62067580D01*
X46626857Y-63067580D02*
X46376857Y-62591390D01*
X46198285Y-63067580D02*
X46198285Y-62067580D01*
X46484000Y-62067580D01*
X46555428Y-62115200D01*
X46591142Y-62162819D01*
X46626857Y-62258057D01*
X46626857Y-62400914D01*
X46591142Y-62496152D01*
X46555428Y-62543771D01*
X46484000Y-62591390D01*
X46198285Y-62591390D01*
X47448285Y-63162819D02*
X47376857Y-63115200D01*
X47305428Y-63019961D01*
X47198285Y-62877104D01*
X47126857Y-62829485D01*
X47055428Y-62829485D01*
X47091142Y-63067580D02*
X47019714Y-63019961D01*
X46948285Y-62924723D01*
X46912571Y-62734247D01*
X46912571Y-62400914D01*
X46948285Y-62210438D01*
X47019714Y-62115200D01*
X47091142Y-62067580D01*
X47234000Y-62067580D01*
X47305428Y-62115200D01*
X47376857Y-62210438D01*
X47412571Y-62400914D01*
X47412571Y-62734247D01*
X47376857Y-62924723D01*
X47305428Y-63019961D01*
X47234000Y-63067580D01*
X47091142Y-63067580D01*
X35572095Y-60627580D02*
X36143523Y-60627580D01*
X35857809Y-61627580D02*
X35857809Y-60627580D01*
X36381619Y-60627580D02*
X37048285Y-61627580D01*
X37048285Y-60627580D02*
X36381619Y-61627580D01*
X53371857Y-62979961D02*
X53514714Y-63027580D01*
X53752809Y-63027580D01*
X53848047Y-62979961D01*
X53895666Y-62932342D01*
X53943285Y-62837104D01*
X53943285Y-62741866D01*
X53895666Y-62646628D01*
X53848047Y-62599009D01*
X53752809Y-62551390D01*
X53562333Y-62503771D01*
X53467095Y-62456152D01*
X53419476Y-62408533D01*
X53371857Y-62313295D01*
X53371857Y-62218057D01*
X53419476Y-62122819D01*
X53467095Y-62075200D01*
X53562333Y-62027580D01*
X53800428Y-62027580D01*
X53943285Y-62075200D01*
X54276619Y-62027580D02*
X54514714Y-63027580D01*
X54705190Y-62313295D01*
X54895666Y-63027580D01*
X55133761Y-62027580D01*
X50919714Y-41441866D02*
X51395904Y-41441866D01*
X50824476Y-41727580D02*
X51157809Y-40727580D01*
X51491142Y-41727580D01*
X52300666Y-40727580D02*
X51824476Y-40727580D01*
X51776857Y-41203771D01*
X51824476Y-41156152D01*
X51919714Y-41108533D01*
X52157809Y-41108533D01*
X52253047Y-41156152D01*
X52300666Y-41203771D01*
X52348285Y-41299009D01*
X52348285Y-41537104D01*
X52300666Y-41632342D01*
X52253047Y-41679961D01*
X52157809Y-41727580D01*
X51919714Y-41727580D01*
X51824476Y-41679961D01*
X51776857Y-41632342D01*
X68326857Y-40727580D02*
X68791142Y-40727580D01*
X68541142Y-41108533D01*
X68648285Y-41108533D01*
X68719714Y-41156152D01*
X68755428Y-41203771D01*
X68791142Y-41299009D01*
X68791142Y-41537104D01*
X68755428Y-41632342D01*
X68719714Y-41679961D01*
X68648285Y-41727580D01*
X68434000Y-41727580D01*
X68362571Y-41679961D01*
X68326857Y-41632342D01*
X69112571Y-41632342D02*
X69148285Y-41679961D01*
X69112571Y-41727580D01*
X69076857Y-41679961D01*
X69112571Y-41632342D01*
X69112571Y-41727580D01*
X69398285Y-40727580D02*
X69862571Y-40727580D01*
X69612571Y-41108533D01*
X69719714Y-41108533D01*
X69791142Y-41156152D01*
X69826857Y-41203771D01*
X69862571Y-41299009D01*
X69862571Y-41537104D01*
X69826857Y-41632342D01*
X69791142Y-41679961D01*
X69719714Y-41727580D01*
X69505428Y-41727580D01*
X69434000Y-41679961D01*
X69398285Y-41632342D01*
X70076857Y-40727580D02*
X70326857Y-41727580D01*
X70576857Y-40727580D01*
X68519714Y-61432342D02*
X68484000Y-61479961D01*
X68376857Y-61527580D01*
X68305428Y-61527580D01*
X68198285Y-61479961D01*
X68126857Y-61384723D01*
X68091142Y-61289485D01*
X68055428Y-61099009D01*
X68055428Y-60956152D01*
X68091142Y-60765676D01*
X68126857Y-60670438D01*
X68198285Y-60575200D01*
X68305428Y-60527580D01*
X68376857Y-60527580D01*
X68484000Y-60575200D01*
X68519714Y-60622819D01*
X68984000Y-60527580D02*
X69126857Y-60527580D01*
X69198285Y-60575200D01*
X69269714Y-60670438D01*
X69305428Y-60860914D01*
X69305428Y-61194247D01*
X69269714Y-61384723D01*
X69198285Y-61479961D01*
X69126857Y-61527580D01*
X68984000Y-61527580D01*
X68912571Y-61479961D01*
X68841142Y-61384723D01*
X68805428Y-61194247D01*
X68805428Y-60860914D01*
X68841142Y-60670438D01*
X68912571Y-60575200D01*
X68984000Y-60527580D01*
X69626857Y-61527580D02*
X69626857Y-60527580D01*
X69912571Y-60527580D01*
X69984000Y-60575200D01*
X70019714Y-60622819D01*
X70055428Y-60718057D01*
X70055428Y-60860914D01*
X70019714Y-60956152D01*
X69984000Y-61003771D01*
X69912571Y-61051390D01*
X69626857Y-61051390D01*
X70376857Y-61527580D02*
X70376857Y-60527580D01*
X61019714Y-41441866D02*
X61495904Y-41441866D01*
X60924476Y-41727580D02*
X61257809Y-40727580D01*
X61591142Y-41727580D01*
X62448285Y-41727580D02*
X61876857Y-41727580D01*
X62162571Y-41727580D02*
X62162571Y-40727580D01*
X62067333Y-40870438D01*
X61972095Y-40965676D01*
X61876857Y-41013295D01*
D12*
X116142857Y-50678571D02*
X116500000Y-52178571D01*
X116785714Y-51107142D01*
X117071428Y-52178571D01*
X117428571Y-50678571D01*
X117928571Y-52107142D02*
X118142857Y-52178571D01*
X118500000Y-52178571D01*
X118642857Y-52107142D01*
X118714285Y-52035714D01*
X118785714Y-51892857D01*
X118785714Y-51750000D01*
X118714285Y-51607142D01*
X118642857Y-51535714D01*
X118500000Y-51464285D01*
X118214285Y-51392857D01*
X118071428Y-51321428D01*
X118000000Y-51250000D01*
X117928571Y-51107142D01*
X117928571Y-50964285D01*
X118000000Y-50821428D01*
X118071428Y-50750000D01*
X118214285Y-50678571D01*
X118571428Y-50678571D01*
X118785714Y-50750000D01*
D11*
X38567333Y-61627580D02*
X38234000Y-61151390D01*
X37995904Y-61627580D02*
X37995904Y-60627580D01*
X38376857Y-60627580D01*
X38472095Y-60675200D01*
X38519714Y-60722819D01*
X38567333Y-60818057D01*
X38567333Y-60960914D01*
X38519714Y-61056152D01*
X38472095Y-61103771D01*
X38376857Y-61151390D01*
X37995904Y-61151390D01*
X38900666Y-60627580D02*
X39567333Y-61627580D01*
X39567333Y-60627580D02*
X38900666Y-61627580D01*
X63595904Y-61527580D02*
X63595904Y-60527580D01*
X63834000Y-60527580D01*
X63976857Y-60575200D01*
X64072095Y-60670438D01*
X64119714Y-60765676D01*
X64167333Y-60956152D01*
X64167333Y-61099009D01*
X64119714Y-61289485D01*
X64072095Y-61384723D01*
X63976857Y-61479961D01*
X63834000Y-61527580D01*
X63595904Y-61527580D01*
X64643523Y-61527580D02*
X64834000Y-61527580D01*
X64929238Y-61479961D01*
X64976857Y-61432342D01*
X65072095Y-61289485D01*
X65119714Y-61099009D01*
X65119714Y-60718057D01*
X65072095Y-60622819D01*
X65024476Y-60575200D01*
X64929238Y-60527580D01*
X64738761Y-60527580D01*
X64643523Y-60575200D01*
X64595904Y-60622819D01*
X64548285Y-60718057D01*
X64548285Y-60956152D01*
X64595904Y-61051390D01*
X64643523Y-61099009D01*
X64738761Y-61146628D01*
X64929238Y-61146628D01*
X65024476Y-61099009D01*
X65072095Y-61051390D01*
X65119714Y-60956152D01*
X58495904Y-61527580D02*
X58495904Y-60527580D01*
X58734000Y-60527580D01*
X58876857Y-60575200D01*
X58972095Y-60670438D01*
X59019714Y-60765676D01*
X59067333Y-60956152D01*
X59067333Y-61099009D01*
X59019714Y-61289485D01*
X58972095Y-61384723D01*
X58876857Y-61479961D01*
X58734000Y-61527580D01*
X58495904Y-61527580D01*
X59400666Y-60527580D02*
X60067333Y-60527580D01*
X59638761Y-61527580D01*
X71519714Y-61432342D02*
X71484000Y-61479961D01*
X71376857Y-61527580D01*
X71305428Y-61527580D01*
X71198285Y-61479961D01*
X71126857Y-61384723D01*
X71091142Y-61289485D01*
X71055428Y-61099009D01*
X71055428Y-60956152D01*
X71091142Y-60765676D01*
X71126857Y-60670438D01*
X71198285Y-60575200D01*
X71305428Y-60527580D01*
X71376857Y-60527580D01*
X71484000Y-60575200D01*
X71519714Y-60622819D01*
X71841142Y-61527580D02*
X71841142Y-60527580D01*
X72198285Y-61527580D02*
X72198285Y-60527580D01*
X72484000Y-60527580D01*
X72555428Y-60575200D01*
X72591142Y-60622819D01*
X72626857Y-60718057D01*
X72626857Y-60860914D01*
X72591142Y-60956152D01*
X72555428Y-61003771D01*
X72484000Y-61051390D01*
X72198285Y-61051390D01*
X73091142Y-60527580D02*
X73234000Y-60527580D01*
X73305428Y-60575200D01*
X73376857Y-60670438D01*
X73412571Y-60860914D01*
X73412571Y-61194247D01*
X73376857Y-61384723D01*
X73305428Y-61479961D01*
X73234000Y-61527580D01*
X73091142Y-61527580D01*
X73019714Y-61479961D01*
X72948285Y-61384723D01*
X72912571Y-61194247D01*
X72912571Y-60860914D01*
X72948285Y-60670438D01*
X73019714Y-60575200D01*
X73091142Y-60527580D01*
X61019714Y-30307342D02*
X60984000Y-30354961D01*
X60876857Y-30402580D01*
X60805428Y-30402580D01*
X60698285Y-30354961D01*
X60626857Y-30259723D01*
X60591142Y-30164485D01*
X60555428Y-29974009D01*
X60555428Y-29831152D01*
X60591142Y-29640676D01*
X60626857Y-29545438D01*
X60698285Y-29450200D01*
X60805428Y-29402580D01*
X60876857Y-29402580D01*
X60984000Y-29450200D01*
X61019714Y-29497819D01*
X61341142Y-30402580D02*
X61341142Y-29402580D01*
X61698285Y-30402580D02*
X61698285Y-29402580D01*
X61984000Y-29402580D01*
X62055428Y-29450200D01*
X62091142Y-29497819D01*
X62126857Y-29593057D01*
X62126857Y-29735914D01*
X62091142Y-29831152D01*
X62055428Y-29878771D01*
X61984000Y-29926390D01*
X61698285Y-29926390D01*
X62591142Y-29402580D02*
X62734000Y-29402580D01*
X62805428Y-29450200D01*
X62876857Y-29545438D01*
X62912571Y-29735914D01*
X62912571Y-30069247D01*
X62876857Y-30259723D01*
X62805428Y-30354961D01*
X62734000Y-30402580D01*
X62591142Y-30402580D01*
X62519714Y-30354961D01*
X62448285Y-30259723D01*
X62412571Y-30069247D01*
X62412571Y-29735914D01*
X62448285Y-29545438D01*
X62519714Y-29450200D01*
X62591142Y-29402580D01*
X56019714Y-41441866D02*
X56495904Y-41441866D01*
X55924476Y-41727580D02*
X56257809Y-40727580D01*
X56591142Y-41727580D01*
X56829238Y-40727580D02*
X57448285Y-40727580D01*
X57114952Y-41108533D01*
X57257809Y-41108533D01*
X57353047Y-41156152D01*
X57400666Y-41203771D01*
X57448285Y-41299009D01*
X57448285Y-41537104D01*
X57400666Y-41632342D01*
X57353047Y-41679961D01*
X57257809Y-41727580D01*
X56972095Y-41727580D01*
X56876857Y-41679961D01*
X56829238Y-41632342D01*
X35512571Y-40727580D02*
X35762571Y-41727580D01*
X36012571Y-40727580D01*
X36262571Y-41727580D02*
X36262571Y-40727580D01*
X36619714Y-41727580D02*
X36619714Y-40727580D01*
X37048285Y-41727580D01*
X37048285Y-40727580D01*
X53419714Y-41441866D02*
X53895904Y-41441866D01*
X53324476Y-41727580D02*
X53657809Y-40727580D01*
X53991142Y-41727580D01*
X54753047Y-41060914D02*
X54753047Y-41727580D01*
X54514952Y-40679961D02*
X54276857Y-41394247D01*
X54895904Y-41394247D01*
D12*
X80212571Y-43732342D02*
X81355428Y-43732342D01*
X80784000Y-44303771D02*
X80784000Y-43160914D01*
X117214285Y-45750000D02*
X117071428Y-45678571D01*
X116857142Y-45678571D01*
X116642857Y-45750000D01*
X116500000Y-45892857D01*
X116428571Y-46035714D01*
X116357142Y-46321428D01*
X116357142Y-46535714D01*
X116428571Y-46821428D01*
X116500000Y-46964285D01*
X116642857Y-47107142D01*
X116857142Y-47178571D01*
X117000000Y-47178571D01*
X117214285Y-47107142D01*
X117285714Y-47035714D01*
X117285714Y-46535714D01*
X117000000Y-46535714D01*
X117928571Y-46392857D02*
X118428571Y-46392857D01*
X118642857Y-47178571D02*
X117928571Y-47178571D01*
X117928571Y-45678571D01*
X118642857Y-45678571D01*
D11*
X50895904Y-61527580D02*
X50895904Y-60527580D01*
X51134000Y-60527580D01*
X51276857Y-60575200D01*
X51372095Y-60670438D01*
X51419714Y-60765676D01*
X51467333Y-60956152D01*
X51467333Y-61099009D01*
X51419714Y-61289485D01*
X51372095Y-61384723D01*
X51276857Y-61479961D01*
X51134000Y-61527580D01*
X50895904Y-61527580D01*
X52324476Y-60860914D02*
X52324476Y-61527580D01*
X52086380Y-60479961D02*
X51848285Y-61194247D01*
X52467333Y-61194247D01*
D12*
X100393571Y-45192142D02*
X101536428Y-45192142D01*
D11*
X53395904Y-61527580D02*
X53395904Y-60527580D01*
X53634000Y-60527580D01*
X53776857Y-60575200D01*
X53872095Y-60670438D01*
X53919714Y-60765676D01*
X53967333Y-60956152D01*
X53967333Y-61099009D01*
X53919714Y-61289485D01*
X53872095Y-61384723D01*
X53776857Y-61479961D01*
X53634000Y-61527580D01*
X53395904Y-61527580D01*
X54872095Y-60527580D02*
X54395904Y-60527580D01*
X54348285Y-61003771D01*
X54395904Y-60956152D01*
X54491142Y-60908533D01*
X54729238Y-60908533D01*
X54824476Y-60956152D01*
X54872095Y-61003771D01*
X54919714Y-61099009D01*
X54919714Y-61337104D01*
X54872095Y-61432342D01*
X54824476Y-61479961D01*
X54729238Y-61527580D01*
X54491142Y-61527580D01*
X54395904Y-61479961D01*
X54348285Y-61432342D01*
X43362571Y-60675200D02*
X43291142Y-60627580D01*
X43184000Y-60627580D01*
X43076857Y-60675200D01*
X43005428Y-60770438D01*
X42969714Y-60865676D01*
X42934000Y-61056152D01*
X42934000Y-61199009D01*
X42969714Y-61389485D01*
X43005428Y-61484723D01*
X43076857Y-61579961D01*
X43184000Y-61627580D01*
X43255428Y-61627580D01*
X43362571Y-61579961D01*
X43398285Y-61532342D01*
X43398285Y-61199009D01*
X43255428Y-61199009D01*
X43719714Y-61627580D02*
X43719714Y-60627580D01*
X44148285Y-61627580D01*
X44148285Y-60627580D01*
X44505428Y-61627580D02*
X44505428Y-60627580D01*
X44684000Y-60627580D01*
X44791142Y-60675200D01*
X44862571Y-60770438D01*
X44898285Y-60865676D01*
X44934000Y-61056152D01*
X44934000Y-61199009D01*
X44898285Y-61389485D01*
X44862571Y-61484723D01*
X44791142Y-61579961D01*
X44684000Y-61627580D01*
X44505428Y-61627580D01*
X61095904Y-61527580D02*
X61095904Y-60527580D01*
X61334000Y-60527580D01*
X61476857Y-60575200D01*
X61572095Y-60670438D01*
X61619714Y-60765676D01*
X61667333Y-60956152D01*
X61667333Y-61099009D01*
X61619714Y-61289485D01*
X61572095Y-61384723D01*
X61476857Y-61479961D01*
X61334000Y-61527580D01*
X61095904Y-61527580D01*
X62238761Y-60956152D02*
X62143523Y-60908533D01*
X62095904Y-60860914D01*
X62048285Y-60765676D01*
X62048285Y-60718057D01*
X62095904Y-60622819D01*
X62143523Y-60575200D01*
X62238761Y-60527580D01*
X62429238Y-60527580D01*
X62524476Y-60575200D01*
X62572095Y-60622819D01*
X62619714Y-60718057D01*
X62619714Y-60765676D01*
X62572095Y-60860914D01*
X62524476Y-60908533D01*
X62429238Y-60956152D01*
X62238761Y-60956152D01*
X62143523Y-61003771D01*
X62095904Y-61051390D01*
X62048285Y-61146628D01*
X62048285Y-61337104D01*
X62095904Y-61432342D01*
X62143523Y-61479961D01*
X62238761Y-61527580D01*
X62429238Y-61527580D01*
X62524476Y-61479961D01*
X62572095Y-61432342D01*
X62619714Y-61337104D01*
X62619714Y-61146628D01*
X62572095Y-61051390D01*
X62524476Y-61003771D01*
X62429238Y-60956152D01*
X45795904Y-61527580D02*
X45795904Y-60527580D01*
X46034000Y-60527580D01*
X46176857Y-60575200D01*
X46272095Y-60670438D01*
X46319714Y-60765676D01*
X46367333Y-60956152D01*
X46367333Y-61099009D01*
X46319714Y-61289485D01*
X46272095Y-61384723D01*
X46176857Y-61479961D01*
X46034000Y-61527580D01*
X45795904Y-61527580D01*
X46748285Y-60622819D02*
X46795904Y-60575200D01*
X46891142Y-60527580D01*
X47129238Y-60527580D01*
X47224476Y-60575200D01*
X47272095Y-60622819D01*
X47319714Y-60718057D01*
X47319714Y-60813295D01*
X47272095Y-60956152D01*
X46700666Y-61527580D01*
X47319714Y-61527580D01*
X40923285Y-61627580D02*
X40673285Y-61151390D01*
X40494714Y-61627580D02*
X40494714Y-60627580D01*
X40780428Y-60627580D01*
X40851857Y-60675200D01*
X40887571Y-60722819D01*
X40923285Y-60818057D01*
X40923285Y-60960914D01*
X40887571Y-61056152D01*
X40851857Y-61103771D01*
X40780428Y-61151390D01*
X40494714Y-61151390D01*
X41209000Y-61579961D02*
X41316142Y-61627580D01*
X41494714Y-61627580D01*
X41566142Y-61579961D01*
X41601857Y-61532342D01*
X41637571Y-61437104D01*
X41637571Y-61341866D01*
X41601857Y-61246628D01*
X41566142Y-61199009D01*
X41494714Y-61151390D01*
X41351857Y-61103771D01*
X41280428Y-61056152D01*
X41244714Y-61008533D01*
X41209000Y-60913295D01*
X41209000Y-60818057D01*
X41244714Y-60722819D01*
X41280428Y-60675200D01*
X41351857Y-60627580D01*
X41530428Y-60627580D01*
X41637571Y-60675200D01*
X41851857Y-60627580D02*
X42280428Y-60627580D01*
X42066142Y-61627580D02*
X42066142Y-60627580D01*
D12*
X80212571Y-46332342D02*
X81355428Y-46332342D01*
D11*
X48291857Y-63027580D02*
X48291857Y-62027580D01*
X48577571Y-62027580D01*
X48649000Y-62075200D01*
X48684714Y-62122819D01*
X48720428Y-62218057D01*
X48720428Y-62360914D01*
X48684714Y-62456152D01*
X48649000Y-62503771D01*
X48577571Y-62551390D01*
X48291857Y-62551390D01*
X49399000Y-63027580D02*
X49041857Y-63027580D01*
X49041857Y-62027580D01*
X49613285Y-62979961D02*
X49720428Y-63027580D01*
X49899000Y-63027580D01*
X49970428Y-62979961D01*
X50006142Y-62932342D01*
X50041857Y-62837104D01*
X50041857Y-62741866D01*
X50006142Y-62646628D01*
X49970428Y-62599009D01*
X49899000Y-62551390D01*
X49756142Y-62503771D01*
X49684714Y-62456152D01*
X49649000Y-62408533D01*
X49613285Y-62313295D01*
X49613285Y-62218057D01*
X49649000Y-62122819D01*
X49684714Y-62075200D01*
X49756142Y-62027580D01*
X49934714Y-62027580D01*
X50041857Y-62075200D01*
X38262571Y-40775200D02*
X38191142Y-40727580D01*
X38084000Y-40727580D01*
X37976857Y-40775200D01*
X37905428Y-40870438D01*
X37869714Y-40965676D01*
X37834000Y-41156152D01*
X37834000Y-41299009D01*
X37869714Y-41489485D01*
X37905428Y-41584723D01*
X37976857Y-41679961D01*
X38084000Y-41727580D01*
X38155428Y-41727580D01*
X38262571Y-41679961D01*
X38298285Y-41632342D01*
X38298285Y-41299009D01*
X38155428Y-41299009D01*
X38619714Y-41727580D02*
X38619714Y-40727580D01*
X39048285Y-41727580D01*
X39048285Y-40727580D01*
X39405428Y-41727580D02*
X39405428Y-40727580D01*
X39584000Y-40727580D01*
X39691142Y-40775200D01*
X39762571Y-40870438D01*
X39798285Y-40965676D01*
X39834000Y-41156152D01*
X39834000Y-41299009D01*
X39798285Y-41489485D01*
X39762571Y-41584723D01*
X39691142Y-41679961D01*
X39584000Y-41727580D01*
X39405428Y-41727580D01*
X66072095Y-69827580D02*
X66072095Y-70637104D01*
X66119714Y-70732342D01*
X66167333Y-70779961D01*
X66262571Y-70827580D01*
X66453047Y-70827580D01*
X66548285Y-70779961D01*
X66595904Y-70732342D01*
X66643523Y-70637104D01*
X66643523Y-69827580D01*
X67548285Y-70160914D02*
X67548285Y-70827580D01*
X67310190Y-69779961D02*
X67072095Y-70494247D01*
X67691142Y-70494247D01*
X89228704Y-40653980D02*
X89228704Y-39653980D01*
X89466800Y-39653980D01*
X89609657Y-39701600D01*
X89704895Y-39796838D01*
X89752514Y-39892076D01*
X89800133Y-40082552D01*
X89800133Y-40225409D01*
X89752514Y-40415885D01*
X89704895Y-40511123D01*
X89609657Y-40606361D01*
X89466800Y-40653980D01*
X89228704Y-40653980D01*
X90657276Y-39653980D02*
X90466800Y-39653980D01*
X90371561Y-39701600D01*
X90323942Y-39749219D01*
X90228704Y-39892076D01*
X90181085Y-40082552D01*
X90181085Y-40463504D01*
X90228704Y-40558742D01*
X90276323Y-40606361D01*
X90371561Y-40653980D01*
X90562038Y-40653980D01*
X90657276Y-40606361D01*
X90704895Y-40558742D01*
X90752514Y-40463504D01*
X90752514Y-40225409D01*
X90704895Y-40130171D01*
X90657276Y-40082552D01*
X90562038Y-40034933D01*
X90371561Y-40034933D01*
X90276323Y-40082552D01*
X90228704Y-40130171D01*
X90181085Y-40225409D01*
X109688333Y-50522142D02*
X109640714Y-50569761D01*
X109497857Y-50617380D01*
X109402619Y-50617380D01*
X109259761Y-50569761D01*
X109164523Y-50474523D01*
X109116904Y-50379285D01*
X109069285Y-50188809D01*
X109069285Y-50045952D01*
X109116904Y-49855476D01*
X109164523Y-49760238D01*
X109259761Y-49665000D01*
X109402619Y-49617380D01*
X109497857Y-49617380D01*
X109640714Y-49665000D01*
X109688333Y-49712619D01*
X110640714Y-50617380D02*
X110069285Y-50617380D01*
X110355000Y-50617380D02*
X110355000Y-49617380D01*
X110259761Y-49760238D01*
X110164523Y-49855476D01*
X110069285Y-49903095D01*
X83100666Y-47897580D02*
X83100666Y-48611866D01*
X83053047Y-48754723D01*
X82957809Y-48849961D01*
X82814952Y-48897580D01*
X82719714Y-48897580D01*
X84005428Y-48230914D02*
X84005428Y-48897580D01*
X83767333Y-47849961D02*
X83529238Y-48564247D01*
X84148285Y-48564247D01*
X85621904Y-53538380D02*
X85621904Y-52538380D01*
X85860000Y-52538380D01*
X86002857Y-52586000D01*
X86098095Y-52681238D01*
X86145714Y-52776476D01*
X86193333Y-52966952D01*
X86193333Y-53109809D01*
X86145714Y-53300285D01*
X86098095Y-53395523D01*
X86002857Y-53490761D01*
X85860000Y-53538380D01*
X85621904Y-53538380D01*
X86669523Y-53538380D02*
X86860000Y-53538380D01*
X86955238Y-53490761D01*
X87002857Y-53443142D01*
X87098095Y-53300285D01*
X87145714Y-53109809D01*
X87145714Y-52728857D01*
X87098095Y-52633619D01*
X87050476Y-52586000D01*
X86955238Y-52538380D01*
X86764761Y-52538380D01*
X86669523Y-52586000D01*
X86621904Y-52633619D01*
X86574285Y-52728857D01*
X86574285Y-52966952D01*
X86621904Y-53062190D01*
X86669523Y-53109809D01*
X86764761Y-53157428D01*
X86955238Y-53157428D01*
X87050476Y-53109809D01*
X87098095Y-53062190D01*
X87145714Y-52966952D01*
X89209714Y-53538380D02*
X89209714Y-52538380D01*
X89447809Y-52538380D01*
X89590666Y-52586000D01*
X89685904Y-52681238D01*
X89733523Y-52776476D01*
X89781142Y-52966952D01*
X89781142Y-53109809D01*
X89733523Y-53300285D01*
X89685904Y-53395523D01*
X89590666Y-53490761D01*
X89447809Y-53538380D01*
X89209714Y-53538380D01*
X90733523Y-53538380D02*
X90162095Y-53538380D01*
X90447809Y-53538380D02*
X90447809Y-52538380D01*
X90352571Y-52681238D01*
X90257333Y-52776476D01*
X90162095Y-52824095D01*
X91352571Y-52538380D02*
X91447809Y-52538380D01*
X91543047Y-52586000D01*
X91590666Y-52633619D01*
X91638285Y-52728857D01*
X91685904Y-52919333D01*
X91685904Y-53157428D01*
X91638285Y-53347904D01*
X91590666Y-53443142D01*
X91543047Y-53490761D01*
X91447809Y-53538380D01*
X91352571Y-53538380D01*
X91257333Y-53490761D01*
X91209714Y-53443142D01*
X91162095Y-53347904D01*
X91114476Y-53157428D01*
X91114476Y-52919333D01*
X91162095Y-52728857D01*
X91209714Y-52633619D01*
X91257333Y-52586000D01*
X91352571Y-52538380D01*
X121181904Y-72207380D02*
X121181904Y-71207380D01*
X121420000Y-71207380D01*
X121562857Y-71255000D01*
X121658095Y-71350238D01*
X121705714Y-71445476D01*
X121753333Y-71635952D01*
X121753333Y-71778809D01*
X121705714Y-71969285D01*
X121658095Y-72064523D01*
X121562857Y-72159761D01*
X121420000Y-72207380D01*
X121181904Y-72207380D01*
X122134285Y-71302619D02*
X122181904Y-71255000D01*
X122277142Y-71207380D01*
X122515238Y-71207380D01*
X122610476Y-71255000D01*
X122658095Y-71302619D01*
X122705714Y-71397857D01*
X122705714Y-71493095D01*
X122658095Y-71635952D01*
X122086666Y-72207380D01*
X122705714Y-72207380D01*
X121181904Y-37917380D02*
X121181904Y-36917380D01*
X121420000Y-36917380D01*
X121562857Y-36965000D01*
X121658095Y-37060238D01*
X121705714Y-37155476D01*
X121753333Y-37345952D01*
X121753333Y-37488809D01*
X121705714Y-37679285D01*
X121658095Y-37774523D01*
X121562857Y-37869761D01*
X121420000Y-37917380D01*
X121181904Y-37917380D01*
X122705714Y-37917380D02*
X122134285Y-37917380D01*
X122420000Y-37917380D02*
X122420000Y-36917380D01*
X122324761Y-37060238D01*
X122229523Y-37155476D01*
X122134285Y-37203095D01*
X97456666Y-47570380D02*
X97456666Y-48284666D01*
X97409047Y-48427523D01*
X97313809Y-48522761D01*
X97170952Y-48570380D01*
X97075714Y-48570380D01*
X97837619Y-47570380D02*
X98456666Y-47570380D01*
X98123333Y-47951333D01*
X98266190Y-47951333D01*
X98361428Y-47998952D01*
X98409047Y-48046571D01*
X98456666Y-48141809D01*
X98456666Y-48379904D01*
X98409047Y-48475142D01*
X98361428Y-48522761D01*
X98266190Y-48570380D01*
X97980476Y-48570380D01*
X97885238Y-48522761D01*
X97837619Y-48475142D01*
X125396666Y-59777380D02*
X125396666Y-60491666D01*
X125349047Y-60634523D01*
X125253809Y-60729761D01*
X125110952Y-60777380D01*
X125015714Y-60777380D01*
X125825238Y-59872619D02*
X125872857Y-59825000D01*
X125968095Y-59777380D01*
X126206190Y-59777380D01*
X126301428Y-59825000D01*
X126349047Y-59872619D01*
X126396666Y-59967857D01*
X126396666Y-60063095D01*
X126349047Y-60205952D01*
X125777619Y-60777380D01*
X126396666Y-60777380D01*
X59777333Y-55475142D02*
X59729714Y-55522761D01*
X59586857Y-55570380D01*
X59491619Y-55570380D01*
X59348761Y-55522761D01*
X59253523Y-55427523D01*
X59205904Y-55332285D01*
X59158285Y-55141809D01*
X59158285Y-54998952D01*
X59205904Y-54808476D01*
X59253523Y-54713238D01*
X59348761Y-54618000D01*
X59491619Y-54570380D01*
X59586857Y-54570380D01*
X59729714Y-54618000D01*
X59777333Y-54665619D01*
X60253523Y-55570380D02*
X60444000Y-55570380D01*
X60539238Y-55522761D01*
X60586857Y-55475142D01*
X60682095Y-55332285D01*
X60729714Y-55141809D01*
X60729714Y-54760857D01*
X60682095Y-54665619D01*
X60634476Y-54618000D01*
X60539238Y-54570380D01*
X60348761Y-54570380D01*
X60253523Y-54618000D01*
X60205904Y-54665619D01*
X60158285Y-54760857D01*
X60158285Y-54998952D01*
X60205904Y-55094190D01*
X60253523Y-55141809D01*
X60348761Y-55189428D01*
X60539238Y-55189428D01*
X60634476Y-55141809D01*
X60682095Y-55094190D01*
X60729714Y-54998952D01*
X55372095Y-54570380D02*
X55372095Y-55379904D01*
X55419714Y-55475142D01*
X55467333Y-55522761D01*
X55562571Y-55570380D01*
X55753047Y-55570380D01*
X55848285Y-55522761D01*
X55895904Y-55475142D01*
X55943523Y-55379904D01*
X55943523Y-54570380D01*
X56372095Y-54665619D02*
X56419714Y-54618000D01*
X56514952Y-54570380D01*
X56753047Y-54570380D01*
X56848285Y-54618000D01*
X56895904Y-54665619D01*
X56943523Y-54760857D01*
X56943523Y-54856095D01*
X56895904Y-54998952D01*
X56324476Y-55570380D01*
X56943523Y-55570380D01*
X110386904Y-40457380D02*
X110386904Y-39457380D01*
X110625000Y-39457380D01*
X110767857Y-39505000D01*
X110863095Y-39600238D01*
X110910714Y-39695476D01*
X110958333Y-39885952D01*
X110958333Y-40028809D01*
X110910714Y-40219285D01*
X110863095Y-40314523D01*
X110767857Y-40409761D01*
X110625000Y-40457380D01*
X110386904Y-40457380D01*
X111863095Y-39457380D02*
X111386904Y-39457380D01*
X111339285Y-39933571D01*
X111386904Y-39885952D01*
X111482142Y-39838333D01*
X111720238Y-39838333D01*
X111815476Y-39885952D01*
X111863095Y-39933571D01*
X111910714Y-40028809D01*
X111910714Y-40266904D01*
X111863095Y-40362142D01*
X111815476Y-40409761D01*
X111720238Y-40457380D01*
X111482142Y-40457380D01*
X111386904Y-40409761D01*
X111339285Y-40362142D01*
X40790142Y-53119642D02*
X40742523Y-53167261D01*
X40599666Y-53214880D01*
X40504428Y-53214880D01*
X40361571Y-53167261D01*
X40266333Y-53072023D01*
X40218714Y-52976785D01*
X40171095Y-52786309D01*
X40171095Y-52643452D01*
X40218714Y-52452976D01*
X40266333Y-52357738D01*
X40361571Y-52262500D01*
X40504428Y-52214880D01*
X40599666Y-52214880D01*
X40742523Y-52262500D01*
X40790142Y-52310119D01*
X41742523Y-53214880D02*
X41171095Y-53214880D01*
X41456809Y-53214880D02*
X41456809Y-52214880D01*
X41361571Y-52357738D01*
X41266333Y-52452976D01*
X41171095Y-52500595D01*
X42361571Y-52214880D02*
X42456809Y-52214880D01*
X42552047Y-52262500D01*
X42599666Y-52310119D01*
X42647285Y-52405357D01*
X42694904Y-52595833D01*
X42694904Y-52833928D01*
X42647285Y-53024404D01*
X42599666Y-53119642D01*
X42552047Y-53167261D01*
X42456809Y-53214880D01*
X42361571Y-53214880D01*
X42266333Y-53167261D01*
X42218714Y-53119642D01*
X42171095Y-53024404D01*
X42123476Y-52833928D01*
X42123476Y-52595833D01*
X42171095Y-52405357D01*
X42218714Y-52310119D01*
X42266333Y-52262500D01*
X42361571Y-52214880D01*
X81940495Y-39482780D02*
X81940495Y-40292304D01*
X81988114Y-40387542D01*
X82035733Y-40435161D01*
X82130971Y-40482780D01*
X82321447Y-40482780D01*
X82416685Y-40435161D01*
X82464304Y-40387542D01*
X82511923Y-40292304D01*
X82511923Y-39482780D01*
X82892876Y-39482780D02*
X83511923Y-39482780D01*
X83178590Y-39863733D01*
X83321447Y-39863733D01*
X83416685Y-39911352D01*
X83464304Y-39958971D01*
X83511923Y-40054209D01*
X83511923Y-40292304D01*
X83464304Y-40387542D01*
X83416685Y-40435161D01*
X83321447Y-40482780D01*
X83035733Y-40482780D01*
X82940495Y-40435161D01*
X82892876Y-40387542D01*
X54443333Y-39441380D02*
X54110000Y-38965190D01*
X53871904Y-39441380D02*
X53871904Y-38441380D01*
X54252857Y-38441380D01*
X54348095Y-38489000D01*
X54395714Y-38536619D01*
X54443333Y-38631857D01*
X54443333Y-38774714D01*
X54395714Y-38869952D01*
X54348095Y-38917571D01*
X54252857Y-38965190D01*
X53871904Y-38965190D01*
X54776666Y-38441380D02*
X55395714Y-38441380D01*
X55062380Y-38822333D01*
X55205238Y-38822333D01*
X55300476Y-38869952D01*
X55348095Y-38917571D01*
X55395714Y-39012809D01*
X55395714Y-39250904D01*
X55348095Y-39346142D01*
X55300476Y-39393761D01*
X55205238Y-39441380D01*
X54919523Y-39441380D01*
X54824285Y-39393761D01*
X54776666Y-39346142D01*
X113866666Y-57428571D02*
X113533333Y-57428571D01*
X113533333Y-57952380D02*
X113533333Y-56952380D01*
X114009523Y-56952380D01*
X114914285Y-57952380D02*
X114342857Y-57952380D01*
X114628571Y-57952380D02*
X114628571Y-56952380D01*
X114533333Y-57095238D01*
X114438095Y-57190476D01*
X114342857Y-57238095D01*
X58253333Y-39441380D02*
X57920000Y-38965190D01*
X57681904Y-39441380D02*
X57681904Y-38441380D01*
X58062857Y-38441380D01*
X58158095Y-38489000D01*
X58205714Y-38536619D01*
X58253333Y-38631857D01*
X58253333Y-38774714D01*
X58205714Y-38869952D01*
X58158095Y-38917571D01*
X58062857Y-38965190D01*
X57681904Y-38965190D01*
X59110476Y-38441380D02*
X58920000Y-38441380D01*
X58824761Y-38489000D01*
X58777142Y-38536619D01*
X58681904Y-38679476D01*
X58634285Y-38869952D01*
X58634285Y-39250904D01*
X58681904Y-39346142D01*
X58729523Y-39393761D01*
X58824761Y-39441380D01*
X59015238Y-39441380D01*
X59110476Y-39393761D01*
X59158095Y-39346142D01*
X59205714Y-39250904D01*
X59205714Y-39012809D01*
X59158095Y-38917571D01*
X59110476Y-38869952D01*
X59015238Y-38822333D01*
X58824761Y-38822333D01*
X58729523Y-38869952D01*
X58681904Y-38917571D01*
X58634285Y-39012809D01*
X114196904Y-40457380D02*
X114196904Y-39457380D01*
X114435000Y-39457380D01*
X114577857Y-39505000D01*
X114673095Y-39600238D01*
X114720714Y-39695476D01*
X114768333Y-39885952D01*
X114768333Y-40028809D01*
X114720714Y-40219285D01*
X114673095Y-40314523D01*
X114577857Y-40409761D01*
X114435000Y-40457380D01*
X114196904Y-40457380D01*
X115101666Y-39457380D02*
X115720714Y-39457380D01*
X115387380Y-39838333D01*
X115530238Y-39838333D01*
X115625476Y-39885952D01*
X115673095Y-39933571D01*
X115720714Y-40028809D01*
X115720714Y-40266904D01*
X115673095Y-40362142D01*
X115625476Y-40409761D01*
X115530238Y-40457380D01*
X115244523Y-40457380D01*
X115149285Y-40409761D01*
X115101666Y-40362142D01*
X50157142Y-39441380D02*
X49823809Y-38965190D01*
X49585714Y-39441380D02*
X49585714Y-38441380D01*
X49966666Y-38441380D01*
X50061904Y-38489000D01*
X50109523Y-38536619D01*
X50157142Y-38631857D01*
X50157142Y-38774714D01*
X50109523Y-38869952D01*
X50061904Y-38917571D01*
X49966666Y-38965190D01*
X49585714Y-38965190D01*
X51109523Y-39441380D02*
X50538095Y-39441380D01*
X50823809Y-39441380D02*
X50823809Y-38441380D01*
X50728571Y-38584238D01*
X50633333Y-38679476D01*
X50538095Y-38727095D01*
X51728571Y-38441380D02*
X51823809Y-38441380D01*
X51919047Y-38489000D01*
X51966666Y-38536619D01*
X52014285Y-38631857D01*
X52061904Y-38822333D01*
X52061904Y-39060428D01*
X52014285Y-39250904D01*
X51966666Y-39346142D01*
X51919047Y-39393761D01*
X51823809Y-39441380D01*
X51728571Y-39441380D01*
X51633333Y-39393761D01*
X51585714Y-39346142D01*
X51538095Y-39250904D01*
X51490476Y-39060428D01*
X51490476Y-38822333D01*
X51538095Y-38631857D01*
X51585714Y-38536619D01*
X51633333Y-38489000D01*
X51728571Y-38441380D01*
X86193333Y-61158380D02*
X85860000Y-60682190D01*
X85621904Y-61158380D02*
X85621904Y-60158380D01*
X86002857Y-60158380D01*
X86098095Y-60206000D01*
X86145714Y-60253619D01*
X86193333Y-60348857D01*
X86193333Y-60491714D01*
X86145714Y-60586952D01*
X86098095Y-60634571D01*
X86002857Y-60682190D01*
X85621904Y-60682190D01*
X86526666Y-60158380D02*
X87193333Y-60158380D01*
X86764761Y-61158380D01*
X33551904Y-39452380D02*
X33551904Y-38452380D01*
X33790000Y-38452380D01*
X33932857Y-38500000D01*
X34028095Y-38595238D01*
X34075714Y-38690476D01*
X34123333Y-38880952D01*
X34123333Y-39023809D01*
X34075714Y-39214285D01*
X34028095Y-39309523D01*
X33932857Y-39404761D01*
X33790000Y-39452380D01*
X33551904Y-39452380D01*
X34456666Y-38452380D02*
X35123333Y-38452380D01*
X34694761Y-39452380D01*
X89781142Y-61158380D02*
X89447809Y-60682190D01*
X89209714Y-61158380D02*
X89209714Y-60158380D01*
X89590666Y-60158380D01*
X89685904Y-60206000D01*
X89733523Y-60253619D01*
X89781142Y-60348857D01*
X89781142Y-60491714D01*
X89733523Y-60586952D01*
X89685904Y-60634571D01*
X89590666Y-60682190D01*
X89209714Y-60682190D01*
X90733523Y-61158380D02*
X90162095Y-61158380D01*
X90447809Y-61158380D02*
X90447809Y-60158380D01*
X90352571Y-60301238D01*
X90257333Y-60396476D01*
X90162095Y-60444095D01*
X91685904Y-61158380D02*
X91114476Y-61158380D01*
X91400190Y-61158380D02*
X91400190Y-60158380D01*
X91304952Y-60301238D01*
X91209714Y-60396476D01*
X91114476Y-60444095D01*
X109053333Y-63857142D02*
X109005714Y-63904761D01*
X108862857Y-63952380D01*
X108767619Y-63952380D01*
X108624761Y-63904761D01*
X108529523Y-63809523D01*
X108481904Y-63714285D01*
X108434285Y-63523809D01*
X108434285Y-63380952D01*
X108481904Y-63190476D01*
X108529523Y-63095238D01*
X108624761Y-63000000D01*
X108767619Y-62952380D01*
X108862857Y-62952380D01*
X109005714Y-63000000D01*
X109053333Y-63047619D01*
X109434285Y-63047619D02*
X109481904Y-63000000D01*
X109577142Y-62952380D01*
X109815238Y-62952380D01*
X109910476Y-63000000D01*
X109958095Y-63047619D01*
X110005714Y-63142857D01*
X110005714Y-63238095D01*
X109958095Y-63380952D01*
X109386666Y-63952380D01*
X110005714Y-63952380D01*
X65873333Y-39441380D02*
X65540000Y-38965190D01*
X65301904Y-39441380D02*
X65301904Y-38441380D01*
X65682857Y-38441380D01*
X65778095Y-38489000D01*
X65825714Y-38536619D01*
X65873333Y-38631857D01*
X65873333Y-38774714D01*
X65825714Y-38869952D01*
X65778095Y-38917571D01*
X65682857Y-38965190D01*
X65301904Y-38965190D01*
X66730476Y-38774714D02*
X66730476Y-39441380D01*
X66492380Y-38393761D02*
X66254285Y-39108047D01*
X66873333Y-39108047D01*
X51723333Y-75475666D02*
X52199523Y-75475666D01*
X51628095Y-75761380D02*
X51961428Y-74761380D01*
X52294761Y-75761380D01*
X52628095Y-75237571D02*
X52961428Y-75237571D01*
X53104285Y-75761380D02*
X52628095Y-75761380D01*
X52628095Y-74761380D01*
X53104285Y-74761380D01*
X54056666Y-75761380D02*
X53485238Y-75761380D01*
X53770952Y-75761380D02*
X53770952Y-74761380D01*
X53675714Y-74904238D01*
X53580476Y-74999476D01*
X53485238Y-75047095D01*
X48474666Y-70473866D02*
X48950857Y-70473866D01*
X48379428Y-70759580D02*
X48712761Y-69759580D01*
X49046095Y-70759580D01*
X49379428Y-70759580D02*
X49379428Y-69759580D01*
X49950857Y-70759580D01*
X49950857Y-69759580D01*
X50284190Y-69759580D02*
X50855619Y-69759580D01*
X50569904Y-70759580D02*
X50569904Y-69759580D01*
X50950857Y-70854819D02*
X51712761Y-70854819D01*
X51950857Y-70235771D02*
X52284190Y-70235771D01*
X52427047Y-70759580D02*
X51950857Y-70759580D01*
X51950857Y-69759580D01*
X52427047Y-69759580D01*
X52760380Y-69759580D02*
X53427047Y-70759580D01*
X53427047Y-69759580D02*
X52760380Y-70759580D01*
X53665142Y-69759580D02*
X54236571Y-69759580D01*
X53950857Y-70759580D02*
X53950857Y-69759580D01*
X56132857Y-74839580D02*
X56132857Y-75553866D01*
X56085238Y-75696723D01*
X55990000Y-75791961D01*
X55847142Y-75839580D01*
X55751904Y-75839580D01*
X100828095Y-34997380D02*
X100828095Y-35806904D01*
X100875714Y-35902142D01*
X100923333Y-35949761D01*
X101018571Y-35997380D01*
X101209047Y-35997380D01*
X101304285Y-35949761D01*
X101351904Y-35902142D01*
X101399523Y-35806904D01*
X101399523Y-34997380D01*
X102399523Y-35997380D02*
X101828095Y-35997380D01*
X102113809Y-35997380D02*
X102113809Y-34997380D01*
X102018571Y-35140238D01*
X101923333Y-35235476D01*
X101828095Y-35283095D01*
X88657133Y-31548342D02*
X88609514Y-31595961D01*
X88466657Y-31643580D01*
X88371419Y-31643580D01*
X88228561Y-31595961D01*
X88133323Y-31500723D01*
X88085704Y-31405485D01*
X88038085Y-31215009D01*
X88038085Y-31072152D01*
X88085704Y-30881676D01*
X88133323Y-30786438D01*
X88228561Y-30691200D01*
X88371419Y-30643580D01*
X88466657Y-30643580D01*
X88609514Y-30691200D01*
X88657133Y-30738819D01*
X89514276Y-30976914D02*
X89514276Y-31643580D01*
X89276180Y-30595961D02*
X89038085Y-31310247D01*
X89657133Y-31310247D01*
X46823333Y-39441380D02*
X46490000Y-38965190D01*
X46251904Y-39441380D02*
X46251904Y-38441380D01*
X46632857Y-38441380D01*
X46728095Y-38489000D01*
X46775714Y-38536619D01*
X46823333Y-38631857D01*
X46823333Y-38774714D01*
X46775714Y-38869952D01*
X46728095Y-38917571D01*
X46632857Y-38965190D01*
X46251904Y-38965190D01*
X47299523Y-39441380D02*
X47490000Y-39441380D01*
X47585238Y-39393761D01*
X47632857Y-39346142D01*
X47728095Y-39203285D01*
X47775714Y-39012809D01*
X47775714Y-38631857D01*
X47728095Y-38536619D01*
X47680476Y-38489000D01*
X47585238Y-38441380D01*
X47394761Y-38441380D01*
X47299523Y-38489000D01*
X47251904Y-38536619D01*
X47204285Y-38631857D01*
X47204285Y-38869952D01*
X47251904Y-38965190D01*
X47299523Y-39012809D01*
X47394761Y-39060428D01*
X47585238Y-39060428D01*
X47680476Y-39012809D01*
X47728095Y-38965190D01*
X47775714Y-38869952D01*
X82050666Y-64879961D02*
X82193523Y-64927580D01*
X82431619Y-64927580D01*
X82526857Y-64879961D01*
X82574476Y-64832342D01*
X82622095Y-64737104D01*
X82622095Y-64641866D01*
X82574476Y-64546628D01*
X82526857Y-64499009D01*
X82431619Y-64451390D01*
X82241142Y-64403771D01*
X82145904Y-64356152D01*
X82098285Y-64308533D01*
X82050666Y-64213295D01*
X82050666Y-64118057D01*
X82098285Y-64022819D01*
X82145904Y-63975200D01*
X82241142Y-63927580D01*
X82479238Y-63927580D01*
X82622095Y-63975200D01*
X82955428Y-63927580D02*
X83193523Y-64927580D01*
X83384000Y-64213295D01*
X83574476Y-64927580D01*
X83812571Y-63927580D01*
X84717333Y-64927580D02*
X84145904Y-64927580D01*
X84431619Y-64927580D02*
X84431619Y-63927580D01*
X84336380Y-64070438D01*
X84241142Y-64165676D01*
X84145904Y-64213295D01*
X86040933Y-41804742D02*
X85993314Y-41852361D01*
X85850457Y-41899980D01*
X85755219Y-41899980D01*
X85612361Y-41852361D01*
X85517123Y-41757123D01*
X85469504Y-41661885D01*
X85421885Y-41471409D01*
X85421885Y-41328552D01*
X85469504Y-41138076D01*
X85517123Y-41042838D01*
X85612361Y-40947600D01*
X85755219Y-40899980D01*
X85850457Y-40899980D01*
X85993314Y-40947600D01*
X86040933Y-40995219D01*
X86374266Y-40899980D02*
X86993314Y-40899980D01*
X86659980Y-41280933D01*
X86802838Y-41280933D01*
X86898076Y-41328552D01*
X86945695Y-41376171D01*
X86993314Y-41471409D01*
X86993314Y-41709504D01*
X86945695Y-41804742D01*
X86898076Y-41852361D01*
X86802838Y-41899980D01*
X86517123Y-41899980D01*
X86421885Y-41852361D01*
X86374266Y-41804742D01*
X43013333Y-39346142D02*
X42965714Y-39393761D01*
X42822857Y-39441380D01*
X42727619Y-39441380D01*
X42584761Y-39393761D01*
X42489523Y-39298523D01*
X42441904Y-39203285D01*
X42394285Y-39012809D01*
X42394285Y-38869952D01*
X42441904Y-38679476D01*
X42489523Y-38584238D01*
X42584761Y-38489000D01*
X42727619Y-38441380D01*
X42822857Y-38441380D01*
X42965714Y-38489000D01*
X43013333Y-38536619D01*
X43584761Y-38869952D02*
X43489523Y-38822333D01*
X43441904Y-38774714D01*
X43394285Y-38679476D01*
X43394285Y-38631857D01*
X43441904Y-38536619D01*
X43489523Y-38489000D01*
X43584761Y-38441380D01*
X43775238Y-38441380D01*
X43870476Y-38489000D01*
X43918095Y-38536619D01*
X43965714Y-38631857D01*
X43965714Y-38679476D01*
X43918095Y-38774714D01*
X43870476Y-38822333D01*
X43775238Y-38869952D01*
X43584761Y-38869952D01*
X43489523Y-38917571D01*
X43441904Y-38965190D01*
X43394285Y-39060428D01*
X43394285Y-39250904D01*
X43441904Y-39346142D01*
X43489523Y-39393761D01*
X43584761Y-39441380D01*
X43775238Y-39441380D01*
X43870476Y-39393761D01*
X43918095Y-39346142D01*
X43965714Y-39250904D01*
X43965714Y-39060428D01*
X43918095Y-38965190D01*
X43870476Y-38917571D01*
X43775238Y-38869952D01*
X39203333Y-39441380D02*
X38870000Y-38965190D01*
X38631904Y-39441380D02*
X38631904Y-38441380D01*
X39012857Y-38441380D01*
X39108095Y-38489000D01*
X39155714Y-38536619D01*
X39203333Y-38631857D01*
X39203333Y-38774714D01*
X39155714Y-38869952D01*
X39108095Y-38917571D01*
X39012857Y-38965190D01*
X38631904Y-38965190D01*
X39774761Y-38869952D02*
X39679523Y-38822333D01*
X39631904Y-38774714D01*
X39584285Y-38679476D01*
X39584285Y-38631857D01*
X39631904Y-38536619D01*
X39679523Y-38489000D01*
X39774761Y-38441380D01*
X39965238Y-38441380D01*
X40060476Y-38489000D01*
X40108095Y-38536619D01*
X40155714Y-38631857D01*
X40155714Y-38679476D01*
X40108095Y-38774714D01*
X40060476Y-38822333D01*
X39965238Y-38869952D01*
X39774761Y-38869952D01*
X39679523Y-38917571D01*
X39631904Y-38965190D01*
X39584285Y-39060428D01*
X39584285Y-39250904D01*
X39631904Y-39346142D01*
X39679523Y-39393761D01*
X39774761Y-39441380D01*
X39965238Y-39441380D01*
X40060476Y-39393761D01*
X40108095Y-39346142D01*
X40155714Y-39250904D01*
X40155714Y-39060428D01*
X40108095Y-38965190D01*
X40060476Y-38917571D01*
X39965238Y-38869952D01*
X108495904Y-77177580D02*
X108495904Y-76177580D01*
X108734000Y-76177580D01*
X108876857Y-76225200D01*
X108972095Y-76320438D01*
X109019714Y-76415676D01*
X109067333Y-76606152D01*
X109067333Y-76749009D01*
X109019714Y-76939485D01*
X108972095Y-77034723D01*
X108876857Y-77129961D01*
X108734000Y-77177580D01*
X108495904Y-77177580D01*
X109924476Y-76510914D02*
X109924476Y-77177580D01*
X109686380Y-76129961D02*
X109448285Y-76844247D01*
X110067333Y-76844247D01*
X83558142Y-77700142D02*
X83510523Y-77747761D01*
X83367666Y-77795380D01*
X83272428Y-77795380D01*
X83129571Y-77747761D01*
X83034333Y-77652523D01*
X82986714Y-77557285D01*
X82939095Y-77366809D01*
X82939095Y-77223952D01*
X82986714Y-77033476D01*
X83034333Y-76938238D01*
X83129571Y-76843000D01*
X83272428Y-76795380D01*
X83367666Y-76795380D01*
X83510523Y-76843000D01*
X83558142Y-76890619D01*
X84510523Y-77795380D02*
X83939095Y-77795380D01*
X84224809Y-77795380D02*
X84224809Y-76795380D01*
X84129571Y-76938238D01*
X84034333Y-77033476D01*
X83939095Y-77081095D01*
X84891476Y-76890619D02*
X84939095Y-76843000D01*
X85034333Y-76795380D01*
X85272428Y-76795380D01*
X85367666Y-76843000D01*
X85415285Y-76890619D01*
X85462904Y-76985857D01*
X85462904Y-77081095D01*
X85415285Y-77223952D01*
X84843857Y-77795380D01*
X85462904Y-77795380D01*
X114768333Y-43632380D02*
X114435000Y-43156190D01*
X114196904Y-43632380D02*
X114196904Y-42632380D01*
X114577857Y-42632380D01*
X114673095Y-42680000D01*
X114720714Y-42727619D01*
X114768333Y-42822857D01*
X114768333Y-42965714D01*
X114720714Y-43060952D01*
X114673095Y-43108571D01*
X114577857Y-43156190D01*
X114196904Y-43156190D01*
X115720714Y-43632380D02*
X115149285Y-43632380D01*
X115435000Y-43632380D02*
X115435000Y-42632380D01*
X115339761Y-42775238D01*
X115244523Y-42870476D01*
X115149285Y-42918095D01*
X62063333Y-39441380D02*
X61730000Y-38965190D01*
X61491904Y-39441380D02*
X61491904Y-38441380D01*
X61872857Y-38441380D01*
X61968095Y-38489000D01*
X62015714Y-38536619D01*
X62063333Y-38631857D01*
X62063333Y-38774714D01*
X62015714Y-38869952D01*
X61968095Y-38917571D01*
X61872857Y-38965190D01*
X61491904Y-38965190D01*
X62968095Y-38441380D02*
X62491904Y-38441380D01*
X62444285Y-38917571D01*
X62491904Y-38869952D01*
X62587142Y-38822333D01*
X62825238Y-38822333D01*
X62920476Y-38869952D01*
X62968095Y-38917571D01*
X63015714Y-39012809D01*
X63015714Y-39250904D01*
X62968095Y-39346142D01*
X62920476Y-39393761D01*
X62825238Y-39441380D01*
X62587142Y-39441380D01*
X62491904Y-39393761D01*
X62444285Y-39346142D01*
D13*
X58928000Y-75438000D02*
X74676000Y-75438000D01*
X58928000Y-64516000D02*
X74676000Y-64516000D01*
X88367600Y-39131200D02*
X88367600Y-33731200D01*
X91667600Y-39131200D02*
X91667600Y-33731200D01*
X88367600Y-39131200D02*
X91667600Y-39131200D01*
X103655000Y-46255000D02*
X110895000Y-46255000D01*
X110895000Y-46255000D02*
X110895000Y-48995000D01*
X103655000Y-46255000D02*
X103655000Y-48995000D01*
X103655000Y-48995000D02*
X110895000Y-48995000D01*
X82104000Y-44845200D02*
X82104000Y-42245200D01*
X84764000Y-46115200D02*
X84764000Y-47445200D01*
X84764000Y-44845200D02*
X84764000Y-42245200D01*
X84764000Y-42245200D02*
X82104000Y-42245200D01*
X84764000Y-44845200D02*
X82104000Y-44845200D01*
X84764000Y-47445200D02*
X83434000Y-47445200D01*
X87495000Y-51130000D02*
X87495000Y-47070000D01*
X87495000Y-47070000D02*
X85225000Y-47070000D01*
X85225000Y-47070000D02*
X85225000Y-51130000D01*
X91559000Y-47070000D02*
X89289000Y-47070000D01*
X89289000Y-47070000D02*
X89289000Y-51130000D01*
X91559000Y-51130000D02*
X91559000Y-47070000D01*
X120665000Y-65800000D02*
X116825000Y-65800000D01*
X116825000Y-64660000D02*
X116825000Y-72500000D01*
X118745000Y-73490000D02*
X118745000Y-72500000D01*
X120665000Y-72500000D02*
X120665000Y-64660000D01*
X120665000Y-66040000D02*
X116825000Y-66040000D01*
X116825000Y-72500000D02*
X120665000Y-72500000D01*
X120665000Y-64660000D02*
X116825000Y-64660000D01*
X118745000Y-63670000D02*
X118745000Y-64660000D01*
X120665000Y-65920000D02*
X116825000Y-65920000D01*
X120665000Y-38210000D02*
X120665000Y-30370000D01*
X116825000Y-38210000D02*
X120665000Y-38210000D01*
X116825000Y-30370000D02*
X116825000Y-38210000D01*
X118745000Y-39200000D02*
X118745000Y-38210000D01*
X120665000Y-31750000D02*
X116825000Y-31750000D01*
X120665000Y-31510000D02*
X116825000Y-31510000D01*
X118745000Y-29380000D02*
X118745000Y-30370000D01*
X120665000Y-31630000D02*
X116825000Y-31630000D01*
X120665000Y-30370000D02*
X116825000Y-30370000D01*
X99120000Y-43800000D02*
X99120000Y-38660000D01*
X96460000Y-43800000D02*
X96460000Y-38660000D01*
X99120000Y-43800000D02*
X96460000Y-43800000D01*
X99120000Y-46400000D02*
X97790000Y-46400000D01*
X99120000Y-38660000D02*
X96460000Y-38660000D01*
X99120000Y-45070000D02*
X99120000Y-46400000D01*
X127635000Y-43815000D02*
X120015000Y-43815000D01*
X126365000Y-59055000D02*
X126365000Y-43815000D01*
X127635000Y-59055000D02*
X120015000Y-59055000D01*
X127635000Y-59055000D02*
X127635000Y-43815000D01*
X120015000Y-59055000D02*
X120015000Y-43815000D01*
X60758000Y-50472248D02*
X60758000Y-51894752D01*
X58938000Y-50472248D02*
X58938000Y-51894752D01*
D11*
X50323000Y-46056976D02*
X50552810Y-46286786D01*
X50323000Y-56310024D02*
X50093190Y-56080214D01*
X50323000Y-56310024D02*
X50552810Y-56080214D01*
X45355575Y-51342599D02*
X44347948Y-52350226D01*
X55449524Y-51183500D02*
X55219714Y-51413310D01*
X55449524Y-51183500D02*
X55219714Y-50953690D01*
X50323000Y-46056976D02*
X50093190Y-46286786D01*
X45196476Y-51183500D02*
X45355575Y-51342599D01*
X45196476Y-51183500D02*
X45426286Y-50953690D01*
D13*
X107880000Y-34540000D02*
X110120000Y-34540000D01*
X110120000Y-30900000D02*
X107880000Y-30900000D01*
X107880000Y-30900000D02*
X107880000Y-35140000D01*
X107880000Y-35140000D02*
X110120000Y-35140000D01*
X110120000Y-35140000D02*
X110120000Y-30900000D01*
X107880000Y-34420000D02*
X110120000Y-34420000D01*
X107880000Y-34300000D02*
X110120000Y-34300000D01*
X109000000Y-37060000D02*
X109000000Y-35140000D01*
X109000000Y-28980000D02*
X109000000Y-30900000D01*
X40721748Y-55522500D02*
X42144252Y-55522500D01*
X40721748Y-53702500D02*
X42144252Y-53702500D01*
X80470000Y-38680000D02*
X83300000Y-38680000D01*
X78970000Y-32050000D02*
X80470000Y-32050000D01*
X80470000Y-32320000D02*
X81570000Y-32320000D01*
X80470000Y-32050000D02*
X80470000Y-32320000D01*
X78970000Y-38950000D02*
X80470000Y-38950000D01*
X80470000Y-38950000D02*
X80470000Y-38680000D01*
X53700000Y-36287064D02*
X53700000Y-34832936D01*
X55520000Y-36287064D02*
X55520000Y-34832936D01*
X114920000Y-49515000D02*
X113080000Y-49515000D01*
X113080000Y-49515000D02*
X113080000Y-53355000D01*
X113080000Y-53355000D02*
X114920000Y-53355000D01*
X114000000Y-54305000D02*
X114000000Y-53355000D01*
X114000000Y-48565000D02*
X114000000Y-49515000D01*
X114920000Y-53355000D02*
X114920000Y-49515000D01*
X59330000Y-34832936D02*
X59330000Y-36287064D01*
X57510000Y-34832936D02*
X57510000Y-36287064D01*
X113665000Y-37060000D02*
X113665000Y-35140000D01*
X112545000Y-34300000D02*
X114785000Y-34300000D01*
X112545000Y-34420000D02*
X114785000Y-34420000D01*
X113665000Y-28980000D02*
X113665000Y-30900000D01*
X112545000Y-34540000D02*
X114785000Y-34540000D01*
X114785000Y-35140000D02*
X114785000Y-30900000D01*
X112545000Y-30900000D02*
X112545000Y-35140000D01*
X114785000Y-30900000D02*
X112545000Y-30900000D01*
X112545000Y-35140000D02*
X114785000Y-35140000D01*
X49890000Y-36287064D02*
X49890000Y-34832936D01*
X51710000Y-36287064D02*
X51710000Y-34832936D01*
X87270000Y-57877064D02*
X87270000Y-56422936D01*
X85450000Y-57877064D02*
X85450000Y-56422936D01*
X35940000Y-37900000D02*
X35940000Y-32500000D01*
X32640000Y-37900000D02*
X32640000Y-32500000D01*
X32640000Y-37900000D02*
X35940000Y-37900000D01*
X91334000Y-57877064D02*
X91334000Y-56422936D01*
X89514000Y-57877064D02*
X89514000Y-56422936D01*
X98133000Y-53402959D02*
X100795000Y-53402959D01*
X103675000Y-54442959D02*
X107308000Y-54442959D01*
X97416000Y-54122959D02*
X100795000Y-54122959D01*
X103675000Y-53442959D02*
X106383000Y-53442959D01*
X101918000Y-51882959D02*
X102552000Y-51882959D01*
X96004000Y-57122959D02*
X108466000Y-57122959D01*
X97047000Y-54602959D02*
X100795000Y-54602959D01*
X103675000Y-53602959D02*
X106560000Y-53602959D01*
X97104000Y-54522959D02*
X100795000Y-54522959D01*
X99641000Y-52442959D02*
X104829000Y-52442959D01*
X103675000Y-54402959D02*
X107278000Y-54402959D01*
X95983000Y-57242959D02*
X108487000Y-57242959D01*
X98328000Y-53242959D02*
X100795000Y-53242959D01*
X103675000Y-54762959D02*
X107531000Y-54762959D01*
X103675000Y-53562959D02*
X106517000Y-53562959D01*
X103675000Y-53522959D02*
X106473000Y-53522959D01*
X97350000Y-54202959D02*
X100795000Y-54202959D01*
X96533000Y-55482959D02*
X100795000Y-55482959D01*
X103675000Y-54482959D02*
X107337000Y-54482959D01*
X99314000Y-52602959D02*
X105156000Y-52602959D01*
X100994000Y-52002959D02*
X103476000Y-52002959D01*
X100026000Y-52282959D02*
X104444000Y-52282959D01*
X103675000Y-55642959D02*
X108011000Y-55642959D01*
X96721000Y-55122959D02*
X100795000Y-55122959D01*
X97192000Y-54402959D02*
X100795000Y-54402959D01*
X103675000Y-54082959D02*
X107020000Y-54082959D01*
X103675000Y-53842959D02*
X106802000Y-53842959D01*
X97786000Y-53722959D02*
X100795000Y-53722959D01*
X95913000Y-57923959D02*
X108557000Y-57923959D01*
X103675000Y-55602959D02*
X107993000Y-55602959D01*
X95941000Y-57563959D02*
X108529000Y-57563959D01*
X97317000Y-54242959D02*
X100795000Y-54242959D01*
X100652000Y-52082959D02*
X103818000Y-52082959D01*
X96767000Y-55042959D02*
X100795000Y-55042959D01*
X103675000Y-55242959D02*
X107815000Y-55242959D01*
X103675000Y-53882959D02*
X106840000Y-53882959D01*
X103675000Y-53122959D02*
X105985000Y-53122959D01*
X103675000Y-54962959D02*
X107656000Y-54962959D01*
X96201000Y-56322959D02*
X108269000Y-56322959D01*
X100813000Y-52042959D02*
X103657000Y-52042959D01*
X96311000Y-56002959D02*
X108159000Y-56002959D01*
X103675000Y-55082959D02*
X107726000Y-55082959D01*
X95923000Y-57763959D02*
X108547000Y-57763959D01*
X96098000Y-56682959D02*
X108372000Y-56682959D01*
X96514000Y-55522959D02*
X100795000Y-55522959D01*
X97285000Y-54282959D02*
X100795000Y-54282959D01*
X97133000Y-54482959D02*
X100795000Y-54482959D01*
X95926000Y-57723959D02*
X108544000Y-57723959D01*
X103675000Y-53482959D02*
X106429000Y-53482959D01*
X103675000Y-54282959D02*
X107185000Y-54282959D01*
X98035000Y-64436041D02*
X99285000Y-64436041D01*
X97668000Y-53842959D02*
X100795000Y-53842959D01*
X103675000Y-53202959D02*
X106091000Y-53202959D01*
X98431000Y-53162959D02*
X100795000Y-53162959D01*
X95937000Y-57603959D02*
X108533000Y-57603959D01*
X96043000Y-56922959D02*
X108427000Y-56922959D01*
X99825000Y-52362959D02*
X104645000Y-52362959D01*
X95920000Y-57803959D02*
X108550000Y-57803959D01*
X99471000Y-52522959D02*
X104999000Y-52522959D01*
X100507000Y-52122959D02*
X103963000Y-52122959D01*
X99027000Y-52762959D02*
X105443000Y-52762959D01*
X96152000Y-56482959D02*
X108318000Y-56482959D01*
X96655000Y-55242959D02*
X100795000Y-55242959D01*
X99391000Y-52562959D02*
X105079000Y-52562959D01*
X96240000Y-56202959D02*
X108230000Y-56202959D01*
X103675000Y-55762959D02*
X108063000Y-55762959D01*
X103675000Y-54882959D02*
X107607000Y-54882959D01*
X98833000Y-52882959D02*
X105637000Y-52882959D01*
X95905000Y-58203959D02*
X108565000Y-58203959D01*
X96051000Y-56882959D02*
X108419000Y-56882959D01*
X96026000Y-57002959D02*
X108444000Y-57002959D01*
X103675000Y-55362959D02*
X107877000Y-55362959D01*
X103675000Y-53362959D02*
X106290000Y-53362959D01*
X96176000Y-56402959D02*
X108294000Y-56402959D01*
X95966000Y-57362959D02*
X108504000Y-57362959D01*
X98595000Y-53042959D02*
X105875000Y-53042959D01*
X96130000Y-56562959D02*
X108340000Y-56562959D01*
X97746000Y-53762959D02*
X100795000Y-53762959D01*
X97997000Y-53522959D02*
X100795000Y-53522959D01*
X96390000Y-55802959D02*
X100795000Y-55802959D01*
X95917000Y-57843959D02*
X108553000Y-57843959D01*
X103675000Y-53682959D02*
X106643000Y-53682959D01*
X98278000Y-53282959D02*
X100795000Y-53282959D01*
X97910000Y-53602959D02*
X100795000Y-53602959D01*
X96374000Y-55842959D02*
X100795000Y-55842959D01*
X95911000Y-57963959D02*
X108559000Y-57963959D01*
X103675000Y-54682959D02*
X107478000Y-54682959D01*
X96282000Y-56082959D02*
X108188000Y-56082959D01*
X96459000Y-55642959D02*
X100795000Y-55642959D01*
X96814000Y-54962959D02*
X100795000Y-54962959D01*
X95907000Y-58083959D02*
X108563000Y-58083959D01*
X95929000Y-57683959D02*
X108541000Y-57683959D01*
X103675000Y-55922959D02*
X108128000Y-55922959D01*
X96254000Y-56162959D02*
X108216000Y-56162959D01*
X96790000Y-55002959D02*
X100795000Y-55002959D01*
X97253000Y-54322959D02*
X100795000Y-54322959D01*
X103675000Y-55202959D02*
X107793000Y-55202959D01*
X98228000Y-53322959D02*
X100795000Y-53322959D01*
X97827000Y-53682959D02*
X100795000Y-53682959D01*
X103675000Y-55682959D02*
X108028000Y-55682959D01*
X99095000Y-52722959D02*
X105375000Y-52722959D01*
X96141000Y-56522959D02*
X108329000Y-56522959D01*
X98896000Y-52842959D02*
X105574000Y-52842959D01*
X103675000Y-53162959D02*
X106039000Y-53162959D01*
X98771000Y-52922959D02*
X105699000Y-52922959D01*
X101207000Y-51962959D02*
X103263000Y-51962959D01*
X96573000Y-55402959D02*
X100795000Y-55402959D01*
X99239000Y-52642959D02*
X105231000Y-52642959D01*
X96164000Y-56442959D02*
X108306000Y-56442959D01*
X103675000Y-54602959D02*
X107423000Y-54602959D01*
X95960000Y-57402959D02*
X108510000Y-57402959D01*
X103675000Y-54242959D02*
X107153000Y-54242959D01*
X103675000Y-55162959D02*
X107771000Y-55162959D01*
X95905000Y-58243959D02*
X108565000Y-58243959D01*
X103675000Y-54042959D02*
X106985000Y-54042959D01*
X95906000Y-58123959D02*
X108564000Y-58123959D01*
X103675000Y-54122959D02*
X107054000Y-54122959D01*
X100374000Y-52162959D02*
X104096000Y-52162959D01*
X97593000Y-53922959D02*
X100795000Y-53922959D01*
X95997000Y-57162959D02*
X108473000Y-57162959D01*
X103675000Y-53282959D02*
X106192000Y-53282959D01*
X103675000Y-54322959D02*
X107217000Y-54322959D01*
X96268000Y-56122959D02*
X108202000Y-56122959D01*
X96593000Y-55362959D02*
X100795000Y-55362959D01*
X103675000Y-55522959D02*
X107956000Y-55522959D01*
X96863000Y-54882959D02*
X100795000Y-54882959D01*
X96424000Y-55722959D02*
X100795000Y-55722959D01*
X103675000Y-54002959D02*
X106949000Y-54002959D01*
X96060000Y-56842959D02*
X108410000Y-56842959D01*
X103675000Y-55562959D02*
X107974000Y-55562959D01*
X95905000Y-58163959D02*
X108565000Y-58163959D01*
X103675000Y-53922959D02*
X106877000Y-53922959D01*
X97223000Y-54362959D02*
X100795000Y-54362959D01*
X96477000Y-55602959D02*
X100795000Y-55602959D01*
X96296000Y-56042959D02*
X108174000Y-56042959D01*
X96888000Y-54842959D02*
X100795000Y-54842959D01*
X96442000Y-55682959D02*
X100795000Y-55682959D01*
X96939000Y-54762959D02*
X100795000Y-54762959D01*
X103675000Y-53402959D02*
X106337000Y-53402959D01*
X103675000Y-53082959D02*
X105931000Y-53082959D01*
X96358000Y-55882959D02*
X100795000Y-55882959D01*
X103675000Y-53962959D02*
X106913000Y-53962959D01*
X97383000Y-54162959D02*
X100795000Y-54162959D01*
X103675000Y-55442959D02*
X107917000Y-55442959D01*
X96011000Y-57082959D02*
X108459000Y-57082959D01*
X97953000Y-53562959D02*
X100795000Y-53562959D01*
X95971000Y-57322959D02*
X108499000Y-57322959D01*
X103675000Y-54842959D02*
X107582000Y-54842959D01*
X95990000Y-57202959D02*
X108480000Y-57202959D01*
X95915000Y-57883959D02*
X108555000Y-57883959D01*
X96613000Y-55322959D02*
X100795000Y-55322959D01*
X96634000Y-55282959D02*
X100795000Y-55282959D01*
X99554000Y-52482959D02*
X104916000Y-52482959D01*
X103675000Y-55882959D02*
X108112000Y-55882959D01*
X95933000Y-57643959D02*
X108537000Y-57643959D01*
X98041000Y-53482959D02*
X100795000Y-53482959D01*
X103675000Y-53322959D02*
X106242000Y-53322959D01*
X96079000Y-56762959D02*
X108391000Y-56762959D01*
X98087000Y-53442959D02*
X100795000Y-53442959D01*
X95955000Y-57442959D02*
X108515000Y-57442959D01*
X96019000Y-57042959D02*
X108451000Y-57042959D01*
X103675000Y-53242959D02*
X106142000Y-53242959D01*
X96553000Y-55442959D02*
X100795000Y-55442959D01*
X103675000Y-55482959D02*
X107937000Y-55482959D01*
X97162000Y-54442959D02*
X100795000Y-54442959D01*
X100251000Y-52202959D02*
X104219000Y-52202959D01*
X103675000Y-54722959D02*
X107505000Y-54722959D01*
X96992000Y-54682959D02*
X100795000Y-54682959D01*
X96327000Y-55962959D02*
X108143000Y-55962959D01*
X97075000Y-54562959D02*
X100795000Y-54562959D01*
X103675000Y-53802959D02*
X106763000Y-53802959D01*
X97707000Y-53802959D02*
X100795000Y-53802959D01*
X96089000Y-56722959D02*
X108381000Y-56722959D01*
X103675000Y-55042959D02*
X107703000Y-55042959D01*
X98711000Y-52962959D02*
X105759000Y-52962959D01*
X103675000Y-55402959D02*
X107897000Y-55402959D01*
X103675000Y-54642959D02*
X107451000Y-54642959D01*
X97450000Y-54082959D02*
X100795000Y-54082959D01*
X97521000Y-54002959D02*
X100795000Y-54002959D01*
X95909000Y-58003959D02*
X108561000Y-58003959D01*
X103675000Y-53722959D02*
X106684000Y-53722959D01*
X97868000Y-53642959D02*
X100795000Y-53642959D01*
X103675000Y-55722959D02*
X108046000Y-55722959D01*
X95945000Y-57522959D02*
X108525000Y-57522959D01*
X96965000Y-54722959D02*
X100795000Y-54722959D01*
X96838000Y-54922959D02*
X100795000Y-54922959D01*
X96744000Y-55082959D02*
X100795000Y-55082959D01*
X103675000Y-53642959D02*
X106602000Y-53642959D01*
X96119000Y-56602959D02*
X108351000Y-56602959D01*
X99166000Y-52682959D02*
X105304000Y-52682959D01*
X103675000Y-54562959D02*
X107395000Y-54562959D01*
X103675000Y-54202959D02*
X107120000Y-54202959D01*
X103675000Y-54802959D02*
X107557000Y-54802959D01*
X99923000Y-52322959D02*
X104547000Y-52322959D01*
X97019000Y-54642959D02*
X100795000Y-54642959D01*
X96342000Y-55922959D02*
X100795000Y-55922959D01*
X101478000Y-51922959D02*
X102992000Y-51922959D01*
X95908000Y-58043959D02*
X108562000Y-58043959D01*
X103675000Y-55122959D02*
X107749000Y-55122959D01*
X96069000Y-56802959D02*
X108401000Y-56802959D01*
X97485000Y-54042959D02*
X100795000Y-54042959D01*
X98379000Y-53202959D02*
X100795000Y-53202959D01*
X97630000Y-53882959D02*
X100795000Y-53882959D01*
X96407000Y-55762959D02*
X100795000Y-55762959D01*
X96699000Y-55162959D02*
X100795000Y-55162959D01*
X96677000Y-55202959D02*
X100795000Y-55202959D01*
X98539000Y-53082959D02*
X100795000Y-53082959D01*
X98652000Y-53002959D02*
X105818000Y-53002959D01*
X95977000Y-57282959D02*
X108493000Y-57282959D01*
X96227000Y-56242959D02*
X108243000Y-56242959D01*
X98180000Y-53362959D02*
X100795000Y-53362959D01*
X95950000Y-57482959D02*
X108520000Y-57482959D01*
X103675000Y-55002959D02*
X107680000Y-55002959D01*
X103675000Y-55322959D02*
X107857000Y-55322959D01*
X98960000Y-52802959D02*
X105510000Y-52802959D01*
X103675000Y-54362959D02*
X107247000Y-54362959D01*
X96913000Y-54802959D02*
X100795000Y-54802959D01*
X103675000Y-54162959D02*
X107087000Y-54162959D01*
X98485000Y-53122959D02*
X100795000Y-53122959D01*
X103675000Y-55802959D02*
X108080000Y-55802959D01*
X96034000Y-56962959D02*
X108436000Y-56962959D01*
X99731000Y-52402959D02*
X104739000Y-52402959D01*
X103675000Y-54922959D02*
X107632000Y-54922959D01*
X100135000Y-52242959D02*
X104335000Y-52242959D01*
X103675000Y-55282959D02*
X107836000Y-55282959D01*
X103675000Y-55842959D02*
X108096000Y-55842959D01*
X97557000Y-53962959D02*
X100795000Y-53962959D01*
X96496000Y-55562959D02*
X100795000Y-55562959D01*
X98660000Y-65061041D02*
X98660000Y-63811041D01*
X103675000Y-54522959D02*
X107366000Y-54522959D01*
X103675000Y-53762959D02*
X106724000Y-53762959D01*
X96214000Y-56282959D02*
X108256000Y-56282959D01*
X96109000Y-56642959D02*
X108361000Y-56642959D01*
X96188000Y-56362959D02*
X108282000Y-56362959D01*
X108605000Y-58243959D02*
G75*
G03*
X108605000Y-58243959I-6370000J0D01*
G01*
X66950000Y-34832936D02*
X66950000Y-36287064D01*
X65130000Y-34832936D02*
X65130000Y-36287064D01*
X56690000Y-74209000D02*
X55290000Y-74209000D01*
X55290000Y-74209000D02*
X55290000Y-72309000D01*
X55290000Y-72309000D02*
X56690000Y-72309000D01*
X56690000Y-72309000D02*
X56690000Y-74209000D01*
X104240000Y-26595000D02*
X98940000Y-26595000D01*
X102590000Y-34335000D02*
X104240000Y-34335000D01*
X98940000Y-34335000D02*
X100590000Y-34335000D01*
X98940000Y-26595000D02*
X98940000Y-34335000D01*
X104240000Y-34335000D02*
X104240000Y-26595000D01*
X102590000Y-34335000D02*
G75*
G03*
X100590000Y-34335000I-1000000J0D01*
G01*
X87117600Y-32067048D02*
X87117600Y-33489552D01*
X85297600Y-32067048D02*
X85297600Y-33489552D01*
X47900000Y-36287064D02*
X47900000Y-34832936D01*
X46080000Y-36287064D02*
X46080000Y-34832936D01*
X85334000Y-63825200D02*
X85534000Y-63825200D01*
X91534000Y-70525200D02*
X91534000Y-63825200D01*
X85334000Y-70525200D02*
X85534000Y-70525200D01*
X85334000Y-63825200D02*
X85334000Y-70525200D01*
X89634000Y-70525200D02*
X87234000Y-70525200D01*
X89634000Y-63825200D02*
X87234000Y-63825200D01*
X91534000Y-70525200D02*
X91334000Y-70525200D01*
X91534000Y-63825200D02*
X91334000Y-63825200D01*
X85297600Y-38658852D02*
X85297600Y-37236348D01*
X87117600Y-38658852D02*
X87117600Y-37236348D01*
X44090000Y-36271252D02*
X44090000Y-34848748D01*
X42270000Y-36271252D02*
X42270000Y-34848748D01*
X40280000Y-36287064D02*
X40280000Y-34832936D01*
X38460000Y-36287064D02*
X38460000Y-34832936D01*
X73183000Y-57533500D02*
X73183000Y-60203500D01*
X32413000Y-42163500D02*
X32413000Y-60203500D01*
X37623000Y-57533500D02*
X37623000Y-60203500D01*
X37623000Y-60203500D02*
X75853000Y-60203500D01*
X73183000Y-44833500D02*
X73183000Y-42163500D01*
X32413000Y-60203500D02*
X35083000Y-60203500D01*
X75853000Y-60203500D02*
X75853000Y-42163500D01*
X35083000Y-44833500D02*
X73183000Y-44833500D01*
X75853000Y-42163500D02*
X32413000Y-42163500D01*
X35083000Y-44833500D02*
X35083000Y-42163500D01*
X37623000Y-57533500D02*
X35083000Y-57533500D01*
X37623000Y-57533500D02*
X73183000Y-57533500D01*
X35083000Y-57533500D02*
X35083000Y-60203500D01*
X108698140Y-71494875D02*
X104567223Y-67363957D01*
X104567223Y-67363957D02*
G75*
G03*
X108698140Y-73111321I-808223J-4939141D01*
G01*
X79986000Y-74601000D02*
X77940000Y-74601000D01*
X79986000Y-73880000D02*
X77804000Y-73880000D01*
X82740000Y-76401000D02*
X79312000Y-76401000D01*
X84044000Y-74801000D02*
X82066000Y-74801000D01*
X83369000Y-75881000D02*
X82066000Y-75881000D01*
X83662000Y-75521000D02*
X82066000Y-75521000D01*
X84100000Y-74641000D02*
X82066000Y-74641000D01*
X82085000Y-76721000D02*
X79967000Y-76721000D01*
X83208000Y-76041000D02*
X78844000Y-76041000D01*
X79986000Y-75241000D02*
X78214000Y-75241000D01*
X79986000Y-75161000D02*
X78170000Y-75161000D01*
X83291000Y-75961000D02*
X78761000Y-75961000D01*
X83604000Y-75601000D02*
X82066000Y-75601000D01*
X84250000Y-73840000D02*
X77802000Y-73840000D01*
X79986000Y-74961000D02*
X78074000Y-74961000D01*
X79986000Y-75041000D02*
X78110000Y-75041000D01*
X82288000Y-76641000D02*
X79764000Y-76641000D01*
X83960000Y-75001000D02*
X82066000Y-75001000D01*
X79986000Y-75601000D02*
X78448000Y-75601000D01*
X79986000Y-75641000D02*
X78478000Y-75641000D01*
X81659000Y-76841000D02*
X80393000Y-76841000D01*
X79986000Y-74240000D02*
X77851000Y-74240000D01*
X79986000Y-74361000D02*
X77876000Y-74361000D01*
X82916000Y-76281000D02*
X79136000Y-76281000D01*
X81828000Y-76801000D02*
X80224000Y-76801000D01*
X83021000Y-76201000D02*
X79031000Y-76201000D01*
X79986000Y-74481000D02*
X77905000Y-74481000D01*
X79986000Y-75841000D02*
X78646000Y-75841000D01*
X83792000Y-75321000D02*
X82066000Y-75321000D01*
X83331000Y-75921000D02*
X82066000Y-75921000D01*
X82376000Y-76601000D02*
X79676000Y-76601000D01*
X79986000Y-74320000D02*
X77867000Y-74320000D01*
X82802000Y-76361000D02*
X79250000Y-76361000D01*
X84254000Y-73760000D02*
X77798000Y-73760000D01*
X84012000Y-74881000D02*
X82066000Y-74881000D01*
X83118000Y-76121000D02*
X78934000Y-76121000D01*
X79986000Y-74160000D02*
X77837000Y-74160000D01*
X79986000Y-75441000D02*
X78336000Y-75441000D01*
X83860000Y-75201000D02*
X82066000Y-75201000D01*
X83996000Y-74921000D02*
X82066000Y-74921000D01*
X79986000Y-74761000D02*
X77993000Y-74761000D01*
X84227000Y-74080000D02*
X82066000Y-74080000D01*
X84237000Y-74000000D02*
X82066000Y-74000000D01*
X79986000Y-74200000D02*
X77844000Y-74200000D01*
X79986000Y-75081000D02*
X78130000Y-75081000D01*
X84232000Y-74040000D02*
X82066000Y-74040000D01*
X84201000Y-74240000D02*
X82066000Y-74240000D01*
X83902000Y-75121000D02*
X82066000Y-75121000D01*
X79986000Y-74641000D02*
X77952000Y-74641000D01*
X83574000Y-75641000D02*
X82066000Y-75641000D01*
X84256000Y-73640000D02*
X77796000Y-73640000D01*
X79986000Y-74401000D02*
X77885000Y-74401000D01*
X84244000Y-73920000D02*
X82066000Y-73920000D01*
X83406000Y-75841000D02*
X82066000Y-75841000D01*
X79986000Y-75801000D02*
X78610000Y-75801000D01*
X79986000Y-75881000D02*
X78683000Y-75881000D01*
X84087000Y-74681000D02*
X82066000Y-74681000D01*
X83442000Y-75801000D02*
X82066000Y-75801000D01*
X82676000Y-76441000D02*
X79376000Y-76441000D01*
X79986000Y-74721000D02*
X77979000Y-74721000D01*
X79986000Y-75361000D02*
X78284000Y-75361000D01*
X83716000Y-75441000D02*
X82066000Y-75441000D01*
X83768000Y-75361000D02*
X82066000Y-75361000D01*
X79986000Y-75121000D02*
X78150000Y-75121000D01*
X84176000Y-74361000D02*
X82066000Y-74361000D01*
X84028000Y-74841000D02*
X82066000Y-74841000D01*
X83882000Y-75161000D02*
X82066000Y-75161000D01*
X84073000Y-74721000D02*
X82066000Y-74721000D01*
X79986000Y-75761000D02*
X78576000Y-75761000D01*
X83633000Y-75561000D02*
X82066000Y-75561000D01*
X83250000Y-76001000D02*
X78802000Y-76001000D01*
X79986000Y-74561000D02*
X77928000Y-74561000D01*
X84136000Y-74521000D02*
X82066000Y-74521000D01*
X84215000Y-74160000D02*
X82066000Y-74160000D01*
X84157000Y-74441000D02*
X82066000Y-74441000D01*
X84185000Y-74320000D02*
X82066000Y-74320000D01*
X83742000Y-75401000D02*
X82066000Y-75401000D01*
X79986000Y-74921000D02*
X78056000Y-74921000D01*
X79986000Y-75321000D02*
X78260000Y-75321000D01*
X79986000Y-75401000D02*
X78310000Y-75401000D01*
X83942000Y-75041000D02*
X82066000Y-75041000D01*
X84193000Y-74280000D02*
X82066000Y-74280000D01*
X83838000Y-75241000D02*
X82066000Y-75241000D01*
X84241000Y-73960000D02*
X82066000Y-73960000D01*
X79986000Y-74441000D02*
X77895000Y-74441000D01*
X83180000Y-70454759D02*
X82550000Y-70454759D01*
X79986000Y-73920000D02*
X77808000Y-73920000D01*
X79986000Y-74841000D02*
X78024000Y-74841000D01*
X84147000Y-74481000D02*
X82066000Y-74481000D01*
X83922000Y-75081000D02*
X82066000Y-75081000D01*
X83070000Y-76161000D02*
X78982000Y-76161000D01*
X81966000Y-76761000D02*
X80086000Y-76761000D01*
X82607000Y-76481000D02*
X79445000Y-76481000D01*
X83542000Y-75681000D02*
X82066000Y-75681000D01*
X79986000Y-75681000D02*
X78510000Y-75681000D01*
X83816000Y-75281000D02*
X82066000Y-75281000D01*
X84221000Y-74120000D02*
X82066000Y-74120000D01*
X79986000Y-74280000D02*
X77859000Y-74280000D01*
X79986000Y-75481000D02*
X78362000Y-75481000D01*
X79986000Y-74000000D02*
X77815000Y-74000000D01*
X79986000Y-75721000D02*
X78542000Y-75721000D01*
X79986000Y-75001000D02*
X78092000Y-75001000D01*
X82970000Y-76241000D02*
X79082000Y-76241000D01*
X84059000Y-74761000D02*
X82066000Y-74761000D01*
X83978000Y-74961000D02*
X82066000Y-74961000D01*
X79986000Y-75201000D02*
X78192000Y-75201000D01*
X84256000Y-73680000D02*
X77796000Y-73680000D01*
X84256000Y-73720000D02*
X77796000Y-73720000D01*
X79986000Y-73960000D02*
X77811000Y-73960000D01*
X79986000Y-74881000D02*
X78040000Y-74881000D01*
X84124000Y-74561000D02*
X82066000Y-74561000D01*
X82191000Y-76681000D02*
X79861000Y-76681000D01*
X83163000Y-76081000D02*
X78889000Y-76081000D01*
X81428000Y-76881000D02*
X80624000Y-76881000D01*
X84112000Y-74601000D02*
X82066000Y-74601000D01*
X83510000Y-75721000D02*
X82066000Y-75721000D01*
X79986000Y-74120000D02*
X77831000Y-74120000D01*
X83690000Y-75481000D02*
X82066000Y-75481000D01*
X79986000Y-74521000D02*
X77916000Y-74521000D01*
X79986000Y-74080000D02*
X77825000Y-74080000D01*
X84167000Y-74401000D02*
X82066000Y-74401000D01*
X79986000Y-74801000D02*
X78008000Y-74801000D01*
X84253000Y-73800000D02*
X77799000Y-73800000D01*
X79986000Y-75921000D02*
X78721000Y-75921000D01*
X83476000Y-75761000D02*
X82066000Y-75761000D01*
X82865000Y-70139759D02*
X82865000Y-70769759D01*
X79986000Y-75561000D02*
X78419000Y-75561000D01*
X79986000Y-75281000D02*
X78236000Y-75281000D01*
X84248000Y-73880000D02*
X82066000Y-73880000D01*
X82458000Y-76561000D02*
X79594000Y-76561000D01*
X79986000Y-75521000D02*
X78390000Y-75521000D01*
X82535000Y-76521000D02*
X79517000Y-76521000D01*
X79986000Y-74681000D02*
X77965000Y-74681000D01*
X82860000Y-76321000D02*
X79192000Y-76321000D01*
X84208000Y-74200000D02*
X82066000Y-74200000D01*
X79986000Y-74040000D02*
X77820000Y-74040000D01*
X84296000Y-73640000D02*
G75*
G03*
X84296000Y-73640000I-3270000J0D01*
G01*
X106665000Y-42260000D02*
X106665000Y-44100000D01*
X105715000Y-43180000D02*
X106665000Y-43180000D01*
X110505000Y-42260000D02*
X106665000Y-42260000D01*
X106665000Y-44100000D02*
X110505000Y-44100000D01*
X110505000Y-44100000D02*
X110505000Y-42260000D01*
X111455000Y-43180000D02*
X110505000Y-43180000D01*
X61320000Y-34832936D02*
X61320000Y-36287064D01*
X63140000Y-34832936D02*
X63140000Y-36287064D01*
%LPC*%
D14*
X91050000Y-26500000D02*
G75*
G03*
X91050000Y-26500000I-1550000J0D01*
G01*
X91050000Y-76000000D02*
G75*
G03*
X91050000Y-76000000I-1550000J0D01*
G01*
X33050000Y-76000000D02*
G75*
G03*
X33050000Y-76000000I-1550000J0D01*
G01*
X126050000Y-76000000D02*
G75*
G03*
X126050000Y-76000000I-1550000J0D01*
G01*
X33050000Y-26500000D02*
G75*
G03*
X33050000Y-26500000I-1550000J0D01*
G01*
X126050000Y-26500000D02*
G75*
G03*
X126050000Y-26500000I-1550000J0D01*
G01*
D15*
X55590000Y-72609000D02*
G75*
G03*
X56390000Y-72609000I400000J6704D01*
G01*
X56390000Y-73909000D02*
G75*
G03*
X55590000Y-73909000I-400000J-6704D01*
G01*
G36*
X56190000Y-73609000D02*
G01*
X56390000Y-73909000D01*
X55590000Y-73909000D01*
X55790000Y-73609000D01*
X55990000Y-73515648D01*
X56190000Y-73609000D01*
G37*
X56190000Y-73609000D02*
X56390000Y-73909000D01*
X55590000Y-73909000D01*
X55790000Y-73609000D01*
X55990000Y-73515648D01*
X56190000Y-73609000D01*
G36*
X56190000Y-72909000D02*
G01*
X55990000Y-73002352D01*
X55790000Y-72909000D01*
X55590000Y-72609000D01*
X56390000Y-72609000D01*
X56190000Y-72909000D01*
G37*
X56190000Y-72909000D02*
X55990000Y-73002352D01*
X55790000Y-72909000D01*
X55590000Y-72609000D01*
X56390000Y-72609000D01*
X56190000Y-72909000D01*
D16*
X59802000Y-76650000D03*
X61802000Y-76650000D03*
X63802000Y-76650000D03*
X65802000Y-76650000D03*
X67802000Y-76650000D03*
X69802000Y-76650000D03*
X71802000Y-76650000D03*
X73802000Y-76650000D03*
X73802000Y-63050000D03*
X71802000Y-63050000D03*
X69802000Y-63050000D03*
X67802000Y-63050000D03*
X65802000Y-63050000D03*
X63802000Y-63050000D03*
X61802000Y-63050000D03*
X59802000Y-63050000D03*
D17*
X90017600Y-37731200D03*
X90017600Y-33731200D03*
D18*
X104775000Y-47625000D03*
X109775000Y-47625000D03*
D19*
X31500000Y-76000000D03*
D20*
X83434000Y-46115200D03*
D21*
X83434000Y-43575200D03*
D22*
X86360000Y-48042500D03*
X86360000Y-51017500D03*
X90424000Y-48042500D03*
X90424000Y-51017500D03*
D23*
X118745000Y-62230000D03*
D24*
X118745000Y-74930000D03*
D23*
X118745000Y-27940000D03*
D24*
X118745000Y-40640000D03*
D20*
X97790000Y-45070000D03*
D21*
X97790000Y-42530000D03*
X97790000Y-39990000D03*
D25*
X123825000Y-56515000D03*
D26*
X123825000Y-51435000D03*
X123825000Y-46355000D03*
D27*
X59848000Y-49621000D03*
X59848000Y-52746000D03*
D28*
X45337897Y-52208805D03*
X45903583Y-52774490D03*
X46469268Y-53340176D03*
X47034953Y-53905861D03*
X47600639Y-54471547D03*
X48166324Y-55037232D03*
X48732010Y-55602917D03*
X49297695Y-56168603D03*
D29*
X51348305Y-56168603D03*
X51913990Y-55602917D03*
X52479676Y-55037232D03*
X53045361Y-54471547D03*
X53611047Y-53905861D03*
X54176732Y-53340176D03*
X54742417Y-52774490D03*
X55308103Y-52208805D03*
D28*
X55308103Y-50158195D03*
X54742417Y-49592510D03*
X54176732Y-49026824D03*
X53611047Y-48461139D03*
X53045361Y-47895453D03*
X52479676Y-47329768D03*
X51913990Y-46764083D03*
X51348305Y-46198397D03*
D29*
X49297695Y-46198397D03*
X48732010Y-46764083D03*
X48166324Y-47329768D03*
X47600639Y-47895453D03*
X47034953Y-48461139D03*
X46469268Y-49026824D03*
X45903583Y-49592510D03*
X45337897Y-50158195D03*
D30*
X109000000Y-38100000D03*
D31*
X109000000Y-27940000D03*
D32*
X39870500Y-54612500D03*
X42995500Y-54612500D03*
D33*
X82200000Y-37780000D03*
D34*
X75900000Y-35500000D03*
D33*
X82200000Y-33220000D03*
D35*
X54610000Y-37110000D03*
X54610000Y-34010000D03*
D36*
X114000000Y-47625000D03*
D37*
X114000000Y-55245000D03*
D19*
X124500000Y-26500000D03*
X31500000Y-26500000D03*
X89500000Y-26500000D03*
D38*
X58420000Y-34010000D03*
X58420000Y-37110000D03*
D30*
X113665000Y-38100000D03*
D31*
X113665000Y-27940000D03*
D35*
X50800000Y-37110000D03*
X50800000Y-34010000D03*
X86360000Y-58700000D03*
X86360000Y-55600000D03*
D17*
X34290000Y-36500000D03*
X34290000Y-32500000D03*
D35*
X90424000Y-58700000D03*
X90424000Y-55600000D03*
D23*
X102235000Y-61993959D03*
D39*
X102235000Y-54493959D03*
D38*
X66040000Y-34010000D03*
X66040000Y-37110000D03*
D18*
X55990000Y-70309000D03*
D30*
X105400000Y-33005000D03*
D31*
X105400000Y-30465000D03*
X105400000Y-27925000D03*
X97780000Y-27925000D03*
X97780000Y-30465000D03*
X97780000Y-33005000D03*
D27*
X86207600Y-34340800D03*
X86207600Y-31215800D03*
D35*
X46990000Y-37110000D03*
X46990000Y-34010000D03*
D40*
X90434000Y-70575200D03*
X90434000Y-63775200D03*
X86434000Y-70575200D03*
X86434000Y-63775200D03*
D41*
X86207600Y-36385100D03*
X86207600Y-39510100D03*
X43180000Y-37122500D03*
X43180000Y-33997500D03*
D35*
X39370000Y-37110000D03*
X39370000Y-34010000D03*
D30*
X36353000Y-58803500D03*
D31*
X38893000Y-58803500D03*
X41433000Y-58803500D03*
X43973000Y-58803500D03*
X46513000Y-58803500D03*
X49053000Y-58803500D03*
X51593000Y-58803500D03*
X54133000Y-58803500D03*
X56673000Y-58803500D03*
X59213000Y-58803500D03*
X61753000Y-58803500D03*
X64293000Y-58803500D03*
X66833000Y-58803500D03*
X69373000Y-58803500D03*
X71913000Y-58803500D03*
X71913000Y-43563500D03*
X69373000Y-43563500D03*
X66833000Y-43563500D03*
X64293000Y-43563500D03*
X61753000Y-43563500D03*
X59213000Y-43563500D03*
X56673000Y-43563500D03*
X54133000Y-43563500D03*
X51593000Y-43563500D03*
X49053000Y-43563500D03*
X46513000Y-43563500D03*
X43973000Y-43563500D03*
X41433000Y-43563500D03*
X38893000Y-43563500D03*
X36353000Y-43563500D03*
D19*
X89500000Y-76000000D03*
D42*
X107351102Y-72303098D03*
D43*
X103759000Y-68710996D03*
X100166897Y-72303098D03*
X103759000Y-75895200D03*
D30*
X81026000Y-72390000D03*
D18*
X81026000Y-74890000D03*
D36*
X112395000Y-43180000D03*
D37*
X104775000Y-43180000D03*
D38*
X62230000Y-34010000D03*
X62230000Y-37110000D03*
D19*
X124500000Y-76000000D03*
D20*
X36365000Y-27800000D03*
D21*
X36365000Y-25260000D03*
X38905000Y-27800000D03*
X38905000Y-25260000D03*
X41445000Y-27800000D03*
X41445000Y-25260000D03*
X43985000Y-27800000D03*
X43985000Y-25260000D03*
X46525000Y-27800000D03*
X46525000Y-25260000D03*
X49065000Y-27800000D03*
X49065000Y-25260000D03*
X51605000Y-27800000D03*
X51605000Y-25260000D03*
X54145000Y-27800000D03*
X54145000Y-25260000D03*
X56685000Y-27800000D03*
X56685000Y-25260000D03*
X59225000Y-27800000D03*
X59225000Y-25260000D03*
X61765000Y-27800000D03*
X61765000Y-25260000D03*
X64305000Y-27800000D03*
X64305000Y-25260000D03*
X66845000Y-27800000D03*
X66845000Y-25260000D03*
X69385000Y-27800000D03*
X69385000Y-25260000D03*
X71925000Y-27800000D03*
X71925000Y-25260000D03*
X74465000Y-27800000D03*
X74465000Y-25260000D03*
X77005000Y-27800000D03*
X77005000Y-25260000D03*
X79545000Y-27800000D03*
X79545000Y-25260000D03*
X82085000Y-27800000D03*
X82085000Y-25260000D03*
X84625000Y-27800000D03*
X84625000Y-25260000D03*
M02*
