G04 #@! TF.GenerationSoftware,KiCad,Pcbnew,6.0.7-1.fc36*
G04 #@! TF.CreationDate,2022-08-13T19:37:31+02:00*
G04 #@! TF.ProjectId,drahtlos_klingel,64726168-746c-46f7-935f-6b6c696e6765,rev?*
G04 #@! TF.SameCoordinates,Original*
G04 #@! TF.FileFunction,Soldermask,Top*
G04 #@! TF.FilePolarity,Negative*
%FSLAX46Y46*%
G04 Gerber Fmt 4.6, Leading zero omitted, Abs format (unit mm)*
G04 Created by KiCad (PCBNEW 6.0.7-1.fc36) date 2022-08-13 19:37:31*
%MOMM*%
%LPD*%
G01*
G04 APERTURE LIST*
G04 Aperture macros list*
%AMRoundRect*
0 Rectangle with rounded corners*
0 $1 Rounding radius*
0 $2 $3 $4 $5 $6 $7 $8 $9 X,Y pos of 4 corners*
0 Add a 4 corners polygon primitive as box body*
4,1,4,$2,$3,$4,$5,$6,$7,$8,$9,$2,$3,0*
0 Add four circle primitives for the rounded corners*
1,1,$1+$1,$2,$3*
1,1,$1+$1,$4,$5*
1,1,$1+$1,$6,$7*
1,1,$1+$1,$8,$9*
0 Add four rect primitives between the rounded corners*
20,1,$1+$1,$2,$3,$4,$5,0*
20,1,$1+$1,$4,$5,$6,$7,0*
20,1,$1+$1,$6,$7,$8,$9,0*
20,1,$1+$1,$8,$9,$2,$3,0*%
%AMHorizOval*
0 Thick line with rounded ends*
0 $1 width*
0 $2 $3 position (X,Y) of the first rounded end (center of the circle)*
0 $4 $5 position (X,Y) of the second rounded end (center of the circle)*
0 Add line between two ends*
20,1,$1,$2,$3,$4,$5,0*
0 Add two circle primitives to create the rounded ends*
1,1,$1,$2,$3*
1,1,$1,$4,$5*%
%AMRotRect*
0 Rectangle, with rotation*
0 The origin of the aperture is its center*
0 $1 length*
0 $2 width*
0 $3 Rotation angle, in degrees counterclockwise*
0 Add horizontal line*
21,1,$1,$2,0,0,$3*%
G04 Aperture macros list end*
%ADD10C,3.100000*%
%ADD11C,0.200000*%
%ADD12O,1.200000X2.000000*%
%ADD13R,1.800000X2.500000*%
%ADD14C,1.600000*%
%ADD15C,2.700000*%
%ADD16R,1.700000X1.700000*%
%ADD17O,1.700000X1.700000*%
%ADD18RoundRect,0.250001X-0.624999X0.462499X-0.624999X-0.462499X0.624999X-0.462499X0.624999X0.462499X0*%
%ADD19R,2.400000X2.400000*%
%ADD20O,2.400000X2.400000*%
%ADD21R,3.000000X3.000000*%
%ADD22C,3.000000*%
%ADD23RoundRect,0.250000X-0.650000X0.412500X-0.650000X-0.412500X0.650000X-0.412500X0.650000X0.412500X0*%
%ADD24RotRect,1.600000X0.550000X45.000000*%
%ADD25RotRect,1.600000X0.550000X135.000000*%
%ADD26R,1.600000X1.600000*%
%ADD27O,1.600000X1.600000*%
%ADD28RoundRect,0.250000X-0.412500X-0.650000X0.412500X-0.650000X0.412500X0.650000X-0.412500X0.650000X0*%
%ADD29R,2.200000X1.200000*%
%ADD30R,6.400000X5.800000*%
%ADD31RoundRect,0.250000X0.625000X-0.400000X0.625000X0.400000X-0.625000X0.400000X-0.625000X-0.400000X0*%
%ADD32C,1.400000*%
%ADD33O,1.400000X1.400000*%
%ADD34RoundRect,0.250000X-0.625000X0.400000X-0.625000X-0.400000X0.625000X-0.400000X0.625000X0.400000X0*%
%ADD35C,2.400000*%
%ADD36R,1.000000X3.200000*%
%ADD37RoundRect,0.250000X0.650000X-0.412500X0.650000X0.412500X-0.650000X0.412500X-0.650000X-0.412500X0*%
%ADD38RotRect,2.000000X2.000000X225.000000*%
%ADD39HorizOval,2.000000X0.000000X0.000000X0.000000X0.000000X0*%
G04 APERTURE END LIST*
D10*
X91050000Y-26500000D02*
G75*
G03*
X91050000Y-26500000I-1550000J0D01*
G01*
X91050000Y-76000000D02*
G75*
G03*
X91050000Y-76000000I-1550000J0D01*
G01*
X33050000Y-76000000D02*
G75*
G03*
X33050000Y-76000000I-1550000J0D01*
G01*
X126050000Y-76000000D02*
G75*
G03*
X126050000Y-76000000I-1550000J0D01*
G01*
X33050000Y-26500000D02*
G75*
G03*
X33050000Y-26500000I-1550000J0D01*
G01*
X126050000Y-26500000D02*
G75*
G03*
X126050000Y-26500000I-1550000J0D01*
G01*
D11*
X55590000Y-72609000D02*
G75*
G03*
X56390000Y-72609000I400000J6704D01*
G01*
X56390000Y-73909000D02*
G75*
G03*
X55590000Y-73909000I-400000J-6704D01*
G01*
G36*
X56190000Y-73609000D02*
G01*
X56390000Y-73909000D01*
X55590000Y-73909000D01*
X55790000Y-73609000D01*
X55990000Y-73515648D01*
X56190000Y-73609000D01*
G37*
X56190000Y-73609000D02*
X56390000Y-73909000D01*
X55590000Y-73909000D01*
X55790000Y-73609000D01*
X55990000Y-73515648D01*
X56190000Y-73609000D01*
G36*
X56190000Y-72909000D02*
G01*
X55990000Y-73002352D01*
X55790000Y-72909000D01*
X55590000Y-72609000D01*
X56390000Y-72609000D01*
X56190000Y-72909000D01*
G37*
X56190000Y-72909000D02*
X55990000Y-73002352D01*
X55790000Y-72909000D01*
X55590000Y-72609000D01*
X56390000Y-72609000D01*
X56190000Y-72909000D01*
D12*
X59802000Y-76650000D03*
X61802000Y-76650000D03*
X63802000Y-76650000D03*
X65802000Y-76650000D03*
X67802000Y-76650000D03*
X69802000Y-76650000D03*
X71802000Y-76650000D03*
X73802000Y-76650000D03*
X73802000Y-63050000D03*
X71802000Y-63050000D03*
X69802000Y-63050000D03*
X67802000Y-63050000D03*
X65802000Y-63050000D03*
X63802000Y-63050000D03*
X61802000Y-63050000D03*
X59802000Y-63050000D03*
D13*
X90017600Y-37731200D03*
X90017600Y-33731200D03*
D14*
X104775000Y-47625000D03*
X109775000Y-47625000D03*
D15*
X31500000Y-76000000D03*
D16*
X83434000Y-46115200D03*
D17*
X83434000Y-43575200D03*
D18*
X86360000Y-48042500D03*
X86360000Y-51017500D03*
X90424000Y-48042500D03*
X90424000Y-51017500D03*
D19*
X118745000Y-62230000D03*
D20*
X118745000Y-74930000D03*
D19*
X118745000Y-27940000D03*
D20*
X118745000Y-40640000D03*
D16*
X97790000Y-45070000D03*
D17*
X97790000Y-42530000D03*
X97790000Y-39990000D03*
D21*
X123825000Y-56515000D03*
D22*
X123825000Y-51435000D03*
X123825000Y-46355000D03*
D23*
X59848000Y-49621000D03*
X59848000Y-52746000D03*
D24*
X45337897Y-52208805D03*
X45903583Y-52774490D03*
X46469268Y-53340176D03*
X47034953Y-53905861D03*
X47600639Y-54471547D03*
X48166324Y-55037232D03*
X48732010Y-55602917D03*
X49297695Y-56168603D03*
D25*
X51348305Y-56168603D03*
X51913990Y-55602917D03*
X52479676Y-55037232D03*
X53045361Y-54471547D03*
X53611047Y-53905861D03*
X54176732Y-53340176D03*
X54742417Y-52774490D03*
X55308103Y-52208805D03*
D24*
X55308103Y-50158195D03*
X54742417Y-49592510D03*
X54176732Y-49026824D03*
X53611047Y-48461139D03*
X53045361Y-47895453D03*
X52479676Y-47329768D03*
X51913990Y-46764083D03*
X51348305Y-46198397D03*
D25*
X49297695Y-46198397D03*
X48732010Y-46764083D03*
X48166324Y-47329768D03*
X47600639Y-47895453D03*
X47034953Y-48461139D03*
X46469268Y-49026824D03*
X45903583Y-49592510D03*
X45337897Y-50158195D03*
D26*
X109000000Y-38100000D03*
D27*
X109000000Y-27940000D03*
D28*
X39870500Y-54612500D03*
X42995500Y-54612500D03*
D29*
X82200000Y-37780000D03*
D30*
X75900000Y-35500000D03*
D29*
X82200000Y-33220000D03*
D31*
X54610000Y-37110000D03*
X54610000Y-34010000D03*
D32*
X114000000Y-47625000D03*
D33*
X114000000Y-55245000D03*
D15*
X124500000Y-26500000D03*
X31500000Y-26500000D03*
X89500000Y-26500000D03*
D34*
X58420000Y-34010000D03*
X58420000Y-37110000D03*
D26*
X113665000Y-38100000D03*
D27*
X113665000Y-27940000D03*
D31*
X50800000Y-37110000D03*
X50800000Y-34010000D03*
X86360000Y-58700000D03*
X86360000Y-55600000D03*
D13*
X34290000Y-36500000D03*
X34290000Y-32500000D03*
D31*
X90424000Y-58700000D03*
X90424000Y-55600000D03*
D19*
X102235000Y-61993959D03*
D35*
X102235000Y-54493959D03*
D34*
X66040000Y-34010000D03*
X66040000Y-37110000D03*
D14*
X55990000Y-70309000D03*
D26*
X105400000Y-33005000D03*
D27*
X105400000Y-30465000D03*
X105400000Y-27925000D03*
X97780000Y-27925000D03*
X97780000Y-30465000D03*
X97780000Y-33005000D03*
D23*
X86207600Y-34340800D03*
X86207600Y-31215800D03*
D31*
X46990000Y-37110000D03*
X46990000Y-34010000D03*
D36*
X90434000Y-70575200D03*
X90434000Y-63775200D03*
X86434000Y-70575200D03*
X86434000Y-63775200D03*
D37*
X86207600Y-36385100D03*
X86207600Y-39510100D03*
X43180000Y-37122500D03*
X43180000Y-33997500D03*
D31*
X39370000Y-37110000D03*
X39370000Y-34010000D03*
D26*
X36353000Y-58803500D03*
D27*
X38893000Y-58803500D03*
X41433000Y-58803500D03*
X43973000Y-58803500D03*
X46513000Y-58803500D03*
X49053000Y-58803500D03*
X51593000Y-58803500D03*
X54133000Y-58803500D03*
X56673000Y-58803500D03*
X59213000Y-58803500D03*
X61753000Y-58803500D03*
X64293000Y-58803500D03*
X66833000Y-58803500D03*
X69373000Y-58803500D03*
X71913000Y-58803500D03*
X71913000Y-43563500D03*
X69373000Y-43563500D03*
X66833000Y-43563500D03*
X64293000Y-43563500D03*
X61753000Y-43563500D03*
X59213000Y-43563500D03*
X56673000Y-43563500D03*
X54133000Y-43563500D03*
X51593000Y-43563500D03*
X49053000Y-43563500D03*
X46513000Y-43563500D03*
X43973000Y-43563500D03*
X41433000Y-43563500D03*
X38893000Y-43563500D03*
X36353000Y-43563500D03*
D15*
X89500000Y-76000000D03*
D38*
X107351102Y-72303098D03*
D39*
X103759000Y-68710996D03*
X100166897Y-72303098D03*
X103759000Y-75895200D03*
D26*
X81026000Y-72390000D03*
D14*
X81026000Y-74890000D03*
D32*
X112395000Y-43180000D03*
D33*
X104775000Y-43180000D03*
D34*
X62230000Y-34010000D03*
X62230000Y-37110000D03*
D15*
X124500000Y-76000000D03*
D16*
X36365000Y-27800000D03*
D17*
X36365000Y-25260000D03*
X38905000Y-27800000D03*
X38905000Y-25260000D03*
X41445000Y-27800000D03*
X41445000Y-25260000D03*
X43985000Y-27800000D03*
X43985000Y-25260000D03*
X46525000Y-27800000D03*
X46525000Y-25260000D03*
X49065000Y-27800000D03*
X49065000Y-25260000D03*
X51605000Y-27800000D03*
X51605000Y-25260000D03*
X54145000Y-27800000D03*
X54145000Y-25260000D03*
X56685000Y-27800000D03*
X56685000Y-25260000D03*
X59225000Y-27800000D03*
X59225000Y-25260000D03*
X61765000Y-27800000D03*
X61765000Y-25260000D03*
X64305000Y-27800000D03*
X64305000Y-25260000D03*
X66845000Y-27800000D03*
X66845000Y-25260000D03*
X69385000Y-27800000D03*
X69385000Y-25260000D03*
X71925000Y-27800000D03*
X71925000Y-25260000D03*
X74465000Y-27800000D03*
X74465000Y-25260000D03*
X77005000Y-27800000D03*
X77005000Y-25260000D03*
X79545000Y-27800000D03*
X79545000Y-25260000D03*
X82085000Y-27800000D03*
X82085000Y-25260000D03*
X84625000Y-27800000D03*
X84625000Y-25260000D03*
M02*
