G04 #@! TF.GenerationSoftware,KiCad,Pcbnew,6.0.7-1.fc36*
G04 #@! TF.CreationDate,2022-08-13T19:37:31+02:00*
G04 #@! TF.ProjectId,drahtlos_klingel,64726168-746c-46f7-935f-6b6c696e6765,rev?*
G04 #@! TF.SameCoordinates,Original*
G04 #@! TF.FileFunction,Copper,L1,Top*
G04 #@! TF.FilePolarity,Positive*
%FSLAX46Y46*%
G04 Gerber Fmt 4.6, Leading zero omitted, Abs format (unit mm)*
G04 Created by KiCad (PCBNEW 6.0.7-1.fc36) date 2022-08-13 19:37:31*
%MOMM*%
%LPD*%
G01*
G04 APERTURE LIST*
G04 Aperture macros list*
%AMRoundRect*
0 Rectangle with rounded corners*
0 $1 Rounding radius*
0 $2 $3 $4 $5 $6 $7 $8 $9 X,Y pos of 4 corners*
0 Add a 4 corners polygon primitive as box body*
4,1,4,$2,$3,$4,$5,$6,$7,$8,$9,$2,$3,0*
0 Add four circle primitives for the rounded corners*
1,1,$1+$1,$2,$3*
1,1,$1+$1,$4,$5*
1,1,$1+$1,$6,$7*
1,1,$1+$1,$8,$9*
0 Add four rect primitives between the rounded corners*
20,1,$1+$1,$2,$3,$4,$5,0*
20,1,$1+$1,$4,$5,$6,$7,0*
20,1,$1+$1,$6,$7,$8,$9,0*
20,1,$1+$1,$8,$9,$2,$3,0*%
%AMHorizOval*
0 Thick line with rounded ends*
0 $1 width*
0 $2 $3 position (X,Y) of the first rounded end (center of the circle)*
0 $4 $5 position (X,Y) of the second rounded end (center of the circle)*
0 Add line between two ends*
20,1,$1,$2,$3,$4,$5,0*
0 Add two circle primitives to create the rounded ends*
1,1,$1,$2,$3*
1,1,$1,$4,$5*%
%AMRotRect*
0 Rectangle, with rotation*
0 The origin of the aperture is its center*
0 $1 length*
0 $2 width*
0 $3 Rotation angle, in degrees counterclockwise*
0 Add horizontal line*
21,1,$1,$2,0,0,$3*%
%AMOutline4P*
0 Free polygon, 4 corners , with rotation*
0 The origin of the aperture is its center*
0 number of corners: always 4*
0 $1 to $8 corner X, Y*
0 $9 Rotation angle, in degrees counterclockwise*
0 create outline with 4 corners*
4,1,4,$1,$2,$3,$4,$5,$6,$7,$8,$1,$2,$9*%
G04 Aperture macros list end*
G04 #@! TA.AperFunction,NonConductor*
%ADD10C,0.381000*%
G04 #@! TD*
G04 #@! TA.AperFunction,EtchedComponent*
%ADD11C,1.000000*%
G04 #@! TD*
G04 #@! TA.AperFunction,EtchedComponent*
%ADD12C,0.200000*%
G04 #@! TD*
G04 #@! TA.AperFunction,ComponentPad*
%ADD13O,1.200000X2.000000*%
G04 #@! TD*
G04 #@! TA.AperFunction,SMDPad,CuDef*
%ADD14R,1.800000X2.500000*%
G04 #@! TD*
G04 #@! TA.AperFunction,ComponentPad*
%ADD15C,1.600000*%
G04 #@! TD*
G04 #@! TA.AperFunction,ComponentPad*
%ADD16R,1.700000X1.700000*%
G04 #@! TD*
G04 #@! TA.AperFunction,ComponentPad*
%ADD17O,1.700000X1.700000*%
G04 #@! TD*
G04 #@! TA.AperFunction,SMDPad,CuDef*
%ADD18RoundRect,0.250001X-0.624999X0.462499X-0.624999X-0.462499X0.624999X-0.462499X0.624999X0.462499X0*%
G04 #@! TD*
G04 #@! TA.AperFunction,ComponentPad*
%ADD19R,2.400000X2.400000*%
G04 #@! TD*
G04 #@! TA.AperFunction,ComponentPad*
%ADD20O,2.400000X2.400000*%
G04 #@! TD*
G04 #@! TA.AperFunction,ComponentPad*
%ADD21R,3.000000X3.000000*%
G04 #@! TD*
G04 #@! TA.AperFunction,ComponentPad*
%ADD22C,3.000000*%
G04 #@! TD*
G04 #@! TA.AperFunction,SMDPad,CuDef*
%ADD23RoundRect,0.250000X-0.650000X0.412500X-0.650000X-0.412500X0.650000X-0.412500X0.650000X0.412500X0*%
G04 #@! TD*
G04 #@! TA.AperFunction,SMDPad,CuDef*
%ADD24RotRect,1.600000X0.550000X45.000000*%
G04 #@! TD*
G04 #@! TA.AperFunction,SMDPad,CuDef*
%ADD25RotRect,1.600000X0.550000X135.000000*%
G04 #@! TD*
G04 #@! TA.AperFunction,ComponentPad*
%ADD26R,1.600000X1.600000*%
G04 #@! TD*
G04 #@! TA.AperFunction,ComponentPad*
%ADD27O,1.600000X1.600000*%
G04 #@! TD*
G04 #@! TA.AperFunction,SMDPad,CuDef*
%ADD28RoundRect,0.250000X-0.412500X-0.650000X0.412500X-0.650000X0.412500X0.650000X-0.412500X0.650000X0*%
G04 #@! TD*
G04 #@! TA.AperFunction,SMDPad,CuDef*
%ADD29R,2.200000X1.200000*%
G04 #@! TD*
G04 #@! TA.AperFunction,SMDPad,CuDef*
%ADD30R,6.400000X5.800000*%
G04 #@! TD*
G04 #@! TA.AperFunction,SMDPad,CuDef*
%ADD31RoundRect,0.250000X0.625000X-0.400000X0.625000X0.400000X-0.625000X0.400000X-0.625000X-0.400000X0*%
G04 #@! TD*
G04 #@! TA.AperFunction,ComponentPad*
%ADD32C,1.400000*%
G04 #@! TD*
G04 #@! TA.AperFunction,ComponentPad*
%ADD33O,1.400000X1.400000*%
G04 #@! TD*
G04 #@! TA.AperFunction,SMDPad,CuDef*
%ADD34RoundRect,0.250000X-0.625000X0.400000X-0.625000X-0.400000X0.625000X-0.400000X0.625000X0.400000X0*%
G04 #@! TD*
G04 #@! TA.AperFunction,ComponentPad*
%ADD35C,2.400000*%
G04 #@! TD*
G04 #@! TA.AperFunction,ComponentPad*
%ADD36C,1.000000*%
G04 #@! TD*
G04 #@! TA.AperFunction,SMDPad,CuDef*
%ADD37Outline4P,-0.350000X-0.400000X0.350000X-0.400000X0.050000X0.400000X-0.050000X0.400000X270.000000*%
G04 #@! TD*
G04 #@! TA.AperFunction,SMDPad,CuDef*
%ADD38R,1.000000X3.200000*%
G04 #@! TD*
G04 #@! TA.AperFunction,SMDPad,CuDef*
%ADD39RoundRect,0.250000X0.650000X-0.412500X0.650000X0.412500X-0.650000X0.412500X-0.650000X-0.412500X0*%
G04 #@! TD*
G04 #@! TA.AperFunction,ComponentPad*
%ADD40RotRect,2.000000X2.000000X225.000000*%
G04 #@! TD*
G04 #@! TA.AperFunction,ComponentPad*
%ADD41HorizOval,2.000000X0.000000X0.000000X0.000000X0.000000X0*%
G04 #@! TD*
G04 #@! TA.AperFunction,ViaPad*
%ADD42C,0.800000*%
G04 #@! TD*
G04 #@! TA.AperFunction,Conductor*
%ADD43C,0.500000*%
G04 #@! TD*
G04 #@! TA.AperFunction,Conductor*
%ADD44C,1.500000*%
G04 #@! TD*
G04 #@! TA.AperFunction,Conductor*
%ADD45C,2.000000*%
G04 #@! TD*
G04 #@! TA.AperFunction,Conductor*
%ADD46C,0.381000*%
G04 #@! TD*
G04 APERTURE END LIST*
D10*
X59817007Y-71627998D02*
G75*
G03*
X56934000Y-69075200I-3158507J-662702D01*
G01*
D11*
X53990000Y-77809000D02*
X53990000Y-72809000D01*
X55990000Y-73909000D02*
X55990000Y-77809000D01*
X45990000Y-77809000D02*
X45990000Y-72809000D01*
X41990000Y-77809000D02*
X41990000Y-72809000D01*
X51990000Y-77809000D02*
X51990000Y-72809000D01*
X39990000Y-77809000D02*
X39990000Y-72809000D01*
X43990000Y-77809000D02*
X43990000Y-72809000D01*
X47990000Y-77809000D02*
X47990000Y-72809000D01*
X49990000Y-77809000D02*
X49990000Y-72809000D01*
X55990000Y-70934000D02*
X55990000Y-72609000D01*
X37990000Y-77809000D02*
X37990000Y-72809000D01*
G36*
X56623000Y-69316600D02*
G01*
X56438800Y-69672200D01*
X56388000Y-69977000D01*
X56388000Y-70739000D01*
X56261000Y-70866000D01*
X55590000Y-71039000D01*
X55490000Y-70109000D01*
X55790000Y-69109000D01*
X56083200Y-68859400D01*
X56623000Y-68859400D01*
X56623000Y-69316600D01*
G37*
D12*
X56623000Y-69316600D02*
X56438800Y-69672200D01*
X56388000Y-69977000D01*
X56388000Y-70739000D01*
X56261000Y-70866000D01*
X55590000Y-71039000D01*
X55490000Y-70109000D01*
X55790000Y-69109000D01*
X56083200Y-68859400D01*
X56623000Y-68859400D01*
X56623000Y-69316600D01*
D13*
X59802000Y-76650000D03*
X61802000Y-76650000D03*
X63802000Y-76650000D03*
X65802000Y-76650000D03*
X67802000Y-76650000D03*
X69802000Y-76650000D03*
X71802000Y-76650000D03*
X73802000Y-76650000D03*
X73802000Y-63050000D03*
X71802000Y-63050000D03*
X69802000Y-63050000D03*
X67802000Y-63050000D03*
X65802000Y-63050000D03*
X63802000Y-63050000D03*
X61802000Y-63050000D03*
X59802000Y-63050000D03*
D14*
X90017600Y-37731200D03*
X90017600Y-33731200D03*
D15*
X104775000Y-47625000D03*
X109775000Y-47625000D03*
D16*
X83434000Y-46115200D03*
D17*
X83434000Y-43575200D03*
D18*
X86360000Y-48042500D03*
X86360000Y-51017500D03*
X90424000Y-48042500D03*
X90424000Y-51017500D03*
D19*
X118745000Y-62230000D03*
D20*
X118745000Y-74930000D03*
D19*
X118745000Y-27940000D03*
D20*
X118745000Y-40640000D03*
D16*
X97790000Y-45070000D03*
D17*
X97790000Y-42530000D03*
X97790000Y-39990000D03*
D21*
X123825000Y-56515000D03*
D22*
X123825000Y-51435000D03*
X123825000Y-46355000D03*
D23*
X59848000Y-49621000D03*
X59848000Y-52746000D03*
D24*
X45337897Y-52208805D03*
X45903583Y-52774490D03*
X46469268Y-53340176D03*
X47034953Y-53905861D03*
X47600639Y-54471547D03*
X48166324Y-55037232D03*
X48732010Y-55602917D03*
X49297695Y-56168603D03*
D25*
X51348305Y-56168603D03*
X51913990Y-55602917D03*
X52479676Y-55037232D03*
X53045361Y-54471547D03*
X53611047Y-53905861D03*
X54176732Y-53340176D03*
X54742417Y-52774490D03*
X55308103Y-52208805D03*
D24*
X55308103Y-50158195D03*
X54742417Y-49592510D03*
X54176732Y-49026824D03*
X53611047Y-48461139D03*
X53045361Y-47895453D03*
X52479676Y-47329768D03*
X51913990Y-46764083D03*
X51348305Y-46198397D03*
D25*
X49297695Y-46198397D03*
X48732010Y-46764083D03*
X48166324Y-47329768D03*
X47600639Y-47895453D03*
X47034953Y-48461139D03*
X46469268Y-49026824D03*
X45903583Y-49592510D03*
X45337897Y-50158195D03*
D26*
X109000000Y-38100000D03*
D27*
X109000000Y-27940000D03*
D28*
X39870500Y-54612500D03*
X42995500Y-54612500D03*
D29*
X82200000Y-37780000D03*
D30*
X75900000Y-35500000D03*
D29*
X82200000Y-33220000D03*
D31*
X54610000Y-37110000D03*
X54610000Y-34010000D03*
D32*
X114000000Y-47625000D03*
D33*
X114000000Y-55245000D03*
D34*
X58420000Y-34010000D03*
X58420000Y-37110000D03*
D26*
X113665000Y-38100000D03*
D27*
X113665000Y-27940000D03*
D31*
X50800000Y-37110000D03*
X50800000Y-34010000D03*
X86360000Y-58700000D03*
X86360000Y-55600000D03*
D14*
X34290000Y-36500000D03*
X34290000Y-32500000D03*
D31*
X90424000Y-58700000D03*
X90424000Y-55600000D03*
D19*
X102235000Y-61993959D03*
D35*
X102235000Y-54493959D03*
D34*
X66040000Y-34010000D03*
X66040000Y-37110000D03*
D15*
X55990000Y-70309000D03*
D36*
X51990000Y-72809000D03*
X47990000Y-72809000D03*
X51990000Y-77809000D03*
X49990000Y-77809000D03*
X43990000Y-77809000D03*
X39990000Y-72809000D03*
X37990000Y-77809000D03*
X41990000Y-77809000D03*
X55990000Y-77809000D03*
X45990000Y-72809000D03*
X37990000Y-72809000D03*
X43990000Y-72809000D03*
X45990000Y-77809000D03*
X53990000Y-77809000D03*
X41990000Y-72809000D03*
X47990000Y-77809000D03*
X53990000Y-72809000D03*
X49990000Y-72809000D03*
X39990000Y-77809000D03*
D37*
X57023000Y-69088000D03*
D26*
X105400000Y-33005000D03*
D27*
X105400000Y-30465000D03*
X105400000Y-27925000D03*
X97780000Y-27925000D03*
X97780000Y-30465000D03*
X97780000Y-33005000D03*
D23*
X86207600Y-34340800D03*
X86207600Y-31215800D03*
D31*
X46990000Y-37110000D03*
X46990000Y-34010000D03*
D38*
X90434000Y-70575200D03*
X90434000Y-63775200D03*
X86434000Y-70575200D03*
X86434000Y-63775200D03*
D39*
X86207600Y-36385100D03*
X86207600Y-39510100D03*
X43180000Y-37122500D03*
X43180000Y-33997500D03*
D31*
X39370000Y-37110000D03*
X39370000Y-34010000D03*
D26*
X36353000Y-58803500D03*
D27*
X38893000Y-58803500D03*
X41433000Y-58803500D03*
X43973000Y-58803500D03*
X46513000Y-58803500D03*
X49053000Y-58803500D03*
X51593000Y-58803500D03*
X54133000Y-58803500D03*
X56673000Y-58803500D03*
X59213000Y-58803500D03*
X61753000Y-58803500D03*
X64293000Y-58803500D03*
X66833000Y-58803500D03*
X69373000Y-58803500D03*
X71913000Y-58803500D03*
X71913000Y-43563500D03*
X69373000Y-43563500D03*
X66833000Y-43563500D03*
X64293000Y-43563500D03*
X61753000Y-43563500D03*
X59213000Y-43563500D03*
X56673000Y-43563500D03*
X54133000Y-43563500D03*
X51593000Y-43563500D03*
X49053000Y-43563500D03*
X46513000Y-43563500D03*
X43973000Y-43563500D03*
X41433000Y-43563500D03*
X38893000Y-43563500D03*
X36353000Y-43563500D03*
D40*
X107351102Y-72303098D03*
D41*
X103759000Y-68710996D03*
X100166897Y-72303098D03*
X103759000Y-75895200D03*
D26*
X81026000Y-72390000D03*
D15*
X81026000Y-74890000D03*
D32*
X112395000Y-43180000D03*
D33*
X104775000Y-43180000D03*
D34*
X62230000Y-34010000D03*
X62230000Y-37110000D03*
D16*
X36365000Y-27800000D03*
D17*
X36365000Y-25260000D03*
X38905000Y-27800000D03*
X38905000Y-25260000D03*
X41445000Y-27800000D03*
X41445000Y-25260000D03*
X43985000Y-27800000D03*
X43985000Y-25260000D03*
X46525000Y-27800000D03*
X46525000Y-25260000D03*
X49065000Y-27800000D03*
X49065000Y-25260000D03*
X51605000Y-27800000D03*
X51605000Y-25260000D03*
X54145000Y-27800000D03*
X54145000Y-25260000D03*
X56685000Y-27800000D03*
X56685000Y-25260000D03*
X59225000Y-27800000D03*
X59225000Y-25260000D03*
X61765000Y-27800000D03*
X61765000Y-25260000D03*
X64305000Y-27800000D03*
X64305000Y-25260000D03*
X66845000Y-27800000D03*
X66845000Y-25260000D03*
X69385000Y-27800000D03*
X69385000Y-25260000D03*
X71925000Y-27800000D03*
X71925000Y-25260000D03*
X74465000Y-27800000D03*
X74465000Y-25260000D03*
X77005000Y-27800000D03*
X77005000Y-25260000D03*
X79545000Y-27800000D03*
X79545000Y-25260000D03*
X82085000Y-27800000D03*
X82085000Y-25260000D03*
X84625000Y-27800000D03*
X84625000Y-25260000D03*
D42*
X77724000Y-51130200D03*
X77724000Y-49225200D03*
X77724000Y-47320200D03*
X78359000Y-39700200D03*
X76454000Y-39700200D03*
X74549000Y-39700200D03*
X72644000Y-39700200D03*
X82296000Y-35509200D03*
X80250000Y-35500000D03*
X84250000Y-35500000D03*
X84074000Y-53035200D03*
X75819000Y-61468000D03*
X31115000Y-44450000D03*
X52959000Y-64465200D03*
X50419000Y-64465200D03*
X36449000Y-64465200D03*
X43434000Y-32080200D03*
X42164000Y-30810200D03*
X61834000Y-73225200D03*
X51689000Y-51590500D03*
X84074000Y-69545200D03*
X61734000Y-52575200D03*
X76962000Y-61468000D03*
X51689000Y-64465200D03*
X37719000Y-63195200D03*
X32385000Y-71120000D03*
X30734000Y-35255200D03*
X36334000Y-38875200D03*
X43434000Y-30810200D03*
X38989000Y-63195200D03*
X84074000Y-51765200D03*
X36449000Y-63195200D03*
X78934000Y-56175200D03*
X31115000Y-71120000D03*
X31115000Y-69850000D03*
X32385000Y-68580000D03*
X52070000Y-50010000D03*
X29845000Y-69850000D03*
X31115000Y-45720000D03*
X61849000Y-71325200D03*
X78333600Y-70815200D03*
X32385000Y-69850000D03*
X77184000Y-54275200D03*
X36034000Y-40075200D03*
X48641000Y-49403000D03*
X80584000Y-69475200D03*
X30734000Y-33985200D03*
X29845000Y-71120000D03*
X46482000Y-31496000D03*
X31115000Y-43180000D03*
X38989000Y-64465200D03*
X29845000Y-68580000D03*
X37719000Y-64465200D03*
X42164000Y-32080200D03*
X84074000Y-68275200D03*
X84074000Y-70815200D03*
X31115000Y-68580000D03*
X62734000Y-52575200D03*
X75819000Y-62611000D03*
X78034000Y-55225200D03*
X61849000Y-69342000D03*
X48641000Y-51943000D03*
X30734000Y-31445200D03*
X76962000Y-62611000D03*
X84074000Y-54305200D03*
X37334000Y-39675200D03*
X30734000Y-32715200D03*
X67564000Y-48006000D03*
X66802000Y-46228000D03*
X66802000Y-47244000D03*
X61976000Y-54610000D03*
X75184000Y-47320200D03*
X71628000Y-52781200D03*
X49796519Y-54076500D03*
X50577000Y-54866500D03*
X60452000Y-31496000D03*
X34439400Y-30330600D03*
X50975442Y-49177400D03*
X50572765Y-47979235D03*
X50234000Y-40565200D03*
X47534000Y-41265200D03*
X47946765Y-45353235D03*
X64250000Y-46150000D03*
X60401200Y-37998400D03*
X56457908Y-51308000D03*
X64185800Y-36677600D03*
X57734000Y-52700000D03*
X54105865Y-51311865D03*
X60401200Y-36677600D03*
X79195131Y-68886331D03*
X47884000Y-50625200D03*
X57734000Y-62075200D03*
X45212000Y-37874000D03*
X48895000Y-37084000D03*
X84709000Y-58750200D03*
X73787000Y-52781200D03*
D43*
X109000000Y-40727500D02*
X109000000Y-38100000D01*
X105400000Y-33005000D02*
X105400000Y-36820000D01*
X105400000Y-36820000D02*
X106680000Y-38100000D01*
X104775000Y-43180000D02*
X106547500Y-43180000D01*
X104775000Y-47625000D02*
X104775000Y-43180000D01*
X106547500Y-43180000D02*
X109000000Y-40727500D01*
X106680000Y-38100000D02*
X109000000Y-38100000D01*
D44*
X36353000Y-43563500D02*
X30886400Y-49030100D01*
D45*
X97790000Y-42530000D02*
X99350000Y-42530000D01*
X97155000Y-52070000D02*
X97155000Y-59690000D01*
X97790000Y-42530000D02*
X92929200Y-42530000D01*
D44*
X36449000Y-67056000D02*
X75184000Y-67056000D01*
X34290000Y-41500500D02*
X34290000Y-36500000D01*
D45*
X97155000Y-59690000D02*
X99458959Y-61993959D01*
X100965000Y-44145000D02*
X100965000Y-48260000D01*
D44*
X36353000Y-43563500D02*
X34290000Y-41500500D01*
X30886400Y-49030100D02*
X30886400Y-61493400D01*
X81026000Y-61214000D02*
X81026000Y-44323000D01*
X30886400Y-61493400D02*
X36449000Y-67056000D01*
D45*
X99458959Y-61993959D02*
X102235000Y-61993959D01*
X99350000Y-42530000D02*
X100965000Y-44145000D01*
D44*
X75184000Y-67056000D02*
X81026000Y-61214000D01*
D45*
X100965000Y-48260000D02*
X97155000Y-52070000D01*
D46*
X48418000Y-52166000D02*
X48418000Y-53654186D01*
X45777944Y-54031500D02*
X46469268Y-53340176D01*
X48641000Y-51943000D02*
X48418000Y-52166000D01*
D43*
X58752000Y-71274200D02*
X58752000Y-77624200D01*
D46*
X52070000Y-48870814D02*
X53045361Y-47895453D01*
D43*
X61802000Y-78047200D02*
X61802000Y-76650000D01*
D46*
X46525000Y-31453000D02*
X46525000Y-27800000D01*
D43*
X57484000Y-70325200D02*
X58752000Y-71274200D01*
X61668000Y-78181200D02*
X61802000Y-78047200D01*
X58752000Y-77624200D02*
X59309000Y-78181200D01*
D46*
X44046700Y-53289200D02*
X44789000Y-54031500D01*
D43*
X59309000Y-78181200D02*
X61668000Y-78181200D01*
D46*
X46482000Y-31496000D02*
X46525000Y-31453000D01*
X48418000Y-53654186D02*
X47600639Y-54471547D01*
X39870500Y-54612500D02*
X41193800Y-53289200D01*
X48641000Y-51943000D02*
X47866444Y-51943000D01*
X41193800Y-53289200D02*
X44046700Y-53289200D01*
X44789000Y-54031500D02*
X45777944Y-54031500D01*
X47866444Y-51943000D02*
X46469268Y-53340176D01*
X52070000Y-50010000D02*
X52070000Y-48870814D01*
X53315365Y-51396135D02*
X51625500Y-53086000D01*
X49276000Y-53086000D02*
X48999000Y-53363000D01*
X48166324Y-55037232D02*
X47577556Y-55626000D01*
X47577556Y-55626000D02*
X45085000Y-55626000D01*
X54742417Y-49592510D02*
X55327372Y-49007555D01*
X45085000Y-55626000D02*
X45339000Y-55626000D01*
X52154700Y-39759500D02*
X52295200Y-39900000D01*
X55327372Y-49007555D02*
X57492445Y-49007555D01*
X50472564Y-39759500D02*
X52154700Y-39759500D01*
X40866858Y-38775200D02*
X41866858Y-39775200D01*
X48999000Y-54204556D02*
X48166324Y-55037232D01*
X54157463Y-50177464D02*
X54122330Y-50177464D01*
X42995500Y-54612500D02*
X44009000Y-55626000D01*
X37846000Y-34544000D02*
X37846000Y-37693600D01*
X48999000Y-53363000D02*
X48999000Y-54204556D01*
X38380000Y-34010000D02*
X37846000Y-34544000D01*
X45339000Y-55601814D02*
X47034953Y-53905861D01*
X53315365Y-50984429D02*
X53315365Y-51396135D01*
X57500000Y-49000000D02*
X57492445Y-49007555D01*
X44009000Y-55626000D02*
X45085000Y-55626000D01*
X37846000Y-37693600D02*
X38927600Y-38775200D01*
X54122330Y-50177464D02*
X53315365Y-50984429D01*
X39370000Y-34010000D02*
X38380000Y-34010000D01*
X41866858Y-39775200D02*
X50456864Y-39775200D01*
X38927600Y-38775200D02*
X40866858Y-38775200D01*
X45339000Y-55626000D02*
X45339000Y-55601814D01*
X50456864Y-39775200D02*
X50472564Y-39759500D01*
X51625500Y-53086000D02*
X49276000Y-53086000D01*
X54742417Y-49592510D02*
X54157463Y-50177464D01*
D45*
X123825000Y-42545000D02*
X123825000Y-46355000D01*
D43*
X113665000Y-27940000D02*
X113665000Y-31165000D01*
X113665000Y-31165000D02*
X118745000Y-36245000D01*
D45*
X121920000Y-40640000D02*
X123825000Y-42545000D01*
X118745000Y-40640000D02*
X121920000Y-40640000D01*
D43*
X118745000Y-36245000D02*
X118745000Y-40640000D01*
D45*
X113434000Y-62225200D02*
X113438800Y-62230000D01*
X103759000Y-68710996D02*
X106948204Y-68710996D01*
X118745000Y-62230000D02*
X121920000Y-62230000D01*
X121920000Y-62230000D02*
X123825000Y-60325000D01*
X113438800Y-62230000D02*
X118745000Y-62230000D01*
X106948204Y-68710996D02*
X113434000Y-62225200D01*
X123825000Y-60325000D02*
X123825000Y-56515000D01*
D43*
X112395000Y-43180000D02*
X112395000Y-41105000D01*
X112395000Y-41105000D02*
X113665000Y-39835000D01*
X113665000Y-39835000D02*
X113665000Y-38100000D01*
D45*
X117810000Y-51435000D02*
X123825000Y-51435000D01*
X114000000Y-47625000D02*
X117810000Y-51435000D01*
D46*
X38213658Y-56899200D02*
X47148700Y-56899200D01*
X71628000Y-53896200D02*
X71628000Y-52781200D01*
X75184000Y-47320200D02*
X71628000Y-50876200D01*
X62151200Y-54785200D02*
X70739000Y-54785200D01*
X47148700Y-56899200D02*
X49053000Y-58803500D01*
X37665000Y-56350542D02*
X38213658Y-56899200D01*
X71628000Y-50876200D02*
X71628000Y-52781200D01*
D43*
X97790000Y-39740000D02*
X97790000Y-39990000D01*
D46*
X61976000Y-54610000D02*
X62151200Y-54785200D01*
X45337897Y-52208805D02*
X44562930Y-52983772D01*
D43*
X97780000Y-30465000D02*
X96100000Y-32145000D01*
D46*
X44562930Y-52983772D02*
X44185758Y-52606600D01*
X39823242Y-52606600D02*
X37665000Y-54764842D01*
X44185758Y-52606600D02*
X39823242Y-52606600D01*
X37665000Y-54764842D02*
X37665000Y-56350542D01*
X70739000Y-54785200D02*
X71628000Y-53896200D01*
D43*
X96100000Y-38050000D02*
X97790000Y-39740000D01*
X96100000Y-32145000D02*
X96100000Y-38050000D01*
D46*
X49796519Y-54076500D02*
X49796519Y-54538408D01*
X49796519Y-54538408D02*
X48732010Y-55602917D01*
X50577000Y-54866500D02*
X50577000Y-54889298D01*
X50577000Y-54889298D02*
X49297695Y-56168603D01*
X62230000Y-34010000D02*
X62230000Y-30805000D01*
X62230000Y-30805000D02*
X59225000Y-27800000D01*
X66040000Y-34010000D02*
X66040000Y-32075000D01*
X66040000Y-32075000D02*
X61765000Y-27800000D01*
X57984500Y-27286168D02*
X58711168Y-26559500D01*
X60465500Y-26559500D02*
X61765000Y-25260000D01*
X57984500Y-29010500D02*
X57984500Y-27286168D01*
X54610000Y-32385000D02*
X57984500Y-29010500D01*
X58711168Y-26559500D02*
X60465500Y-26559500D01*
X54610000Y-34010000D02*
X54610000Y-32385000D01*
X60452000Y-31496000D02*
X60452000Y-31750000D01*
X58420000Y-33782000D02*
X58420000Y-34010000D01*
X60452000Y-31750000D02*
X58420000Y-33782000D01*
X34439400Y-30330600D02*
X34290000Y-30480000D01*
X36365000Y-25260000D02*
X34925000Y-26700000D01*
X34290000Y-30480000D02*
X34290000Y-32500000D01*
X34925000Y-29845000D02*
X34439400Y-30330600D01*
X34925000Y-26700000D02*
X34925000Y-29845000D01*
X38900971Y-39656200D02*
X37265000Y-38020229D01*
X41433000Y-45595500D02*
X41433000Y-43563500D01*
X43167500Y-37110000D02*
X43180000Y-37122500D01*
X43269863Y-47432363D02*
X41433000Y-45595500D01*
X40894000Y-33147000D02*
X40894000Y-36525200D01*
X34217000Y-54926210D02*
X38860610Y-50282600D01*
X53810000Y-37110000D02*
X52260000Y-35560000D01*
X39370000Y-37110000D02*
X43167500Y-37110000D01*
X43310200Y-47526600D02*
X46100414Y-47526600D01*
X41433000Y-40374200D02*
X40715000Y-39656200D01*
X46100414Y-47526600D02*
X47034953Y-48461139D01*
X41433000Y-43563500D02*
X41433000Y-40374200D01*
X38860610Y-50282600D02*
X40419626Y-50282600D01*
X46012500Y-35560000D02*
X44450000Y-37122500D01*
X40894000Y-36525200D02*
X41491300Y-37122500D01*
X40513000Y-32766000D02*
X40894000Y-33147000D01*
X41433000Y-58803500D02*
X39254300Y-60982200D01*
X41491300Y-37122500D02*
X41910000Y-37122500D01*
X38100000Y-32766000D02*
X40513000Y-32766000D01*
X39254300Y-60982200D02*
X35125000Y-60982200D01*
X35125000Y-60982200D02*
X34217000Y-60074200D01*
X37265000Y-38020229D02*
X37265000Y-33601000D01*
X40419626Y-50282600D02*
X43269863Y-47432363D01*
X54610000Y-37110000D02*
X53810000Y-37110000D01*
X37265000Y-33601000D02*
X38100000Y-32766000D01*
X40715000Y-39656200D02*
X38900971Y-39656200D01*
X34217000Y-60074200D02*
X34217000Y-54926210D01*
X43180000Y-37122500D02*
X44450000Y-37122500D01*
X52260000Y-35560000D02*
X46012500Y-35560000D01*
X51269043Y-48561393D02*
X52479676Y-47350760D01*
X52479676Y-47350760D02*
X52479676Y-47329768D01*
X51269043Y-48883799D02*
X51269043Y-48561393D01*
X50975442Y-49177400D02*
X51269043Y-48883799D01*
X49862700Y-48689300D02*
X49862700Y-49227700D01*
X50572765Y-47979235D02*
X49862700Y-48689300D01*
X52403056Y-50800500D02*
X54176732Y-49026824D01*
X49862700Y-49227700D02*
X51435500Y-50800500D01*
X51435500Y-50800500D02*
X52403056Y-50800500D01*
X50144000Y-40475200D02*
X44534000Y-40475200D01*
X43604758Y-46945600D02*
X46650786Y-46945600D01*
X42700000Y-46040842D02*
X43604758Y-46945600D01*
X42700000Y-42309200D02*
X42700000Y-46040842D01*
X44534000Y-40475200D02*
X42700000Y-42309200D01*
X46650786Y-46945600D02*
X47600639Y-47895453D01*
X50234000Y-40565200D02*
X50144000Y-40475200D01*
X48129768Y-47329768D02*
X45250000Y-44450000D01*
X48166324Y-47329768D02*
X48129768Y-47329768D01*
X45250000Y-44450000D02*
X45250000Y-42950000D01*
X52869500Y-42300000D02*
X54133000Y-43563500D01*
X45900000Y-42300000D02*
X52869500Y-42300000D01*
X45250000Y-42950000D02*
X45900000Y-42300000D01*
X54609500Y-41500000D02*
X56673000Y-43563500D01*
X47768800Y-41500000D02*
X54609500Y-41500000D01*
X47534000Y-41265200D02*
X47768800Y-41500000D01*
X47946765Y-45353235D02*
X47946765Y-45978838D01*
X47946765Y-45978838D02*
X48732010Y-46764083D01*
X50608592Y-44887500D02*
X49297695Y-46198397D01*
X59213000Y-43563500D02*
X57889000Y-44887500D01*
X57889000Y-44887500D02*
X50608592Y-44887500D01*
X52044300Y-45525200D02*
X59791300Y-45525200D01*
X51348305Y-46198397D02*
X51371103Y-46198397D01*
X51371103Y-46198397D02*
X52044300Y-45525200D01*
X59791300Y-45525200D02*
X61753000Y-43563500D01*
X52502873Y-46175200D02*
X61681300Y-46175200D01*
X61681300Y-46175200D02*
X64293000Y-43563500D01*
X51913990Y-46764083D02*
X52502873Y-46175200D01*
X53611047Y-48461139D02*
X53611047Y-48446153D01*
X63571300Y-46825200D02*
X66833000Y-43563500D01*
X55232000Y-46825200D02*
X63571300Y-46825200D01*
X53611047Y-48446153D02*
X55232000Y-46825200D01*
X56457908Y-51308000D02*
X66548000Y-51308000D01*
X59308400Y-37998400D02*
X58420000Y-37110000D01*
X71913000Y-45943000D02*
X71913000Y-43563500D01*
X66548000Y-51308000D02*
X71913000Y-45943000D01*
X55308103Y-50158195D02*
X56457908Y-51308000D01*
X60401200Y-37998400D02*
X59308400Y-37998400D01*
X70358000Y-55575200D02*
X71913000Y-57130200D01*
X55308103Y-52231603D02*
X57124000Y-54047500D01*
X71913000Y-57130200D02*
X71913000Y-58803500D01*
X61250982Y-55575200D02*
X66294000Y-55575200D01*
X64185800Y-36677600D02*
X64618200Y-37110000D01*
X64618200Y-37110000D02*
X66040000Y-37110000D01*
X57734000Y-52700000D02*
X57734000Y-53437500D01*
X57124000Y-54047500D02*
X58004940Y-54047500D01*
X71913000Y-62939000D02*
X71802000Y-63050000D01*
X55308103Y-52208805D02*
X55308103Y-52231603D01*
X66350004Y-55575200D02*
X70358000Y-55575200D01*
X60869307Y-55193525D02*
X61250982Y-55575200D01*
X57734000Y-53437500D02*
X57124000Y-54047500D01*
X58004940Y-54047500D02*
X59150965Y-55193525D01*
X59150965Y-55193525D02*
X60869307Y-55193525D01*
X71913000Y-58803500D02*
X71913000Y-62939000D01*
X61064324Y-56210200D02*
X60628649Y-55774525D01*
X58910307Y-55774525D02*
X57764282Y-54628500D01*
X57764282Y-54628500D02*
X56596427Y-54628500D01*
X69373000Y-58803500D02*
X69373000Y-62621000D01*
X61225000Y-37110000D02*
X62230000Y-37110000D01*
X60792600Y-36677600D02*
X61225000Y-37110000D01*
X56596427Y-54628500D02*
X54742417Y-52774490D01*
X54105865Y-52137938D02*
X54742417Y-52774490D01*
X69373000Y-62621000D02*
X69802000Y-63050000D01*
X69373000Y-58803500D02*
X69373000Y-56977800D01*
X54105865Y-51311865D02*
X54105865Y-52137938D01*
X68605400Y-56210200D02*
X61064324Y-56210200D01*
X69373000Y-56977800D02*
X68605400Y-56210200D01*
X60401200Y-36677600D02*
X60792600Y-36677600D01*
X60628649Y-55774525D02*
X58910307Y-55774525D01*
X58669649Y-56355525D02*
X60387991Y-56355525D01*
X66368650Y-56919850D02*
X66833000Y-57384200D01*
X65786000Y-61468000D02*
X65802000Y-61484000D01*
X60952316Y-56919850D02*
X66368650Y-56919850D01*
X66833000Y-60421000D02*
X65786000Y-61468000D01*
X56046056Y-55209500D02*
X57523624Y-55209500D01*
X54176732Y-53340176D02*
X56046056Y-55209500D01*
X60387991Y-56355525D02*
X60952316Y-56919850D01*
X66833000Y-57384200D02*
X66833000Y-58803500D01*
X66833000Y-58803500D02*
X66833000Y-60421000D01*
X65802000Y-61484000D02*
X65802000Y-63050000D01*
X57523624Y-55209500D02*
X58669649Y-56355525D01*
X57282966Y-55790500D02*
X58428991Y-56936525D01*
X63828650Y-57554850D02*
X64293000Y-58019200D01*
X53611047Y-53905861D02*
X55495686Y-55790500D01*
X64293000Y-58019200D02*
X64293000Y-58803500D01*
X60147333Y-56936525D02*
X60765658Y-57554850D01*
X58428991Y-56936525D02*
X60147333Y-56936525D01*
X60765658Y-57554850D02*
X63828650Y-57554850D01*
X55495686Y-55790500D02*
X57282966Y-55790500D01*
X53045361Y-54471547D02*
X54945314Y-56371500D01*
X54945314Y-56371500D02*
X57042308Y-56371500D01*
X57042308Y-56371500D02*
X58188333Y-57517525D01*
X59906675Y-57517525D02*
X61192650Y-58803500D01*
X58188333Y-57517525D02*
X59906675Y-57517525D01*
X61192650Y-58803500D02*
X61753000Y-58803500D01*
X58652650Y-58803500D02*
X59213000Y-58803500D01*
X52479676Y-55037232D02*
X54394944Y-56952500D01*
X56801650Y-56952500D02*
X58652650Y-58803500D01*
X54394944Y-56952500D02*
X56801650Y-56952500D01*
X53844573Y-57533500D02*
X55403000Y-57533500D01*
X55403000Y-57533500D02*
X56673000Y-58803500D01*
X51913990Y-55602917D02*
X53844573Y-57533500D01*
X87055658Y-66856200D02*
X90642000Y-63269858D01*
X79195131Y-68835733D02*
X81174664Y-66856200D01*
X51348305Y-56168603D02*
X51371103Y-56168603D01*
X81174664Y-66856200D02*
X87055658Y-66856200D01*
X54006000Y-58803500D02*
X54133000Y-58803500D01*
X51371103Y-56168603D02*
X54006000Y-58803500D01*
X79195131Y-68886331D02*
X79195131Y-68835733D01*
X53676500Y-60887000D02*
X57663736Y-60887000D01*
X57663736Y-60887000D02*
X58066936Y-61290200D01*
X47884000Y-50794073D02*
X45903583Y-52774490D01*
X58066936Y-61290200D02*
X60042200Y-61290200D01*
X47884000Y-50625200D02*
X47884000Y-50794073D01*
X51593000Y-58803500D02*
X53676500Y-60887000D01*
X60042200Y-61290200D02*
X61802000Y-63050000D01*
X36903000Y-56410200D02*
X37973000Y-57480200D01*
X37973000Y-57480200D02*
X46304200Y-57480200D01*
X52165842Y-60198000D02*
X47907500Y-60198000D01*
X44455702Y-49276000D02*
X43891200Y-49276000D01*
X57734000Y-62075200D02*
X57126800Y-61468000D01*
X36903000Y-54705184D02*
X36903000Y-56410200D01*
X46513000Y-57689000D02*
X46513000Y-58803500D01*
X46304200Y-57480200D02*
X46513000Y-57689000D01*
X53435842Y-61468000D02*
X52165842Y-60198000D01*
X43891200Y-49276000D02*
X41141600Y-52025600D01*
X57126800Y-61468000D02*
X53435842Y-61468000D01*
X45337897Y-50158195D02*
X44455702Y-49276000D01*
X39582584Y-52025600D02*
X36903000Y-54705184D01*
X47907500Y-60198000D02*
X46513000Y-58803500D01*
X41141600Y-52025600D02*
X39582584Y-52025600D01*
X45976000Y-37110000D02*
X46990000Y-37110000D01*
X38893000Y-59819500D02*
X38893000Y-58803500D01*
X45550044Y-48107600D02*
X43416284Y-48107600D01*
X39101268Y-50863600D02*
X34798000Y-55166868D01*
X34798000Y-59713850D02*
X35485350Y-60401200D01*
X34798000Y-55166868D02*
X34798000Y-59713850D01*
X45212000Y-37874000D02*
X45976000Y-37110000D01*
X43416284Y-48107600D02*
X40660284Y-50863600D01*
X40660284Y-50863600D02*
X39101268Y-50863600D01*
X35485350Y-60401200D02*
X38311300Y-60401200D01*
X46469268Y-49026824D02*
X45550044Y-48107600D01*
X38311300Y-60401200D02*
X38893000Y-59819500D01*
X40900942Y-51444600D02*
X43650542Y-48695000D01*
X39341926Y-51444600D02*
X40900942Y-51444600D01*
X48895000Y-37084000D02*
X50774000Y-37084000D01*
X36322000Y-54464526D02*
X39341926Y-51444600D01*
X45037400Y-48695000D02*
X45903583Y-49561183D01*
X50774000Y-37084000D02*
X50800000Y-37110000D01*
X36353000Y-58803500D02*
X36322000Y-58772500D01*
X45903583Y-49561183D02*
X45903583Y-49592510D01*
X43650542Y-48695000D02*
X45037400Y-48695000D01*
X36322000Y-58772500D02*
X36322000Y-54464526D01*
X43985000Y-25260000D02*
X45255000Y-26530000D01*
X45255000Y-32275000D02*
X46990000Y-34010000D01*
X45255000Y-26530000D02*
X45255000Y-32275000D01*
X47795000Y-26530000D02*
X47795000Y-31005000D01*
X47795000Y-31005000D02*
X50800000Y-34010000D01*
X46525000Y-25260000D02*
X47795000Y-26530000D01*
X59802000Y-71613000D02*
X59802000Y-76650000D01*
X86360000Y-51017500D02*
X86360000Y-55600000D01*
X90424000Y-51017500D02*
X90424000Y-55600000D01*
X73787000Y-54961000D02*
X73802000Y-54976000D01*
X73787000Y-52781200D02*
X73787000Y-54961000D01*
X73802000Y-54976000D02*
X73802000Y-63050000D01*
X84759200Y-58700000D02*
X86360000Y-58700000D01*
X84709000Y-58750200D02*
X84759200Y-58700000D01*
X80689032Y-66275200D02*
X86634000Y-66275200D01*
X89234000Y-61275200D02*
X90434000Y-60075200D01*
X75692000Y-77087000D02*
X75692000Y-71272232D01*
X89234000Y-63675200D02*
X89234000Y-61275200D01*
X90434000Y-60075200D02*
X90434000Y-58710000D01*
X75692000Y-71272232D02*
X80689032Y-66275200D01*
X69802000Y-77168000D02*
X70866000Y-78232000D01*
X86634000Y-66275200D02*
X89234000Y-63675200D01*
X90434000Y-58710000D02*
X90424000Y-58700000D01*
X70866000Y-78232000D02*
X74547000Y-78232000D01*
X74547000Y-78232000D02*
X75692000Y-77087000D01*
X69802000Y-76650000D02*
X69802000Y-77168000D01*
X72644000Y-73914000D02*
X73802000Y-75072000D01*
X63802000Y-75136000D02*
X65024000Y-73914000D01*
X63802000Y-76650000D02*
X63802000Y-75136000D01*
X65024000Y-73914000D02*
X72644000Y-73914000D01*
X73802000Y-75072000D02*
X73802000Y-76650000D01*
X66802000Y-74930000D02*
X70612000Y-74930000D01*
X71802000Y-76120000D02*
X71802000Y-76650000D01*
X65802000Y-76650000D02*
X65802000Y-75930000D01*
X65802000Y-75930000D02*
X66802000Y-74930000D01*
X70612000Y-74930000D02*
X71802000Y-76120000D01*
G04 #@! TA.AperFunction,Conductor*
G36*
X85942121Y-29520002D02*
G01*
X85988614Y-29573658D01*
X86000000Y-29626000D01*
X86000000Y-29919301D01*
X85979998Y-29987422D01*
X85926342Y-30033915D01*
X85874000Y-30045301D01*
X85510505Y-30045301D01*
X85503986Y-30045638D01*
X85408394Y-30055557D01*
X85395000Y-30058449D01*
X85240816Y-30109888D01*
X85227638Y-30116061D01*
X85089793Y-30201363D01*
X85078392Y-30210399D01*
X84963861Y-30325129D01*
X84954849Y-30336540D01*
X84869784Y-30474543D01*
X84863637Y-30487724D01*
X84812462Y-30642010D01*
X84809595Y-30655386D01*
X84799928Y-30749738D01*
X84799600Y-30756155D01*
X84799600Y-30943685D01*
X84804075Y-30958924D01*
X84805465Y-30960129D01*
X84813148Y-30961800D01*
X87597484Y-30961800D01*
X87612723Y-30957325D01*
X87613928Y-30955935D01*
X87615599Y-30948252D01*
X87615599Y-30756205D01*
X87615262Y-30749686D01*
X87605343Y-30654094D01*
X87602451Y-30640700D01*
X87551012Y-30486516D01*
X87544839Y-30473338D01*
X87459537Y-30335493D01*
X87450501Y-30324092D01*
X87341393Y-30215173D01*
X87307314Y-30152890D01*
X87312317Y-30082070D01*
X87354815Y-30025197D01*
X87421313Y-30000329D01*
X87430411Y-30000000D01*
X92871657Y-30000000D01*
X92939778Y-30020002D01*
X92986271Y-30073658D01*
X92997655Y-30126469D01*
X92986601Y-33080322D01*
X92984469Y-33649862D01*
X92964212Y-33717907D01*
X92910383Y-33764199D01*
X92858661Y-33775390D01*
X91483714Y-33777475D01*
X91483713Y-33777475D01*
X88556005Y-33781915D01*
X88500420Y-33781999D01*
X88499429Y-33781996D01*
X87794192Y-33777508D01*
X87726200Y-33757073D01*
X87680050Y-33703123D01*
X87672737Y-33681993D01*
X87662146Y-33639514D01*
X87660495Y-33632892D01*
X87657464Y-33626785D01*
X87657462Y-33626781D01*
X87591495Y-33493893D01*
X87578331Y-33467374D01*
X87462540Y-33323360D01*
X87318526Y-33207569D01*
X87200689Y-33149074D01*
X87159119Y-33128438D01*
X87159115Y-33128436D01*
X87153008Y-33125405D01*
X87123997Y-33118172D01*
X86979103Y-33082045D01*
X86979099Y-33082044D01*
X86973707Y-33080700D01*
X86956894Y-33079554D01*
X86933314Y-33077946D01*
X86933301Y-33077946D01*
X86931166Y-33077800D01*
X85484034Y-33077800D01*
X85481899Y-33077946D01*
X85481886Y-33077946D01*
X85458306Y-33079554D01*
X85441493Y-33080700D01*
X85436101Y-33082044D01*
X85436097Y-33082045D01*
X85291203Y-33118172D01*
X85262192Y-33125405D01*
X85256085Y-33128436D01*
X85256081Y-33128438D01*
X85214511Y-33149074D01*
X85096674Y-33207569D01*
X84952660Y-33323360D01*
X84836869Y-33467374D01*
X84754705Y-33632892D01*
X84753054Y-33639514D01*
X84753053Y-33639518D01*
X84747492Y-33661821D01*
X84711604Y-33723079D01*
X84648294Y-33755210D01*
X84624437Y-33757335D01*
X83933196Y-33752935D01*
X83865206Y-33732501D01*
X83819056Y-33678551D01*
X83808000Y-33626939D01*
X83808000Y-33492115D01*
X83803525Y-33476876D01*
X83802135Y-33475671D01*
X83794452Y-33474000D01*
X82072000Y-33474000D01*
X82003879Y-33453998D01*
X81957386Y-33400342D01*
X81946000Y-33348000D01*
X81946000Y-32947885D01*
X82454000Y-32947885D01*
X82458475Y-32963124D01*
X82459865Y-32964329D01*
X82467548Y-32966000D01*
X83789884Y-32966000D01*
X83805123Y-32961525D01*
X83806328Y-32960135D01*
X83807999Y-32952452D01*
X83807999Y-32575331D01*
X83807629Y-32568510D01*
X83802105Y-32517648D01*
X83798479Y-32502396D01*
X83773786Y-32436528D01*
X88609600Y-32436528D01*
X88609601Y-33459085D01*
X88614076Y-33474324D01*
X88615466Y-33475529D01*
X88623149Y-33477200D01*
X89745485Y-33477200D01*
X89760724Y-33472725D01*
X89761929Y-33471335D01*
X89763600Y-33463652D01*
X89763600Y-33459085D01*
X90271600Y-33459085D01*
X90276075Y-33474324D01*
X90277465Y-33475529D01*
X90285148Y-33477200D01*
X91407485Y-33477200D01*
X91422724Y-33472725D01*
X91423929Y-33471335D01*
X91425600Y-33463652D01*
X91425599Y-32436531D01*
X91425229Y-32429710D01*
X91419705Y-32378848D01*
X91416079Y-32363596D01*
X91370924Y-32243146D01*
X91362386Y-32227551D01*
X91285885Y-32125476D01*
X91273324Y-32112915D01*
X91171249Y-32036414D01*
X91155654Y-32027876D01*
X91035206Y-31982722D01*
X91019951Y-31979095D01*
X90969086Y-31973569D01*
X90962272Y-31973200D01*
X90289715Y-31973200D01*
X90274476Y-31977675D01*
X90273271Y-31979065D01*
X90271600Y-31986748D01*
X90271600Y-33459085D01*
X89763600Y-33459085D01*
X89763600Y-31991316D01*
X89759125Y-31976077D01*
X89757735Y-31974872D01*
X89750052Y-31973201D01*
X89072931Y-31973201D01*
X89066110Y-31973571D01*
X89015248Y-31979095D01*
X88999996Y-31982721D01*
X88879546Y-32027876D01*
X88863951Y-32036414D01*
X88761876Y-32112915D01*
X88749315Y-32125476D01*
X88672814Y-32227551D01*
X88664276Y-32243146D01*
X88619122Y-32363594D01*
X88615495Y-32378849D01*
X88609969Y-32429714D01*
X88609600Y-32436528D01*
X83773786Y-32436528D01*
X83753324Y-32381946D01*
X83744786Y-32366351D01*
X83668285Y-32264276D01*
X83655724Y-32251715D01*
X83553649Y-32175214D01*
X83538054Y-32166676D01*
X83417606Y-32121522D01*
X83402351Y-32117895D01*
X83351486Y-32112369D01*
X83344672Y-32112000D01*
X82472115Y-32112000D01*
X82456876Y-32116475D01*
X82455671Y-32117865D01*
X82454000Y-32125548D01*
X82454000Y-32947885D01*
X81946000Y-32947885D01*
X81946000Y-32130116D01*
X81941525Y-32114877D01*
X81940135Y-32113672D01*
X81932452Y-32112001D01*
X81055331Y-32112001D01*
X81048510Y-32112371D01*
X80997648Y-32117895D01*
X80982396Y-32121521D01*
X80861946Y-32166676D01*
X80846351Y-32175214D01*
X80744276Y-32251715D01*
X80733095Y-32262896D01*
X80670783Y-32296922D01*
X80599968Y-32291857D01*
X80543132Y-32249310D01*
X80518321Y-32182790D01*
X80518000Y-32173801D01*
X80518000Y-31675395D01*
X84799601Y-31675395D01*
X84799938Y-31681914D01*
X84809857Y-31777506D01*
X84812749Y-31790900D01*
X84864188Y-31945084D01*
X84870361Y-31958262D01*
X84955663Y-32096107D01*
X84964699Y-32107508D01*
X85079429Y-32222039D01*
X85090840Y-32231051D01*
X85228843Y-32316116D01*
X85242024Y-32322263D01*
X85396310Y-32373438D01*
X85409686Y-32376305D01*
X85504038Y-32385972D01*
X85510454Y-32386300D01*
X85935485Y-32386300D01*
X85950724Y-32381825D01*
X85951929Y-32380435D01*
X85953600Y-32372752D01*
X85953600Y-32368184D01*
X86461600Y-32368184D01*
X86466075Y-32383423D01*
X86467465Y-32384628D01*
X86475148Y-32386299D01*
X86904695Y-32386299D01*
X86911214Y-32385962D01*
X87006806Y-32376043D01*
X87020200Y-32373151D01*
X87174384Y-32321712D01*
X87187562Y-32315539D01*
X87325407Y-32230237D01*
X87336808Y-32221201D01*
X87451339Y-32106471D01*
X87460351Y-32095060D01*
X87545416Y-31957057D01*
X87551563Y-31943876D01*
X87602738Y-31789590D01*
X87605605Y-31776214D01*
X87615272Y-31681862D01*
X87615600Y-31675446D01*
X87615600Y-31487915D01*
X87611125Y-31472676D01*
X87609735Y-31471471D01*
X87602052Y-31469800D01*
X86479715Y-31469800D01*
X86464476Y-31474275D01*
X86463271Y-31475665D01*
X86461600Y-31483348D01*
X86461600Y-32368184D01*
X85953600Y-32368184D01*
X85953600Y-31487915D01*
X85949125Y-31472676D01*
X85947735Y-31471471D01*
X85940052Y-31469800D01*
X84817716Y-31469800D01*
X84802477Y-31474275D01*
X84801272Y-31475665D01*
X84799601Y-31483348D01*
X84799601Y-31675395D01*
X80518000Y-31675395D01*
X80518000Y-30861000D01*
X70739000Y-30861000D01*
X70739000Y-42760261D01*
X70717089Y-42831264D01*
X70691503Y-42868770D01*
X70636594Y-42913771D01*
X70566069Y-42921942D01*
X70502322Y-42890688D01*
X70484204Y-42870035D01*
X70381972Y-42724033D01*
X70374916Y-42715625D01*
X70220875Y-42561584D01*
X70212467Y-42554528D01*
X70034007Y-42429569D01*
X70024511Y-42424086D01*
X69827053Y-42332010D01*
X69816761Y-42328264D01*
X69644497Y-42282106D01*
X69630401Y-42282442D01*
X69627000Y-42290384D01*
X69627000Y-44831467D01*
X69630973Y-44844998D01*
X69639522Y-44846227D01*
X69816761Y-44798736D01*
X69827053Y-44794990D01*
X70024511Y-44702914D01*
X70034007Y-44697431D01*
X70212467Y-44572472D01*
X70220875Y-44565416D01*
X70374916Y-44411375D01*
X70381972Y-44402967D01*
X70486560Y-44253599D01*
X70542017Y-44209271D01*
X70612636Y-44201962D01*
X70675997Y-44233992D01*
X70697201Y-44260029D01*
X70720434Y-44297942D01*
X70739000Y-44363773D01*
X70739000Y-45946167D01*
X70718998Y-46014288D01*
X70702095Y-46035262D01*
X66257262Y-50480095D01*
X66194950Y-50514121D01*
X66168167Y-50517000D01*
X61310808Y-50517000D01*
X61242687Y-50496998D01*
X61196194Y-50443342D01*
X61186090Y-50373068D01*
X61191215Y-50351333D01*
X61243137Y-50194793D01*
X61246005Y-50181414D01*
X61255672Y-50087062D01*
X61256000Y-50080646D01*
X61256000Y-49893115D01*
X61251525Y-49877876D01*
X61250135Y-49876671D01*
X61242452Y-49875000D01*
X58458116Y-49875000D01*
X58442877Y-49879475D01*
X58441672Y-49880865D01*
X58440001Y-49888548D01*
X58440001Y-50080595D01*
X58440338Y-50087114D01*
X58450257Y-50182706D01*
X58453149Y-50196100D01*
X58504868Y-50351124D01*
X58507452Y-50422074D01*
X58471268Y-50483158D01*
X58407804Y-50514982D01*
X58385344Y-50517000D01*
X57403000Y-50517000D01*
X57334879Y-50496998D01*
X57288386Y-50443342D01*
X57277000Y-50391000D01*
X57277000Y-49348885D01*
X58440000Y-49348885D01*
X58444475Y-49364124D01*
X58445865Y-49365329D01*
X58453548Y-49367000D01*
X59575885Y-49367000D01*
X59591124Y-49362525D01*
X59592329Y-49361135D01*
X59594000Y-49353452D01*
X59594000Y-49348885D01*
X60102000Y-49348885D01*
X60106475Y-49364124D01*
X60107865Y-49365329D01*
X60115548Y-49367000D01*
X61237884Y-49367000D01*
X61253123Y-49362525D01*
X61254328Y-49361135D01*
X61255999Y-49353452D01*
X61255999Y-49161405D01*
X61255662Y-49154886D01*
X61245743Y-49059294D01*
X61242851Y-49045900D01*
X61191412Y-48891716D01*
X61185239Y-48878538D01*
X61099937Y-48740693D01*
X61090901Y-48729292D01*
X60976171Y-48614761D01*
X60964760Y-48605749D01*
X60826757Y-48520684D01*
X60813576Y-48514537D01*
X60659290Y-48463362D01*
X60645914Y-48460495D01*
X60551562Y-48450828D01*
X60545145Y-48450500D01*
X60120115Y-48450500D01*
X60104876Y-48454975D01*
X60103671Y-48456365D01*
X60102000Y-48464048D01*
X60102000Y-49348885D01*
X59594000Y-49348885D01*
X59594000Y-48468616D01*
X59589525Y-48453377D01*
X59588135Y-48452172D01*
X59580452Y-48450501D01*
X59150905Y-48450501D01*
X59144386Y-48450838D01*
X59048794Y-48460757D01*
X59035400Y-48463649D01*
X58881216Y-48515088D01*
X58868038Y-48521261D01*
X58730193Y-48606563D01*
X58718792Y-48615599D01*
X58604261Y-48730329D01*
X58595249Y-48741740D01*
X58510184Y-48879743D01*
X58504037Y-48892924D01*
X58452862Y-49047210D01*
X58449995Y-49060586D01*
X58440328Y-49154938D01*
X58440000Y-49161355D01*
X58440000Y-49348885D01*
X57277000Y-49348885D01*
X57277000Y-47742200D01*
X57297002Y-47674079D01*
X57350658Y-47627586D01*
X57403000Y-47616200D01*
X63562271Y-47616200D01*
X63563589Y-47616207D01*
X63651742Y-47617130D01*
X63658628Y-47615641D01*
X63658630Y-47615641D01*
X63670918Y-47612984D01*
X63693060Y-47608197D01*
X63705631Y-47606138D01*
X63747654Y-47601424D01*
X63778492Y-47590685D01*
X63793295Y-47586525D01*
X63793595Y-47586460D01*
X63825193Y-47579628D01*
X63831578Y-47576651D01*
X63831580Y-47576650D01*
X63842978Y-47571335D01*
X63863512Y-47561760D01*
X63875305Y-47556971D01*
X63915242Y-47543063D01*
X63942919Y-47525769D01*
X63956435Y-47518431D01*
X63979644Y-47507608D01*
X63979648Y-47507606D01*
X63986027Y-47504631D01*
X64019434Y-47478718D01*
X64029890Y-47471424D01*
X64041940Y-47463894D01*
X64065737Y-47449024D01*
X64093936Y-47421021D01*
X64094524Y-47420470D01*
X64095184Y-47419959D01*
X64120647Y-47394496D01*
X64191657Y-47323980D01*
X64192302Y-47322963D01*
X64193373Y-47321770D01*
X64337990Y-47177153D01*
X64400302Y-47143127D01*
X64417413Y-47140620D01*
X64418426Y-47140542D01*
X64418434Y-47140541D01*
X64424576Y-47140068D01*
X64430508Y-47138412D01*
X64430512Y-47138411D01*
X64528047Y-47111178D01*
X64613556Y-47087303D01*
X64788689Y-46998837D01*
X64819123Y-46975060D01*
X64938453Y-46881829D01*
X64943303Y-46878040D01*
X65071509Y-46729511D01*
X65168425Y-46558909D01*
X65230358Y-46372732D01*
X65237668Y-46314867D01*
X65266050Y-46249790D01*
X65273579Y-46241564D01*
X66527016Y-44988127D01*
X66589328Y-44954101D01*
X66641232Y-44953752D01*
X66661537Y-44957883D01*
X66661543Y-44957884D01*
X66666607Y-44958914D01*
X66796352Y-44963672D01*
X66891585Y-44967164D01*
X66891589Y-44967164D01*
X66896749Y-44967353D01*
X66901869Y-44966697D01*
X66901871Y-44966697D01*
X66971272Y-44957807D01*
X67125178Y-44938091D01*
X67130126Y-44936606D01*
X67130133Y-44936605D01*
X67340811Y-44873398D01*
X67340810Y-44873398D01*
X67345761Y-44871913D01*
X67552574Y-44770596D01*
X67740062Y-44636863D01*
X67903190Y-44474303D01*
X67961269Y-44393478D01*
X68034559Y-44291483D01*
X68037577Y-44287283D01*
X68044928Y-44272410D01*
X68093039Y-44220205D01*
X68161740Y-44202297D01*
X68229217Y-44224375D01*
X68261097Y-44255967D01*
X68364028Y-44402967D01*
X68371084Y-44411375D01*
X68525125Y-44565416D01*
X68533533Y-44572472D01*
X68711993Y-44697431D01*
X68721489Y-44702914D01*
X68918947Y-44794990D01*
X68929239Y-44798736D01*
X69101503Y-44844894D01*
X69115599Y-44844558D01*
X69119000Y-44836616D01*
X69119000Y-42295533D01*
X69115027Y-42282002D01*
X69106478Y-42280773D01*
X68929239Y-42328264D01*
X68918947Y-42332010D01*
X68721489Y-42424086D01*
X68711993Y-42429569D01*
X68533533Y-42554528D01*
X68525125Y-42561584D01*
X68371084Y-42715625D01*
X68364028Y-42724033D01*
X68260348Y-42872104D01*
X68204891Y-42916432D01*
X68134272Y-42923741D01*
X68070911Y-42891710D01*
X68051343Y-42868273D01*
X68043586Y-42856282D01*
X67946405Y-42706063D01*
X67929197Y-42687151D01*
X67794890Y-42539551D01*
X67794889Y-42539550D01*
X67791412Y-42535729D01*
X67787361Y-42532530D01*
X67787357Y-42532526D01*
X67614735Y-42396197D01*
X67614730Y-42396193D01*
X67610681Y-42392996D01*
X67606165Y-42390503D01*
X67606162Y-42390501D01*
X67413589Y-42284195D01*
X67413585Y-42284193D01*
X67409065Y-42281698D01*
X67404196Y-42279974D01*
X67404192Y-42279972D01*
X67196853Y-42206549D01*
X67196849Y-42206548D01*
X67191978Y-42204823D01*
X67186885Y-42203916D01*
X67186882Y-42203915D01*
X67087439Y-42186202D01*
X66965250Y-42164437D01*
X66878802Y-42163381D01*
X66740141Y-42161686D01*
X66740139Y-42161686D01*
X66734971Y-42161623D01*
X66507325Y-42196458D01*
X66288424Y-42268006D01*
X66084149Y-42374345D01*
X65899984Y-42512619D01*
X65740877Y-42679116D01*
X65667131Y-42787224D01*
X65612220Y-42832226D01*
X65541695Y-42840397D01*
X65477948Y-42809143D01*
X65457251Y-42784659D01*
X65409215Y-42710406D01*
X65409213Y-42710403D01*
X65406405Y-42706063D01*
X65389197Y-42687151D01*
X65254890Y-42539551D01*
X65254889Y-42539550D01*
X65251412Y-42535729D01*
X65247361Y-42532530D01*
X65247357Y-42532526D01*
X65074735Y-42396197D01*
X65074730Y-42396193D01*
X65070681Y-42392996D01*
X65066165Y-42390503D01*
X65066162Y-42390501D01*
X64873589Y-42284195D01*
X64873585Y-42284193D01*
X64869065Y-42281698D01*
X64864196Y-42279974D01*
X64864192Y-42279972D01*
X64656853Y-42206549D01*
X64656849Y-42206548D01*
X64651978Y-42204823D01*
X64646885Y-42203916D01*
X64646882Y-42203915D01*
X64547439Y-42186202D01*
X64425250Y-42164437D01*
X64338802Y-42163381D01*
X64200141Y-42161686D01*
X64200139Y-42161686D01*
X64194971Y-42161623D01*
X63967325Y-42196458D01*
X63748424Y-42268006D01*
X63544149Y-42374345D01*
X63359984Y-42512619D01*
X63200877Y-42679116D01*
X63127131Y-42787224D01*
X63072220Y-42832226D01*
X63001695Y-42840397D01*
X62937948Y-42809143D01*
X62917251Y-42784659D01*
X62869215Y-42710406D01*
X62869213Y-42710403D01*
X62866405Y-42706063D01*
X62849197Y-42687151D01*
X62714890Y-42539551D01*
X62714889Y-42539550D01*
X62711412Y-42535729D01*
X62707361Y-42532530D01*
X62707357Y-42532526D01*
X62534735Y-42396197D01*
X62534730Y-42396193D01*
X62530681Y-42392996D01*
X62526165Y-42390503D01*
X62526162Y-42390501D01*
X62333589Y-42284195D01*
X62333585Y-42284193D01*
X62329065Y-42281698D01*
X62324196Y-42279974D01*
X62324192Y-42279972D01*
X62116853Y-42206549D01*
X62116849Y-42206548D01*
X62111978Y-42204823D01*
X62106885Y-42203916D01*
X62106882Y-42203915D01*
X62007439Y-42186202D01*
X61885250Y-42164437D01*
X61798802Y-42163381D01*
X61660141Y-42161686D01*
X61660139Y-42161686D01*
X61654971Y-42161623D01*
X61427325Y-42196458D01*
X61208424Y-42268006D01*
X61004149Y-42374345D01*
X60819984Y-42512619D01*
X60660877Y-42679116D01*
X60587131Y-42787224D01*
X60532220Y-42832226D01*
X60461695Y-42840397D01*
X60397948Y-42809143D01*
X60377251Y-42784659D01*
X60329215Y-42710406D01*
X60329213Y-42710403D01*
X60326405Y-42706063D01*
X60309197Y-42687151D01*
X60174890Y-42539551D01*
X60174889Y-42539550D01*
X60171412Y-42535729D01*
X60167361Y-42532530D01*
X60167357Y-42532526D01*
X59994735Y-42396197D01*
X59994730Y-42396193D01*
X59990681Y-42392996D01*
X59986165Y-42390503D01*
X59986162Y-42390501D01*
X59793589Y-42284195D01*
X59793585Y-42284193D01*
X59789065Y-42281698D01*
X59784196Y-42279974D01*
X59784192Y-42279972D01*
X59576853Y-42206549D01*
X59576849Y-42206548D01*
X59571978Y-42204823D01*
X59566885Y-42203916D01*
X59566882Y-42203915D01*
X59467439Y-42186202D01*
X59345250Y-42164437D01*
X59258802Y-42163381D01*
X59120141Y-42161686D01*
X59120139Y-42161686D01*
X59114971Y-42161623D01*
X58887325Y-42196458D01*
X58668424Y-42268006D01*
X58464149Y-42374345D01*
X58279984Y-42512619D01*
X58120877Y-42679116D01*
X58047131Y-42787224D01*
X57992220Y-42832226D01*
X57921695Y-42840397D01*
X57857948Y-42809143D01*
X57837251Y-42784659D01*
X57789215Y-42710406D01*
X57789213Y-42710403D01*
X57786405Y-42706063D01*
X57769197Y-42687151D01*
X57634890Y-42539551D01*
X57634889Y-42539550D01*
X57631412Y-42535729D01*
X57627361Y-42532530D01*
X57627357Y-42532526D01*
X57454735Y-42396197D01*
X57454730Y-42396193D01*
X57450681Y-42392996D01*
X57446166Y-42390503D01*
X57446153Y-42390495D01*
X57342106Y-42333058D01*
X57292136Y-42282626D01*
X57277000Y-42222750D01*
X57277000Y-41275000D01*
X55555333Y-41275000D01*
X55487212Y-41254998D01*
X55466238Y-41238095D01*
X55175277Y-40947134D01*
X55174348Y-40946197D01*
X55117526Y-40888172D01*
X55117525Y-40888171D01*
X55112598Y-40883140D01*
X55106679Y-40879325D01*
X55106671Y-40879319D01*
X55077058Y-40860235D01*
X55066713Y-40852802D01*
X55033672Y-40826426D01*
X55004286Y-40812220D01*
X54990872Y-40804693D01*
X54969353Y-40790825D01*
X54969354Y-40790825D01*
X54963432Y-40787009D01*
X54956812Y-40784600D01*
X54956807Y-40784597D01*
X54923707Y-40772550D01*
X54911962Y-40767589D01*
X54880247Y-40752257D01*
X54880245Y-40752256D01*
X54873902Y-40749190D01*
X54867038Y-40747605D01*
X54867037Y-40747605D01*
X54842099Y-40741848D01*
X54827346Y-40737478D01*
X54803295Y-40728724D01*
X54803296Y-40728724D01*
X54796674Y-40726314D01*
X54789686Y-40725431D01*
X54789685Y-40725431D01*
X54771888Y-40723183D01*
X54754732Y-40721016D01*
X54742180Y-40718779D01*
X54707855Y-40710854D01*
X54707847Y-40710853D01*
X54700990Y-40709270D01*
X54693950Y-40709245D01*
X54693947Y-40709245D01*
X54661281Y-40709131D01*
X54660432Y-40709103D01*
X54659616Y-40709000D01*
X54623738Y-40709000D01*
X54623298Y-40708999D01*
X54526991Y-40708663D01*
X54526990Y-40708663D01*
X54523532Y-40708651D01*
X54522355Y-40708914D01*
X54520769Y-40709000D01*
X51365105Y-40709000D01*
X51296984Y-40688998D01*
X51250491Y-40635342D01*
X51239117Y-40581241D01*
X51239292Y-40568723D01*
X51239292Y-40568719D01*
X51239341Y-40565200D01*
X51220194Y-40369928D01*
X51218413Y-40364029D01*
X51218412Y-40364024D01*
X51165265Y-40187993D01*
X51163484Y-40182094D01*
X51071370Y-40008853D01*
X50947361Y-39856802D01*
X50796180Y-39731735D01*
X50623585Y-39638413D01*
X50583940Y-39626141D01*
X50524781Y-39586889D01*
X50496234Y-39521885D01*
X50495200Y-39505776D01*
X50495200Y-39292800D01*
X50515202Y-39224679D01*
X50568858Y-39178186D01*
X50621200Y-39166800D01*
X67562682Y-39166800D01*
X67500822Y-29626816D01*
X67520382Y-29558568D01*
X67573735Y-29511728D01*
X67626819Y-29500000D01*
X85874000Y-29500000D01*
X85942121Y-29520002D01*
G37*
G04 #@! TD.AperFunction*
G04 #@! TA.AperFunction,Conductor*
G36*
X84806488Y-37231002D02*
G01*
X84835257Y-37259822D01*
X84836869Y-37258526D01*
X84952660Y-37402540D01*
X85096674Y-37518331D01*
X85179433Y-37559413D01*
X85256081Y-37597462D01*
X85256085Y-37597464D01*
X85262192Y-37600495D01*
X85268814Y-37602146D01*
X85436097Y-37643855D01*
X85436101Y-37643856D01*
X85441493Y-37645200D01*
X85458306Y-37646346D01*
X85481886Y-37647954D01*
X85481899Y-37647954D01*
X85484034Y-37648100D01*
X86931166Y-37648100D01*
X86933301Y-37647954D01*
X86933314Y-37647954D01*
X86956894Y-37646346D01*
X86973707Y-37645200D01*
X86979099Y-37643856D01*
X86979103Y-37643855D01*
X87146386Y-37602146D01*
X87153008Y-37600495D01*
X87159115Y-37597464D01*
X87159119Y-37597462D01*
X87235767Y-37559413D01*
X87318526Y-37518331D01*
X87462540Y-37402540D01*
X87578331Y-37258526D01*
X87580672Y-37260408D01*
X87624288Y-37222479D01*
X87676833Y-37211000D01*
X88483600Y-37211000D01*
X88551721Y-37231002D01*
X88598214Y-37284658D01*
X88609600Y-37337000D01*
X88609600Y-37459085D01*
X88614075Y-37474324D01*
X88615465Y-37475529D01*
X88623148Y-37477200D01*
X91407484Y-37477200D01*
X91422723Y-37472725D01*
X91423928Y-37471335D01*
X91425599Y-37463652D01*
X91425599Y-37346558D01*
X91445601Y-37278437D01*
X91499257Y-37231944D01*
X91551994Y-37220559D01*
X92907802Y-37224805D01*
X92975859Y-37245020D01*
X93022184Y-37298821D01*
X93033406Y-37351397D01*
X93000590Y-44324593D01*
X92980267Y-44392619D01*
X92926393Y-44438859D01*
X92874591Y-44450000D01*
X84719351Y-44450000D01*
X84651230Y-44429998D01*
X84604737Y-44376342D01*
X84594633Y-44306068D01*
X84606394Y-44268173D01*
X84698670Y-44081467D01*
X84702469Y-44071872D01*
X84764377Y-43868110D01*
X84766555Y-43858037D01*
X84767986Y-43847162D01*
X84765775Y-43832978D01*
X84752617Y-43829200D01*
X82117225Y-43829200D01*
X82103694Y-43833173D01*
X82102257Y-43843166D01*
X82132565Y-43977646D01*
X82135645Y-43987475D01*
X82215770Y-44184803D01*
X82220413Y-44193994D01*
X82259737Y-44258165D01*
X82278275Y-44326698D01*
X82256819Y-44394375D01*
X82202180Y-44439708D01*
X82152304Y-44450000D01*
X80644000Y-44450000D01*
X80575879Y-44429998D01*
X80529386Y-44376342D01*
X80518000Y-44324000D01*
X80518000Y-43309383D01*
X82098389Y-43309383D01*
X82099912Y-43317807D01*
X82112292Y-43321200D01*
X83161885Y-43321200D01*
X83177124Y-43316725D01*
X83178329Y-43315335D01*
X83180000Y-43307652D01*
X83180000Y-43303085D01*
X83688000Y-43303085D01*
X83692475Y-43318324D01*
X83693865Y-43319529D01*
X83701548Y-43321200D01*
X84752344Y-43321200D01*
X84765875Y-43317227D01*
X84767180Y-43308147D01*
X84725214Y-43141075D01*
X84721894Y-43131324D01*
X84636972Y-42936014D01*
X84632105Y-42926939D01*
X84516426Y-42748126D01*
X84510136Y-42739957D01*
X84366806Y-42582440D01*
X84359273Y-42575415D01*
X84192139Y-42443422D01*
X84183552Y-42437717D01*
X83997117Y-42334799D01*
X83987705Y-42330569D01*
X83786959Y-42259480D01*
X83776988Y-42256846D01*
X83705837Y-42244172D01*
X83692540Y-42245632D01*
X83688000Y-42260189D01*
X83688000Y-43303085D01*
X83180000Y-43303085D01*
X83180000Y-42258302D01*
X83176082Y-42244958D01*
X83161806Y-42242971D01*
X83123324Y-42248860D01*
X83113288Y-42251251D01*
X82910868Y-42317412D01*
X82901359Y-42321409D01*
X82712463Y-42419742D01*
X82703738Y-42425236D01*
X82533433Y-42553105D01*
X82525726Y-42559948D01*
X82378590Y-42713917D01*
X82372104Y-42721927D01*
X82252098Y-42897849D01*
X82247000Y-42906823D01*
X82157338Y-43099983D01*
X82153775Y-43109670D01*
X82098389Y-43309383D01*
X80518000Y-43309383D01*
X80518000Y-39969695D01*
X84799601Y-39969695D01*
X84799938Y-39976214D01*
X84809857Y-40071806D01*
X84812749Y-40085200D01*
X84864188Y-40239384D01*
X84870361Y-40252562D01*
X84955663Y-40390407D01*
X84964699Y-40401808D01*
X85079429Y-40516339D01*
X85090840Y-40525351D01*
X85228843Y-40610416D01*
X85242024Y-40616563D01*
X85396310Y-40667738D01*
X85409686Y-40670605D01*
X85504038Y-40680272D01*
X85510454Y-40680600D01*
X85935485Y-40680600D01*
X85950724Y-40676125D01*
X85951929Y-40674735D01*
X85953600Y-40667052D01*
X85953600Y-40662484D01*
X86461600Y-40662484D01*
X86466075Y-40677723D01*
X86467465Y-40678928D01*
X86475148Y-40680599D01*
X86904695Y-40680599D01*
X86911214Y-40680262D01*
X87006806Y-40670343D01*
X87020200Y-40667451D01*
X87174384Y-40616012D01*
X87187562Y-40609839D01*
X87325407Y-40524537D01*
X87336808Y-40515501D01*
X87451339Y-40400771D01*
X87460351Y-40389360D01*
X87545416Y-40251357D01*
X87551563Y-40238176D01*
X87602738Y-40083890D01*
X87605605Y-40070514D01*
X87615272Y-39976162D01*
X87615600Y-39969746D01*
X87615600Y-39782215D01*
X87611125Y-39766976D01*
X87609735Y-39765771D01*
X87602052Y-39764100D01*
X86479715Y-39764100D01*
X86464476Y-39768575D01*
X86463271Y-39769965D01*
X86461600Y-39777648D01*
X86461600Y-40662484D01*
X85953600Y-40662484D01*
X85953600Y-39782215D01*
X85949125Y-39766976D01*
X85947735Y-39765771D01*
X85940052Y-39764100D01*
X84817716Y-39764100D01*
X84802477Y-39768575D01*
X84801272Y-39769965D01*
X84799601Y-39777648D01*
X84799601Y-39969695D01*
X80518000Y-39969695D01*
X80518000Y-39237985D01*
X84799600Y-39237985D01*
X84804075Y-39253224D01*
X84805465Y-39254429D01*
X84813148Y-39256100D01*
X85935485Y-39256100D01*
X85950724Y-39251625D01*
X85951929Y-39250235D01*
X85953600Y-39242552D01*
X85953600Y-39237985D01*
X86461600Y-39237985D01*
X86466075Y-39253224D01*
X86467465Y-39254429D01*
X86475148Y-39256100D01*
X87597484Y-39256100D01*
X87612723Y-39251625D01*
X87613928Y-39250235D01*
X87615599Y-39242552D01*
X87615599Y-39050505D01*
X87615262Y-39043986D01*
X87605343Y-38948394D01*
X87602451Y-38935000D01*
X87551012Y-38780816D01*
X87544839Y-38767638D01*
X87459537Y-38629793D01*
X87450501Y-38618392D01*
X87335771Y-38503861D01*
X87324360Y-38494849D01*
X87186357Y-38409784D01*
X87173176Y-38403637D01*
X87018890Y-38352462D01*
X87005514Y-38349595D01*
X86911162Y-38339928D01*
X86904745Y-38339600D01*
X86479715Y-38339600D01*
X86464476Y-38344075D01*
X86463271Y-38345465D01*
X86461600Y-38353148D01*
X86461600Y-39237985D01*
X85953600Y-39237985D01*
X85953600Y-38357716D01*
X85949125Y-38342477D01*
X85947735Y-38341272D01*
X85940052Y-38339601D01*
X85510505Y-38339601D01*
X85503986Y-38339938D01*
X85408394Y-38349857D01*
X85395000Y-38352749D01*
X85240816Y-38404188D01*
X85227638Y-38410361D01*
X85089793Y-38495663D01*
X85078392Y-38504699D01*
X84963861Y-38619429D01*
X84954849Y-38630840D01*
X84869784Y-38768843D01*
X84863637Y-38782024D01*
X84812462Y-38936310D01*
X84809595Y-38949686D01*
X84799928Y-39044038D01*
X84799600Y-39050455D01*
X84799600Y-39237985D01*
X80518000Y-39237985D01*
X80518000Y-38826199D01*
X80538002Y-38758078D01*
X80591658Y-38711585D01*
X80661932Y-38701481D01*
X80726512Y-38730975D01*
X80733095Y-38737104D01*
X80744276Y-38748285D01*
X80846351Y-38824786D01*
X80861946Y-38833324D01*
X80982394Y-38878478D01*
X80997649Y-38882105D01*
X81048514Y-38887631D01*
X81055328Y-38888000D01*
X81927885Y-38888000D01*
X81943124Y-38883525D01*
X81944329Y-38882135D01*
X81946000Y-38874452D01*
X81946000Y-38869884D01*
X82454000Y-38869884D01*
X82458475Y-38885123D01*
X82459865Y-38886328D01*
X82467548Y-38887999D01*
X83344669Y-38887999D01*
X83351490Y-38887629D01*
X83402352Y-38882105D01*
X83417604Y-38878479D01*
X83538054Y-38833324D01*
X83553649Y-38824786D01*
X83655724Y-38748285D01*
X83668285Y-38735724D01*
X83744786Y-38633649D01*
X83753324Y-38618054D01*
X83798478Y-38497606D01*
X83802105Y-38482351D01*
X83807631Y-38431486D01*
X83808000Y-38424672D01*
X83808000Y-38052115D01*
X83803525Y-38036876D01*
X83802135Y-38035671D01*
X83794452Y-38034000D01*
X82472115Y-38034000D01*
X82456876Y-38038475D01*
X82455671Y-38039865D01*
X82454000Y-38047548D01*
X82454000Y-38869884D01*
X81946000Y-38869884D01*
X81946000Y-37998748D01*
X88609600Y-37998748D01*
X88609601Y-39025869D01*
X88609971Y-39032690D01*
X88615495Y-39083552D01*
X88619121Y-39098804D01*
X88664276Y-39219254D01*
X88672814Y-39234849D01*
X88749315Y-39336924D01*
X88761876Y-39349485D01*
X88863951Y-39425986D01*
X88879546Y-39434524D01*
X88999994Y-39479678D01*
X89015249Y-39483305D01*
X89066114Y-39488831D01*
X89072928Y-39489200D01*
X89745485Y-39489200D01*
X89760724Y-39484725D01*
X89761929Y-39483335D01*
X89763600Y-39475652D01*
X89763600Y-39471084D01*
X90271600Y-39471084D01*
X90276075Y-39486323D01*
X90277465Y-39487528D01*
X90285148Y-39489199D01*
X90962269Y-39489199D01*
X90969090Y-39488829D01*
X91019952Y-39483305D01*
X91035204Y-39479679D01*
X91155654Y-39434524D01*
X91171249Y-39425986D01*
X91273324Y-39349485D01*
X91285885Y-39336924D01*
X91362386Y-39234849D01*
X91370924Y-39219254D01*
X91416078Y-39098806D01*
X91419705Y-39083551D01*
X91425231Y-39032686D01*
X91425600Y-39025872D01*
X91425599Y-38003315D01*
X91421124Y-37988076D01*
X91419734Y-37986871D01*
X91412051Y-37985200D01*
X90289715Y-37985200D01*
X90274476Y-37989675D01*
X90273271Y-37991065D01*
X90271600Y-37998748D01*
X90271600Y-39471084D01*
X89763600Y-39471084D01*
X89763600Y-38003315D01*
X89759125Y-37988076D01*
X89757735Y-37986871D01*
X89750052Y-37985200D01*
X88627715Y-37985200D01*
X88612476Y-37989675D01*
X88611271Y-37991065D01*
X88609600Y-37998748D01*
X81946000Y-37998748D01*
X81946000Y-37652000D01*
X81966002Y-37583879D01*
X82019658Y-37537386D01*
X82072000Y-37526000D01*
X83789884Y-37526000D01*
X83805123Y-37521525D01*
X83806328Y-37520135D01*
X83807999Y-37512452D01*
X83807999Y-37337000D01*
X83828001Y-37268879D01*
X83881657Y-37222386D01*
X83933999Y-37211000D01*
X84738367Y-37211000D01*
X84806488Y-37231002D01*
G37*
G04 #@! TD.AperFunction*
G04 #@! TA.AperFunction,Conductor*
G36*
X92905970Y-45486084D02*
G01*
X92952539Y-45539674D01*
X92964000Y-45592179D01*
X92964000Y-72374000D01*
X92943998Y-72442121D01*
X92890342Y-72488614D01*
X92838000Y-72500000D01*
X91637109Y-72500000D01*
X91568988Y-72479998D01*
X91522495Y-72426342D01*
X91512391Y-72356068D01*
X91515402Y-72341390D01*
X91515884Y-72339591D01*
X91519044Y-72331962D01*
X91534500Y-72214561D01*
X91534499Y-68935840D01*
X91533801Y-68930531D01*
X91520122Y-68826625D01*
X91520122Y-68826623D01*
X91519044Y-68818438D01*
X91458536Y-68672359D01*
X91362282Y-68546918D01*
X91236841Y-68450664D01*
X91090762Y-68390156D01*
X91082574Y-68389078D01*
X90977448Y-68375238D01*
X90977447Y-68375238D01*
X90973361Y-68374700D01*
X90434066Y-68374700D01*
X89894640Y-68374701D01*
X89890556Y-68375239D01*
X89890550Y-68375239D01*
X89785425Y-68389078D01*
X89785423Y-68389078D01*
X89777238Y-68390156D01*
X89631159Y-68450664D01*
X89505718Y-68546918D01*
X89409464Y-68672359D01*
X89348956Y-68818438D01*
X89333500Y-68935839D01*
X89333501Y-72214560D01*
X89334039Y-72218644D01*
X89334039Y-72218650D01*
X89340009Y-72264000D01*
X89348956Y-72331962D01*
X89352115Y-72339587D01*
X89352598Y-72341392D01*
X89350907Y-72412368D01*
X89311112Y-72471163D01*
X89245847Y-72499109D01*
X89230891Y-72500000D01*
X87536603Y-72500000D01*
X87468482Y-72479998D01*
X87421989Y-72426342D01*
X87411885Y-72356068D01*
X87418621Y-72329770D01*
X87432478Y-72292806D01*
X87436105Y-72277551D01*
X87441631Y-72226686D01*
X87442000Y-72219872D01*
X87442000Y-70847315D01*
X87437525Y-70832076D01*
X87436135Y-70830871D01*
X87428452Y-70829200D01*
X85444116Y-70829200D01*
X85428877Y-70833675D01*
X85427672Y-70835065D01*
X85426001Y-70842748D01*
X85426001Y-72219869D01*
X85426371Y-72226690D01*
X85431895Y-72277552D01*
X85435521Y-72292804D01*
X85480676Y-72413254D01*
X85489214Y-72428849D01*
X85565715Y-72530924D01*
X85578276Y-72543485D01*
X85680351Y-72619986D01*
X85695946Y-72628524D01*
X85816394Y-72673678D01*
X85831649Y-72677305D01*
X85885911Y-72683200D01*
X85885771Y-72684490D01*
X85947759Y-72706400D01*
X85991279Y-72762494D01*
X86000000Y-72808555D01*
X86000000Y-78360000D01*
X85979998Y-78428121D01*
X85926342Y-78474614D01*
X85874000Y-78486000D01*
X75715833Y-78486000D01*
X75647712Y-78465998D01*
X75601219Y-78412342D01*
X75591115Y-78342068D01*
X75620609Y-78277488D01*
X75626738Y-78270905D01*
X76244866Y-77652777D01*
X76245803Y-77651848D01*
X76303829Y-77595025D01*
X76303830Y-77595024D01*
X76308860Y-77590098D01*
X76331757Y-77554569D01*
X76339197Y-77544215D01*
X76361180Y-77516677D01*
X76365575Y-77511172D01*
X76379783Y-77481781D01*
X76387314Y-77468361D01*
X76401172Y-77446858D01*
X76401172Y-77446857D01*
X76404991Y-77440932D01*
X76419456Y-77401191D01*
X76424409Y-77389466D01*
X76439743Y-77357747D01*
X76439744Y-77357745D01*
X76442810Y-77351402D01*
X76450152Y-77319599D01*
X76454522Y-77304846D01*
X76463276Y-77280795D01*
X76465686Y-77274174D01*
X76470984Y-77232232D01*
X76473221Y-77219680D01*
X76481146Y-77185355D01*
X76481147Y-77185347D01*
X76482730Y-77178490D01*
X76482777Y-77165200D01*
X76482869Y-77138776D01*
X76482897Y-77137932D01*
X76483000Y-77137116D01*
X76483000Y-77101210D01*
X76483350Y-77001032D01*
X76483086Y-76999852D01*
X76483000Y-76998259D01*
X76483000Y-75976062D01*
X80304493Y-75976062D01*
X80313789Y-75988077D01*
X80364994Y-76023931D01*
X80374489Y-76029414D01*
X80571947Y-76121490D01*
X80582239Y-76125236D01*
X80792688Y-76181625D01*
X80803481Y-76183528D01*
X81020525Y-76202517D01*
X81031475Y-76202517D01*
X81248519Y-76183528D01*
X81259312Y-76181625D01*
X81469761Y-76125236D01*
X81480053Y-76121490D01*
X81677511Y-76029414D01*
X81687006Y-76023931D01*
X81739048Y-75987491D01*
X81747424Y-75977012D01*
X81740356Y-75963566D01*
X81038812Y-75262022D01*
X81024868Y-75254408D01*
X81023035Y-75254539D01*
X81016420Y-75258790D01*
X80310923Y-75964287D01*
X80304493Y-75976062D01*
X76483000Y-75976062D01*
X76483000Y-74895475D01*
X79713483Y-74895475D01*
X79732472Y-75112519D01*
X79734375Y-75123312D01*
X79790764Y-75333761D01*
X79794510Y-75344053D01*
X79886586Y-75541511D01*
X79892069Y-75551006D01*
X79928509Y-75603048D01*
X79938988Y-75611424D01*
X79952434Y-75604356D01*
X80653978Y-74902812D01*
X80660356Y-74891132D01*
X81390408Y-74891132D01*
X81390539Y-74892965D01*
X81394790Y-74899580D01*
X82100287Y-75605077D01*
X82112062Y-75611507D01*
X82124077Y-75602211D01*
X82159931Y-75551006D01*
X82165414Y-75541511D01*
X82257490Y-75344053D01*
X82261236Y-75333761D01*
X82317625Y-75123312D01*
X82319528Y-75112519D01*
X82338517Y-74895475D01*
X82338517Y-74884525D01*
X82319528Y-74667481D01*
X82317625Y-74656688D01*
X82261236Y-74446239D01*
X82257490Y-74435947D01*
X82165414Y-74238489D01*
X82159931Y-74228994D01*
X82123491Y-74176952D01*
X82113012Y-74168576D01*
X82099566Y-74175644D01*
X81398022Y-74877188D01*
X81390408Y-74891132D01*
X80660356Y-74891132D01*
X80661592Y-74888868D01*
X80661461Y-74887035D01*
X80657210Y-74880420D01*
X79951713Y-74174923D01*
X79939938Y-74168493D01*
X79927923Y-74177789D01*
X79892069Y-74228994D01*
X79886586Y-74238489D01*
X79794510Y-74435947D01*
X79790764Y-74446239D01*
X79734375Y-74656688D01*
X79732472Y-74667481D01*
X79713483Y-74884525D01*
X79713483Y-74895475D01*
X76483000Y-74895475D01*
X76483000Y-71652065D01*
X76503002Y-71583944D01*
X76519905Y-71562970D01*
X76532236Y-71550639D01*
X79625500Y-71550639D01*
X79625501Y-73229360D01*
X79626039Y-73233444D01*
X79626039Y-73233450D01*
X79639878Y-73338574D01*
X79640956Y-73346762D01*
X79701464Y-73492841D01*
X79797718Y-73618282D01*
X79923159Y-73714536D01*
X80069238Y-73775044D01*
X80077426Y-73776122D01*
X80182545Y-73789961D01*
X80186639Y-73790500D01*
X80233520Y-73790500D01*
X80301641Y-73810502D01*
X80322615Y-73827405D01*
X81013188Y-74517978D01*
X81027132Y-74525592D01*
X81028965Y-74525461D01*
X81035580Y-74521210D01*
X81729386Y-73827404D01*
X81791698Y-73793378D01*
X81818481Y-73790499D01*
X81865360Y-73790499D01*
X81869444Y-73789961D01*
X81869450Y-73789961D01*
X81974575Y-73776122D01*
X81974577Y-73776122D01*
X81982762Y-73775044D01*
X82128841Y-73714536D01*
X82254282Y-73618282D01*
X82350536Y-73492841D01*
X82411044Y-73346762D01*
X82426500Y-73229361D01*
X82426499Y-71550640D01*
X82418038Y-71486361D01*
X82412122Y-71441425D01*
X82412122Y-71441423D01*
X82411044Y-71433238D01*
X82350536Y-71287159D01*
X82254282Y-71161718D01*
X82128841Y-71065464D01*
X81982762Y-71004956D01*
X81956397Y-71001485D01*
X81869448Y-70990038D01*
X81869447Y-70990038D01*
X81865361Y-70989500D01*
X81026102Y-70989500D01*
X80186640Y-70989501D01*
X80182556Y-70990039D01*
X80182550Y-70990039D01*
X80077425Y-71003878D01*
X80077423Y-71003878D01*
X80069238Y-71004956D01*
X79923159Y-71065464D01*
X79797718Y-71161718D01*
X79701464Y-71287159D01*
X79640956Y-71433238D01*
X79625500Y-71550639D01*
X76532236Y-71550639D01*
X77779790Y-70303085D01*
X85426000Y-70303085D01*
X85430475Y-70318324D01*
X85431865Y-70319529D01*
X85439548Y-70321200D01*
X86161885Y-70321200D01*
X86177124Y-70316725D01*
X86178329Y-70315335D01*
X86180000Y-70307652D01*
X86180000Y-70303085D01*
X86688000Y-70303085D01*
X86692475Y-70318324D01*
X86693865Y-70319529D01*
X86701548Y-70321200D01*
X87423884Y-70321200D01*
X87439123Y-70316725D01*
X87440328Y-70315335D01*
X87441999Y-70307652D01*
X87441999Y-68930531D01*
X87441629Y-68923710D01*
X87436105Y-68872848D01*
X87432479Y-68857596D01*
X87387324Y-68737146D01*
X87378786Y-68721551D01*
X87302285Y-68619476D01*
X87289724Y-68606915D01*
X87187649Y-68530414D01*
X87172054Y-68521876D01*
X87051606Y-68476722D01*
X87036351Y-68473095D01*
X86985486Y-68467569D01*
X86978672Y-68467200D01*
X86706115Y-68467200D01*
X86690876Y-68471675D01*
X86689671Y-68473065D01*
X86688000Y-68480748D01*
X86688000Y-70303085D01*
X86180000Y-70303085D01*
X86180000Y-68485316D01*
X86175525Y-68470077D01*
X86174135Y-68468872D01*
X86166452Y-68467201D01*
X85889331Y-68467201D01*
X85882510Y-68467571D01*
X85831648Y-68473095D01*
X85816396Y-68476721D01*
X85695946Y-68521876D01*
X85680351Y-68530414D01*
X85578276Y-68606915D01*
X85565715Y-68619476D01*
X85489214Y-68721551D01*
X85480676Y-68737146D01*
X85435522Y-68857594D01*
X85431895Y-68872849D01*
X85426369Y-68923714D01*
X85426000Y-68930528D01*
X85426000Y-70303085D01*
X77779790Y-70303085D01*
X78403902Y-69678973D01*
X78466214Y-69644947D01*
X78537029Y-69650012D01*
X78574660Y-69672114D01*
X78616676Y-69707872D01*
X78621369Y-69711866D01*
X78626747Y-69714872D01*
X78626749Y-69714873D01*
X78663063Y-69735168D01*
X78792644Y-69807588D01*
X78979249Y-69868220D01*
X79174077Y-69891452D01*
X79180212Y-69890980D01*
X79180214Y-69890980D01*
X79363565Y-69876872D01*
X79363569Y-69876871D01*
X79369707Y-69876399D01*
X79558687Y-69823634D01*
X79733820Y-69735168D01*
X79763646Y-69711866D01*
X79883584Y-69618160D01*
X79888434Y-69614371D01*
X79955157Y-69537072D01*
X80012616Y-69470504D01*
X80012616Y-69470503D01*
X80016640Y-69465842D01*
X80113556Y-69295240D01*
X80175489Y-69109063D01*
X80189609Y-68997289D01*
X80217991Y-68932214D01*
X80225520Y-68923987D01*
X81465402Y-67684105D01*
X81527714Y-67650079D01*
X81554497Y-67647200D01*
X87046629Y-67647200D01*
X87047947Y-67647207D01*
X87136100Y-67648130D01*
X87142986Y-67646641D01*
X87142988Y-67646641D01*
X87155276Y-67643984D01*
X87177418Y-67639197D01*
X87189989Y-67637138D01*
X87232012Y-67632424D01*
X87262850Y-67621685D01*
X87277653Y-67617525D01*
X87277953Y-67617460D01*
X87309551Y-67610628D01*
X87315936Y-67607651D01*
X87315938Y-67607650D01*
X87327336Y-67602335D01*
X87347870Y-67592760D01*
X87359663Y-67587971D01*
X87399600Y-67574063D01*
X87427277Y-67556769D01*
X87440793Y-67549431D01*
X87464002Y-67538608D01*
X87464006Y-67538606D01*
X87470385Y-67535631D01*
X87503792Y-67509718D01*
X87514248Y-67502424D01*
X87517508Y-67500387D01*
X87550095Y-67480024D01*
X87578294Y-67452021D01*
X87578882Y-67451470D01*
X87579542Y-67450959D01*
X87605005Y-67425496D01*
X87676015Y-67354980D01*
X87676660Y-67353963D01*
X87677731Y-67352770D01*
X89283120Y-65747381D01*
X89345432Y-65713355D01*
X89416247Y-65718420D01*
X89472177Y-65759772D01*
X89500691Y-65796932D01*
X89500695Y-65796936D01*
X89505718Y-65803482D01*
X89631159Y-65899736D01*
X89777238Y-65960244D01*
X89785426Y-65961322D01*
X89890545Y-65975161D01*
X89894639Y-65975700D01*
X90433934Y-65975700D01*
X90973360Y-65975699D01*
X90977444Y-65975161D01*
X90977450Y-65975161D01*
X91082575Y-65961322D01*
X91082577Y-65961322D01*
X91090762Y-65960244D01*
X91236841Y-65899736D01*
X91362282Y-65803482D01*
X91458536Y-65678041D01*
X91519044Y-65531962D01*
X91524101Y-65493552D01*
X91533962Y-65418648D01*
X91533962Y-65418647D01*
X91534500Y-65414561D01*
X91534499Y-62135840D01*
X91533801Y-62130531D01*
X91520122Y-62026625D01*
X91520122Y-62026623D01*
X91519044Y-62018438D01*
X91458536Y-61872359D01*
X91362282Y-61746918D01*
X91236841Y-61650664D01*
X91090762Y-61590156D01*
X90973361Y-61574700D01*
X90961058Y-61574700D01*
X90357331Y-61574701D01*
X90289211Y-61554699D01*
X90242718Y-61501043D01*
X90232614Y-61430770D01*
X90262107Y-61366189D01*
X90268237Y-61359606D01*
X90986866Y-60640977D01*
X90987803Y-60640048D01*
X91045828Y-60583226D01*
X91045829Y-60583225D01*
X91050860Y-60578298D01*
X91054675Y-60572379D01*
X91054681Y-60572371D01*
X91073765Y-60542758D01*
X91081198Y-60532413D01*
X91107574Y-60499372D01*
X91121783Y-60469979D01*
X91129309Y-60456569D01*
X91143172Y-60435058D01*
X91146991Y-60429132D01*
X91161453Y-60389398D01*
X91166413Y-60377656D01*
X91169055Y-60372191D01*
X91184809Y-60339602D01*
X91192151Y-60307799D01*
X91196516Y-60293062D01*
X91207686Y-60262374D01*
X91212985Y-60220426D01*
X91215222Y-60207873D01*
X91218482Y-60193752D01*
X91224730Y-60166691D01*
X91224773Y-60154589D01*
X91224869Y-60126981D01*
X91224897Y-60126132D01*
X91225000Y-60125316D01*
X91225000Y-60089286D01*
X91225015Y-60084894D01*
X91225205Y-60030618D01*
X91245445Y-59962567D01*
X91299263Y-59916262D01*
X91320719Y-59908801D01*
X91344408Y-59902895D01*
X91350515Y-59899864D01*
X91350519Y-59899862D01*
X91431907Y-59859460D01*
X91509926Y-59820731D01*
X91653940Y-59704940D01*
X91769731Y-59560926D01*
X91812885Y-59473993D01*
X91848862Y-59401519D01*
X91848864Y-59401515D01*
X91851895Y-59395408D01*
X91878348Y-59289313D01*
X91895255Y-59221503D01*
X91895256Y-59221499D01*
X91896600Y-59216107D01*
X91899500Y-59173566D01*
X91899500Y-58226434D01*
X91896600Y-58183893D01*
X91878018Y-58109363D01*
X91853546Y-58011214D01*
X91851895Y-58004592D01*
X91848864Y-57998485D01*
X91848862Y-57998481D01*
X91779028Y-57857803D01*
X91769731Y-57839074D01*
X91653940Y-57695060D01*
X91509926Y-57579269D01*
X91427167Y-57538187D01*
X91350519Y-57500138D01*
X91350515Y-57500136D01*
X91344408Y-57497105D01*
X91288839Y-57483250D01*
X91170503Y-57453745D01*
X91170499Y-57453744D01*
X91165107Y-57452400D01*
X91148294Y-57451254D01*
X91124714Y-57449646D01*
X91124701Y-57449646D01*
X91122566Y-57449500D01*
X89725434Y-57449500D01*
X89723299Y-57449646D01*
X89723286Y-57449646D01*
X89699706Y-57451254D01*
X89682893Y-57452400D01*
X89677501Y-57453744D01*
X89677497Y-57453745D01*
X89559161Y-57483250D01*
X89503592Y-57497105D01*
X89497485Y-57500136D01*
X89497481Y-57500138D01*
X89420833Y-57538187D01*
X89338074Y-57579269D01*
X89194060Y-57695060D01*
X89078269Y-57839074D01*
X89068972Y-57857803D01*
X88999138Y-57998481D01*
X88999136Y-57998485D01*
X88996105Y-58004592D01*
X88994454Y-58011214D01*
X88969983Y-58109363D01*
X88951400Y-58183893D01*
X88948500Y-58226434D01*
X88948500Y-59173566D01*
X88951400Y-59216107D01*
X88952744Y-59221499D01*
X88952745Y-59221503D01*
X88969652Y-59289313D01*
X88996105Y-59395408D01*
X88999136Y-59401515D01*
X88999138Y-59401519D01*
X89035115Y-59473993D01*
X89078269Y-59560926D01*
X89194060Y-59704940D01*
X89338074Y-59820731D01*
X89344188Y-59823766D01*
X89347942Y-59826167D01*
X89394552Y-59879721D01*
X89404809Y-59949973D01*
X89375458Y-60014618D01*
X89369148Y-60021409D01*
X88681134Y-60709423D01*
X88680197Y-60710352D01*
X88637869Y-60751803D01*
X88617140Y-60772102D01*
X88613325Y-60778021D01*
X88613319Y-60778029D01*
X88594235Y-60807642D01*
X88586802Y-60817987D01*
X88560426Y-60851028D01*
X88546514Y-60879807D01*
X88546221Y-60880413D01*
X88538693Y-60893828D01*
X88521009Y-60921268D01*
X88518600Y-60927888D01*
X88518597Y-60927893D01*
X88506550Y-60960993D01*
X88501590Y-60972735D01*
X88483190Y-61010798D01*
X88481605Y-61017662D01*
X88481605Y-61017663D01*
X88475848Y-61042601D01*
X88471478Y-61057354D01*
X88460314Y-61088026D01*
X88456122Y-61121214D01*
X88455016Y-61129966D01*
X88452779Y-61142520D01*
X88444854Y-61176845D01*
X88444853Y-61176853D01*
X88443270Y-61183710D01*
X88443245Y-61190750D01*
X88443245Y-61190753D01*
X88443131Y-61223419D01*
X88443103Y-61224268D01*
X88443000Y-61225084D01*
X88443000Y-61261115D01*
X88442651Y-61361168D01*
X88442914Y-61362345D01*
X88443000Y-61363931D01*
X88443000Y-63295367D01*
X88422998Y-63363488D01*
X88406095Y-63384462D01*
X87657095Y-64133462D01*
X87594783Y-64167488D01*
X87523968Y-64162423D01*
X87467132Y-64119876D01*
X87442321Y-64053356D01*
X87442120Y-64047723D01*
X87437525Y-64032076D01*
X87436135Y-64030871D01*
X87428452Y-64029200D01*
X85444116Y-64029200D01*
X85428877Y-64033675D01*
X85427672Y-64035065D01*
X85426001Y-64042748D01*
X85426001Y-65358200D01*
X85405999Y-65426321D01*
X85352343Y-65472814D01*
X85300001Y-65484200D01*
X80698015Y-65484200D01*
X80696695Y-65484193D01*
X80695810Y-65484184D01*
X80608590Y-65483270D01*
X80567272Y-65492203D01*
X80554701Y-65494262D01*
X80512678Y-65498976D01*
X80481840Y-65509715D01*
X80467037Y-65513875D01*
X80435139Y-65520772D01*
X80428754Y-65523749D01*
X80428752Y-65523750D01*
X80396827Y-65538637D01*
X80385018Y-65543432D01*
X80345090Y-65557337D01*
X80317396Y-65574642D01*
X80303897Y-65581971D01*
X80274305Y-65595770D01*
X80268740Y-65600087D01*
X80268733Y-65600091D01*
X80240901Y-65621681D01*
X80230454Y-65628970D01*
X80194595Y-65651376D01*
X80166396Y-65679379D01*
X80165808Y-65679930D01*
X80165148Y-65680441D01*
X80139685Y-65705904D01*
X80068675Y-65776420D01*
X80068030Y-65777437D01*
X80066959Y-65778630D01*
X75139134Y-70706455D01*
X75138197Y-70707384D01*
X75075140Y-70769134D01*
X75071325Y-70775053D01*
X75071319Y-70775061D01*
X75052235Y-70804674D01*
X75044802Y-70815019D01*
X75018426Y-70848060D01*
X75004221Y-70877445D01*
X74996693Y-70890860D01*
X74979009Y-70918300D01*
X74976600Y-70924920D01*
X74976597Y-70924925D01*
X74964550Y-70958025D01*
X74959589Y-70969770D01*
X74950051Y-70989501D01*
X74941190Y-71007830D01*
X74939605Y-71014694D01*
X74939605Y-71014695D01*
X74933848Y-71039633D01*
X74929478Y-71054386D01*
X74918314Y-71085058D01*
X74917431Y-71092046D01*
X74917431Y-71092047D01*
X74913016Y-71126998D01*
X74910779Y-71139552D01*
X74902854Y-71173877D01*
X74902853Y-71173885D01*
X74901270Y-71180742D01*
X74901245Y-71187782D01*
X74901245Y-71187785D01*
X74901131Y-71220451D01*
X74901103Y-71221300D01*
X74901000Y-71222116D01*
X74901000Y-71258147D01*
X74900651Y-71358200D01*
X74900914Y-71359377D01*
X74901000Y-71360963D01*
X74901000Y-75342889D01*
X74880998Y-75411010D01*
X74827342Y-75457503D01*
X74757068Y-75467607D01*
X74689472Y-75435415D01*
X74633470Y-75383646D01*
X74597026Y-75322719D01*
X74593000Y-75291123D01*
X74593000Y-75080983D01*
X74593007Y-75079663D01*
X74593318Y-75049948D01*
X74593930Y-74991558D01*
X74584997Y-74950240D01*
X74582937Y-74937665D01*
X74580749Y-74918154D01*
X74578224Y-74895646D01*
X74567485Y-74864808D01*
X74563325Y-74850005D01*
X74557917Y-74824995D01*
X74556428Y-74818107D01*
X74538562Y-74779794D01*
X74533767Y-74767984D01*
X74522179Y-74734709D01*
X74519863Y-74728058D01*
X74502558Y-74700364D01*
X74495229Y-74686865D01*
X74481430Y-74657273D01*
X74477113Y-74651708D01*
X74477109Y-74651701D01*
X74455519Y-74623869D01*
X74448230Y-74613422D01*
X74425824Y-74577563D01*
X74397821Y-74549364D01*
X74397270Y-74548776D01*
X74396759Y-74548116D01*
X74371296Y-74522653D01*
X74300780Y-74451643D01*
X74299763Y-74450998D01*
X74298570Y-74449927D01*
X73209777Y-73361134D01*
X73208848Y-73360197D01*
X73152026Y-73302172D01*
X73152025Y-73302171D01*
X73147098Y-73297140D01*
X73141179Y-73293325D01*
X73141171Y-73293319D01*
X73111558Y-73274235D01*
X73101213Y-73266802D01*
X73068172Y-73240426D01*
X73038786Y-73226220D01*
X73025372Y-73218693D01*
X73003853Y-73204825D01*
X73003854Y-73204825D01*
X72997932Y-73201009D01*
X72991312Y-73198600D01*
X72991307Y-73198597D01*
X72958207Y-73186550D01*
X72946462Y-73181589D01*
X72943459Y-73180137D01*
X72933425Y-73175287D01*
X72914747Y-73166257D01*
X72914745Y-73166256D01*
X72908402Y-73163190D01*
X72901538Y-73161605D01*
X72901537Y-73161605D01*
X72876599Y-73155848D01*
X72861846Y-73151478D01*
X72837795Y-73142724D01*
X72837796Y-73142724D01*
X72831174Y-73140314D01*
X72824186Y-73139431D01*
X72824185Y-73139431D01*
X72804869Y-73136991D01*
X72789232Y-73135016D01*
X72776680Y-73132779D01*
X72742355Y-73124854D01*
X72742347Y-73124853D01*
X72735490Y-73123270D01*
X72728450Y-73123245D01*
X72728447Y-73123245D01*
X72695781Y-73123131D01*
X72694932Y-73123103D01*
X72694116Y-73123000D01*
X72658238Y-73123000D01*
X72657798Y-73122999D01*
X72561491Y-73122663D01*
X72561490Y-73122663D01*
X72558032Y-73122651D01*
X72556855Y-73122914D01*
X72555269Y-73123000D01*
X65033029Y-73123000D01*
X65031710Y-73122993D01*
X64943558Y-73122070D01*
X64936677Y-73123558D01*
X64936674Y-73123558D01*
X64902237Y-73131003D01*
X64889659Y-73133063D01*
X64854644Y-73136991D01*
X64847646Y-73137776D01*
X64840996Y-73140092D01*
X64840986Y-73140094D01*
X64816814Y-73148511D01*
X64802010Y-73152673D01*
X64796826Y-73153794D01*
X64770107Y-73159571D01*
X64733515Y-73176634D01*
X64731788Y-73177439D01*
X64719980Y-73182233D01*
X64686711Y-73193819D01*
X64686703Y-73193823D01*
X64680058Y-73196137D01*
X64674090Y-73199866D01*
X64674086Y-73199868D01*
X64652375Y-73213434D01*
X64638865Y-73220770D01*
X64609273Y-73234569D01*
X64603708Y-73238885D01*
X64603709Y-73238885D01*
X64575866Y-73260482D01*
X64565410Y-73267776D01*
X64529563Y-73290176D01*
X64501364Y-73318179D01*
X64500776Y-73318730D01*
X64500116Y-73319241D01*
X64474653Y-73344704D01*
X64403643Y-73415220D01*
X64402998Y-73416237D01*
X64401927Y-73417430D01*
X63249134Y-74570223D01*
X63248197Y-74571152D01*
X63205048Y-74613407D01*
X63185140Y-74632902D01*
X63181325Y-74638821D01*
X63181319Y-74638829D01*
X63162235Y-74668442D01*
X63154802Y-74678787D01*
X63128426Y-74711828D01*
X63119578Y-74730132D01*
X63114221Y-74741213D01*
X63106693Y-74754628D01*
X63089009Y-74782068D01*
X63086600Y-74788688D01*
X63086597Y-74788693D01*
X63074550Y-74821793D01*
X63069590Y-74833535D01*
X63051190Y-74871598D01*
X63049605Y-74878462D01*
X63049605Y-74878463D01*
X63043848Y-74903401D01*
X63039478Y-74918154D01*
X63028314Y-74948826D01*
X63027431Y-74955814D01*
X63027431Y-74955815D01*
X63023016Y-74990766D01*
X63020779Y-75003320D01*
X63012854Y-75037645D01*
X63012853Y-75037653D01*
X63011270Y-75044510D01*
X63011245Y-75051550D01*
X63011245Y-75051553D01*
X63011131Y-75084219D01*
X63011103Y-75085068D01*
X63011000Y-75085884D01*
X63011000Y-75121915D01*
X63010651Y-75221968D01*
X63010914Y-75223145D01*
X63011000Y-75224731D01*
X63011000Y-75289735D01*
X62990998Y-75357856D01*
X62968080Y-75384465D01*
X62927457Y-75420090D01*
X62867363Y-75496320D01*
X62842059Y-75528418D01*
X62784178Y-75569531D01*
X62713258Y-75572825D01*
X62651815Y-75537253D01*
X62644023Y-75528245D01*
X62611737Y-75487143D01*
X62603501Y-75478494D01*
X62452877Y-75347788D01*
X62443153Y-75340853D01*
X62270533Y-75240990D01*
X62259669Y-75236016D01*
X62071273Y-75170593D01*
X62070284Y-75170352D01*
X62059992Y-75171820D01*
X62056000Y-75185385D01*
X62056000Y-76778000D01*
X62035998Y-76846121D01*
X61982342Y-76892614D01*
X61930000Y-76904000D01*
X61674000Y-76904000D01*
X61605879Y-76883998D01*
X61559386Y-76830342D01*
X61548000Y-76778000D01*
X61548000Y-75189598D01*
X61544027Y-75176067D01*
X61534601Y-75174712D01*
X61445463Y-75196194D01*
X61434168Y-75200083D01*
X61252618Y-75282629D01*
X61242276Y-75288576D01*
X61079603Y-75403968D01*
X61070569Y-75411766D01*
X60950957Y-75536715D01*
X60889402Y-75572092D01*
X60818493Y-75568573D01*
X60758981Y-75524974D01*
X60724272Y-75478494D01*
X60697967Y-75443267D01*
X60633471Y-75383647D01*
X60597026Y-75322719D01*
X60593000Y-75291123D01*
X60593000Y-71795295D01*
X60594534Y-71775693D01*
X60611121Y-71670375D01*
X60611121Y-71670372D01*
X60612216Y-71663420D01*
X60600303Y-71486361D01*
X60596042Y-71464545D01*
X60593410Y-71456565D01*
X60591070Y-71448593D01*
X60503500Y-71109146D01*
X60379726Y-70763423D01*
X60224939Y-70430429D01*
X60159790Y-70318324D01*
X60041872Y-70115420D01*
X60040430Y-70112938D01*
X60038770Y-70110602D01*
X60038765Y-70110594D01*
X59829402Y-69815942D01*
X59829401Y-69815941D01*
X59827735Y-69813596D01*
X59822581Y-69807588D01*
X59590493Y-69537072D01*
X59588629Y-69534899D01*
X59341665Y-69295240D01*
X59327161Y-69281165D01*
X59327160Y-69281164D01*
X59325103Y-69279168D01*
X59039353Y-69048535D01*
X58733762Y-68844922D01*
X58731235Y-68843553D01*
X58731228Y-68843549D01*
X58485989Y-68710713D01*
X58435617Y-68660681D01*
X58420000Y-68599922D01*
X58420000Y-68532500D01*
X58440002Y-68464379D01*
X58493658Y-68417886D01*
X58546000Y-68406500D01*
X75302153Y-68406500D01*
X75307573Y-68405544D01*
X75307577Y-68405544D01*
X75355036Y-68397176D01*
X75365931Y-68395742D01*
X75366088Y-68395728D01*
X75419408Y-68391063D01*
X75471264Y-68377168D01*
X75481988Y-68374790D01*
X75496873Y-68372166D01*
X75529452Y-68366422D01*
X75529458Y-68366420D01*
X75534871Y-68365466D01*
X75540039Y-68363585D01*
X75540043Y-68363584D01*
X75585326Y-68347103D01*
X75595807Y-68343799D01*
X75642345Y-68331329D01*
X75642356Y-68331325D01*
X75647663Y-68329903D01*
X75696324Y-68307212D01*
X75706477Y-68303007D01*
X75751758Y-68286526D01*
X75756926Y-68284645D01*
X75803423Y-68257800D01*
X75813172Y-68252725D01*
X75856837Y-68232364D01*
X75856848Y-68232358D01*
X75861829Y-68230035D01*
X75905806Y-68199242D01*
X75915077Y-68193336D01*
X75930171Y-68184622D01*
X75961574Y-68166491D01*
X75965787Y-68162956D01*
X75965791Y-68162953D01*
X76002706Y-68131977D01*
X76011420Y-68125290D01*
X76055401Y-68094495D01*
X76222495Y-67927401D01*
X76222497Y-67927398D01*
X80646810Y-63503085D01*
X85426000Y-63503085D01*
X85430475Y-63518324D01*
X85431865Y-63519529D01*
X85439548Y-63521200D01*
X86161885Y-63521200D01*
X86177124Y-63516725D01*
X86178329Y-63515335D01*
X86180000Y-63507652D01*
X86180000Y-63503085D01*
X86688000Y-63503085D01*
X86692475Y-63518324D01*
X86693865Y-63519529D01*
X86701548Y-63521200D01*
X87423884Y-63521200D01*
X87439123Y-63516725D01*
X87440328Y-63515335D01*
X87441999Y-63507652D01*
X87441999Y-62130531D01*
X87441629Y-62123710D01*
X87436105Y-62072848D01*
X87432479Y-62057596D01*
X87387324Y-61937146D01*
X87378786Y-61921551D01*
X87302285Y-61819476D01*
X87289724Y-61806915D01*
X87187649Y-61730414D01*
X87172054Y-61721876D01*
X87051606Y-61676722D01*
X87036351Y-61673095D01*
X86985486Y-61667569D01*
X86978672Y-61667200D01*
X86706115Y-61667200D01*
X86690876Y-61671675D01*
X86689671Y-61673065D01*
X86688000Y-61680748D01*
X86688000Y-63503085D01*
X86180000Y-63503085D01*
X86180000Y-61685316D01*
X86175525Y-61670077D01*
X86174135Y-61668872D01*
X86166452Y-61667201D01*
X85889331Y-61667201D01*
X85882510Y-61667571D01*
X85831648Y-61673095D01*
X85816396Y-61676721D01*
X85695946Y-61721876D01*
X85680351Y-61730414D01*
X85578276Y-61806915D01*
X85565715Y-61819476D01*
X85489214Y-61921551D01*
X85480676Y-61937146D01*
X85435522Y-62057594D01*
X85431895Y-62072849D01*
X85426369Y-62123714D01*
X85426000Y-62130528D01*
X85426000Y-63503085D01*
X80646810Y-63503085D01*
X81897398Y-62252497D01*
X81897401Y-62252495D01*
X82064495Y-62085401D01*
X82067653Y-62080891D01*
X82067658Y-62080885D01*
X82095292Y-62041419D01*
X82101983Y-62032698D01*
X82111911Y-62020866D01*
X82136491Y-61991573D01*
X82139241Y-61986810D01*
X82163334Y-61945080D01*
X82169240Y-61935810D01*
X82196878Y-61896339D01*
X82196882Y-61896331D01*
X82200035Y-61891829D01*
X82222721Y-61843178D01*
X82227796Y-61833429D01*
X82251895Y-61791690D01*
X82251897Y-61791685D01*
X82254645Y-61786926D01*
X82257244Y-61779785D01*
X82273010Y-61736470D01*
X82277216Y-61726314D01*
X82284987Y-61709650D01*
X82299903Y-61677663D01*
X82301325Y-61672357D01*
X82301328Y-61672348D01*
X82313802Y-61625797D01*
X82317106Y-61615318D01*
X82333583Y-61570044D01*
X82333583Y-61570043D01*
X82335466Y-61564870D01*
X82344791Y-61511989D01*
X82347169Y-61501261D01*
X82361063Y-61449408D01*
X82361541Y-61443940D01*
X82361544Y-61443925D01*
X82365743Y-61395930D01*
X82367177Y-61385032D01*
X82370765Y-61364682D01*
X82376501Y-61332153D01*
X82376501Y-61095846D01*
X82376500Y-61095840D01*
X82376500Y-58736163D01*
X83703757Y-58736163D01*
X83720175Y-58931683D01*
X83774258Y-59120291D01*
X83777076Y-59125774D01*
X83861123Y-59289313D01*
X83861126Y-59289317D01*
X83863944Y-59294801D01*
X83985818Y-59448569D01*
X83990511Y-59452563D01*
X83990512Y-59452564D01*
X84041511Y-59495967D01*
X84135238Y-59575735D01*
X84140616Y-59578741D01*
X84140618Y-59578742D01*
X84154659Y-59586589D01*
X84306513Y-59671457D01*
X84493118Y-59732089D01*
X84687946Y-59755321D01*
X84694081Y-59754849D01*
X84694083Y-59754849D01*
X84877434Y-59740741D01*
X84877438Y-59740740D01*
X84883576Y-59740268D01*
X85036773Y-59697494D01*
X85107761Y-59698439D01*
X85149604Y-59720654D01*
X85274074Y-59820731D01*
X85352093Y-59859460D01*
X85433481Y-59899862D01*
X85433485Y-59899864D01*
X85439592Y-59902895D01*
X85446214Y-59904546D01*
X85613497Y-59946255D01*
X85613501Y-59946256D01*
X85618893Y-59947600D01*
X85635706Y-59948746D01*
X85659286Y-59950354D01*
X85659299Y-59950354D01*
X85661434Y-59950500D01*
X87058566Y-59950500D01*
X87060701Y-59950354D01*
X87060714Y-59950354D01*
X87084294Y-59948746D01*
X87101107Y-59947600D01*
X87106499Y-59946256D01*
X87106503Y-59946255D01*
X87273786Y-59904546D01*
X87280408Y-59902895D01*
X87286515Y-59899864D01*
X87286519Y-59899862D01*
X87367907Y-59859460D01*
X87445926Y-59820731D01*
X87589940Y-59704940D01*
X87705731Y-59560926D01*
X87748885Y-59473993D01*
X87784862Y-59401519D01*
X87784864Y-59401515D01*
X87787895Y-59395408D01*
X87814348Y-59289313D01*
X87831255Y-59221503D01*
X87831256Y-59221499D01*
X87832600Y-59216107D01*
X87835500Y-59173566D01*
X87835500Y-58226434D01*
X87832600Y-58183893D01*
X87814018Y-58109363D01*
X87789546Y-58011214D01*
X87787895Y-58004592D01*
X87784864Y-57998485D01*
X87784862Y-57998481D01*
X87715028Y-57857803D01*
X87705731Y-57839074D01*
X87589940Y-57695060D01*
X87445926Y-57579269D01*
X87363167Y-57538187D01*
X87286519Y-57500138D01*
X87286515Y-57500136D01*
X87280408Y-57497105D01*
X87224839Y-57483250D01*
X87106503Y-57453745D01*
X87106499Y-57453744D01*
X87101107Y-57452400D01*
X87084294Y-57451254D01*
X87060714Y-57449646D01*
X87060701Y-57449646D01*
X87058566Y-57449500D01*
X85661434Y-57449500D01*
X85659299Y-57449646D01*
X85659286Y-57449646D01*
X85635706Y-57451254D01*
X85618893Y-57452400D01*
X85613501Y-57453744D01*
X85613497Y-57453745D01*
X85495161Y-57483250D01*
X85439592Y-57497105D01*
X85433485Y-57500136D01*
X85433481Y-57500138D01*
X85356833Y-57538187D01*
X85274074Y-57579269D01*
X85130060Y-57695060D01*
X85094809Y-57738903D01*
X85036539Y-57779457D01*
X84959358Y-57780315D01*
X84911152Y-57765393D01*
X84905027Y-57764749D01*
X84905026Y-57764749D01*
X84722147Y-57745527D01*
X84722146Y-57745527D01*
X84716019Y-57744883D01*
X84593383Y-57756044D01*
X84526759Y-57762107D01*
X84526758Y-57762107D01*
X84520618Y-57762666D01*
X84514704Y-57764407D01*
X84514702Y-57764407D01*
X84436902Y-57787305D01*
X84332393Y-57818064D01*
X84326928Y-57820921D01*
X84163972Y-57906112D01*
X84163968Y-57906115D01*
X84158512Y-57908967D01*
X84153712Y-57912827D01*
X84153711Y-57912827D01*
X84145889Y-57919116D01*
X84005600Y-58031911D01*
X83879480Y-58182216D01*
X83876516Y-58187608D01*
X83876513Y-58187612D01*
X83855171Y-58226434D01*
X83784956Y-58354154D01*
X83725628Y-58541178D01*
X83703757Y-58736163D01*
X82376500Y-58736163D01*
X82376500Y-56073566D01*
X84884500Y-56073566D01*
X84887400Y-56116107D01*
X84932105Y-56295408D01*
X84935136Y-56301515D01*
X84935138Y-56301519D01*
X84973187Y-56378167D01*
X85014269Y-56460926D01*
X85130060Y-56604940D01*
X85274074Y-56720731D01*
X85337156Y-56752045D01*
X85433481Y-56799862D01*
X85433485Y-56799864D01*
X85439592Y-56802895D01*
X85446214Y-56804546D01*
X85613497Y-56846255D01*
X85613501Y-56846256D01*
X85618893Y-56847600D01*
X85635706Y-56848746D01*
X85659286Y-56850354D01*
X85659299Y-56850354D01*
X85661434Y-56850500D01*
X87058566Y-56850500D01*
X87060701Y-56850354D01*
X87060714Y-56850354D01*
X87084294Y-56848746D01*
X87101107Y-56847600D01*
X87106499Y-56846256D01*
X87106503Y-56846255D01*
X87273786Y-56804546D01*
X87280408Y-56802895D01*
X87286515Y-56799864D01*
X87286519Y-56799862D01*
X87382844Y-56752045D01*
X87445926Y-56720731D01*
X87589940Y-56604940D01*
X87705731Y-56460926D01*
X87746813Y-56378167D01*
X87784862Y-56301519D01*
X87784864Y-56301515D01*
X87787895Y-56295408D01*
X87832600Y-56116107D01*
X87835500Y-56073566D01*
X88948500Y-56073566D01*
X88951400Y-56116107D01*
X88996105Y-56295408D01*
X88999136Y-56301515D01*
X88999138Y-56301519D01*
X89037187Y-56378167D01*
X89078269Y-56460926D01*
X89194060Y-56604940D01*
X89338074Y-56720731D01*
X89401156Y-56752045D01*
X89497481Y-56799862D01*
X89497485Y-56799864D01*
X89503592Y-56802895D01*
X89510214Y-56804546D01*
X89677497Y-56846255D01*
X89677501Y-56846256D01*
X89682893Y-56847600D01*
X89699706Y-56848746D01*
X89723286Y-56850354D01*
X89723299Y-56850354D01*
X89725434Y-56850500D01*
X91122566Y-56850500D01*
X91124701Y-56850354D01*
X91124714Y-56850354D01*
X91148294Y-56848746D01*
X91165107Y-56847600D01*
X91170499Y-56846256D01*
X91170503Y-56846255D01*
X91337786Y-56804546D01*
X91344408Y-56802895D01*
X91350515Y-56799864D01*
X91350519Y-56799862D01*
X91446844Y-56752045D01*
X91509926Y-56720731D01*
X91653940Y-56604940D01*
X91769731Y-56460926D01*
X91810813Y-56378167D01*
X91848862Y-56301519D01*
X91848864Y-56301515D01*
X91851895Y-56295408D01*
X91896600Y-56116107D01*
X91899500Y-56073566D01*
X91899500Y-55126434D01*
X91896600Y-55083893D01*
X91878720Y-55012178D01*
X91853546Y-54911214D01*
X91851895Y-54904592D01*
X91848864Y-54898485D01*
X91848862Y-54898481D01*
X91795310Y-54790602D01*
X91769731Y-54739074D01*
X91653940Y-54595060D01*
X91509926Y-54479269D01*
X91396799Y-54423112D01*
X91350519Y-54400138D01*
X91350515Y-54400136D01*
X91344408Y-54397105D01*
X91310517Y-54388655D01*
X91249259Y-54352767D01*
X91217128Y-54289457D01*
X91215000Y-54266398D01*
X91215000Y-52413602D01*
X91235002Y-52345481D01*
X91288658Y-52298988D01*
X91310516Y-52291345D01*
X91344407Y-52282895D01*
X91350514Y-52279863D01*
X91350518Y-52279862D01*
X91461332Y-52224853D01*
X91509926Y-52200731D01*
X91653940Y-52084940D01*
X91769731Y-51940926D01*
X91821347Y-51836946D01*
X91848862Y-51781518D01*
X91848863Y-51781514D01*
X91851895Y-51775407D01*
X91877760Y-51671668D01*
X91895255Y-51601502D01*
X91895256Y-51601498D01*
X91896600Y-51596106D01*
X91898094Y-51574186D01*
X91899354Y-51555713D01*
X91899354Y-51555700D01*
X91899500Y-51553565D01*
X91899499Y-50481436D01*
X91896600Y-50438894D01*
X91892893Y-50424024D01*
X91853546Y-50266215D01*
X91851895Y-50259593D01*
X91848863Y-50253486D01*
X91848862Y-50253482D01*
X91776180Y-50107066D01*
X91769731Y-50094074D01*
X91653940Y-49950060D01*
X91509926Y-49834269D01*
X91412749Y-49786030D01*
X91350518Y-49755138D01*
X91350514Y-49755137D01*
X91344407Y-49752105D01*
X91301552Y-49741420D01*
X91170502Y-49708745D01*
X91170498Y-49708744D01*
X91165106Y-49707400D01*
X91148293Y-49706254D01*
X91124713Y-49704646D01*
X91124700Y-49704646D01*
X91122565Y-49704500D01*
X90424488Y-49704500D01*
X89725436Y-49704501D01*
X89702057Y-49706094D01*
X89688439Y-49707022D01*
X89688437Y-49707022D01*
X89682894Y-49707400D01*
X89677506Y-49708743D01*
X89677502Y-49708744D01*
X89546448Y-49741420D01*
X89503593Y-49752105D01*
X89497486Y-49755137D01*
X89497482Y-49755138D01*
X89435251Y-49786030D01*
X89338074Y-49834269D01*
X89194060Y-49950060D01*
X89078269Y-50094074D01*
X89071820Y-50107066D01*
X88999138Y-50253482D01*
X88999137Y-50253486D01*
X88996105Y-50259593D01*
X88994454Y-50266215D01*
X88955108Y-50424024D01*
X88951400Y-50438894D01*
X88951022Y-50444439D01*
X88951022Y-50444442D01*
X88948647Y-50479282D01*
X88948500Y-50481435D01*
X88948501Y-51553564D01*
X88951400Y-51596106D01*
X88952743Y-51601494D01*
X88952744Y-51601498D01*
X88970240Y-51671668D01*
X88996105Y-51775407D01*
X88999137Y-51781514D01*
X88999138Y-51781518D01*
X89026653Y-51836946D01*
X89078269Y-51940926D01*
X89194060Y-52084940D01*
X89338074Y-52200731D01*
X89386668Y-52224853D01*
X89497482Y-52279862D01*
X89497486Y-52279863D01*
X89503593Y-52282895D01*
X89537484Y-52291345D01*
X89598742Y-52327234D01*
X89630872Y-52390544D01*
X89633000Y-52413602D01*
X89633000Y-54266398D01*
X89612998Y-54334519D01*
X89559342Y-54381012D01*
X89537483Y-54388655D01*
X89503592Y-54397105D01*
X89497485Y-54400136D01*
X89497481Y-54400138D01*
X89451201Y-54423112D01*
X89338074Y-54479269D01*
X89194060Y-54595060D01*
X89078269Y-54739074D01*
X89052690Y-54790602D01*
X88999138Y-54898481D01*
X88999136Y-54898485D01*
X88996105Y-54904592D01*
X88994454Y-54911214D01*
X88969281Y-55012178D01*
X88951400Y-55083893D01*
X88948500Y-55126434D01*
X88948500Y-56073566D01*
X87835500Y-56073566D01*
X87835500Y-55126434D01*
X87832600Y-55083893D01*
X87814720Y-55012178D01*
X87789546Y-54911214D01*
X87787895Y-54904592D01*
X87784864Y-54898485D01*
X87784862Y-54898481D01*
X87731310Y-54790602D01*
X87705731Y-54739074D01*
X87589940Y-54595060D01*
X87445926Y-54479269D01*
X87332799Y-54423112D01*
X87286519Y-54400138D01*
X87286515Y-54400136D01*
X87280408Y-54397105D01*
X87246517Y-54388655D01*
X87185259Y-54352767D01*
X87153128Y-54289457D01*
X87151000Y-54266398D01*
X87151000Y-52413602D01*
X87171002Y-52345481D01*
X87224658Y-52298988D01*
X87246516Y-52291345D01*
X87280407Y-52282895D01*
X87286514Y-52279863D01*
X87286518Y-52279862D01*
X87397332Y-52224853D01*
X87445926Y-52200731D01*
X87589940Y-52084940D01*
X87705731Y-51940926D01*
X87757347Y-51836946D01*
X87784862Y-51781518D01*
X87784863Y-51781514D01*
X87787895Y-51775407D01*
X87813760Y-51671668D01*
X87831255Y-51601502D01*
X87831256Y-51601498D01*
X87832600Y-51596106D01*
X87834094Y-51574186D01*
X87835354Y-51555713D01*
X87835354Y-51555700D01*
X87835500Y-51553565D01*
X87835499Y-50481436D01*
X87832600Y-50438894D01*
X87828893Y-50424024D01*
X87789546Y-50266215D01*
X87787895Y-50259593D01*
X87784863Y-50253486D01*
X87784862Y-50253482D01*
X87712180Y-50107066D01*
X87705731Y-50094074D01*
X87589940Y-49950060D01*
X87445926Y-49834269D01*
X87348749Y-49786030D01*
X87286518Y-49755138D01*
X87286514Y-49755137D01*
X87280407Y-49752105D01*
X87237552Y-49741420D01*
X87106502Y-49708745D01*
X87106498Y-49708744D01*
X87101106Y-49707400D01*
X87084293Y-49706254D01*
X87060713Y-49704646D01*
X87060700Y-49704646D01*
X87058565Y-49704500D01*
X86360488Y-49704500D01*
X85661436Y-49704501D01*
X85638057Y-49706094D01*
X85624439Y-49707022D01*
X85624437Y-49707022D01*
X85618894Y-49707400D01*
X85613506Y-49708743D01*
X85613502Y-49708744D01*
X85482448Y-49741420D01*
X85439593Y-49752105D01*
X85433486Y-49755137D01*
X85433482Y-49755138D01*
X85371251Y-49786030D01*
X85274074Y-49834269D01*
X85130060Y-49950060D01*
X85014269Y-50094074D01*
X85007820Y-50107066D01*
X84935138Y-50253482D01*
X84935137Y-50253486D01*
X84932105Y-50259593D01*
X84930454Y-50266215D01*
X84891108Y-50424024D01*
X84887400Y-50438894D01*
X84887022Y-50444439D01*
X84887022Y-50444442D01*
X84884647Y-50479282D01*
X84884500Y-50481435D01*
X84884501Y-51553564D01*
X84887400Y-51596106D01*
X84888743Y-51601494D01*
X84888744Y-51601498D01*
X84906240Y-51671668D01*
X84932105Y-51775407D01*
X84935137Y-51781514D01*
X84935138Y-51781518D01*
X84962653Y-51836946D01*
X85014269Y-51940926D01*
X85130060Y-52084940D01*
X85274074Y-52200731D01*
X85322668Y-52224853D01*
X85433482Y-52279862D01*
X85433486Y-52279863D01*
X85439593Y-52282895D01*
X85473484Y-52291345D01*
X85534742Y-52327234D01*
X85566872Y-52390544D01*
X85569000Y-52413602D01*
X85569000Y-54266398D01*
X85548998Y-54334519D01*
X85495342Y-54381012D01*
X85473483Y-54388655D01*
X85439592Y-54397105D01*
X85433485Y-54400136D01*
X85433481Y-54400138D01*
X85387201Y-54423112D01*
X85274074Y-54479269D01*
X85130060Y-54595060D01*
X85014269Y-54739074D01*
X84988690Y-54790602D01*
X84935138Y-54898481D01*
X84935136Y-54898485D01*
X84932105Y-54904592D01*
X84930454Y-54911214D01*
X84905281Y-55012178D01*
X84887400Y-55083893D01*
X84884500Y-55126434D01*
X84884500Y-56073566D01*
X82376500Y-56073566D01*
X82376500Y-48552096D01*
X84977000Y-48552096D01*
X84977337Y-48558611D01*
X84987256Y-48654203D01*
X84990150Y-48667602D01*
X85041588Y-48821783D01*
X85047762Y-48834962D01*
X85133063Y-48972807D01*
X85142099Y-48984208D01*
X85256830Y-49098739D01*
X85268241Y-49107751D01*
X85406245Y-49192818D01*
X85419423Y-49198962D01*
X85573716Y-49250139D01*
X85587081Y-49253005D01*
X85681439Y-49262672D01*
X85687855Y-49263000D01*
X86087885Y-49263000D01*
X86103124Y-49258525D01*
X86104329Y-49257135D01*
X86106000Y-49249452D01*
X86106000Y-49244885D01*
X86614000Y-49244885D01*
X86618475Y-49260124D01*
X86619865Y-49261329D01*
X86627548Y-49263000D01*
X87032096Y-49263000D01*
X87038611Y-49262663D01*
X87134203Y-49252744D01*
X87147602Y-49249850D01*
X87301783Y-49198412D01*
X87314962Y-49192238D01*
X87452807Y-49106937D01*
X87464208Y-49097901D01*
X87578739Y-48983170D01*
X87587751Y-48971759D01*
X87672818Y-48833755D01*
X87678962Y-48820577D01*
X87730139Y-48666284D01*
X87733005Y-48652919D01*
X87742672Y-48558561D01*
X87743000Y-48552145D01*
X87743000Y-48552096D01*
X89041000Y-48552096D01*
X89041337Y-48558611D01*
X89051256Y-48654203D01*
X89054150Y-48667602D01*
X89105588Y-48821783D01*
X89111762Y-48834962D01*
X89197063Y-48972807D01*
X89206099Y-48984208D01*
X89320830Y-49098739D01*
X89332241Y-49107751D01*
X89470245Y-49192818D01*
X89483423Y-49198962D01*
X89637716Y-49250139D01*
X89651081Y-49253005D01*
X89745439Y-49262672D01*
X89751855Y-49263000D01*
X90151885Y-49263000D01*
X90167124Y-49258525D01*
X90168329Y-49257135D01*
X90170000Y-49249452D01*
X90170000Y-49244885D01*
X90678000Y-49244885D01*
X90682475Y-49260124D01*
X90683865Y-49261329D01*
X90691548Y-49263000D01*
X91096096Y-49263000D01*
X91102611Y-49262663D01*
X91198203Y-49252744D01*
X91211602Y-49249850D01*
X91365783Y-49198412D01*
X91378962Y-49192238D01*
X91516807Y-49106937D01*
X91528208Y-49097901D01*
X91642739Y-48983170D01*
X91651751Y-48971759D01*
X91736818Y-48833755D01*
X91742962Y-48820577D01*
X91794139Y-48666284D01*
X91797005Y-48652919D01*
X91806672Y-48558561D01*
X91807000Y-48552145D01*
X91807000Y-48314615D01*
X91802525Y-48299376D01*
X91801135Y-48298171D01*
X91793452Y-48296500D01*
X90696115Y-48296500D01*
X90680876Y-48300975D01*
X90679671Y-48302365D01*
X90678000Y-48310048D01*
X90678000Y-49244885D01*
X90170000Y-49244885D01*
X90170000Y-48314615D01*
X90165525Y-48299376D01*
X90164135Y-48298171D01*
X90156452Y-48296500D01*
X89059115Y-48296500D01*
X89043876Y-48300975D01*
X89042671Y-48302365D01*
X89041000Y-48310048D01*
X89041000Y-48552096D01*
X87743000Y-48552096D01*
X87743000Y-48314615D01*
X87738525Y-48299376D01*
X87737135Y-48298171D01*
X87729452Y-48296500D01*
X86632115Y-48296500D01*
X86616876Y-48300975D01*
X86615671Y-48302365D01*
X86614000Y-48310048D01*
X86614000Y-49244885D01*
X86106000Y-49244885D01*
X86106000Y-48314615D01*
X86101525Y-48299376D01*
X86100135Y-48298171D01*
X86092452Y-48296500D01*
X84995115Y-48296500D01*
X84979876Y-48300975D01*
X84978671Y-48302365D01*
X84977000Y-48310048D01*
X84977000Y-48552096D01*
X82376500Y-48552096D01*
X82376500Y-47770385D01*
X84977000Y-47770385D01*
X84981475Y-47785624D01*
X84982865Y-47786829D01*
X84990548Y-47788500D01*
X86087885Y-47788500D01*
X86103124Y-47784025D01*
X86104329Y-47782635D01*
X86106000Y-47774952D01*
X86106000Y-47770385D01*
X86614000Y-47770385D01*
X86618475Y-47785624D01*
X86619865Y-47786829D01*
X86627548Y-47788500D01*
X87724885Y-47788500D01*
X87740124Y-47784025D01*
X87741329Y-47782635D01*
X87743000Y-47774952D01*
X87743000Y-47770385D01*
X89041000Y-47770385D01*
X89045475Y-47785624D01*
X89046865Y-47786829D01*
X89054548Y-47788500D01*
X90151885Y-47788500D01*
X90167124Y-47784025D01*
X90168329Y-47782635D01*
X90170000Y-47774952D01*
X90170000Y-47770385D01*
X90678000Y-47770385D01*
X90682475Y-47785624D01*
X90683865Y-47786829D01*
X90691548Y-47788500D01*
X91788885Y-47788500D01*
X91804124Y-47784025D01*
X91805329Y-47782635D01*
X91807000Y-47774952D01*
X91807000Y-47532904D01*
X91806663Y-47526389D01*
X91796744Y-47430797D01*
X91793850Y-47417398D01*
X91742412Y-47263217D01*
X91736238Y-47250038D01*
X91650937Y-47112193D01*
X91641901Y-47100792D01*
X91527170Y-46986261D01*
X91515759Y-46977249D01*
X91377755Y-46892182D01*
X91364577Y-46886038D01*
X91210284Y-46834861D01*
X91196919Y-46831995D01*
X91102561Y-46822328D01*
X91096144Y-46822000D01*
X90696115Y-46822000D01*
X90680876Y-46826475D01*
X90679671Y-46827865D01*
X90678000Y-46835548D01*
X90678000Y-47770385D01*
X90170000Y-47770385D01*
X90170000Y-46840115D01*
X90165525Y-46824876D01*
X90164135Y-46823671D01*
X90156452Y-46822000D01*
X89751904Y-46822000D01*
X89745389Y-46822337D01*
X89649797Y-46832256D01*
X89636398Y-46835150D01*
X89482217Y-46886588D01*
X89469038Y-46892762D01*
X89331193Y-46978063D01*
X89319792Y-46987099D01*
X89205261Y-47101830D01*
X89196249Y-47113241D01*
X89111182Y-47251245D01*
X89105038Y-47264423D01*
X89053861Y-47418716D01*
X89050995Y-47432081D01*
X89041328Y-47526439D01*
X89041000Y-47532856D01*
X89041000Y-47770385D01*
X87743000Y-47770385D01*
X87743000Y-47532904D01*
X87742663Y-47526389D01*
X87732744Y-47430797D01*
X87729850Y-47417398D01*
X87678412Y-47263217D01*
X87672238Y-47250038D01*
X87586937Y-47112193D01*
X87577901Y-47100792D01*
X87463170Y-46986261D01*
X87451759Y-46977249D01*
X87313755Y-46892182D01*
X87300577Y-46886038D01*
X87146284Y-46834861D01*
X87132919Y-46831995D01*
X87038561Y-46822328D01*
X87032144Y-46822000D01*
X86632115Y-46822000D01*
X86616876Y-46826475D01*
X86615671Y-46827865D01*
X86614000Y-46835548D01*
X86614000Y-47770385D01*
X86106000Y-47770385D01*
X86106000Y-46840115D01*
X86101525Y-46824876D01*
X86100135Y-46823671D01*
X86092452Y-46822000D01*
X85687904Y-46822000D01*
X85681389Y-46822337D01*
X85585797Y-46832256D01*
X85572398Y-46835150D01*
X85418217Y-46886588D01*
X85405038Y-46892762D01*
X85267193Y-46978063D01*
X85255792Y-46987099D01*
X85141261Y-47101830D01*
X85132249Y-47113241D01*
X85047182Y-47251245D01*
X85041038Y-47264423D01*
X84989861Y-47418716D01*
X84986995Y-47432081D01*
X84977328Y-47526439D01*
X84977000Y-47532856D01*
X84977000Y-47770385D01*
X82376500Y-47770385D01*
X82376500Y-47596312D01*
X82396502Y-47528191D01*
X82450158Y-47481698D01*
X82516106Y-47471049D01*
X82532509Y-47472831D01*
X82539328Y-47473200D01*
X83161885Y-47473200D01*
X83177124Y-47468725D01*
X83178329Y-47467335D01*
X83180000Y-47459652D01*
X83180000Y-47455084D01*
X83688000Y-47455084D01*
X83692475Y-47470323D01*
X83693865Y-47471528D01*
X83701548Y-47473199D01*
X84328669Y-47473199D01*
X84335490Y-47472829D01*
X84386352Y-47467305D01*
X84401604Y-47463679D01*
X84522054Y-47418524D01*
X84537649Y-47409986D01*
X84639724Y-47333485D01*
X84652285Y-47320924D01*
X84728786Y-47218849D01*
X84737324Y-47203254D01*
X84782478Y-47082806D01*
X84786105Y-47067551D01*
X84791631Y-47016686D01*
X84792000Y-47009872D01*
X84792000Y-46387315D01*
X84787525Y-46372076D01*
X84786135Y-46370871D01*
X84778452Y-46369200D01*
X83706115Y-46369200D01*
X83690876Y-46373675D01*
X83689671Y-46375065D01*
X83688000Y-46382748D01*
X83688000Y-47455084D01*
X83180000Y-47455084D01*
X83180000Y-45987200D01*
X83200002Y-45919079D01*
X83253658Y-45872586D01*
X83306000Y-45861200D01*
X84773884Y-45861200D01*
X84789123Y-45856725D01*
X84790328Y-45855335D01*
X84791999Y-45847652D01*
X84791999Y-45603443D01*
X84812001Y-45535322D01*
X84865657Y-45488829D01*
X84917818Y-45477443D01*
X92837823Y-45466179D01*
X92905970Y-45486084D01*
G37*
G04 #@! TD.AperFunction*
G04 #@! TA.AperFunction,Conductor*
G36*
X44406121Y-29992002D02*
G01*
X44452614Y-30045658D01*
X44464000Y-30098000D01*
X44464000Y-32265971D01*
X44463993Y-32267289D01*
X44463070Y-32355442D01*
X44464559Y-32362328D01*
X44464559Y-32362330D01*
X44472002Y-32396752D01*
X44474062Y-32409331D01*
X44478776Y-32451354D01*
X44486150Y-32472529D01*
X44489513Y-32482186D01*
X44493675Y-32496995D01*
X44500572Y-32528893D01*
X44503549Y-32535278D01*
X44503550Y-32535280D01*
X44518437Y-32567204D01*
X44523229Y-32579005D01*
X44537137Y-32618942D01*
X44540868Y-32624913D01*
X44554431Y-32646619D01*
X44561769Y-32660135D01*
X44572592Y-32683344D01*
X44572594Y-32683348D01*
X44575569Y-32689727D01*
X44599868Y-32721054D01*
X44601482Y-32723134D01*
X44608776Y-32733590D01*
X44631176Y-32769437D01*
X44659179Y-32797636D01*
X44659730Y-32798224D01*
X44660241Y-32798884D01*
X44685704Y-32824347D01*
X44706329Y-32845116D01*
X44756220Y-32895357D01*
X44757237Y-32896002D01*
X44758430Y-32897073D01*
X44921095Y-33059738D01*
X44955121Y-33122050D01*
X44958000Y-33148833D01*
X44958000Y-35443667D01*
X44937998Y-35511788D01*
X44921095Y-35532762D01*
X44467131Y-35986726D01*
X44404819Y-36020752D01*
X44334004Y-36015687D01*
X44299085Y-35995829D01*
X44290926Y-35989269D01*
X44267923Y-35977850D01*
X44131519Y-35910138D01*
X44131515Y-35910136D01*
X44125408Y-35907105D01*
X44081494Y-35896156D01*
X43951503Y-35863745D01*
X43951499Y-35863744D01*
X43946107Y-35862400D01*
X43929294Y-35861254D01*
X43905714Y-35859646D01*
X43905701Y-35859646D01*
X43903566Y-35859500D01*
X42456434Y-35859500D01*
X42454299Y-35859646D01*
X42454286Y-35859646D01*
X42430706Y-35861254D01*
X42413893Y-35862400D01*
X42408501Y-35863744D01*
X42408497Y-35863745D01*
X42278506Y-35896156D01*
X42234592Y-35907105D01*
X42228485Y-35910136D01*
X42228481Y-35910138D01*
X42180197Y-35934107D01*
X42069074Y-35989269D01*
X41925060Y-36105060D01*
X41909194Y-36124793D01*
X41850924Y-36165347D01*
X41779975Y-36167960D01*
X41718877Y-36131800D01*
X41687027Y-36068349D01*
X41685000Y-36045839D01*
X41685000Y-34928081D01*
X41705002Y-34859960D01*
X41758658Y-34813467D01*
X41828932Y-34803363D01*
X41893512Y-34832857D01*
X41918144Y-34861778D01*
X41928063Y-34877807D01*
X41937099Y-34889208D01*
X42051829Y-35003739D01*
X42063240Y-35012751D01*
X42201243Y-35097816D01*
X42214424Y-35103963D01*
X42368710Y-35155138D01*
X42382086Y-35158005D01*
X42476438Y-35167672D01*
X42482854Y-35168000D01*
X42907885Y-35168000D01*
X42923124Y-35163525D01*
X42924329Y-35162135D01*
X42926000Y-35154452D01*
X42926000Y-35149884D01*
X43434000Y-35149884D01*
X43438475Y-35165123D01*
X43439865Y-35166328D01*
X43447548Y-35167999D01*
X43877095Y-35167999D01*
X43883614Y-35167662D01*
X43979206Y-35157743D01*
X43992600Y-35154851D01*
X44146784Y-35103412D01*
X44159962Y-35097239D01*
X44297807Y-35011937D01*
X44309208Y-35002901D01*
X44423739Y-34888171D01*
X44432751Y-34876760D01*
X44517816Y-34738757D01*
X44523963Y-34725576D01*
X44575138Y-34571290D01*
X44578005Y-34557914D01*
X44587672Y-34463562D01*
X44588000Y-34457146D01*
X44588000Y-34269615D01*
X44583525Y-34254376D01*
X44582135Y-34253171D01*
X44574452Y-34251500D01*
X43452115Y-34251500D01*
X43436876Y-34255975D01*
X43435671Y-34257365D01*
X43434000Y-34265048D01*
X43434000Y-35149884D01*
X42926000Y-35149884D01*
X42926000Y-33725385D01*
X43434000Y-33725385D01*
X43438475Y-33740624D01*
X43439865Y-33741829D01*
X43447548Y-33743500D01*
X44569884Y-33743500D01*
X44585123Y-33739025D01*
X44586328Y-33737635D01*
X44587999Y-33729952D01*
X44587999Y-33537905D01*
X44587662Y-33531386D01*
X44577743Y-33435794D01*
X44574851Y-33422400D01*
X44523412Y-33268216D01*
X44517239Y-33255038D01*
X44431937Y-33117193D01*
X44422901Y-33105792D01*
X44308171Y-32991261D01*
X44296760Y-32982249D01*
X44158757Y-32897184D01*
X44145576Y-32891037D01*
X43991290Y-32839862D01*
X43977914Y-32836995D01*
X43883562Y-32827328D01*
X43877145Y-32827000D01*
X43452115Y-32827000D01*
X43436876Y-32831475D01*
X43435671Y-32832865D01*
X43434000Y-32840548D01*
X43434000Y-33725385D01*
X42926000Y-33725385D01*
X42926000Y-32845116D01*
X42921525Y-32829877D01*
X42920135Y-32828672D01*
X42912452Y-32827001D01*
X42482905Y-32827001D01*
X42476386Y-32827338D01*
X42380794Y-32837257D01*
X42367400Y-32840149D01*
X42213216Y-32891588D01*
X42200038Y-32897761D01*
X42062193Y-32983063D01*
X42050792Y-32992099D01*
X41936261Y-33106829D01*
X41927250Y-33118239D01*
X41918949Y-33131705D01*
X41866176Y-33179197D01*
X41796104Y-33190619D01*
X41730981Y-33162345D01*
X41691482Y-33103350D01*
X41686335Y-33078320D01*
X41685856Y-33073605D01*
X41685930Y-33066558D01*
X41676997Y-33025240D01*
X41674937Y-33012665D01*
X41671009Y-32977646D01*
X41670224Y-32970646D01*
X41659485Y-32939808D01*
X41655325Y-32925005D01*
X41649917Y-32899995D01*
X41648428Y-32893107D01*
X41630562Y-32854794D01*
X41625767Y-32842984D01*
X41621759Y-32831475D01*
X41611863Y-32803058D01*
X41594558Y-32775364D01*
X41587229Y-32761865D01*
X41573430Y-32732273D01*
X41569113Y-32726708D01*
X41569109Y-32726701D01*
X41547519Y-32698869D01*
X41540230Y-32688422D01*
X41517824Y-32652563D01*
X41489821Y-32624364D01*
X41489270Y-32623776D01*
X41488759Y-32623116D01*
X41463296Y-32597653D01*
X41392780Y-32526643D01*
X41391763Y-32525998D01*
X41390570Y-32524927D01*
X41078777Y-32213134D01*
X41077848Y-32212197D01*
X41021026Y-32154172D01*
X41021025Y-32154171D01*
X41016098Y-32149140D01*
X41010179Y-32145325D01*
X41010171Y-32145319D01*
X40980558Y-32126235D01*
X40970213Y-32118802D01*
X40937172Y-32092426D01*
X40907786Y-32078220D01*
X40894372Y-32070693D01*
X40872853Y-32056825D01*
X40872854Y-32056825D01*
X40866932Y-32053009D01*
X40860312Y-32050600D01*
X40860307Y-32050597D01*
X40827207Y-32038550D01*
X40815462Y-32033589D01*
X40812453Y-32032134D01*
X40802425Y-32027287D01*
X40783747Y-32018257D01*
X40783745Y-32018256D01*
X40777402Y-32015190D01*
X40770538Y-32013605D01*
X40770537Y-32013605D01*
X40745599Y-32007848D01*
X40730846Y-32003478D01*
X40706795Y-31994724D01*
X40706796Y-31994724D01*
X40700174Y-31992314D01*
X40693186Y-31991431D01*
X40693185Y-31991431D01*
X40673869Y-31988991D01*
X40658232Y-31987016D01*
X40645680Y-31984779D01*
X40611355Y-31976854D01*
X40611347Y-31976853D01*
X40604490Y-31975270D01*
X40597450Y-31975245D01*
X40597447Y-31975245D01*
X40564781Y-31975131D01*
X40563932Y-31975103D01*
X40563116Y-31975000D01*
X40527238Y-31975000D01*
X40526798Y-31974999D01*
X40430491Y-31974663D01*
X40430490Y-31974663D01*
X40427032Y-31974651D01*
X40425855Y-31974914D01*
X40424269Y-31975000D01*
X38108983Y-31975000D01*
X38107663Y-31974993D01*
X38106778Y-31974984D01*
X38019558Y-31974070D01*
X37978240Y-31983003D01*
X37965669Y-31985062D01*
X37923646Y-31989776D01*
X37892808Y-32000515D01*
X37878005Y-32004675D01*
X37846107Y-32011572D01*
X37839722Y-32014549D01*
X37839720Y-32014550D01*
X37807795Y-32029437D01*
X37795986Y-32034232D01*
X37756058Y-32048137D01*
X37728364Y-32065442D01*
X37714865Y-32072771D01*
X37685273Y-32086570D01*
X37679708Y-32090887D01*
X37679701Y-32090891D01*
X37651869Y-32112481D01*
X37641422Y-32119770D01*
X37605563Y-32142176D01*
X37577364Y-32170179D01*
X37576776Y-32170730D01*
X37576116Y-32171241D01*
X37550653Y-32196704D01*
X37479643Y-32267220D01*
X37478998Y-32268237D01*
X37477927Y-32269430D01*
X36712134Y-33035223D01*
X36711197Y-33036152D01*
X36648140Y-33097902D01*
X36644325Y-33103821D01*
X36644319Y-33103829D01*
X36625235Y-33133442D01*
X36617802Y-33143787D01*
X36591426Y-33176828D01*
X36577221Y-33206213D01*
X36569693Y-33219628D01*
X36552009Y-33247068D01*
X36549600Y-33253688D01*
X36549597Y-33253693D01*
X36537550Y-33286793D01*
X36532590Y-33298535D01*
X36514190Y-33336598D01*
X36512605Y-33343462D01*
X36512605Y-33343463D01*
X36506848Y-33368401D01*
X36502478Y-33383154D01*
X36491314Y-33413826D01*
X36490431Y-33420814D01*
X36490431Y-33420815D01*
X36486016Y-33455766D01*
X36483779Y-33468320D01*
X36475854Y-33502645D01*
X36475853Y-33502653D01*
X36474270Y-33509510D01*
X36474245Y-33516550D01*
X36474245Y-33516553D01*
X36474131Y-33549219D01*
X36474103Y-33550068D01*
X36474000Y-33550884D01*
X36474000Y-33586915D01*
X36473651Y-33686968D01*
X36473914Y-33688145D01*
X36474000Y-33689731D01*
X36474000Y-38011200D01*
X36473993Y-38012518D01*
X36473070Y-38100671D01*
X36481561Y-38139940D01*
X36482002Y-38141981D01*
X36484062Y-38154560D01*
X36488776Y-38196583D01*
X36499513Y-38227415D01*
X36503675Y-38242224D01*
X36510572Y-38274122D01*
X36513549Y-38280507D01*
X36513550Y-38280509D01*
X36528437Y-38312433D01*
X36533229Y-38324234D01*
X36547137Y-38364171D01*
X36550868Y-38370142D01*
X36564431Y-38391848D01*
X36571769Y-38405364D01*
X36582592Y-38428573D01*
X36582594Y-38428577D01*
X36585569Y-38434956D01*
X36598394Y-38451490D01*
X36611482Y-38468363D01*
X36618776Y-38478819D01*
X36641176Y-38514666D01*
X36669179Y-38542865D01*
X36669730Y-38543453D01*
X36670241Y-38544113D01*
X36695704Y-38569576D01*
X36766220Y-38640586D01*
X36767237Y-38641231D01*
X36768430Y-38642302D01*
X38335194Y-40209066D01*
X38336123Y-40210003D01*
X38397873Y-40273060D01*
X38403792Y-40276875D01*
X38403800Y-40276881D01*
X38433413Y-40295965D01*
X38443758Y-40303398D01*
X38476799Y-40329774D01*
X38506192Y-40343983D01*
X38519601Y-40351509D01*
X38547039Y-40369191D01*
X38586424Y-40383526D01*
X38586773Y-40383653D01*
X38598512Y-40388612D01*
X38636569Y-40407009D01*
X38668371Y-40414351D01*
X38683109Y-40418716D01*
X38713797Y-40429886D01*
X38720787Y-40430769D01*
X38755745Y-40435185D01*
X38768300Y-40437422D01*
X38809480Y-40446930D01*
X38816526Y-40446955D01*
X38816529Y-40446955D01*
X38849190Y-40447069D01*
X38850039Y-40447097D01*
X38850855Y-40447200D01*
X38886733Y-40447200D01*
X38887169Y-40447201D01*
X38893804Y-40447224D01*
X38983481Y-40447537D01*
X38983482Y-40447537D01*
X38986939Y-40447549D01*
X38988115Y-40447286D01*
X38989703Y-40447200D01*
X40335167Y-40447200D01*
X40403288Y-40467202D01*
X40424262Y-40484105D01*
X40605095Y-40664938D01*
X40639121Y-40727250D01*
X40642000Y-40754033D01*
X40642000Y-42343032D01*
X40621998Y-42411153D01*
X40591653Y-42443792D01*
X40499984Y-42512619D01*
X40340877Y-42679116D01*
X40337963Y-42683388D01*
X40337962Y-42683389D01*
X40211505Y-42868768D01*
X40156594Y-42913771D01*
X40086069Y-42921942D01*
X40022322Y-42890688D01*
X40004204Y-42870035D01*
X39901972Y-42724033D01*
X39894916Y-42715625D01*
X39740875Y-42561584D01*
X39732467Y-42554528D01*
X39554007Y-42429569D01*
X39544511Y-42424086D01*
X39347053Y-42332010D01*
X39336761Y-42328264D01*
X39164497Y-42282106D01*
X39150401Y-42282442D01*
X39147000Y-42290384D01*
X39147000Y-44831467D01*
X39150973Y-44844998D01*
X39159522Y-44846227D01*
X39336761Y-44798736D01*
X39347053Y-44794990D01*
X39544511Y-44702914D01*
X39554007Y-44697431D01*
X39732467Y-44572472D01*
X39740875Y-44565416D01*
X39894916Y-44411375D01*
X39901976Y-44402962D01*
X40006559Y-44253601D01*
X40062016Y-44209272D01*
X40132635Y-44201963D01*
X40195996Y-44233993D01*
X40217204Y-44260036D01*
X40296276Y-44389068D01*
X40296279Y-44389073D01*
X40298979Y-44393478D01*
X40449763Y-44567548D01*
X40587578Y-44681964D01*
X40596485Y-44689359D01*
X40636120Y-44748262D01*
X40642000Y-44786303D01*
X40642000Y-45586471D01*
X40641993Y-45587789D01*
X40641070Y-45675942D01*
X40649126Y-45713199D01*
X40650002Y-45717252D01*
X40652062Y-45729831D01*
X40656776Y-45771854D01*
X40667513Y-45802686D01*
X40671675Y-45817495D01*
X40678572Y-45849393D01*
X40681549Y-45855778D01*
X40681550Y-45855780D01*
X40696437Y-45887704D01*
X40701229Y-45899505D01*
X40715137Y-45939442D01*
X40718868Y-45945413D01*
X40732431Y-45967119D01*
X40739769Y-45980635D01*
X40750592Y-46003844D01*
X40750594Y-46003848D01*
X40753569Y-46010227D01*
X40766926Y-46027447D01*
X40779482Y-46043634D01*
X40786776Y-46054090D01*
X40809176Y-46089937D01*
X40837179Y-46118136D01*
X40837730Y-46118724D01*
X40838241Y-46119384D01*
X40863704Y-46144847D01*
X40934220Y-46215857D01*
X40935237Y-46216502D01*
X40936430Y-46217573D01*
X42062125Y-47343268D01*
X42096151Y-47405580D01*
X42091086Y-47476395D01*
X42062125Y-47521458D01*
X40128888Y-49454695D01*
X40066576Y-49488721D01*
X40039793Y-49491600D01*
X38869593Y-49491600D01*
X38868273Y-49491593D01*
X38867388Y-49491584D01*
X38780168Y-49490670D01*
X38738850Y-49499603D01*
X38726279Y-49501662D01*
X38684256Y-49506376D01*
X38653418Y-49517115D01*
X38638615Y-49521275D01*
X38606717Y-49528172D01*
X38600332Y-49531149D01*
X38600330Y-49531150D01*
X38568405Y-49546037D01*
X38556596Y-49550832D01*
X38516668Y-49564737D01*
X38488974Y-49582042D01*
X38475475Y-49589371D01*
X38445883Y-49603170D01*
X38440318Y-49607487D01*
X38440311Y-49607491D01*
X38412479Y-49629081D01*
X38402032Y-49636370D01*
X38366173Y-49658776D01*
X38337974Y-49686779D01*
X38337386Y-49687330D01*
X38336726Y-49687841D01*
X38311263Y-49713304D01*
X38267351Y-49756911D01*
X38240253Y-49783820D01*
X38239608Y-49784837D01*
X38238537Y-49786030D01*
X33664134Y-54360433D01*
X33663197Y-54361362D01*
X33600140Y-54423112D01*
X33596325Y-54429031D01*
X33596319Y-54429039D01*
X33577235Y-54458652D01*
X33569802Y-54468997D01*
X33543426Y-54502038D01*
X33529221Y-54531423D01*
X33521693Y-54544838D01*
X33504009Y-54572278D01*
X33501600Y-54578898D01*
X33501597Y-54578903D01*
X33489550Y-54612003D01*
X33484590Y-54623745D01*
X33466190Y-54661808D01*
X33464605Y-54668672D01*
X33464605Y-54668673D01*
X33458848Y-54693611D01*
X33454478Y-54708364D01*
X33443314Y-54739036D01*
X33442431Y-54746024D01*
X33442431Y-54746025D01*
X33438016Y-54780976D01*
X33435779Y-54793530D01*
X33427854Y-54827855D01*
X33427853Y-54827863D01*
X33426270Y-54834720D01*
X33426245Y-54841760D01*
X33426245Y-54841763D01*
X33426131Y-54874429D01*
X33426103Y-54875278D01*
X33426000Y-54876094D01*
X33426000Y-54912125D01*
X33425651Y-55012178D01*
X33425914Y-55013355D01*
X33426000Y-55014941D01*
X33426000Y-60065171D01*
X33425993Y-60066489D01*
X33425070Y-60154642D01*
X33433602Y-60194101D01*
X33434002Y-60195952D01*
X33436062Y-60208531D01*
X33440776Y-60250554D01*
X33449349Y-60275172D01*
X33451513Y-60281386D01*
X33455675Y-60296195D01*
X33462572Y-60328093D01*
X33465549Y-60334478D01*
X33465550Y-60334480D01*
X33480437Y-60366404D01*
X33485229Y-60378205D01*
X33499137Y-60418142D01*
X33502868Y-60424113D01*
X33516431Y-60445819D01*
X33523769Y-60459335D01*
X33534592Y-60482544D01*
X33534594Y-60482548D01*
X33537569Y-60488927D01*
X33545671Y-60499372D01*
X33563482Y-60522334D01*
X33570776Y-60532790D01*
X33593176Y-60568637D01*
X33621179Y-60596836D01*
X33621730Y-60597424D01*
X33622241Y-60598084D01*
X33647704Y-60623547D01*
X33715430Y-60691747D01*
X33718220Y-60694557D01*
X33719237Y-60695202D01*
X33720430Y-60696273D01*
X34559223Y-61535066D01*
X34560152Y-61536003D01*
X34613183Y-61590156D01*
X34621902Y-61599060D01*
X34627821Y-61602875D01*
X34627829Y-61602881D01*
X34657442Y-61621965D01*
X34667787Y-61629398D01*
X34700828Y-61655774D01*
X34725232Y-61667571D01*
X34730213Y-61669979D01*
X34743628Y-61677507D01*
X34771068Y-61695191D01*
X34777688Y-61697600D01*
X34777693Y-61697603D01*
X34810793Y-61709650D01*
X34822535Y-61714610D01*
X34835575Y-61720913D01*
X34854253Y-61729943D01*
X34854255Y-61729944D01*
X34860598Y-61733010D01*
X34867462Y-61734595D01*
X34867463Y-61734595D01*
X34892401Y-61740352D01*
X34907155Y-61744722D01*
X34937826Y-61755886D01*
X34944814Y-61756769D01*
X34944815Y-61756769D01*
X34957917Y-61758424D01*
X34979768Y-61761184D01*
X34992320Y-61763421D01*
X35026645Y-61771346D01*
X35026653Y-61771347D01*
X35033510Y-61772930D01*
X35040550Y-61772955D01*
X35040553Y-61772955D01*
X35073219Y-61773069D01*
X35074068Y-61773097D01*
X35074884Y-61773200D01*
X35110762Y-61773200D01*
X35111202Y-61773201D01*
X35207509Y-61773537D01*
X35207510Y-61773537D01*
X35210968Y-61773549D01*
X35212145Y-61773286D01*
X35213731Y-61773200D01*
X39245271Y-61773200D01*
X39246589Y-61773207D01*
X39334742Y-61774130D01*
X39341628Y-61772641D01*
X39341630Y-61772641D01*
X39353918Y-61769984D01*
X39376060Y-61765197D01*
X39388631Y-61763138D01*
X39430654Y-61758424D01*
X39461492Y-61747685D01*
X39476295Y-61743525D01*
X39482950Y-61742086D01*
X39508193Y-61736628D01*
X39514578Y-61733651D01*
X39514580Y-61733650D01*
X39525978Y-61728335D01*
X39546512Y-61718760D01*
X39558305Y-61713971D01*
X39598242Y-61700063D01*
X39625919Y-61682769D01*
X39639435Y-61675431D01*
X39662644Y-61664608D01*
X39662648Y-61664606D01*
X39669027Y-61661631D01*
X39702434Y-61635718D01*
X39712890Y-61628424D01*
X39725588Y-61620489D01*
X39748737Y-61606024D01*
X39776936Y-61578021D01*
X39777524Y-61577470D01*
X39778184Y-61576959D01*
X39803647Y-61551496D01*
X39874657Y-61480980D01*
X39875302Y-61479963D01*
X39876373Y-61478770D01*
X41127016Y-60228127D01*
X41189328Y-60194101D01*
X41241232Y-60193752D01*
X41261537Y-60197883D01*
X41261543Y-60197884D01*
X41266607Y-60198914D01*
X41396352Y-60203672D01*
X41491585Y-60207164D01*
X41491589Y-60207164D01*
X41496749Y-60207353D01*
X41501869Y-60206697D01*
X41501871Y-60206697D01*
X41586420Y-60195866D01*
X41725178Y-60178091D01*
X41730126Y-60176606D01*
X41730133Y-60176605D01*
X41940811Y-60113398D01*
X41940810Y-60113398D01*
X41945761Y-60111913D01*
X42152574Y-60010596D01*
X42340062Y-59876863D01*
X42503190Y-59714303D01*
X42514590Y-59698439D01*
X42634559Y-59531483D01*
X42637577Y-59527283D01*
X42644928Y-59512410D01*
X42693039Y-59460205D01*
X42761740Y-59442297D01*
X42829217Y-59464375D01*
X42861097Y-59495967D01*
X42964028Y-59642967D01*
X42971084Y-59651375D01*
X43125125Y-59805416D01*
X43133533Y-59812472D01*
X43311993Y-59937431D01*
X43321489Y-59942914D01*
X43518947Y-60034990D01*
X43529239Y-60038736D01*
X43701503Y-60084894D01*
X43715599Y-60084558D01*
X43719000Y-60076616D01*
X43719000Y-58675500D01*
X43739002Y-58607379D01*
X43792658Y-58560886D01*
X43845000Y-58549500D01*
X44101000Y-58549500D01*
X44169121Y-58569502D01*
X44215614Y-58623158D01*
X44227000Y-58675500D01*
X44227000Y-60071467D01*
X44230973Y-60084998D01*
X44239522Y-60086227D01*
X44416761Y-60038736D01*
X44427053Y-60034990D01*
X44624511Y-59942914D01*
X44634007Y-59937431D01*
X44812467Y-59812472D01*
X44820875Y-59805416D01*
X44974916Y-59651375D01*
X44981976Y-59642962D01*
X45086559Y-59493601D01*
X45142016Y-59449272D01*
X45212635Y-59441963D01*
X45275996Y-59473993D01*
X45297204Y-59500036D01*
X45376276Y-59629068D01*
X45376279Y-59629072D01*
X45378979Y-59633478D01*
X45529763Y-59807548D01*
X45706953Y-59954654D01*
X45905790Y-60070845D01*
X45910615Y-60072687D01*
X45910616Y-60072688D01*
X45942580Y-60084894D01*
X46120934Y-60153001D01*
X46126000Y-60154032D01*
X46126001Y-60154032D01*
X46212338Y-60171597D01*
X46346607Y-60198914D01*
X46476352Y-60203672D01*
X46571585Y-60207164D01*
X46571589Y-60207164D01*
X46576749Y-60207353D01*
X46581869Y-60206697D01*
X46581871Y-60206697D01*
X46612586Y-60202762D01*
X46711703Y-60190065D01*
X46781811Y-60201249D01*
X46816806Y-60225949D01*
X47341723Y-60750866D01*
X47342652Y-60751803D01*
X47398509Y-60808842D01*
X47404402Y-60814860D01*
X47410321Y-60818675D01*
X47410329Y-60818681D01*
X47439942Y-60837765D01*
X47450287Y-60845198D01*
X47483328Y-60871574D01*
X47512713Y-60885779D01*
X47526128Y-60893307D01*
X47531658Y-60896871D01*
X47553568Y-60910991D01*
X47560188Y-60913400D01*
X47560193Y-60913403D01*
X47593293Y-60925450D01*
X47605038Y-60930411D01*
X47636753Y-60945743D01*
X47636755Y-60945744D01*
X47643098Y-60948810D01*
X47649962Y-60950395D01*
X47649963Y-60950395D01*
X47674901Y-60956152D01*
X47689655Y-60960522D01*
X47720326Y-60971686D01*
X47727314Y-60972569D01*
X47727315Y-60972569D01*
X47745112Y-60974817D01*
X47762268Y-60976984D01*
X47774820Y-60979221D01*
X47809145Y-60987146D01*
X47809153Y-60987147D01*
X47816010Y-60988730D01*
X47823050Y-60988755D01*
X47823053Y-60988755D01*
X47855719Y-60988869D01*
X47856568Y-60988897D01*
X47857384Y-60989000D01*
X47893262Y-60989000D01*
X47893702Y-60989001D01*
X47990009Y-60989337D01*
X47990010Y-60989337D01*
X47993468Y-60989349D01*
X47994645Y-60989086D01*
X47996231Y-60989000D01*
X51786009Y-60989000D01*
X51854130Y-61009002D01*
X51875104Y-61025905D01*
X52870065Y-62020866D01*
X52870994Y-62021803D01*
X52932744Y-62084860D01*
X52938663Y-62088675D01*
X52938671Y-62088681D01*
X52968284Y-62107765D01*
X52978629Y-62115198D01*
X53011670Y-62141574D01*
X53041063Y-62155783D01*
X53054472Y-62163309D01*
X53081910Y-62180991D01*
X53121557Y-62195421D01*
X53121644Y-62195453D01*
X53133383Y-62200412D01*
X53171440Y-62218809D01*
X53195991Y-62224477D01*
X53203242Y-62226151D01*
X53217980Y-62230516D01*
X53248668Y-62241686D01*
X53255658Y-62242569D01*
X53290616Y-62246985D01*
X53303171Y-62249222D01*
X53344351Y-62258730D01*
X53351397Y-62258755D01*
X53351400Y-62258755D01*
X53384061Y-62258869D01*
X53384910Y-62258897D01*
X53385726Y-62259000D01*
X53421604Y-62259000D01*
X53422040Y-62259001D01*
X53428675Y-62259024D01*
X53518352Y-62259337D01*
X53518353Y-62259337D01*
X53521810Y-62259349D01*
X53522986Y-62259086D01*
X53524574Y-62259000D01*
X56650891Y-62259000D01*
X56719012Y-62279002D01*
X56765505Y-62332658D01*
X56772010Y-62350269D01*
X56799258Y-62445291D01*
X56802076Y-62450774D01*
X56886123Y-62614313D01*
X56886126Y-62614317D01*
X56888944Y-62619801D01*
X57010818Y-62773569D01*
X57015511Y-62777563D01*
X57015512Y-62777564D01*
X57123723Y-62869658D01*
X57160238Y-62900735D01*
X57165616Y-62903741D01*
X57165618Y-62903742D01*
X57198287Y-62922000D01*
X57331513Y-62996457D01*
X57518118Y-63057089D01*
X57712946Y-63080321D01*
X57719081Y-63079849D01*
X57719083Y-63079849D01*
X57902434Y-63065741D01*
X57902438Y-63065740D01*
X57908576Y-63065268D01*
X58097556Y-63012503D01*
X58272689Y-62924037D01*
X58302515Y-62900735D01*
X58422453Y-62807029D01*
X58427303Y-62803240D01*
X58433553Y-62796000D01*
X58480740Y-62741332D01*
X58540393Y-62702835D01*
X58611389Y-62702699D01*
X58671189Y-62740969D01*
X58697018Y-62788163D01*
X58698475Y-62793124D01*
X58699865Y-62794329D01*
X58707548Y-62796000D01*
X59930000Y-62796000D01*
X59998121Y-62816002D01*
X60044614Y-62869658D01*
X60056000Y-62922000D01*
X60056000Y-64510402D01*
X60059973Y-64523933D01*
X60069399Y-64525288D01*
X60158537Y-64503806D01*
X60169832Y-64499917D01*
X60351382Y-64417371D01*
X60361724Y-64411424D01*
X60524397Y-64296032D01*
X60533431Y-64288234D01*
X60653043Y-64163285D01*
X60714598Y-64127908D01*
X60785507Y-64131427D01*
X60845019Y-64175026D01*
X60892981Y-64239255D01*
X60906033Y-64256733D01*
X61003414Y-64346751D01*
X61009322Y-64352212D01*
X61068051Y-64406501D01*
X61254650Y-64524236D01*
X61459579Y-64605994D01*
X61465239Y-64607120D01*
X61465243Y-64607121D01*
X61670309Y-64647911D01*
X61670312Y-64647911D01*
X61675976Y-64649038D01*
X61681751Y-64649114D01*
X61681755Y-64649114D01*
X61792496Y-64650563D01*
X61896594Y-64651926D01*
X61902292Y-64650947D01*
X62108346Y-64615541D01*
X62108347Y-64615541D01*
X62114043Y-64614562D01*
X62321043Y-64538196D01*
X62360679Y-64514615D01*
X62505694Y-64428340D01*
X62505695Y-64428339D01*
X62510659Y-64425386D01*
X62676543Y-64279910D01*
X62701626Y-64248092D01*
X62759506Y-64206978D01*
X62830427Y-64203684D01*
X62891869Y-64239255D01*
X62901532Y-64250705D01*
X62906033Y-64256733D01*
X63003414Y-64346751D01*
X63009322Y-64352212D01*
X63068051Y-64406501D01*
X63254650Y-64524236D01*
X63459579Y-64605994D01*
X63465239Y-64607120D01*
X63465243Y-64607121D01*
X63670309Y-64647911D01*
X63670312Y-64647911D01*
X63675976Y-64649038D01*
X63681751Y-64649114D01*
X63681755Y-64649114D01*
X63792496Y-64650563D01*
X63896594Y-64651926D01*
X63902292Y-64650947D01*
X64108346Y-64615541D01*
X64108347Y-64615541D01*
X64114043Y-64614562D01*
X64321043Y-64538196D01*
X64360679Y-64514615D01*
X64505694Y-64428340D01*
X64505695Y-64428339D01*
X64510659Y-64425386D01*
X64676543Y-64279910D01*
X64701626Y-64248092D01*
X64759506Y-64206978D01*
X64830427Y-64203684D01*
X64891869Y-64239255D01*
X64901532Y-64250705D01*
X64906033Y-64256733D01*
X65003414Y-64346751D01*
X65009322Y-64352212D01*
X65068051Y-64406501D01*
X65254650Y-64524236D01*
X65459579Y-64605994D01*
X65465239Y-64607120D01*
X65465243Y-64607121D01*
X65670309Y-64647911D01*
X65670312Y-64647911D01*
X65675976Y-64649038D01*
X65681751Y-64649114D01*
X65681755Y-64649114D01*
X65792496Y-64650563D01*
X65896594Y-64651926D01*
X65902292Y-64650947D01*
X66108346Y-64615541D01*
X66108347Y-64615541D01*
X66114043Y-64614562D01*
X66321043Y-64538196D01*
X66360679Y-64514615D01*
X66505694Y-64428340D01*
X66505695Y-64428339D01*
X66510659Y-64425386D01*
X66676543Y-64279910D01*
X66701626Y-64248092D01*
X66759506Y-64206978D01*
X66830427Y-64203684D01*
X66891869Y-64239255D01*
X66901532Y-64250705D01*
X66906033Y-64256733D01*
X67003414Y-64346751D01*
X67009322Y-64352212D01*
X67068051Y-64406501D01*
X67254650Y-64524236D01*
X67459579Y-64605994D01*
X67465239Y-64607120D01*
X67465243Y-64607121D01*
X67670309Y-64647911D01*
X67670312Y-64647911D01*
X67675976Y-64649038D01*
X67681751Y-64649114D01*
X67681755Y-64649114D01*
X67792496Y-64650563D01*
X67896594Y-64651926D01*
X67902292Y-64650947D01*
X68108346Y-64615541D01*
X68108347Y-64615541D01*
X68114043Y-64614562D01*
X68321043Y-64538196D01*
X68360679Y-64514615D01*
X68505694Y-64428340D01*
X68505695Y-64428339D01*
X68510659Y-64425386D01*
X68676543Y-64279910D01*
X68701626Y-64248092D01*
X68759506Y-64206978D01*
X68830427Y-64203684D01*
X68891869Y-64239255D01*
X68901532Y-64250705D01*
X68906033Y-64256733D01*
X69003414Y-64346751D01*
X69009322Y-64352212D01*
X69068051Y-64406501D01*
X69254650Y-64524236D01*
X69459579Y-64605994D01*
X69465239Y-64607120D01*
X69465243Y-64607121D01*
X69670309Y-64647911D01*
X69670312Y-64647911D01*
X69675976Y-64649038D01*
X69681751Y-64649114D01*
X69681755Y-64649114D01*
X69792496Y-64650563D01*
X69896594Y-64651926D01*
X69902292Y-64650947D01*
X70108346Y-64615541D01*
X70108347Y-64615541D01*
X70114043Y-64614562D01*
X70321043Y-64538196D01*
X70360679Y-64514615D01*
X70505694Y-64428340D01*
X70505695Y-64428339D01*
X70510659Y-64425386D01*
X70676543Y-64279910D01*
X70701626Y-64248092D01*
X70759506Y-64206978D01*
X70830427Y-64203684D01*
X70891869Y-64239255D01*
X70901532Y-64250705D01*
X70906033Y-64256733D01*
X71003414Y-64346751D01*
X71009322Y-64352212D01*
X71068051Y-64406501D01*
X71254650Y-64524236D01*
X71459579Y-64605994D01*
X71465239Y-64607120D01*
X71465243Y-64607121D01*
X71670309Y-64647911D01*
X71670312Y-64647911D01*
X71675976Y-64649038D01*
X71681751Y-64649114D01*
X71681755Y-64649114D01*
X71792496Y-64650563D01*
X71896594Y-64651926D01*
X71902292Y-64650947D01*
X72108346Y-64615541D01*
X72108347Y-64615541D01*
X72114043Y-64614562D01*
X72321043Y-64538196D01*
X72360679Y-64514615D01*
X72505694Y-64428340D01*
X72505695Y-64428339D01*
X72510659Y-64425386D01*
X72676543Y-64279910D01*
X72701626Y-64248092D01*
X72759506Y-64206978D01*
X72830427Y-64203684D01*
X72891869Y-64239255D01*
X72901532Y-64250705D01*
X72906033Y-64256733D01*
X73003414Y-64346751D01*
X73009322Y-64352212D01*
X73068051Y-64406501D01*
X73254650Y-64524236D01*
X73459579Y-64605994D01*
X73465239Y-64607120D01*
X73465243Y-64607121D01*
X73670309Y-64647911D01*
X73670312Y-64647911D01*
X73675976Y-64649038D01*
X73681751Y-64649114D01*
X73681755Y-64649114D01*
X73792496Y-64650563D01*
X73896594Y-64651926D01*
X73902292Y-64650947D01*
X74108346Y-64615541D01*
X74108347Y-64615541D01*
X74114043Y-64614562D01*
X74321043Y-64538196D01*
X74360679Y-64514615D01*
X74505694Y-64428340D01*
X74505695Y-64428339D01*
X74510659Y-64425386D01*
X74676543Y-64279910D01*
X74813137Y-64106640D01*
X74915869Y-63911380D01*
X74981297Y-63700667D01*
X75002500Y-63521524D01*
X75002500Y-62594030D01*
X74987454Y-62430289D01*
X74927565Y-62217936D01*
X74829980Y-62020053D01*
X74819279Y-62005722D01*
X74730508Y-61886845D01*
X74697967Y-61843267D01*
X74637018Y-61786926D01*
X74633471Y-61783647D01*
X74597026Y-61722719D01*
X74593000Y-61691123D01*
X74593000Y-54984979D01*
X74593007Y-54983659D01*
X74593856Y-54902605D01*
X74593930Y-54895558D01*
X74584997Y-54854240D01*
X74582937Y-54841664D01*
X74578785Y-54804646D01*
X74578000Y-54790602D01*
X74578000Y-53442886D01*
X74601040Y-53370255D01*
X74604479Y-53365380D01*
X74608509Y-53360711D01*
X74705425Y-53190109D01*
X74767358Y-53003932D01*
X74791949Y-52809271D01*
X74792341Y-52781200D01*
X74773194Y-52585928D01*
X74771413Y-52580029D01*
X74771412Y-52580024D01*
X74718265Y-52403993D01*
X74716484Y-52398094D01*
X74624370Y-52224853D01*
X74500361Y-52072802D01*
X74349180Y-51947735D01*
X74176585Y-51854413D01*
X74082791Y-51825379D01*
X73995039Y-51798215D01*
X73995036Y-51798214D01*
X73989152Y-51796393D01*
X73983027Y-51795749D01*
X73983026Y-51795749D01*
X73800147Y-51776527D01*
X73800146Y-51776527D01*
X73794019Y-51775883D01*
X73671383Y-51787044D01*
X73604759Y-51793107D01*
X73604758Y-51793107D01*
X73598618Y-51793666D01*
X73592704Y-51795407D01*
X73592702Y-51795407D01*
X73468262Y-51832032D01*
X73410393Y-51849064D01*
X73404928Y-51851921D01*
X73241972Y-51937112D01*
X73241968Y-51937115D01*
X73236512Y-51939967D01*
X73231712Y-51943827D01*
X73231711Y-51943827D01*
X73218780Y-51954224D01*
X73083600Y-52062911D01*
X72957480Y-52213216D01*
X72954516Y-52218608D01*
X72954513Y-52218612D01*
X72900482Y-52316894D01*
X72862956Y-52385154D01*
X72861095Y-52391021D01*
X72861094Y-52391023D01*
X72846923Y-52435697D01*
X72829387Y-52490978D01*
X72827520Y-52496862D01*
X72787856Y-52555746D01*
X72722654Y-52583838D01*
X72652615Y-52572221D01*
X72599975Y-52524581D01*
X72586796Y-52495181D01*
X72585607Y-52491241D01*
X72557484Y-52398094D01*
X72501137Y-52292121D01*
X72468265Y-52230297D01*
X72468263Y-52230294D01*
X72465370Y-52224853D01*
X72461472Y-52220073D01*
X72447356Y-52202764D01*
X72419803Y-52137332D01*
X72419000Y-52123130D01*
X72419000Y-51256033D01*
X72439002Y-51187912D01*
X72455905Y-51166938D01*
X75275782Y-48347061D01*
X75338094Y-48313035D01*
X75346361Y-48311824D01*
X75346359Y-48311812D01*
X75352432Y-48310741D01*
X75358576Y-48310268D01*
X75547556Y-48257503D01*
X75722689Y-48169037D01*
X75730153Y-48163206D01*
X75872453Y-48052029D01*
X75877303Y-48048240D01*
X75889534Y-48034071D01*
X76001485Y-47904373D01*
X76001485Y-47904372D01*
X76005509Y-47899711D01*
X76102425Y-47729109D01*
X76164358Y-47542932D01*
X76188949Y-47348271D01*
X76189341Y-47320200D01*
X76170194Y-47124928D01*
X76168413Y-47119029D01*
X76168412Y-47119024D01*
X76115265Y-46942993D01*
X76113484Y-46937094D01*
X76021370Y-46763853D01*
X75897361Y-46611802D01*
X75746180Y-46486735D01*
X75573585Y-46393413D01*
X75479868Y-46364403D01*
X75392039Y-46337215D01*
X75392036Y-46337214D01*
X75386152Y-46335393D01*
X75380027Y-46334749D01*
X75380026Y-46334749D01*
X75197147Y-46315527D01*
X75197146Y-46315527D01*
X75191019Y-46314883D01*
X75086874Y-46324361D01*
X75001759Y-46332107D01*
X75001758Y-46332107D01*
X74995618Y-46332666D01*
X74989704Y-46334407D01*
X74989702Y-46334407D01*
X74899919Y-46360832D01*
X74807393Y-46388064D01*
X74801928Y-46390921D01*
X74638972Y-46476112D01*
X74638968Y-46476115D01*
X74633512Y-46478967D01*
X74628712Y-46482827D01*
X74628711Y-46482827D01*
X74597533Y-46507895D01*
X74480600Y-46601911D01*
X74354480Y-46752216D01*
X74351516Y-46757608D01*
X74351513Y-46757612D01*
X74280608Y-46886588D01*
X74259956Y-46924154D01*
X74258095Y-46930021D01*
X74258094Y-46930023D01*
X74203923Y-47100792D01*
X74200628Y-47111178D01*
X74199942Y-47117297D01*
X74196228Y-47150401D01*
X74168756Y-47215867D01*
X74160108Y-47225449D01*
X71075134Y-50310423D01*
X71074197Y-50311352D01*
X71011140Y-50373102D01*
X71007325Y-50379021D01*
X71007319Y-50379029D01*
X70988235Y-50408642D01*
X70980802Y-50418987D01*
X70954426Y-50452028D01*
X70943546Y-50474535D01*
X70940221Y-50481413D01*
X70932693Y-50494828D01*
X70915009Y-50522268D01*
X70912600Y-50528888D01*
X70912597Y-50528893D01*
X70900550Y-50561993D01*
X70895590Y-50573735D01*
X70877190Y-50611798D01*
X70875605Y-50618662D01*
X70875605Y-50618663D01*
X70869848Y-50643601D01*
X70865478Y-50658354D01*
X70854314Y-50689026D01*
X70853431Y-50696014D01*
X70853431Y-50696015D01*
X70849016Y-50730966D01*
X70846779Y-50743520D01*
X70838854Y-50777845D01*
X70838853Y-50777853D01*
X70837270Y-50784710D01*
X70837245Y-50791750D01*
X70837245Y-50791753D01*
X70837131Y-50824419D01*
X70837103Y-50825268D01*
X70837000Y-50826084D01*
X70837000Y-50862115D01*
X70836651Y-50962168D01*
X70836914Y-50963345D01*
X70837000Y-50964931D01*
X70837000Y-52121449D01*
X70816998Y-52189570D01*
X70807522Y-52202440D01*
X70798480Y-52213216D01*
X70795516Y-52218608D01*
X70795513Y-52218612D01*
X70741482Y-52316894D01*
X70703956Y-52385154D01*
X70702095Y-52391021D01*
X70702094Y-52391023D01*
X70687923Y-52435697D01*
X70644628Y-52572178D01*
X70622757Y-52767163D01*
X70639175Y-52962683D01*
X70693258Y-53151291D01*
X70696076Y-53156774D01*
X70780123Y-53320313D01*
X70780126Y-53320317D01*
X70782944Y-53325801D01*
X70786775Y-53330634D01*
X70809746Y-53359617D01*
X70836383Y-53425427D01*
X70837000Y-53437881D01*
X70837000Y-53516367D01*
X70816998Y-53584488D01*
X70800095Y-53605462D01*
X70448262Y-53957295D01*
X70385950Y-53991321D01*
X70359167Y-53994200D01*
X62824711Y-53994200D01*
X62756590Y-53974198D01*
X62727069Y-53947837D01*
X62689361Y-53901602D01*
X62666687Y-53882844D01*
X62575573Y-53807469D01*
X62538180Y-53776535D01*
X62365585Y-53683213D01*
X62215232Y-53636671D01*
X62184039Y-53627015D01*
X62184036Y-53627014D01*
X62178152Y-53625193D01*
X62172027Y-53624549D01*
X62172026Y-53624549D01*
X61989147Y-53605327D01*
X61989146Y-53605327D01*
X61983019Y-53604683D01*
X61860383Y-53615844D01*
X61793759Y-53621907D01*
X61793758Y-53621907D01*
X61787618Y-53622466D01*
X61781704Y-53624207D01*
X61781702Y-53624207D01*
X61652734Y-53662165D01*
X61599393Y-53677864D01*
X61593928Y-53680721D01*
X61430972Y-53765912D01*
X61430968Y-53765915D01*
X61425512Y-53768767D01*
X61420712Y-53772627D01*
X61420711Y-53772627D01*
X61386326Y-53800273D01*
X61272600Y-53891711D01*
X61146480Y-54042016D01*
X61143516Y-54047408D01*
X61143513Y-54047412D01*
X61077798Y-54166947D01*
X61051956Y-54213954D01*
X61050095Y-54219821D01*
X61050094Y-54219823D01*
X61020021Y-54314624D01*
X60980357Y-54373508D01*
X60915155Y-54401600D01*
X60899919Y-54402525D01*
X60883545Y-54402525D01*
X60883105Y-54402524D01*
X60786798Y-54402188D01*
X60786797Y-54402188D01*
X60783339Y-54402176D01*
X60782162Y-54402439D01*
X60780576Y-54402525D01*
X59530798Y-54402525D01*
X59462677Y-54382523D01*
X59441703Y-54365620D01*
X59207678Y-54131595D01*
X59173652Y-54069283D01*
X59178717Y-53998468D01*
X59221264Y-53941632D01*
X59287784Y-53916821D01*
X59296773Y-53916500D01*
X59575885Y-53916500D01*
X59591124Y-53912025D01*
X59592329Y-53910635D01*
X59594000Y-53902952D01*
X59594000Y-53898384D01*
X60102000Y-53898384D01*
X60106475Y-53913623D01*
X60107865Y-53914828D01*
X60115548Y-53916499D01*
X60545095Y-53916499D01*
X60551614Y-53916162D01*
X60647206Y-53906243D01*
X60660600Y-53903351D01*
X60814784Y-53851912D01*
X60827962Y-53845739D01*
X60965807Y-53760437D01*
X60977208Y-53751401D01*
X61091739Y-53636671D01*
X61100751Y-53625260D01*
X61185816Y-53487257D01*
X61191963Y-53474076D01*
X61243138Y-53319790D01*
X61246005Y-53306414D01*
X61255672Y-53212062D01*
X61256000Y-53205646D01*
X61256000Y-53018115D01*
X61251525Y-53002876D01*
X61250135Y-53001671D01*
X61242452Y-53000000D01*
X60120115Y-53000000D01*
X60104876Y-53004475D01*
X60103671Y-53005865D01*
X60102000Y-53013548D01*
X60102000Y-53898384D01*
X59594000Y-53898384D01*
X59594000Y-52618000D01*
X59614002Y-52549879D01*
X59667658Y-52503386D01*
X59720000Y-52492000D01*
X61237884Y-52492000D01*
X61253123Y-52487525D01*
X61254328Y-52486135D01*
X61255999Y-52478452D01*
X61255999Y-52286405D01*
X61255662Y-52279886D01*
X61251316Y-52238003D01*
X61264181Y-52168182D01*
X61312752Y-52116400D01*
X61376643Y-52099000D01*
X66538971Y-52099000D01*
X66540289Y-52099007D01*
X66628442Y-52099930D01*
X66635328Y-52098441D01*
X66635330Y-52098441D01*
X66647618Y-52095784D01*
X66669760Y-52090997D01*
X66682331Y-52088938D01*
X66724354Y-52084224D01*
X66755192Y-52073485D01*
X66769995Y-52069325D01*
X66777834Y-52067630D01*
X66801893Y-52062428D01*
X66808278Y-52059451D01*
X66808280Y-52059450D01*
X66819678Y-52054135D01*
X66840212Y-52044560D01*
X66852005Y-52039771D01*
X66891942Y-52025863D01*
X66919619Y-52008569D01*
X66933135Y-52001231D01*
X66956344Y-51990408D01*
X66956348Y-51990406D01*
X66962727Y-51987431D01*
X66996134Y-51961518D01*
X67006590Y-51954224D01*
X67016974Y-51947735D01*
X67042437Y-51931824D01*
X67070636Y-51903821D01*
X67071224Y-51903270D01*
X67071884Y-51902759D01*
X67097347Y-51877296D01*
X67159203Y-51815870D01*
X67165904Y-51809216D01*
X67165905Y-51809215D01*
X67168357Y-51806780D01*
X67169002Y-51805763D01*
X67170073Y-51804570D01*
X72465818Y-46508824D01*
X72466755Y-46507895D01*
X72524829Y-46451025D01*
X72524830Y-46451024D01*
X72529860Y-46446098D01*
X72552755Y-46410572D01*
X72560195Y-46400217D01*
X72571287Y-46386322D01*
X72586575Y-46367172D01*
X72600783Y-46337781D01*
X72608314Y-46324361D01*
X72622172Y-46302858D01*
X72622172Y-46302857D01*
X72625991Y-46296932D01*
X72640456Y-46257191D01*
X72645409Y-46245466D01*
X72660743Y-46213747D01*
X72660744Y-46213745D01*
X72663810Y-46207402D01*
X72671152Y-46175599D01*
X72675522Y-46160846D01*
X72684276Y-46136795D01*
X72686686Y-46130174D01*
X72691984Y-46088232D01*
X72694221Y-46075680D01*
X72702146Y-46041355D01*
X72702147Y-46041347D01*
X72703730Y-46034490D01*
X72703781Y-46020104D01*
X72703869Y-45994776D01*
X72703897Y-45993932D01*
X72704000Y-45993116D01*
X72704000Y-45957210D01*
X72704296Y-45872586D01*
X72704338Y-45860497D01*
X72704338Y-45860495D01*
X72704350Y-45857032D01*
X72704086Y-45855852D01*
X72704000Y-45854259D01*
X72704000Y-44784543D01*
X72724002Y-44716422D01*
X72756831Y-44681965D01*
X72820062Y-44636863D01*
X72983190Y-44474303D01*
X73041269Y-44393478D01*
X73114559Y-44291483D01*
X73117577Y-44287283D01*
X73129068Y-44264034D01*
X73204704Y-44110995D01*
X73219615Y-44080825D01*
X73256183Y-43960466D01*
X73285059Y-43865427D01*
X73285060Y-43865421D01*
X73286563Y-43860475D01*
X73312268Y-43665224D01*
X73316185Y-43635471D01*
X73316185Y-43635465D01*
X73316622Y-43632149D01*
X73318300Y-43563500D01*
X73299430Y-43333978D01*
X73243326Y-43110620D01*
X73161287Y-42921942D01*
X73153556Y-42904161D01*
X73153554Y-42904158D01*
X73151496Y-42899424D01*
X73074964Y-42781124D01*
X73029215Y-42710406D01*
X73029213Y-42710403D01*
X73026405Y-42706063D01*
X73009197Y-42687151D01*
X72874890Y-42539551D01*
X72874889Y-42539550D01*
X72871412Y-42535729D01*
X72867361Y-42532530D01*
X72867357Y-42532526D01*
X72694735Y-42396197D01*
X72694730Y-42396193D01*
X72690681Y-42392996D01*
X72686165Y-42390503D01*
X72686162Y-42390501D01*
X72493589Y-42284195D01*
X72493585Y-42284193D01*
X72489065Y-42281698D01*
X72484196Y-42279974D01*
X72484192Y-42279972D01*
X72276853Y-42206549D01*
X72276849Y-42206548D01*
X72271978Y-42204823D01*
X72266885Y-42203916D01*
X72266882Y-42203915D01*
X72162645Y-42185348D01*
X72045250Y-42164437D01*
X71958802Y-42163381D01*
X71820141Y-42161686D01*
X71820139Y-42161686D01*
X71814971Y-42161623D01*
X71659929Y-42185348D01*
X71592441Y-42195675D01*
X71592439Y-42195675D01*
X71587325Y-42196458D01*
X71582406Y-42198066D01*
X71580000Y-42198639D01*
X71509099Y-42194968D01*
X71451437Y-42153548D01*
X71425322Y-42087529D01*
X71424800Y-42076069D01*
X71424800Y-38444669D01*
X72192001Y-38444669D01*
X72192371Y-38451490D01*
X72197895Y-38502352D01*
X72201521Y-38517604D01*
X72246676Y-38638054D01*
X72255214Y-38653649D01*
X72331715Y-38755724D01*
X72344276Y-38768285D01*
X72446351Y-38844786D01*
X72461946Y-38853324D01*
X72582394Y-38898478D01*
X72597649Y-38902105D01*
X72648514Y-38907631D01*
X72655328Y-38908000D01*
X75627885Y-38908000D01*
X75643124Y-38903525D01*
X75644329Y-38902135D01*
X75646000Y-38894452D01*
X75646000Y-35772115D01*
X75641525Y-35756876D01*
X75640135Y-35755671D01*
X75632452Y-35754000D01*
X72210116Y-35754000D01*
X72194877Y-35758475D01*
X72193672Y-35759865D01*
X72192001Y-35767548D01*
X72192001Y-38444669D01*
X71424800Y-38444669D01*
X71424800Y-35227885D01*
X72192000Y-35227885D01*
X72196475Y-35243124D01*
X72197865Y-35244329D01*
X72205548Y-35246000D01*
X75627885Y-35246000D01*
X75643124Y-35241525D01*
X75644329Y-35240135D01*
X75646000Y-35232452D01*
X75646000Y-32110116D01*
X75641525Y-32094877D01*
X75640135Y-32093672D01*
X75632452Y-32092001D01*
X72655331Y-32092001D01*
X72648510Y-32092371D01*
X72597648Y-32097895D01*
X72582396Y-32101521D01*
X72461946Y-32146676D01*
X72446351Y-32155214D01*
X72344276Y-32231715D01*
X72331715Y-32244276D01*
X72255214Y-32346351D01*
X72246676Y-32361946D01*
X72201522Y-32482394D01*
X72197895Y-32497649D01*
X72192369Y-32548514D01*
X72192000Y-32555328D01*
X72192000Y-35227885D01*
X71424800Y-35227885D01*
X71424800Y-31622062D01*
X71444802Y-31553941D01*
X71498458Y-31507448D01*
X71550860Y-31496062D01*
X75753113Y-31498144D01*
X79374062Y-31499938D01*
X79442173Y-31519974D01*
X79488640Y-31573653D01*
X79500000Y-31625938D01*
X79500000Y-32025588D01*
X79479998Y-32093709D01*
X79426342Y-32140202D01*
X79356068Y-32150306D01*
X79329771Y-32143570D01*
X79217609Y-32101522D01*
X79202351Y-32097895D01*
X79151486Y-32092369D01*
X79144672Y-32092000D01*
X76172115Y-32092000D01*
X76156876Y-32096475D01*
X76155671Y-32097865D01*
X76154000Y-32105548D01*
X76154000Y-35227885D01*
X76158475Y-35243124D01*
X76159865Y-35244329D01*
X76167548Y-35246000D01*
X79589884Y-35246000D01*
X79605123Y-35241525D01*
X79606328Y-35240135D01*
X79607999Y-35232452D01*
X79607999Y-34624460D01*
X79628001Y-34556339D01*
X79681657Y-34509846D01*
X79733168Y-34498463D01*
X82258418Y-34481808D01*
X84980773Y-34463855D01*
X85049021Y-34483406D01*
X85095867Y-34536754D01*
X85107601Y-34589851D01*
X85107601Y-34804104D01*
X85107880Y-34810025D01*
X85109856Y-34830931D01*
X85113121Y-34845816D01*
X85152294Y-34957364D01*
X85161006Y-34973820D01*
X85230216Y-35067521D01*
X85243379Y-35080684D01*
X85337080Y-35149894D01*
X85353536Y-35158606D01*
X85465079Y-35197777D01*
X85479973Y-35201045D01*
X85500881Y-35203021D01*
X85506792Y-35203300D01*
X85939485Y-35203300D01*
X85954724Y-35198825D01*
X85955929Y-35197435D01*
X85957600Y-35189752D01*
X85957600Y-34457413D01*
X86457600Y-34454115D01*
X86457600Y-35185184D01*
X86462075Y-35200423D01*
X86463465Y-35201628D01*
X86471148Y-35203299D01*
X86908404Y-35203299D01*
X86914325Y-35203020D01*
X86935231Y-35201044D01*
X86950116Y-35197779D01*
X87061664Y-35158606D01*
X87078120Y-35149894D01*
X87171821Y-35080684D01*
X87184984Y-35067521D01*
X87254194Y-34973820D01*
X87262906Y-34957364D01*
X87302077Y-34845821D01*
X87305345Y-34830927D01*
X87307321Y-34810019D01*
X87307600Y-34804108D01*
X87307600Y-34573681D01*
X87327602Y-34505560D01*
X87381258Y-34459067D01*
X87432769Y-34447684D01*
X87489529Y-34447310D01*
X88107169Y-34443237D01*
X88175420Y-34462789D01*
X88222266Y-34516137D01*
X88234000Y-34569234D01*
X88234000Y-36374000D01*
X88213998Y-36442121D01*
X88160342Y-36488614D01*
X88108000Y-36500000D01*
X79734000Y-36500000D01*
X79665879Y-36479998D01*
X79619386Y-36426342D01*
X79608000Y-36374000D01*
X79608000Y-36116985D01*
X85107600Y-36116985D01*
X85112075Y-36132224D01*
X85113465Y-36133429D01*
X85121148Y-36135100D01*
X85939485Y-36135100D01*
X85954724Y-36130625D01*
X85955929Y-36129235D01*
X85957600Y-36121552D01*
X85957600Y-36116985D01*
X86457600Y-36116985D01*
X86462075Y-36132224D01*
X86463465Y-36133429D01*
X86471148Y-36135100D01*
X87289484Y-36135100D01*
X87304723Y-36130625D01*
X87305928Y-36129235D01*
X87307599Y-36121552D01*
X87307599Y-35921796D01*
X87307320Y-35915875D01*
X87305344Y-35894969D01*
X87302079Y-35880084D01*
X87262906Y-35768536D01*
X87254194Y-35752080D01*
X87184984Y-35658379D01*
X87171821Y-35645216D01*
X87078120Y-35576006D01*
X87061664Y-35567294D01*
X86950121Y-35528123D01*
X86935227Y-35524855D01*
X86914319Y-35522879D01*
X86908408Y-35522600D01*
X86475715Y-35522600D01*
X86460476Y-35527075D01*
X86459271Y-35528465D01*
X86457600Y-35536148D01*
X86457600Y-36116985D01*
X85957600Y-36116985D01*
X85957600Y-35540716D01*
X85953125Y-35525477D01*
X85951735Y-35524272D01*
X85944052Y-35522601D01*
X85506796Y-35522601D01*
X85500875Y-35522880D01*
X85479969Y-35524856D01*
X85465084Y-35528121D01*
X85353536Y-35567294D01*
X85337080Y-35576006D01*
X85243379Y-35645216D01*
X85230216Y-35658379D01*
X85161006Y-35752080D01*
X85152294Y-35768536D01*
X85113123Y-35880079D01*
X85109855Y-35894973D01*
X85107879Y-35915881D01*
X85107600Y-35921792D01*
X85107600Y-36116985D01*
X79608000Y-36116985D01*
X79608000Y-35772115D01*
X79603525Y-35756876D01*
X79602135Y-35755671D01*
X79594452Y-35754000D01*
X76172115Y-35754000D01*
X76156876Y-35758475D01*
X76155671Y-35759865D01*
X76154000Y-35767548D01*
X76154000Y-38889884D01*
X76158475Y-38905123D01*
X76159865Y-38906328D01*
X76167548Y-38907999D01*
X79144669Y-38907999D01*
X79151490Y-38907629D01*
X79202352Y-38902105D01*
X79217603Y-38898479D01*
X79319840Y-38860152D01*
X79390647Y-38854969D01*
X79453016Y-38888890D01*
X79487146Y-38951145D01*
X79490069Y-38978639D01*
X79464000Y-45485200D01*
X79477719Y-45485180D01*
X79477721Y-45485181D01*
X79549321Y-45485079D01*
X79617470Y-45504985D01*
X79664039Y-45558574D01*
X79675500Y-45611079D01*
X79675500Y-60602415D01*
X79655498Y-60670536D01*
X79638595Y-60691510D01*
X74661510Y-65668595D01*
X74599198Y-65702621D01*
X74572415Y-65705500D01*
X37060586Y-65705500D01*
X36992465Y-65685498D01*
X36971491Y-65668595D01*
X34802728Y-63499832D01*
X58694000Y-63499832D01*
X58694285Y-63505808D01*
X58708471Y-63654494D01*
X58710730Y-63666228D01*
X58766872Y-63857599D01*
X58771302Y-63868675D01*
X58862619Y-64045978D01*
X58869069Y-64056024D01*
X58992262Y-64212857D01*
X59000499Y-64221506D01*
X59151123Y-64352212D01*
X59160847Y-64359147D01*
X59333467Y-64459010D01*
X59344331Y-64463984D01*
X59532727Y-64529407D01*
X59533716Y-64529648D01*
X59544008Y-64528180D01*
X59548000Y-64514615D01*
X59548000Y-63322115D01*
X59543525Y-63306876D01*
X59542135Y-63305671D01*
X59534452Y-63304000D01*
X58712115Y-63304000D01*
X58696876Y-63308475D01*
X58695671Y-63309865D01*
X58694000Y-63317548D01*
X58694000Y-63499832D01*
X34802728Y-63499832D01*
X32273805Y-60970910D01*
X32239779Y-60908598D01*
X32236900Y-60881815D01*
X32236900Y-49641685D01*
X32256902Y-49573564D01*
X32273805Y-49552590D01*
X37024857Y-44801538D01*
X37058520Y-44777482D01*
X37067929Y-44772873D01*
X37067943Y-44772865D01*
X37072574Y-44770596D01*
X37260062Y-44636863D01*
X37423190Y-44474303D01*
X37481269Y-44393478D01*
X37554559Y-44291483D01*
X37557577Y-44287283D01*
X37564928Y-44272410D01*
X37613039Y-44220205D01*
X37681740Y-44202297D01*
X37749217Y-44224375D01*
X37781097Y-44255967D01*
X37884028Y-44402967D01*
X37891084Y-44411375D01*
X38045125Y-44565416D01*
X38053533Y-44572472D01*
X38231993Y-44697431D01*
X38241489Y-44702914D01*
X38438947Y-44794990D01*
X38449239Y-44798736D01*
X38621503Y-44844894D01*
X38635599Y-44844558D01*
X38639000Y-44836616D01*
X38639000Y-42295533D01*
X38635027Y-42282002D01*
X38626478Y-42280773D01*
X38449239Y-42328264D01*
X38438947Y-42332010D01*
X38241489Y-42424086D01*
X38231993Y-42429569D01*
X38053533Y-42554528D01*
X38045125Y-42561584D01*
X37891084Y-42715625D01*
X37884028Y-42724033D01*
X37780348Y-42872104D01*
X37724891Y-42916432D01*
X37654272Y-42923741D01*
X37590911Y-42891710D01*
X37571343Y-42868273D01*
X37563586Y-42856282D01*
X37466405Y-42706063D01*
X37449197Y-42687151D01*
X37314890Y-42539551D01*
X37314889Y-42539550D01*
X37311412Y-42535729D01*
X37307361Y-42532530D01*
X37307357Y-42532526D01*
X37134736Y-42396198D01*
X37134732Y-42396196D01*
X37130681Y-42392996D01*
X37092468Y-42371901D01*
X37060806Y-42354423D01*
X37032604Y-42333209D01*
X35677405Y-40978010D01*
X35643379Y-40915698D01*
X35640500Y-40888915D01*
X35640500Y-38192099D01*
X35660502Y-38123978D01*
X35666537Y-38115395D01*
X35704524Y-38065889D01*
X35714536Y-38052841D01*
X35775044Y-37906762D01*
X35790500Y-37789361D01*
X35790499Y-35210640D01*
X35787750Y-35189752D01*
X35776122Y-35101425D01*
X35776122Y-35101423D01*
X35775044Y-35093238D01*
X35714536Y-34947159D01*
X35618282Y-34821718D01*
X35492841Y-34725464D01*
X35346762Y-34664956D01*
X35338574Y-34663878D01*
X35233448Y-34650038D01*
X35233447Y-34650038D01*
X35229361Y-34649500D01*
X34290114Y-34649500D01*
X33350640Y-34649501D01*
X33346556Y-34650039D01*
X33346550Y-34650039D01*
X33241425Y-34663878D01*
X33241423Y-34663878D01*
X33233238Y-34664956D01*
X33087159Y-34725464D01*
X32961718Y-34821718D01*
X32865464Y-34947159D01*
X32804956Y-35093238D01*
X32789500Y-35210639D01*
X32789501Y-37789360D01*
X32790039Y-37793444D01*
X32790039Y-37793450D01*
X32801918Y-37883686D01*
X32804956Y-37906762D01*
X32865464Y-38052841D01*
X32875476Y-38065889D01*
X32913463Y-38115395D01*
X32939063Y-38181616D01*
X32939500Y-38192099D01*
X32939500Y-41618653D01*
X32940456Y-41624073D01*
X32940456Y-41624077D01*
X32948824Y-41671536D01*
X32950258Y-41682431D01*
X32954937Y-41735908D01*
X32956363Y-41741229D01*
X32956363Y-41741230D01*
X32968831Y-41787759D01*
X32971211Y-41798493D01*
X32979578Y-41845952D01*
X32979580Y-41845958D01*
X32980534Y-41851371D01*
X32982415Y-41856539D01*
X32982416Y-41856543D01*
X32998897Y-41901826D01*
X33002201Y-41912307D01*
X33014671Y-41958845D01*
X33014675Y-41958856D01*
X33016097Y-41964163D01*
X33018420Y-41969144D01*
X33018420Y-41969145D01*
X33038787Y-42012822D01*
X33042992Y-42022974D01*
X33061355Y-42073426D01*
X33064105Y-42078189D01*
X33088200Y-42119923D01*
X33093275Y-42129672D01*
X33113636Y-42173337D01*
X33113642Y-42173348D01*
X33115965Y-42178329D01*
X33119121Y-42182836D01*
X33119122Y-42182838D01*
X33146758Y-42222306D01*
X33152664Y-42231577D01*
X33179509Y-42278074D01*
X33183044Y-42282287D01*
X33183047Y-42282291D01*
X33214023Y-42319206D01*
X33220710Y-42327920D01*
X33251505Y-42371901D01*
X33418599Y-42538995D01*
X33418601Y-42538996D01*
X34354010Y-43474405D01*
X34388036Y-43536717D01*
X34382971Y-43607532D01*
X34354010Y-43652595D01*
X30015002Y-47991603D01*
X30014999Y-47991605D01*
X29847905Y-48158699D01*
X29821400Y-48196553D01*
X29817114Y-48202674D01*
X29810423Y-48211394D01*
X29779447Y-48248309D01*
X29779444Y-48248313D01*
X29775909Y-48252526D01*
X29773156Y-48257295D01*
X29749064Y-48299023D01*
X29743158Y-48308294D01*
X29724201Y-48335368D01*
X29712365Y-48352271D01*
X29710042Y-48357252D01*
X29710036Y-48357263D01*
X29689675Y-48400928D01*
X29684600Y-48410677D01*
X29657755Y-48457174D01*
X29655874Y-48462342D01*
X29639393Y-48507623D01*
X29635187Y-48517778D01*
X29616170Y-48558561D01*
X29612497Y-48566437D01*
X29611075Y-48571744D01*
X29611071Y-48571755D01*
X29598601Y-48618293D01*
X29595297Y-48628774D01*
X29578816Y-48674057D01*
X29576934Y-48679229D01*
X29575980Y-48684642D01*
X29575978Y-48684648D01*
X29567611Y-48732107D01*
X29565232Y-48742836D01*
X29551337Y-48794692D01*
X29550857Y-48800180D01*
X29546658Y-48848169D01*
X29545224Y-48859064D01*
X29538358Y-48898009D01*
X29535900Y-48911947D01*
X29535900Y-61611553D01*
X29536856Y-61616973D01*
X29536856Y-61616977D01*
X29545224Y-61664436D01*
X29546658Y-61675331D01*
X29551337Y-61728808D01*
X29563462Y-61774056D01*
X29565231Y-61780659D01*
X29567611Y-61791393D01*
X29575978Y-61838852D01*
X29575980Y-61838858D01*
X29576934Y-61844271D01*
X29578815Y-61849439D01*
X29578816Y-61849443D01*
X29595297Y-61894726D01*
X29598601Y-61905207D01*
X29611071Y-61951745D01*
X29611075Y-61951756D01*
X29612497Y-61957063D01*
X29614820Y-61962044D01*
X29614820Y-61962045D01*
X29635187Y-62005722D01*
X29639392Y-62015874D01*
X29657755Y-62066326D01*
X29661521Y-62072849D01*
X29684600Y-62112823D01*
X29689675Y-62122572D01*
X29710036Y-62166237D01*
X29710042Y-62166248D01*
X29712365Y-62171229D01*
X29715521Y-62175736D01*
X29715522Y-62175738D01*
X29743158Y-62215206D01*
X29749064Y-62224477D01*
X29751031Y-62227884D01*
X29775909Y-62270974D01*
X29779444Y-62275187D01*
X29779447Y-62275191D01*
X29810423Y-62312106D01*
X29817110Y-62320820D01*
X29847905Y-62364801D01*
X30014999Y-62531895D01*
X30015001Y-62531896D01*
X30015005Y-62531900D01*
X34463512Y-66980408D01*
X34497538Y-67042720D01*
X34492473Y-67113535D01*
X34449926Y-67170371D01*
X34424698Y-67183000D01*
X34417000Y-67183000D01*
X34417000Y-72264000D01*
X34396998Y-72332121D01*
X34343342Y-72378614D01*
X34291000Y-72390000D01*
X28828000Y-72390000D01*
X28759879Y-72369998D01*
X28713386Y-72316342D01*
X28702000Y-72264000D01*
X28702000Y-30126000D01*
X28722002Y-30057879D01*
X28775658Y-30011386D01*
X28828000Y-30000000D01*
X33328742Y-30000000D01*
X33396863Y-30020002D01*
X33443356Y-30073658D01*
X33453957Y-30140044D01*
X33434157Y-30316563D01*
X33434673Y-30322707D01*
X33450575Y-30512083D01*
X33448548Y-30512253D01*
X33442128Y-30573601D01*
X33397737Y-30629008D01*
X33342029Y-30650635D01*
X33286954Y-30657885D01*
X33241425Y-30663878D01*
X33241423Y-30663878D01*
X33233238Y-30664956D01*
X33087159Y-30725464D01*
X32961718Y-30821718D01*
X32865464Y-30947159D01*
X32804956Y-31093238D01*
X32803878Y-31101425D01*
X32803878Y-31101426D01*
X32799722Y-31132998D01*
X32789500Y-31210639D01*
X32789501Y-33789360D01*
X32804956Y-33906762D01*
X32865464Y-34052841D01*
X32961718Y-34178282D01*
X33087159Y-34274536D01*
X33233238Y-34335044D01*
X33241426Y-34336122D01*
X33346545Y-34349961D01*
X33350639Y-34350500D01*
X34289886Y-34350500D01*
X35229360Y-34350499D01*
X35233444Y-34349961D01*
X35233450Y-34349961D01*
X35338575Y-34336122D01*
X35338577Y-34336122D01*
X35346762Y-34335044D01*
X35492841Y-34274536D01*
X35618282Y-34178282D01*
X35714536Y-34052841D01*
X35775044Y-33906762D01*
X35790500Y-33789361D01*
X35790499Y-31210640D01*
X35780232Y-31132642D01*
X35776122Y-31101425D01*
X35776122Y-31101423D01*
X35775044Y-31093238D01*
X35714536Y-30947159D01*
X35618282Y-30821718D01*
X35492841Y-30725464D01*
X35485211Y-30722303D01*
X35478060Y-30718175D01*
X35478926Y-30716675D01*
X35431369Y-30678356D01*
X35408944Y-30610994D01*
X35415306Y-30566714D01*
X35417813Y-30559178D01*
X35419758Y-30553332D01*
X35420530Y-30547223D01*
X35420532Y-30547213D01*
X35426563Y-30499472D01*
X35454945Y-30434395D01*
X35462474Y-30426169D01*
X35477866Y-30410777D01*
X35478803Y-30409848D01*
X35536828Y-30353026D01*
X35536829Y-30353025D01*
X35541860Y-30348098D01*
X35545675Y-30342179D01*
X35545681Y-30342171D01*
X35564765Y-30312558D01*
X35572198Y-30302213D01*
X35598574Y-30269172D01*
X35612783Y-30239779D01*
X35620309Y-30226369D01*
X35634172Y-30204858D01*
X35637991Y-30198932D01*
X35652453Y-30159198D01*
X35657413Y-30147456D01*
X35675809Y-30109402D01*
X35683151Y-30077599D01*
X35687521Y-30062849D01*
X35690412Y-30054906D01*
X35732506Y-29997734D01*
X35798827Y-29972396D01*
X35808813Y-29972000D01*
X44338000Y-29972000D01*
X44406121Y-29992002D01*
G37*
G04 #@! TD.AperFunction*
G04 #@! TA.AperFunction,Conductor*
G36*
X49035770Y-48609882D02*
G01*
X49069051Y-48672595D01*
X49071619Y-48698349D01*
X49071363Y-48771809D01*
X49071351Y-48775268D01*
X49071614Y-48776445D01*
X49071700Y-48778031D01*
X49071700Y-49218671D01*
X49071693Y-49219989D01*
X49070770Y-49308142D01*
X49072259Y-49315028D01*
X49072259Y-49315030D01*
X49079702Y-49349452D01*
X49081762Y-49362031D01*
X49086476Y-49404054D01*
X49097213Y-49434886D01*
X49101375Y-49449695D01*
X49108272Y-49481593D01*
X49111249Y-49487978D01*
X49111250Y-49487980D01*
X49112539Y-49490744D01*
X49126017Y-49519646D01*
X49126137Y-49519904D01*
X49130929Y-49531705D01*
X49144837Y-49571642D01*
X49148568Y-49577613D01*
X49162131Y-49599319D01*
X49169469Y-49612835D01*
X49180292Y-49636044D01*
X49180294Y-49636048D01*
X49183269Y-49642427D01*
X49187583Y-49647988D01*
X49209182Y-49675834D01*
X49216476Y-49686290D01*
X49238876Y-49722137D01*
X49266879Y-49750336D01*
X49267430Y-49750924D01*
X49267941Y-49751584D01*
X49293404Y-49777047D01*
X49302325Y-49786030D01*
X49363920Y-49848057D01*
X49364937Y-49848702D01*
X49366130Y-49849773D01*
X50869723Y-51353366D01*
X50870652Y-51354303D01*
X50932402Y-51417360D01*
X50938321Y-51421175D01*
X50938329Y-51421181D01*
X50967942Y-51440265D01*
X50978287Y-51447698D01*
X51011328Y-51474074D01*
X51040721Y-51488283D01*
X51054130Y-51495809D01*
X51081568Y-51513491D01*
X51121215Y-51527921D01*
X51121302Y-51527953D01*
X51133041Y-51532912D01*
X51171098Y-51551309D01*
X51202900Y-51558651D01*
X51217638Y-51563016D01*
X51248326Y-51574186D01*
X51273059Y-51577310D01*
X51290274Y-51579485D01*
X51302830Y-51581722D01*
X51344010Y-51591230D01*
X51351056Y-51591255D01*
X51351059Y-51591255D01*
X51383719Y-51591369D01*
X51384568Y-51591397D01*
X51385384Y-51591500D01*
X51421262Y-51591500D01*
X51421702Y-51591501D01*
X51518009Y-51591837D01*
X51518010Y-51591837D01*
X51521468Y-51591849D01*
X51522645Y-51591586D01*
X51524231Y-51591500D01*
X51697167Y-51591500D01*
X51765288Y-51611502D01*
X51811781Y-51665158D01*
X51821885Y-51735432D01*
X51792391Y-51800012D01*
X51786262Y-51806595D01*
X51334762Y-52258095D01*
X51272450Y-52292121D01*
X51245667Y-52295000D01*
X49285029Y-52295000D01*
X49283710Y-52294993D01*
X49195558Y-52294070D01*
X49188672Y-52295559D01*
X49188670Y-52295559D01*
X49177067Y-52298068D01*
X49154240Y-52303003D01*
X49141669Y-52305062D01*
X49099646Y-52309776D01*
X49068808Y-52320515D01*
X49054005Y-52324675D01*
X49022107Y-52331572D01*
X49015722Y-52334549D01*
X49015720Y-52334550D01*
X49004322Y-52339865D01*
X48983788Y-52349440D01*
X48971995Y-52354229D01*
X48932058Y-52368137D01*
X48926087Y-52371868D01*
X48904381Y-52385431D01*
X48890865Y-52392769D01*
X48867656Y-52403592D01*
X48867652Y-52403594D01*
X48861273Y-52406569D01*
X48839737Y-52423274D01*
X48827866Y-52432482D01*
X48817410Y-52439776D01*
X48781563Y-52462176D01*
X48753364Y-52490179D01*
X48752776Y-52490730D01*
X48752116Y-52491241D01*
X48726653Y-52516704D01*
X48664629Y-52578297D01*
X48655643Y-52587220D01*
X48654998Y-52588237D01*
X48653927Y-52589430D01*
X48446134Y-52797223D01*
X48445197Y-52798152D01*
X48382140Y-52859902D01*
X48378325Y-52865821D01*
X48378319Y-52865829D01*
X48359235Y-52895442D01*
X48351802Y-52905787D01*
X48325426Y-52938828D01*
X48316862Y-52956544D01*
X48312355Y-52965867D01*
X48264698Y-53018492D01*
X48196155Y-53036997D01*
X48128489Y-53015507D01*
X48109820Y-53000123D01*
X47922472Y-52812775D01*
X47802969Y-52693273D01*
X47799696Y-52690761D01*
X47799692Y-52690758D01*
X47761950Y-52661797D01*
X47709025Y-52621185D01*
X47632362Y-52589430D01*
X47570573Y-52563836D01*
X47570572Y-52563836D01*
X47562946Y-52560677D01*
X47561964Y-52560548D01*
X47508649Y-52529767D01*
X47476893Y-52498010D01*
X47442869Y-52435697D01*
X47447935Y-52364882D01*
X47476895Y-52319821D01*
X48208035Y-51588681D01*
X48247713Y-51562815D01*
X48247556Y-51562503D01*
X48250378Y-51561078D01*
X48250381Y-51561076D01*
X48422689Y-51474037D01*
X48428265Y-51469681D01*
X48572453Y-51357029D01*
X48577303Y-51353240D01*
X48637641Y-51283338D01*
X48701485Y-51209373D01*
X48701485Y-51209372D01*
X48705509Y-51204711D01*
X48802425Y-51034109D01*
X48864358Y-50847932D01*
X48888949Y-50653271D01*
X48889341Y-50625200D01*
X48870194Y-50429928D01*
X48868413Y-50424029D01*
X48868412Y-50424024D01*
X48815265Y-50247993D01*
X48813484Y-50242094D01*
X48721370Y-50068853D01*
X48597361Y-49916802D01*
X48446180Y-49791735D01*
X48273585Y-49698413D01*
X48190413Y-49672667D01*
X48094895Y-49643099D01*
X48035735Y-49603848D01*
X48007188Y-49538843D01*
X48018317Y-49468724D01*
X48043058Y-49433639D01*
X48244622Y-49232074D01*
X48247541Y-49229155D01*
X48290029Y-49173785D01*
X48313281Y-49150533D01*
X48368655Y-49108043D01*
X48480630Y-48996068D01*
X48699868Y-48776829D01*
X48813227Y-48663469D01*
X48845658Y-48621205D01*
X48902997Y-48579338D01*
X48973868Y-48575117D01*
X49035770Y-48609882D01*
G37*
G04 #@! TD.AperFunction*
G04 #@! TA.AperFunction,Conductor*
G36*
X52262044Y-48998588D02*
G01*
X52284656Y-49034502D01*
X52326371Y-49135211D01*
X52398457Y-49229155D01*
X52401374Y-49232072D01*
X52401381Y-49232080D01*
X52538012Y-49368711D01*
X52572038Y-49431023D01*
X52566973Y-49501838D01*
X52538012Y-49546901D01*
X52112318Y-49972595D01*
X52050006Y-50006621D01*
X52023223Y-50009500D01*
X51854131Y-50009500D01*
X51786010Y-49989498D01*
X51739517Y-49935842D01*
X51729413Y-49865568D01*
X51758749Y-49801170D01*
X51792923Y-49761579D01*
X51792929Y-49761571D01*
X51796951Y-49756911D01*
X51816706Y-49722137D01*
X51858828Y-49647988D01*
X51893867Y-49586309D01*
X51947803Y-49424172D01*
X51953855Y-49405979D01*
X51955800Y-49400132D01*
X51956572Y-49394023D01*
X51956574Y-49394013D01*
X51971993Y-49271956D01*
X51982295Y-49237826D01*
X51982034Y-49237731D01*
X51996499Y-49197990D01*
X52001452Y-49186265D01*
X52016786Y-49154546D01*
X52016787Y-49154544D01*
X52019853Y-49148201D01*
X52027195Y-49116398D01*
X52031565Y-49101645D01*
X52040319Y-49077594D01*
X52042729Y-49070973D01*
X52043612Y-49063984D01*
X52045269Y-49057135D01*
X52047298Y-49057626D01*
X52071623Y-49001851D01*
X52130682Y-48962450D01*
X52201668Y-48961233D01*
X52262044Y-48998588D01*
G37*
G04 #@! TD.AperFunction*
M02*
