G04 #@! TF.GenerationSoftware,KiCad,Pcbnew,6.0.7-1.fc36*
G04 #@! TF.CreationDate,2022-08-13T19:37:31+02:00*
G04 #@! TF.ProjectId,drahtlos_klingel,64726168-746c-46f7-935f-6b6c696e6765,rev?*
G04 #@! TF.SameCoordinates,Original*
G04 #@! TF.FileFunction,Legend,Bot*
G04 #@! TF.FilePolarity,Positive*
%FSLAX46Y46*%
G04 Gerber Fmt 4.6, Leading zero omitted, Abs format (unit mm)*
G04 Created by KiCad (PCBNEW 6.0.7-1.fc36) date 2022-08-13 19:37:31*
%MOMM*%
%LPD*%
G01*
G04 APERTURE LIST*
G04 Aperture macros list*
%AMRoundRect*
0 Rectangle with rounded corners*
0 $1 Rounding radius*
0 $2 $3 $4 $5 $6 $7 $8 $9 X,Y pos of 4 corners*
0 Add a 4 corners polygon primitive as box body*
4,1,4,$2,$3,$4,$5,$6,$7,$8,$9,$2,$3,0*
0 Add four circle primitives for the rounded corners*
1,1,$1+$1,$2,$3*
1,1,$1+$1,$4,$5*
1,1,$1+$1,$6,$7*
1,1,$1+$1,$8,$9*
0 Add four rect primitives between the rounded corners*
20,1,$1+$1,$2,$3,$4,$5,0*
20,1,$1+$1,$4,$5,$6,$7,0*
20,1,$1+$1,$6,$7,$8,$9,0*
20,1,$1+$1,$8,$9,$2,$3,0*%
%AMHorizOval*
0 Thick line with rounded ends*
0 $1 width*
0 $2 $3 position (X,Y) of the first rounded end (center of the circle)*
0 $4 $5 position (X,Y) of the second rounded end (center of the circle)*
0 Add line between two ends*
20,1,$1,$2,$3,$4,$5,0*
0 Add two circle primitives to create the rounded ends*
1,1,$1,$2,$3*
1,1,$1,$4,$5*%
%AMRotRect*
0 Rectangle, with rotation*
0 The origin of the aperture is its center*
0 $1 length*
0 $2 width*
0 $3 Rotation angle, in degrees counterclockwise*
0 Add horizontal line*
21,1,$1,$2,0,0,$3*%
G04 Aperture macros list end*
%ADD10C,0.150000*%
%ADD11C,0.120000*%
%ADD12C,3.100000*%
%ADD13O,1.200000X2.000000*%
%ADD14C,1.600000*%
%ADD15C,2.700000*%
%ADD16R,1.700000X1.700000*%
%ADD17O,1.700000X1.700000*%
%ADD18R,2.400000X2.400000*%
%ADD19O,2.400000X2.400000*%
%ADD20R,3.000000X3.000000*%
%ADD21C,3.000000*%
%ADD22R,1.600000X1.600000*%
%ADD23O,1.600000X1.600000*%
%ADD24C,1.400000*%
%ADD25O,1.400000X1.400000*%
%ADD26C,2.400000*%
%ADD27RotRect,2.000000X2.000000X225.000000*%
%ADD28HorizOval,2.000000X0.000000X0.000000X0.000000X0.000000X0*%
%ADD29RoundRect,0.250000X0.625000X-0.400000X0.625000X0.400000X-0.625000X0.400000X-0.625000X-0.400000X0*%
%ADD30RoundRect,0.250000X0.650000X-0.412500X0.650000X0.412500X-0.650000X0.412500X-0.650000X-0.412500X0*%
%ADD31RoundRect,0.150000X0.150000X-0.587500X0.150000X0.587500X-0.150000X0.587500X-0.150000X-0.587500X0*%
%ADD32R,4.500000X2.000000*%
%ADD33RoundRect,0.250000X-0.337500X-0.475000X0.337500X-0.475000X0.337500X0.475000X-0.337500X0.475000X0*%
%ADD34RoundRect,0.250000X0.337500X0.475000X-0.337500X0.475000X-0.337500X-0.475000X0.337500X-0.475000X0*%
G04 APERTURE END LIST*
D10*
X89612333Y-57303890D02*
X89564714Y-57256271D01*
X89421857Y-57161033D01*
X89326619Y-57113414D01*
X89183761Y-57065795D01*
X88945666Y-57018176D01*
X88755190Y-57018176D01*
X88517095Y-57065795D01*
X88374238Y-57113414D01*
X88279000Y-57161033D01*
X88136142Y-57256271D01*
X88088523Y-57303890D01*
X89183761Y-58113414D02*
X89231380Y-58018176D01*
X89231380Y-57827700D01*
X89183761Y-57732461D01*
X89136142Y-57684842D01*
X89040904Y-57637223D01*
X88755190Y-57637223D01*
X88659952Y-57684842D01*
X88612333Y-57732461D01*
X88564714Y-57827700D01*
X88564714Y-58018176D01*
X88612333Y-58113414D01*
X89612333Y-58446747D02*
X89564714Y-58494366D01*
X89421857Y-58589604D01*
X89326619Y-58637223D01*
X89183761Y-58684842D01*
X88945666Y-58732461D01*
X88755190Y-58732461D01*
X88517095Y-58684842D01*
X88374238Y-58637223D01*
X88279000Y-58589604D01*
X88136142Y-58494366D01*
X88088523Y-58446747D01*
X88945666Y-59922938D02*
X88945666Y-60399128D01*
X89231380Y-59827700D02*
X88231380Y-60161033D01*
X89231380Y-60494366D01*
X88564714Y-60827700D02*
X89231380Y-60827700D01*
X88659952Y-60827700D02*
X88612333Y-60875319D01*
X88564714Y-60970557D01*
X88564714Y-61113414D01*
X88612333Y-61208652D01*
X88707571Y-61256271D01*
X89231380Y-61256271D01*
X89231380Y-62161033D02*
X88231380Y-62161033D01*
X89183761Y-62161033D02*
X89231380Y-62065795D01*
X89231380Y-61875319D01*
X89183761Y-61780080D01*
X89136142Y-61732461D01*
X89040904Y-61684842D01*
X88755190Y-61684842D01*
X88659952Y-61732461D01*
X88612333Y-61780080D01*
X88564714Y-61875319D01*
X88564714Y-62065795D01*
X88612333Y-62161033D01*
X89231380Y-62637223D02*
X88564714Y-62637223D01*
X88755190Y-62637223D02*
X88659952Y-62684842D01*
X88612333Y-62732461D01*
X88564714Y-62827700D01*
X88564714Y-62922938D01*
X89183761Y-63637223D02*
X89231380Y-63541985D01*
X89231380Y-63351509D01*
X89183761Y-63256271D01*
X89088523Y-63208652D01*
X88707571Y-63208652D01*
X88612333Y-63256271D01*
X88564714Y-63351509D01*
X88564714Y-63541985D01*
X88612333Y-63637223D01*
X88707571Y-63684842D01*
X88802809Y-63684842D01*
X88898047Y-63208652D01*
X89231380Y-64541985D02*
X88707571Y-64541985D01*
X88612333Y-64494366D01*
X88564714Y-64399128D01*
X88564714Y-64208652D01*
X88612333Y-64113414D01*
X89183761Y-64541985D02*
X89231380Y-64446747D01*
X89231380Y-64208652D01*
X89183761Y-64113414D01*
X89088523Y-64065795D01*
X88993285Y-64065795D01*
X88898047Y-64113414D01*
X88850428Y-64208652D01*
X88850428Y-64446747D01*
X88802809Y-64541985D01*
X89183761Y-64970557D02*
X89231380Y-65065795D01*
X89231380Y-65256271D01*
X89183761Y-65351509D01*
X89088523Y-65399128D01*
X89040904Y-65399128D01*
X88945666Y-65351509D01*
X88898047Y-65256271D01*
X88898047Y-65113414D01*
X88850428Y-65018176D01*
X88755190Y-64970557D01*
X88707571Y-64970557D01*
X88612333Y-65018176D01*
X88564714Y-65113414D01*
X88564714Y-65256271D01*
X88612333Y-65351509D01*
X89183761Y-66541985D02*
X89231380Y-66684842D01*
X89231380Y-66922938D01*
X89183761Y-67018176D01*
X89136142Y-67065795D01*
X89040904Y-67113414D01*
X88945666Y-67113414D01*
X88850428Y-67065795D01*
X88802809Y-67018176D01*
X88755190Y-66922938D01*
X88707571Y-66732461D01*
X88659952Y-66637223D01*
X88612333Y-66589604D01*
X88517095Y-66541985D01*
X88421857Y-66541985D01*
X88326619Y-66589604D01*
X88279000Y-66637223D01*
X88231380Y-66732461D01*
X88231380Y-66970557D01*
X88279000Y-67113414D01*
X88564714Y-67399128D02*
X88564714Y-67780080D01*
X88231380Y-67541985D02*
X89088523Y-67541985D01*
X89183761Y-67589604D01*
X89231380Y-67684842D01*
X89231380Y-67780080D01*
X89231380Y-68256271D02*
X89183761Y-68161033D01*
X89136142Y-68113414D01*
X89040904Y-68065795D01*
X88755190Y-68065795D01*
X88659952Y-68113414D01*
X88612333Y-68161033D01*
X88564714Y-68256271D01*
X88564714Y-68399128D01*
X88612333Y-68494366D01*
X88659952Y-68541985D01*
X88755190Y-68589604D01*
X89040904Y-68589604D01*
X89136142Y-68541985D01*
X89183761Y-68494366D01*
X89231380Y-68399128D01*
X89231380Y-68256271D01*
X88231380Y-68161033D02*
X88279000Y-68208652D01*
X88326619Y-68161033D01*
X88279000Y-68113414D01*
X88231380Y-68161033D01*
X88326619Y-68161033D01*
X88231380Y-68541985D02*
X88279000Y-68589604D01*
X88326619Y-68541985D01*
X88279000Y-68494366D01*
X88231380Y-68541985D01*
X88326619Y-68541985D01*
X89183761Y-69446747D02*
X89231380Y-69351509D01*
X89231380Y-69161033D01*
X89183761Y-69065795D01*
X89136142Y-69018176D01*
X89040904Y-68970557D01*
X88755190Y-68970557D01*
X88659952Y-69018176D01*
X88612333Y-69065795D01*
X88564714Y-69161033D01*
X88564714Y-69351509D01*
X88612333Y-69446747D01*
X89231380Y-69875319D02*
X88231380Y-69875319D01*
X88850428Y-69970557D02*
X89231380Y-70256271D01*
X88564714Y-70256271D02*
X88945666Y-69875319D01*
X89183761Y-71065795D02*
X89231380Y-70970557D01*
X89231380Y-70780080D01*
X89183761Y-70684842D01*
X89088523Y-70637223D01*
X88707571Y-70637223D01*
X88612333Y-70684842D01*
X88564714Y-70780080D01*
X88564714Y-70970557D01*
X88612333Y-71065795D01*
X88707571Y-71113414D01*
X88802809Y-71113414D01*
X88898047Y-70637223D01*
X89231380Y-71684842D02*
X89183761Y-71589604D01*
X89088523Y-71541985D01*
X88231380Y-71541985D01*
X90555666Y-57256271D02*
X90555666Y-57732461D01*
X90841380Y-57161033D02*
X89841380Y-57494366D01*
X90841380Y-57827700D01*
X90174714Y-58589604D02*
X90841380Y-58589604D01*
X90174714Y-58161033D02*
X90698523Y-58161033D01*
X90793761Y-58208652D01*
X90841380Y-58303890D01*
X90841380Y-58446747D01*
X90793761Y-58541985D01*
X90746142Y-58589604D01*
X90174714Y-59494366D02*
X90984238Y-59494366D01*
X91079476Y-59446747D01*
X91127095Y-59399128D01*
X91174714Y-59303890D01*
X91174714Y-59161033D01*
X91127095Y-59065795D01*
X90793761Y-59494366D02*
X90841380Y-59399128D01*
X90841380Y-59208652D01*
X90793761Y-59113414D01*
X90746142Y-59065795D01*
X90650904Y-59018176D01*
X90365190Y-59018176D01*
X90269952Y-59065795D01*
X90222333Y-59113414D01*
X90174714Y-59208652D01*
X90174714Y-59399128D01*
X90222333Y-59494366D01*
X90174714Y-60399128D02*
X90841380Y-60399128D01*
X90174714Y-59970557D02*
X90698523Y-59970557D01*
X90793761Y-60018176D01*
X90841380Y-60113414D01*
X90841380Y-60256271D01*
X90793761Y-60351509D01*
X90746142Y-60399128D01*
X90793761Y-60827700D02*
X90841380Y-60922938D01*
X90841380Y-61113414D01*
X90793761Y-61208652D01*
X90698523Y-61256271D01*
X90650904Y-61256271D01*
X90555666Y-61208652D01*
X90508047Y-61113414D01*
X90508047Y-60970557D01*
X90460428Y-60875319D01*
X90365190Y-60827700D01*
X90317571Y-60827700D01*
X90222333Y-60875319D01*
X90174714Y-60970557D01*
X90174714Y-61113414D01*
X90222333Y-61208652D01*
X90174714Y-61541985D02*
X90174714Y-61922938D01*
X89841380Y-61684842D02*
X90698523Y-61684842D01*
X90793761Y-61732461D01*
X90841380Y-61827700D01*
X90841380Y-61922938D01*
X89936619Y-62970557D02*
X89889000Y-63018176D01*
X89841380Y-63113414D01*
X89841380Y-63351509D01*
X89889000Y-63446747D01*
X89936619Y-63494366D01*
X90031857Y-63541985D01*
X90127095Y-63541985D01*
X90269952Y-63494366D01*
X90841380Y-62922938D01*
X90841380Y-63541985D01*
X89841380Y-64161033D02*
X89841380Y-64256271D01*
X89889000Y-64351509D01*
X89936619Y-64399128D01*
X90031857Y-64446747D01*
X90222333Y-64494366D01*
X90460428Y-64494366D01*
X90650904Y-64446747D01*
X90746142Y-64399128D01*
X90793761Y-64351509D01*
X90841380Y-64256271D01*
X90841380Y-64161033D01*
X90793761Y-64065795D01*
X90746142Y-64018176D01*
X90650904Y-63970557D01*
X90460428Y-63922938D01*
X90222333Y-63922938D01*
X90031857Y-63970557D01*
X89936619Y-64018176D01*
X89889000Y-64065795D01*
X89841380Y-64161033D01*
X89936619Y-64875319D02*
X89889000Y-64922938D01*
X89841380Y-65018176D01*
X89841380Y-65256271D01*
X89889000Y-65351509D01*
X89936619Y-65399128D01*
X90031857Y-65446747D01*
X90127095Y-65446747D01*
X90269952Y-65399128D01*
X90841380Y-64827700D01*
X90841380Y-65446747D01*
X89936619Y-65827700D02*
X89889000Y-65875319D01*
X89841380Y-65970557D01*
X89841380Y-66208652D01*
X89889000Y-66303890D01*
X89936619Y-66351509D01*
X90031857Y-66399128D01*
X90127095Y-66399128D01*
X90269952Y-66351509D01*
X90841380Y-65780080D01*
X90841380Y-66399128D01*
X90793761Y-66875319D02*
X90841380Y-66875319D01*
X90936619Y-66827700D01*
X90984238Y-66780080D01*
X89841380Y-68684842D02*
X90841380Y-69018176D01*
X89841380Y-69351509D01*
X90841380Y-70208652D02*
X90841380Y-69637223D01*
X90841380Y-69922938D02*
X89841380Y-69922938D01*
X89984238Y-69827700D01*
X90079476Y-69732461D01*
X90127095Y-69637223D01*
X90746142Y-70637223D02*
X90793761Y-70684842D01*
X90841380Y-70637223D01*
X90793761Y-70589604D01*
X90746142Y-70637223D01*
X90841380Y-70637223D01*
X89841380Y-71303890D02*
X89841380Y-71399128D01*
X89889000Y-71494366D01*
X89936619Y-71541985D01*
X90031857Y-71589604D01*
X90222333Y-71637223D01*
X90460428Y-71637223D01*
X90650904Y-71589604D01*
X90746142Y-71541985D01*
X90793761Y-71494366D01*
X90841380Y-71399128D01*
X90841380Y-71303890D01*
X90793761Y-71208652D01*
X90746142Y-71161033D01*
X90650904Y-71113414D01*
X90460428Y-71065795D01*
X90222333Y-71065795D01*
X90031857Y-71113414D01*
X89936619Y-71161033D01*
X89889000Y-71208652D01*
X89841380Y-71303890D01*
X69508666Y-55570380D02*
X69842000Y-55094190D01*
X70080095Y-55570380D02*
X70080095Y-54570380D01*
X69699142Y-54570380D01*
X69603904Y-54618000D01*
X69556285Y-54665619D01*
X69508666Y-54760857D01*
X69508666Y-54903714D01*
X69556285Y-54998952D01*
X69603904Y-55046571D01*
X69699142Y-55094190D01*
X70080095Y-55094190D01*
X69127714Y-54665619D02*
X69080095Y-54618000D01*
X68984857Y-54570380D01*
X68746761Y-54570380D01*
X68651523Y-54618000D01*
X68603904Y-54665619D01*
X68556285Y-54760857D01*
X68556285Y-54856095D01*
X68603904Y-54998952D01*
X69175333Y-55570380D01*
X68556285Y-55570380D01*
X64936666Y-55475142D02*
X64984285Y-55522761D01*
X65127142Y-55570380D01*
X65222380Y-55570380D01*
X65365238Y-55522761D01*
X65460476Y-55427523D01*
X65508095Y-55332285D01*
X65555714Y-55141809D01*
X65555714Y-54998952D01*
X65508095Y-54808476D01*
X65460476Y-54713238D01*
X65365238Y-54618000D01*
X65222380Y-54570380D01*
X65127142Y-54570380D01*
X64984285Y-54618000D01*
X64936666Y-54665619D01*
X64031904Y-54570380D02*
X64508095Y-54570380D01*
X64555714Y-55046571D01*
X64508095Y-54998952D01*
X64412857Y-54951333D01*
X64174761Y-54951333D01*
X64079523Y-54998952D01*
X64031904Y-55046571D01*
X63984285Y-55141809D01*
X63984285Y-55379904D01*
X64031904Y-55475142D01*
X64079523Y-55522761D01*
X64174761Y-55570380D01*
X64412857Y-55570380D01*
X64508095Y-55522761D01*
X64555714Y-55475142D01*
X66174857Y-74779142D02*
X66222476Y-74826761D01*
X66365333Y-74874380D01*
X66460571Y-74874380D01*
X66603428Y-74826761D01*
X66698666Y-74731523D01*
X66746285Y-74636285D01*
X66793904Y-74445809D01*
X66793904Y-74302952D01*
X66746285Y-74112476D01*
X66698666Y-74017238D01*
X66603428Y-73922000D01*
X66460571Y-73874380D01*
X66365333Y-73874380D01*
X66222476Y-73922000D01*
X66174857Y-73969619D01*
X65222476Y-74874380D02*
X65793904Y-74874380D01*
X65508190Y-74874380D02*
X65508190Y-73874380D01*
X65603428Y-74017238D01*
X65698666Y-74112476D01*
X65793904Y-74160095D01*
X64270095Y-74874380D02*
X64841523Y-74874380D01*
X64555809Y-74874380D02*
X64555809Y-73874380D01*
X64651047Y-74017238D01*
X64746285Y-74112476D01*
X64841523Y-74160095D01*
X36655333Y-29805380D02*
X36655333Y-30519666D01*
X36702952Y-30662523D01*
X36798190Y-30757761D01*
X36941047Y-30805380D01*
X37036285Y-30805380D01*
X35655333Y-30805380D02*
X36226761Y-30805380D01*
X35941047Y-30805380D02*
X35941047Y-29805380D01*
X36036285Y-29948238D01*
X36131523Y-30043476D01*
X36226761Y-30091095D01*
X43122095Y-65627580D02*
X43122095Y-64627580D01*
X42884000Y-64627580D01*
X42741142Y-64675200D01*
X42645904Y-64770438D01*
X42598285Y-64865676D01*
X42550666Y-65056152D01*
X42550666Y-65199009D01*
X42598285Y-65389485D01*
X42645904Y-65484723D01*
X42741142Y-65579961D01*
X42884000Y-65627580D01*
X43122095Y-65627580D01*
X41979238Y-65056152D02*
X42074476Y-65008533D01*
X42122095Y-64960914D01*
X42169714Y-64865676D01*
X42169714Y-64818057D01*
X42122095Y-64722819D01*
X42074476Y-64675200D01*
X41979238Y-64627580D01*
X41788761Y-64627580D01*
X41693523Y-64675200D01*
X41645904Y-64722819D01*
X41598285Y-64818057D01*
X41598285Y-64865676D01*
X41645904Y-64960914D01*
X41693523Y-65008533D01*
X41788761Y-65056152D01*
X41979238Y-65056152D01*
X42074476Y-65103771D01*
X42122095Y-65151390D01*
X42169714Y-65246628D01*
X42169714Y-65437104D01*
X42122095Y-65532342D01*
X42074476Y-65579961D01*
X41979238Y-65627580D01*
X41788761Y-65627580D01*
X41693523Y-65579961D01*
X41645904Y-65532342D01*
X41598285Y-65437104D01*
X41598285Y-65246628D01*
X41645904Y-65151390D01*
X41693523Y-65103771D01*
X41788761Y-65056152D01*
X47313790Y-49252190D02*
X47313790Y-49728380D01*
X47647123Y-48728380D02*
X47313790Y-49252190D01*
X46980457Y-48728380D01*
X46123314Y-49728380D02*
X46694742Y-49728380D01*
X46409028Y-49728380D02*
X46409028Y-48728380D01*
X46504266Y-48871238D01*
X46599504Y-48966476D01*
X46694742Y-49014095D01*
X34907166Y-56055642D02*
X34954785Y-56103261D01*
X35097642Y-56150880D01*
X35192880Y-56150880D01*
X35335738Y-56103261D01*
X35430976Y-56008023D01*
X35478595Y-55912785D01*
X35526214Y-55722309D01*
X35526214Y-55579452D01*
X35478595Y-55388976D01*
X35430976Y-55293738D01*
X35335738Y-55198500D01*
X35192880Y-55150880D01*
X35097642Y-55150880D01*
X34954785Y-55198500D01*
X34907166Y-55246119D01*
X34573833Y-55150880D02*
X33907166Y-55150880D01*
X34335738Y-56150880D01*
X42900666Y-56082342D02*
X42948285Y-56129961D01*
X43091142Y-56177580D01*
X43186380Y-56177580D01*
X43329238Y-56129961D01*
X43424476Y-56034723D01*
X43472095Y-55939485D01*
X43519714Y-55749009D01*
X43519714Y-55606152D01*
X43472095Y-55415676D01*
X43424476Y-55320438D01*
X43329238Y-55225200D01*
X43186380Y-55177580D01*
X43091142Y-55177580D01*
X42948285Y-55225200D01*
X42900666Y-55272819D01*
X42043523Y-55177580D02*
X42234000Y-55177580D01*
X42329238Y-55225200D01*
X42376857Y-55272819D01*
X42472095Y-55415676D01*
X42519714Y-55606152D01*
X42519714Y-55987104D01*
X42472095Y-56082342D01*
X42424476Y-56129961D01*
X42329238Y-56177580D01*
X42138761Y-56177580D01*
X42043523Y-56129961D01*
X41995904Y-56082342D01*
X41948285Y-55987104D01*
X41948285Y-55749009D01*
X41995904Y-55653771D01*
X42043523Y-55606152D01*
X42138761Y-55558533D01*
X42329238Y-55558533D01*
X42424476Y-55606152D01*
X42472095Y-55653771D01*
X42519714Y-55749009D01*
D11*
X68490000Y-51827064D02*
X68490000Y-50372936D01*
X70310000Y-51827064D02*
X70310000Y-50372936D01*
X63733000Y-51892252D02*
X63733000Y-50469748D01*
X65553000Y-51892252D02*
X65553000Y-50469748D01*
X64622000Y-71577252D02*
X64622000Y-70154748D01*
X66442000Y-71577252D02*
X66442000Y-70154748D01*
X85955000Y-23930000D02*
X85955000Y-29130000D01*
X35035000Y-26530000D02*
X37635000Y-26530000D01*
X35035000Y-29130000D02*
X36365000Y-29130000D01*
X35035000Y-27800000D02*
X35035000Y-29130000D01*
X35035000Y-23930000D02*
X35035000Y-26530000D01*
X37635000Y-26530000D02*
X37635000Y-29130000D01*
X37635000Y-29130000D02*
X85955000Y-29130000D01*
X35035000Y-23930000D02*
X85955000Y-23930000D01*
X43674000Y-63762700D02*
X43674000Y-63112700D01*
X43674000Y-63762700D02*
X43674000Y-64412700D01*
X46794000Y-63762700D02*
X46794000Y-63112700D01*
X46794000Y-63762700D02*
X46794000Y-65437700D01*
X32553000Y-46728500D02*
X45153000Y-46728500D01*
X45153000Y-46728500D02*
X45153000Y-51828500D01*
X45153000Y-51828500D02*
X32553000Y-51828500D01*
X34479248Y-54753500D02*
X35001752Y-54753500D01*
X34479248Y-53283500D02*
X35001752Y-53283500D01*
X42964252Y-54753500D02*
X42441748Y-54753500D01*
X42964252Y-53283500D02*
X42441748Y-53283500D01*
%LPC*%
D12*
X91050000Y-26500000D02*
G75*
G03*
X91050000Y-26500000I-1550000J0D01*
G01*
X33050000Y-26500000D02*
G75*
G03*
X33050000Y-26500000I-1550000J0D01*
G01*
X126050000Y-26500000D02*
G75*
G03*
X126050000Y-26500000I-1550000J0D01*
G01*
X33050000Y-76000000D02*
G75*
G03*
X33050000Y-76000000I-1550000J0D01*
G01*
X91050000Y-76000000D02*
G75*
G03*
X91050000Y-76000000I-1550000J0D01*
G01*
X126050000Y-76000000D02*
G75*
G03*
X126050000Y-76000000I-1550000J0D01*
G01*
D13*
X59802000Y-76650000D03*
X61802000Y-76650000D03*
X63802000Y-76650000D03*
X65802000Y-76650000D03*
X67802000Y-76650000D03*
X69802000Y-76650000D03*
X71802000Y-76650000D03*
X73802000Y-76650000D03*
X73802000Y-63050000D03*
X71802000Y-63050000D03*
X69802000Y-63050000D03*
X67802000Y-63050000D03*
X65802000Y-63050000D03*
X63802000Y-63050000D03*
X61802000Y-63050000D03*
X59802000Y-63050000D03*
D14*
X104775000Y-47625000D03*
X109775000Y-47625000D03*
D15*
X31500000Y-76000000D03*
D16*
X83434000Y-46115200D03*
D17*
X83434000Y-43575200D03*
D18*
X118745000Y-62230000D03*
D19*
X118745000Y-74930000D03*
D18*
X118745000Y-27940000D03*
D19*
X118745000Y-40640000D03*
D16*
X97790000Y-45070000D03*
D17*
X97790000Y-42530000D03*
X97790000Y-39990000D03*
D20*
X123825000Y-56515000D03*
D21*
X123825000Y-51435000D03*
X123825000Y-46355000D03*
D22*
X109000000Y-38100000D03*
D23*
X109000000Y-27940000D03*
D24*
X114000000Y-47625000D03*
D25*
X114000000Y-55245000D03*
D15*
X124500000Y-26500000D03*
X31500000Y-26500000D03*
X89500000Y-26500000D03*
D22*
X113665000Y-38100000D03*
D23*
X113665000Y-27940000D03*
D18*
X102235000Y-61993959D03*
D26*
X102235000Y-54493959D03*
D14*
X55990000Y-70309000D03*
D22*
X105400000Y-33005000D03*
D23*
X105400000Y-30465000D03*
X105400000Y-27925000D03*
X97780000Y-27925000D03*
X97780000Y-30465000D03*
X97780000Y-33005000D03*
D22*
X36353000Y-58803500D03*
D23*
X38893000Y-58803500D03*
X41433000Y-58803500D03*
X43973000Y-58803500D03*
X46513000Y-58803500D03*
X49053000Y-58803500D03*
X51593000Y-58803500D03*
X54133000Y-58803500D03*
X56673000Y-58803500D03*
X59213000Y-58803500D03*
X61753000Y-58803500D03*
X64293000Y-58803500D03*
X66833000Y-58803500D03*
X69373000Y-58803500D03*
X71913000Y-58803500D03*
X71913000Y-43563500D03*
X69373000Y-43563500D03*
X66833000Y-43563500D03*
X64293000Y-43563500D03*
X61753000Y-43563500D03*
X59213000Y-43563500D03*
X56673000Y-43563500D03*
X54133000Y-43563500D03*
X51593000Y-43563500D03*
X49053000Y-43563500D03*
X46513000Y-43563500D03*
X43973000Y-43563500D03*
X41433000Y-43563500D03*
X38893000Y-43563500D03*
X36353000Y-43563500D03*
D15*
X89500000Y-76000000D03*
D27*
X107351102Y-72303098D03*
D28*
X103759000Y-68710996D03*
X100166897Y-72303098D03*
X103759000Y-75895200D03*
D22*
X81026000Y-72390000D03*
D14*
X81026000Y-74890000D03*
D24*
X112395000Y-43180000D03*
D25*
X104775000Y-43180000D03*
D15*
X124500000Y-76000000D03*
D29*
X69400000Y-52650000D03*
X69400000Y-49550000D03*
D30*
X64643000Y-52743500D03*
X64643000Y-49618500D03*
X65532000Y-72428500D03*
X65532000Y-69303500D03*
D16*
X36365000Y-27800000D03*
D17*
X36365000Y-25260000D03*
X38905000Y-27800000D03*
X38905000Y-25260000D03*
X41445000Y-27800000D03*
X41445000Y-25260000D03*
X43985000Y-27800000D03*
X43985000Y-25260000D03*
X46525000Y-27800000D03*
X46525000Y-25260000D03*
X49065000Y-27800000D03*
X49065000Y-25260000D03*
X51605000Y-27800000D03*
X51605000Y-25260000D03*
X54145000Y-27800000D03*
X54145000Y-25260000D03*
X56685000Y-27800000D03*
X56685000Y-25260000D03*
X59225000Y-27800000D03*
X59225000Y-25260000D03*
X61765000Y-27800000D03*
X61765000Y-25260000D03*
X64305000Y-27800000D03*
X64305000Y-25260000D03*
X66845000Y-27800000D03*
X66845000Y-25260000D03*
X69385000Y-27800000D03*
X69385000Y-25260000D03*
X71925000Y-27800000D03*
X71925000Y-25260000D03*
X74465000Y-27800000D03*
X74465000Y-25260000D03*
X77005000Y-27800000D03*
X77005000Y-25260000D03*
X79545000Y-27800000D03*
X79545000Y-25260000D03*
X82085000Y-27800000D03*
X82085000Y-25260000D03*
X84625000Y-27800000D03*
X84625000Y-25260000D03*
D31*
X45234000Y-62825200D03*
X46184000Y-64700200D03*
X44284000Y-64700200D03*
D32*
X42703000Y-49278500D03*
X34203000Y-49278500D03*
D33*
X33703000Y-54018500D03*
X35778000Y-54018500D03*
D34*
X43740500Y-54018500D03*
X41665500Y-54018500D03*
M02*
