%TF.GenerationSoftware,KiCad,Pcbnew,6.0.7-1.fc36*%
%TF.CreationDate,2022-08-13T19:35:49+02:00*%
%TF.ProjectId,drahtlos_klingel,64726168-746c-46f7-935f-6b6c696e6765,rev?*%
%TF.SameCoordinates,Original*%
%TF.FileFunction,Drillmap*%
%TF.FilePolarity,Positive*%
%FSLAX45Y45*%
G04 Gerber Fmt 4.5, Leading zero omitted, Abs format (unit mm)*
G04 Created by KiCad (PCBNEW 6.0.7-1.fc36) date 2022-08-13 19:35:49*
%MOMM*%
%LPD*%
G01*
G04 APERTURE LIST*
%ADD10C,0.264583*%
%ADD11C,0.200000*%
%ADD12C,0.270000*%
G04 APERTURE END LIST*
D10*
X9352581Y-7649471D02*
X9355123Y-7649650D01*
X9288059Y-2515099D02*
X9284018Y-2502290D01*
X9398884Y-7680267D02*
X9399880Y-7682483D01*
X9165669Y-7899807D02*
X9176440Y-7892337D01*
X3084517Y-7949008D02*
X3100000Y-7949397D01*
X9345101Y-7649631D02*
X9347540Y-7649466D01*
X9131387Y-7919361D02*
X9143129Y-7913333D01*
X9307263Y-2578383D02*
X9305885Y-2576521D01*
X9395335Y-2574841D02*
X9393975Y-2576825D01*
X9403720Y-2551838D02*
X9403713Y-2551901D01*
X2920284Y-7889949D02*
X2932041Y-7898298D01*
X9143128Y-2335462D02*
X9131387Y-2329433D01*
X2908958Y-7881058D02*
X2920284Y-7889949D01*
X9374021Y-7655017D02*
X9376164Y-7656141D01*
X9241222Y-7828141D02*
X9248793Y-7817436D01*
X12776498Y-2408907D02*
X12770506Y-2398796D01*
X9524968Y-2355859D02*
X9514594Y-2363690D01*
X3024854Y-7939984D02*
X3039392Y-7943323D01*
X9255901Y-2442407D02*
X9248793Y-2431359D01*
X9401576Y-2561727D02*
X9400778Y-2564044D01*
X9504575Y-2371953D02*
X9494926Y-2380634D01*
X9331189Y-2596017D02*
X9329014Y-2595154D01*
X9378248Y-2591439D02*
X9376163Y-2592654D01*
X12740553Y-7884776D02*
X12748901Y-7876906D01*
X9403710Y-7696833D02*
X9403714Y-7696899D01*
X9396609Y-7676000D02*
X9397793Y-7678105D01*
X9558094Y-7913698D02*
X9569757Y-7919661D01*
X9014073Y-2299718D02*
X9000000Y-2299397D01*
X9402858Y-2556959D02*
X9402270Y-2559365D01*
X2800000Y-2599397D02*
X2800000Y-2599397D01*
X12798459Y-7766289D02*
X12799614Y-7751743D01*
X9241222Y-2420654D02*
X9233202Y-2410304D01*
X9700000Y-2299397D02*
X9700000Y-2299397D01*
X9606421Y-2314310D02*
X9593934Y-2318727D01*
X9248793Y-2431359D02*
X9241222Y-2420654D01*
X2887675Y-7861722D02*
X2898083Y-7871643D01*
X2823503Y-2482407D02*
X2818146Y-2496041D01*
X9055213Y-2304425D02*
X9041694Y-2302246D01*
X12643226Y-2315298D02*
X12630287Y-2312097D01*
X12712325Y-2343517D02*
X12701918Y-2337674D01*
X12800003Y-5124398D02*
X12800003Y-5124398D01*
X2996644Y-7931251D02*
X3010598Y-7935954D01*
X9262534Y-7795013D02*
X9268675Y-7783322D01*
X9700000Y-2299397D02*
X9686066Y-2299716D01*
X9476792Y-7849602D02*
X9485661Y-7859077D01*
X9403708Y-7696767D02*
X9403708Y-7696767D01*
X2829495Y-7779684D02*
X2836105Y-7792623D01*
X9494926Y-7868162D02*
X9504575Y-7876843D01*
X9335672Y-2597462D02*
X9333409Y-2596787D01*
X9304585Y-7674197D02*
X9305885Y-7672274D01*
X9206590Y-2381530D02*
X9196915Y-2372743D01*
X9119350Y-7924881D02*
X9131387Y-7919361D01*
X9581708Y-7925123D02*
X9593934Y-7930069D01*
X9297262Y-7691488D02*
X9297855Y-7689163D01*
X9027976Y-2300673D02*
X9014073Y-2299718D01*
X9206590Y-7867265D02*
X9215872Y-7858067D01*
X9288059Y-7733696D02*
X9291540Y-7720642D01*
X9324807Y-2593157D02*
X9322781Y-2592029D01*
X9186860Y-2364380D02*
X9176440Y-2356458D01*
X9268675Y-2465472D02*
X9262533Y-2453782D01*
X9274312Y-7771332D02*
X9279431Y-7759055D01*
X9384130Y-2587271D02*
X9382235Y-2588745D01*
X9324808Y-7655637D02*
X9326886Y-7654595D01*
X9385958Y-2585717D02*
X9384130Y-2587271D01*
X9313508Y-2585178D02*
X9311842Y-2583582D01*
X9311842Y-2583582D02*
X9310244Y-2581916D01*
X12655790Y-2318906D02*
X12643226Y-2315298D01*
X9382235Y-7660049D02*
X9384131Y-7661523D01*
X9317036Y-7660644D02*
X9318893Y-7659271D01*
X9396609Y-2572795D02*
X9395335Y-2574841D01*
X2800000Y-7649397D02*
X2800389Y-7664881D01*
X9196915Y-2372743D02*
X9186860Y-2364380D01*
X9403740Y-7697093D02*
X9403752Y-7697155D01*
X9331190Y-7652778D02*
X9333410Y-7652008D01*
X9308718Y-7668613D02*
X9310245Y-7666879D01*
X9248793Y-7817436D02*
X9255902Y-7806388D01*
X12756689Y-7868495D02*
X12763896Y-7859531D01*
X3100000Y-7949397D02*
X3100000Y-7949397D01*
X12500000Y-7949398D02*
X12500000Y-7949398D01*
X9081602Y-7938252D02*
X9094443Y-7934340D01*
X2813443Y-2509995D02*
X2809413Y-2524251D01*
X9546732Y-7907247D02*
X9558094Y-7913698D01*
X12786558Y-7817872D02*
X12790589Y-7805940D01*
X9337975Y-7650755D02*
X9340316Y-7650277D01*
X9403707Y-2552028D02*
X9403338Y-2554512D01*
X9186860Y-7884414D02*
X9196915Y-7876052D01*
X9398884Y-2568528D02*
X9397793Y-2570690D01*
X9347540Y-2599328D02*
X9345100Y-2599164D01*
X9367273Y-2596571D02*
X9364926Y-2597301D01*
X12790589Y-7805940D02*
X12793928Y-7793374D01*
X12691042Y-7916490D02*
X12701918Y-7911121D01*
X12770506Y-7850000D02*
X12776498Y-7839889D01*
X9426959Y-7773526D02*
X9432670Y-7785341D01*
X9360102Y-2598444D02*
X9357630Y-2598851D01*
X9409302Y-7723620D02*
X9412911Y-7736465D01*
X9296766Y-2554941D02*
X9296766Y-2554941D01*
X2920284Y-2358845D02*
X2908958Y-2367737D01*
X9301173Y-2568489D02*
X9300206Y-2566346D01*
X2983009Y-2322900D02*
X2969713Y-2328893D01*
X9305885Y-2576521D02*
X9304584Y-2574598D01*
X9081602Y-2310543D02*
X9068521Y-2307195D01*
X9296766Y-2554941D02*
X9294447Y-2541438D01*
X9329015Y-7653641D02*
X9331190Y-7652778D01*
X12616991Y-7939506D02*
X12643226Y-7933498D01*
X9417065Y-2499722D02*
X9412910Y-2512331D01*
X9403707Y-2552028D02*
X9403707Y-2552028D01*
X9342691Y-2598893D02*
X9340315Y-2598517D01*
X9376163Y-2592654D02*
X9374021Y-2593777D01*
X9397793Y-2570690D02*
X9396609Y-2572795D01*
X9403708Y-7696767D02*
X9403708Y-7696800D01*
X9460298Y-7829538D02*
X9468333Y-7839751D01*
X2932041Y-2350497D02*
X2920284Y-2358845D01*
X9297261Y-2557307D02*
X9296766Y-2554941D01*
X9546732Y-2341549D02*
X9535685Y-2348474D01*
X2956774Y-7913293D02*
X2969713Y-7919902D01*
X9279431Y-2489740D02*
X9274312Y-2477463D01*
X9445554Y-2440716D02*
X9438873Y-2451932D01*
X9215872Y-7858067D02*
X9224748Y-7848470D01*
X9224748Y-2400324D02*
X9215872Y-2390728D01*
X9296767Y-7693854D02*
X9297262Y-7691488D01*
X3039392Y-7943323D02*
X3054194Y-7945953D01*
X9403708Y-7696800D02*
X9403710Y-7696833D01*
X12530758Y-2299962D02*
X12500000Y-2299397D01*
X9176440Y-7892337D02*
X9186860Y-7884414D01*
X3010598Y-2312841D02*
X2996644Y-2317544D01*
X2800000Y-2599397D02*
X2800000Y-5124398D01*
X9362535Y-7650868D02*
X9364926Y-7651494D01*
X9412911Y-7736465D02*
X9417066Y-7749074D01*
X12800003Y-2512287D02*
X12799614Y-2497053D01*
X9403714Y-7696899D02*
X9403721Y-7696964D01*
X9094443Y-2314455D02*
X9081602Y-2310543D01*
X9294447Y-7707356D02*
X9296767Y-7693854D01*
X9041694Y-7946549D02*
X9055213Y-7944370D01*
X9352580Y-2599324D02*
X9350008Y-2599384D01*
X9233202Y-2410304D02*
X9224748Y-2400324D01*
X12589402Y-2304802D02*
X12560608Y-2301728D01*
X2836105Y-7792623D02*
X2843312Y-7805187D01*
X9417066Y-7749074D02*
X9421753Y-7761432D01*
X9452701Y-7818976D02*
X9460298Y-7829538D01*
X2996644Y-2317544D02*
X2983009Y-2322900D01*
X12701918Y-2337674D02*
X12691042Y-2332305D01*
X2800000Y-7649397D02*
X2800000Y-7649397D01*
X9403740Y-2551711D02*
X9403729Y-2551774D01*
X9402270Y-2559365D02*
X9401576Y-2561727D01*
X12589402Y-7943994D02*
X12616991Y-7939506D01*
X9485660Y-2389719D02*
X9476791Y-2399194D01*
X9380273Y-7658659D02*
X9382235Y-7660049D01*
X2898083Y-7871643D02*
X2908958Y-7881058D01*
X12793928Y-2455421D02*
X12790589Y-2442856D01*
X12560608Y-7947068D02*
X12589402Y-7943994D01*
X12781855Y-7829184D02*
X12786558Y-7817872D01*
X9310244Y-2581916D02*
X9308717Y-2580182D01*
X2944211Y-7906085D02*
X2956774Y-7913293D01*
X2801543Y-7680155D02*
X2803444Y-7695203D01*
X9000000Y-2299397D02*
X3100000Y-2299397D01*
X9320809Y-7657978D02*
X9322781Y-7656766D01*
X9268675Y-7783322D02*
X9274312Y-7771332D01*
X9360103Y-7650351D02*
X9362535Y-7650868D01*
X9645313Y-2304379D02*
X9632124Y-2307122D01*
X12799614Y-7751743D02*
X12800003Y-7736509D01*
X9299330Y-2564154D02*
X9298545Y-2561916D01*
X3054194Y-2302842D02*
X3039392Y-2305471D01*
X12530758Y-7948833D02*
X12560608Y-7947068D01*
X2851100Y-2431438D02*
X2843312Y-2443608D01*
X9296767Y-7693854D02*
X9296767Y-7693854D01*
X9494926Y-2380634D02*
X9485660Y-2389719D01*
X12770506Y-2398796D02*
X12763896Y-2389265D01*
X9406253Y-2538244D02*
X9403777Y-2551521D01*
X9412910Y-2512331D02*
X9409302Y-2525176D01*
X12781855Y-2419612D02*
X12776498Y-2408907D01*
X9672297Y-2300661D02*
X9658709Y-2302220D01*
X2859448Y-2419681D02*
X2851100Y-2431438D01*
X9393975Y-7671970D02*
X9395336Y-7673954D01*
X9387714Y-2584084D02*
X9385958Y-2585717D01*
X9304584Y-2574598D02*
X9303364Y-2572617D01*
X9311842Y-7665213D02*
X9313508Y-7663617D01*
X9645313Y-7944417D02*
X9658709Y-7946576D01*
X9262533Y-2453782D02*
X9255901Y-2442407D01*
X12630287Y-2312097D02*
X12616991Y-2309289D01*
X9315240Y-2586702D02*
X9313508Y-2585178D01*
X9438873Y-7796864D02*
X9445555Y-7808080D01*
X9485661Y-7859077D02*
X9494926Y-7868162D01*
X9274312Y-2477463D02*
X9268675Y-2465472D01*
X9421753Y-7761432D02*
X9426959Y-7773526D01*
X9320808Y-2590817D02*
X9318892Y-2589524D01*
X9000000Y-7949397D02*
X9000000Y-7949397D01*
X9301173Y-7680306D02*
X9302226Y-7678215D01*
X9300207Y-7682449D02*
X9301173Y-7680306D01*
X9367273Y-7652224D02*
X9369573Y-7653056D01*
X3100000Y-2299397D02*
X3100000Y-2299397D01*
X2868339Y-7840439D02*
X2877754Y-7851315D01*
X12731661Y-2356676D02*
X12722246Y-2349847D01*
X9364926Y-7651494D02*
X9367273Y-7652224D01*
X9300206Y-2566346D02*
X9299330Y-2564154D01*
X9369573Y-2595738D02*
X9367273Y-2596571D01*
X9299330Y-7684641D02*
X9300207Y-7682449D01*
X9402271Y-7689430D02*
X9402859Y-7691836D01*
X9014073Y-7949076D02*
X9027976Y-7948122D01*
X9399880Y-7682483D02*
X9400778Y-7684751D01*
X12740553Y-2364020D02*
X12731661Y-2356676D01*
X9385958Y-7663078D02*
X9387714Y-7664710D01*
X12722246Y-7898949D02*
X12731661Y-7892119D01*
X9569757Y-7919661D02*
X9581708Y-7925123D01*
X9347540Y-7649466D02*
X9350008Y-7649411D01*
X9284018Y-7746505D02*
X9288059Y-7733696D01*
X9374021Y-2593777D02*
X9371823Y-2594806D01*
X9403339Y-7694282D02*
X9403708Y-7696767D01*
X9658709Y-7946576D02*
X9672297Y-7948134D01*
X12800003Y-5124398D02*
X12800003Y-2512287D01*
X2806074Y-7710006D02*
X2809413Y-7724544D01*
X9233202Y-7838491D02*
X9241222Y-7828141D01*
X12731661Y-7892119D02*
X12740553Y-7884776D01*
X9514594Y-2363690D02*
X9504575Y-2371953D01*
X9476791Y-2399194D02*
X9468332Y-2409045D01*
X9460297Y-2419258D02*
X9452700Y-2429820D01*
X12748901Y-7876906D02*
X12756689Y-7868495D01*
X9107030Y-2318916D02*
X9094443Y-2314455D01*
X9000000Y-2299397D02*
X9000000Y-2299397D01*
X2800389Y-2583914D02*
X2800000Y-2599397D01*
X9632124Y-2307122D02*
X9619156Y-2310438D01*
X9403777Y-2551521D02*
X9403752Y-2551648D01*
X2843312Y-7805187D02*
X2851100Y-7817356D01*
X9322781Y-2592029D02*
X9320808Y-2590817D01*
X12796558Y-2468634D02*
X12793928Y-2455421D01*
X9452700Y-2429820D02*
X9445554Y-2440716D01*
X2868339Y-2408356D02*
X2859448Y-2419681D01*
X2809413Y-2524251D02*
X2806074Y-2538789D01*
X9305885Y-7672274D02*
X9307264Y-7670412D01*
X9403338Y-2554512D02*
X9402858Y-2556959D01*
X9357630Y-2598851D02*
X9355122Y-2599145D01*
X2818146Y-7752754D02*
X2823503Y-7766388D01*
X9068521Y-7941600D02*
X9081602Y-7938252D01*
X3054194Y-7945953D02*
X3069242Y-7947854D01*
X9255902Y-7806388D02*
X9262534Y-7795013D01*
X12763896Y-7859531D02*
X12770506Y-7850000D01*
X9403713Y-2551901D02*
X9403709Y-2551964D01*
X12560608Y-2301728D02*
X12530758Y-2299962D01*
X9055213Y-7944370D02*
X9068521Y-7941600D01*
X12679716Y-2327396D02*
X12667959Y-2322935D01*
X9294447Y-2541438D02*
X9291540Y-2528153D01*
X9318893Y-7659271D02*
X9320809Y-7657978D01*
X9350008Y-7649411D02*
X9350008Y-7649411D01*
X3100000Y-7949397D02*
X9000000Y-7949397D01*
X9094443Y-7934340D02*
X9107030Y-7929879D01*
X2932041Y-7898298D02*
X2944211Y-7906085D01*
X9401576Y-7687067D02*
X9402271Y-7689430D01*
X9107030Y-7929879D02*
X9119350Y-7924881D01*
X9403708Y-2551996D02*
X9403707Y-2552028D01*
X9308717Y-2580182D02*
X9307263Y-2578383D01*
X9350008Y-2599384D02*
X9350008Y-2599384D01*
X9406254Y-7710552D02*
X9409302Y-7723620D01*
X3100000Y-2299397D02*
X3084517Y-2299786D01*
X2829495Y-2469111D02*
X2823503Y-2482407D01*
X9378249Y-7657356D02*
X9380273Y-7658659D01*
X9426958Y-2475270D02*
X9421752Y-2487364D01*
X2887675Y-2387072D02*
X2877754Y-2397480D01*
X2843312Y-2443608D02*
X2836105Y-2456172D01*
X2969713Y-7919902D02*
X2983009Y-7925894D01*
X9403709Y-2551964D02*
X9403708Y-2551996D01*
X2803444Y-7695203D02*
X2806074Y-7710006D01*
X9000000Y-7949397D02*
X9014073Y-7949076D01*
X9393975Y-2576825D02*
X9392530Y-2578743D01*
X12748901Y-2371890D02*
X12740553Y-2364020D01*
X9432670Y-7785341D02*
X9438873Y-7796864D01*
X2806074Y-2538789D02*
X2803444Y-2553591D01*
X9027976Y-7948122D02*
X9041694Y-7946549D01*
X9686066Y-2299716D02*
X9672297Y-2300661D01*
X9581708Y-2323673D02*
X9569756Y-2329135D01*
X9445555Y-7808080D02*
X9452701Y-7818976D01*
X9317035Y-2588151D02*
X9315240Y-2586702D01*
X9196915Y-7876052D02*
X9206590Y-7867265D01*
X9297855Y-2559632D02*
X9297261Y-2557307D01*
X9382235Y-2588745D02*
X9380273Y-2590135D01*
X9279431Y-7759055D02*
X9284018Y-7746505D01*
X12667959Y-7925861D02*
X12691042Y-7916490D01*
X9165669Y-2348987D02*
X9154561Y-2341984D01*
X9468333Y-7839751D02*
X9476792Y-7849602D01*
X12500000Y-7949398D02*
X12530758Y-7948833D01*
X12500000Y-2299397D02*
X9700000Y-2299397D01*
X9384131Y-7661523D02*
X9385958Y-7663078D01*
X9154561Y-7906811D02*
X9165669Y-7899807D01*
X12763896Y-2389265D02*
X12756689Y-2380301D01*
X9569756Y-2329135D02*
X9558093Y-2335098D01*
X9176440Y-2356458D02*
X9165669Y-2348987D01*
X9400778Y-7684751D02*
X9401576Y-7687067D01*
X9371823Y-7653988D02*
X9374021Y-7655017D01*
X9399880Y-2566311D02*
X9398884Y-2568528D01*
X12798459Y-2482507D02*
X12796558Y-2468634D01*
X9335673Y-7651332D02*
X9337975Y-7650755D01*
X9432669Y-2463455D02*
X9426958Y-2475270D01*
X2836105Y-2456172D02*
X2829495Y-2469111D01*
X9619156Y-7938358D02*
X9632124Y-7941673D01*
X9593934Y-7930069D02*
X9606421Y-7934485D01*
X12667959Y-2322935D02*
X12655790Y-2318906D01*
X12800003Y-7736509D02*
X12800003Y-7736509D01*
X12691042Y-2332305D02*
X12679716Y-2327396D01*
X3010598Y-7935954D02*
X3024854Y-7939984D01*
X12799614Y-2497053D02*
X12798459Y-2482507D01*
X12796558Y-7780162D02*
X12798459Y-7766289D01*
X2877754Y-7851315D02*
X2887675Y-7861722D01*
X12500000Y-2299397D02*
X12500000Y-2299397D01*
X9376164Y-7656141D02*
X9378249Y-7657356D01*
X12616991Y-2309289D02*
X12589402Y-2304802D01*
X9369573Y-7653056D02*
X9371823Y-7653988D01*
X2983009Y-7925894D02*
X2996644Y-7931251D01*
X9392530Y-7670051D02*
X9393975Y-7671970D01*
X9403752Y-7697155D02*
X9403765Y-7697216D01*
X9350008Y-7649411D02*
X9352581Y-7649471D01*
X9298545Y-2561916D02*
X9297855Y-2559632D01*
X9355123Y-7649650D02*
X9357631Y-7649944D01*
X9392530Y-2578743D02*
X9391003Y-2580595D01*
X9154561Y-2341984D02*
X9143128Y-2335462D01*
X9143129Y-7913333D02*
X9154561Y-7906811D01*
X9307264Y-7670412D02*
X9308718Y-7668613D01*
X2969713Y-2328893D02*
X2956774Y-2335502D01*
X9068521Y-2307195D02*
X9055213Y-2304425D01*
X9313508Y-7663617D02*
X9315240Y-7662093D01*
X2809413Y-7724544D02*
X2813443Y-7738799D01*
X9357631Y-7649944D02*
X9360103Y-7650351D01*
X9333410Y-7652008D02*
X9335673Y-7651332D01*
X9524969Y-7892937D02*
X9535686Y-7900321D01*
X3069242Y-7947854D02*
X3084517Y-7949008D01*
X2956774Y-2335502D02*
X2944211Y-2342710D01*
X9400778Y-2564044D02*
X9399880Y-2566311D01*
X2877754Y-2397480D02*
X2868339Y-2408356D01*
X9224748Y-7848470D02*
X9233202Y-7838491D01*
X9658709Y-2302220D02*
X9645313Y-2304379D01*
X2823503Y-7766388D02*
X2829495Y-7779684D01*
X9504575Y-7876843D02*
X9514594Y-7885106D01*
X9672297Y-7948134D02*
X9686066Y-7949080D01*
X9302226Y-2570580D02*
X9301173Y-2568489D01*
X9364926Y-2597301D02*
X9362535Y-2597926D01*
X2800389Y-7664881D02*
X2801543Y-7680155D01*
X9438873Y-2451932D02*
X9432669Y-2463455D01*
X2803444Y-2553591D02*
X2801543Y-2568639D01*
X9310245Y-7666879D02*
X9311842Y-7665213D01*
X9468332Y-2409045D02*
X9460297Y-2419258D01*
X2813443Y-7738799D02*
X2818146Y-7752754D01*
X9606421Y-7934485D02*
X9619156Y-7938358D01*
X3024854Y-2308810D02*
X3010598Y-2312841D01*
X9403721Y-7696964D02*
X9403730Y-7697029D01*
X9395336Y-7673954D02*
X9396609Y-7676000D01*
X9302226Y-7678215D02*
X9303364Y-7676178D01*
X12756689Y-2380301D02*
X12748901Y-2371890D01*
X9303364Y-2572617D02*
X9302226Y-2570580D01*
X3084517Y-2299786D02*
X3069242Y-2300941D01*
X9342692Y-7649902D02*
X9345101Y-7649631D01*
X9387714Y-7664710D02*
X9389397Y-7666419D01*
X9350008Y-2599384D02*
X9347540Y-2599328D01*
X9041694Y-2302246D02*
X9027976Y-2300673D01*
X9326886Y-2594200D02*
X9324807Y-2593157D01*
X9403752Y-2551648D02*
X9403740Y-2551711D01*
X12722246Y-2349847D02*
X12712325Y-2343517D01*
X12712325Y-7905279D02*
X12722246Y-7898949D01*
X9403765Y-7697216D02*
X9403778Y-7697275D01*
X2800000Y-5124398D02*
X2800000Y-5124398D01*
X9686066Y-7949080D02*
X9700000Y-7949398D01*
X9329014Y-2595154D02*
X9326886Y-2594200D01*
X9337975Y-2598040D02*
X9335672Y-2597462D01*
X9700000Y-7949398D02*
X9700000Y-7949398D01*
X9340316Y-7650277D02*
X9342692Y-7649902D01*
X9403778Y-7697275D02*
X9406254Y-7710552D01*
X9535686Y-7900321D02*
X9546732Y-7907247D01*
X9131387Y-2329433D02*
X9119349Y-2323914D01*
X9284018Y-2502290D02*
X9279431Y-2489740D01*
X12643226Y-7933498D02*
X12667959Y-7925861D01*
X9409302Y-2525176D02*
X9406253Y-2538244D01*
X2801543Y-2568639D02*
X2800389Y-2583914D01*
X12800003Y-7736509D02*
X12800003Y-5124398D01*
X9700000Y-7949398D02*
X12500000Y-7949398D01*
X9322781Y-7656766D02*
X9324808Y-7655637D01*
X9403777Y-2551521D02*
X9403777Y-2551521D01*
X9402859Y-7691836D02*
X9403339Y-7694282D01*
X9291540Y-7720642D02*
X9294447Y-7707356D01*
X9119349Y-2323914D02*
X9107030Y-2318916D01*
X9326886Y-7654595D02*
X9329015Y-7653641D01*
X9403729Y-2551774D02*
X9403720Y-2551838D01*
X9297855Y-7689163D02*
X9298546Y-7686879D01*
X9535685Y-2348474D02*
X9524968Y-2355859D01*
X2800000Y-5124398D02*
X2800000Y-7649397D01*
X9389397Y-2582376D02*
X9387714Y-2584084D01*
X9340315Y-2598517D02*
X9337975Y-2598040D01*
X9371823Y-2594806D02*
X9369573Y-2595738D01*
X9380273Y-2590135D02*
X9378248Y-2591439D01*
X9421752Y-2487364D02*
X9417065Y-2499722D01*
X9403730Y-7697029D02*
X9403740Y-7697093D01*
X9362535Y-2597926D02*
X9360102Y-2598444D01*
X2859448Y-7829113D02*
X2868339Y-7840439D01*
X9333409Y-2596787D02*
X9331189Y-2596017D01*
X12793928Y-7793374D02*
X12796558Y-7780162D01*
X9593934Y-2318727D02*
X9581708Y-2323673D01*
X9345100Y-2599164D02*
X9342691Y-2598893D01*
X9303364Y-7676178D02*
X9304585Y-7674197D01*
X2851100Y-7817356D02*
X2859448Y-7829113D01*
X9632124Y-7941673D02*
X9645313Y-7944417D01*
X2898083Y-2377152D02*
X2887675Y-2387072D01*
X12790589Y-2442856D02*
X12786558Y-2430924D01*
X9391003Y-7668200D02*
X9392530Y-7670051D01*
X9403778Y-7697275D02*
X9403778Y-7697275D01*
X12786558Y-2430924D02*
X12781855Y-2419612D01*
X9391003Y-2580595D02*
X9389397Y-2582376D01*
X9514594Y-7885106D02*
X9524969Y-7892937D01*
X2908958Y-2367737D02*
X2898083Y-2377152D01*
X12776498Y-7839889D02*
X12781855Y-7829184D01*
X9619156Y-2310438D02*
X9606421Y-2314310D01*
X9558093Y-2335098D02*
X9546732Y-2341549D01*
X3069242Y-2300941D02*
X3054194Y-2302842D01*
X9291540Y-2528153D02*
X9288059Y-2515099D01*
X9355122Y-2599145D02*
X9352580Y-2599324D01*
X9318892Y-2589524D02*
X9317035Y-2588151D01*
X9215872Y-2390728D02*
X9206590Y-2381530D01*
X2944211Y-2342710D02*
X2932041Y-2350497D01*
X9389397Y-7666419D02*
X9391003Y-7668200D01*
X9298546Y-7686879D02*
X9299330Y-7684641D01*
X12701918Y-7911121D02*
X12712325Y-7905279D01*
X9397793Y-7678105D02*
X9398884Y-7680267D01*
X9315240Y-7662093D02*
X9317036Y-7660644D01*
X2818146Y-2496041D02*
X2813443Y-2509995D01*
X3039392Y-2305471D02*
X3024854Y-2308810D01*
D11*
D12*
X3015000Y-2515000D02*
X3285000Y-2785000D01*
X3285000Y-2515000D02*
X3015000Y-2785000D01*
X3015000Y-7465000D02*
X3285000Y-7735000D01*
X3285000Y-7465000D02*
X3015000Y-7735000D01*
X8815000Y-2515000D02*
X9085000Y-2785000D01*
X9085000Y-2515000D02*
X8815000Y-2785000D01*
X8815000Y-7465000D02*
X9085000Y-7735000D01*
X9085000Y-7465000D02*
X8815000Y-7735000D01*
X12315000Y-2515000D02*
X12585000Y-2785000D01*
X12585000Y-2515000D02*
X12315000Y-2785000D01*
X12315000Y-7465000D02*
X12585000Y-7735000D01*
X12585000Y-7465000D02*
X12315000Y-7735000D01*
D11*
X3044390Y-8273104D02*
X3044390Y-8073104D01*
X3092009Y-8073104D01*
X3120580Y-8082627D01*
X3139628Y-8101675D01*
X3149152Y-8120723D01*
X3158676Y-8158818D01*
X3158676Y-8187389D01*
X3149152Y-8225485D01*
X3139628Y-8244532D01*
X3120580Y-8263580D01*
X3092009Y-8273104D01*
X3044390Y-8273104D01*
X3244390Y-8273104D02*
X3244390Y-8139770D01*
X3244390Y-8177865D02*
X3253914Y-8158818D01*
X3263437Y-8149294D01*
X3282485Y-8139770D01*
X3301533Y-8139770D01*
X3368199Y-8273104D02*
X3368199Y-8139770D01*
X3368199Y-8073104D02*
X3358676Y-8082627D01*
X3368199Y-8092151D01*
X3377723Y-8082627D01*
X3368199Y-8073104D01*
X3368199Y-8092151D01*
X3492009Y-8273104D02*
X3472961Y-8263580D01*
X3463437Y-8244532D01*
X3463437Y-8073104D01*
X3596771Y-8273104D02*
X3577723Y-8263580D01*
X3568199Y-8244532D01*
X3568199Y-8073104D01*
X3825342Y-8273104D02*
X3825342Y-8073104D01*
X3892009Y-8215961D01*
X3958676Y-8073104D01*
X3958676Y-8273104D01*
X4139628Y-8273104D02*
X4139628Y-8168342D01*
X4130104Y-8149294D01*
X4111057Y-8139770D01*
X4072961Y-8139770D01*
X4053914Y-8149294D01*
X4139628Y-8263580D02*
X4120580Y-8273104D01*
X4072961Y-8273104D01*
X4053914Y-8263580D01*
X4044390Y-8244532D01*
X4044390Y-8225485D01*
X4053914Y-8206437D01*
X4072961Y-8196913D01*
X4120580Y-8196913D01*
X4139628Y-8187389D01*
X4234866Y-8139770D02*
X4234866Y-8339770D01*
X4234866Y-8149294D02*
X4253914Y-8139770D01*
X4292009Y-8139770D01*
X4311057Y-8149294D01*
X4320580Y-8158818D01*
X4330104Y-8177865D01*
X4330104Y-8235008D01*
X4320580Y-8254056D01*
X4311057Y-8263580D01*
X4292009Y-8273104D01*
X4253914Y-8273104D01*
X4234866Y-8263580D01*
X4415819Y-8254056D02*
X4425342Y-8263580D01*
X4415819Y-8273104D01*
X4406295Y-8263580D01*
X4415819Y-8254056D01*
X4415819Y-8273104D01*
X4415819Y-8149294D02*
X4425342Y-8158818D01*
X4415819Y-8168342D01*
X4406295Y-8158818D01*
X4415819Y-8149294D01*
X4415819Y-8168342D01*
X2586771Y-8502628D02*
X2786771Y-8702628D01*
X2786771Y-8502628D02*
X2586771Y-8702628D01*
X3034866Y-8512151D02*
X3044390Y-8502628D01*
X3063437Y-8493104D01*
X3111057Y-8493104D01*
X3130104Y-8502628D01*
X3139628Y-8512151D01*
X3149152Y-8531199D01*
X3149152Y-8550247D01*
X3139628Y-8578818D01*
X3025342Y-8693104D01*
X3149152Y-8693104D01*
X3234866Y-8674056D02*
X3244390Y-8683580D01*
X3234866Y-8693104D01*
X3225342Y-8683580D01*
X3234866Y-8674056D01*
X3234866Y-8693104D01*
X3311057Y-8493104D02*
X3444390Y-8493104D01*
X3358676Y-8693104D01*
X3558676Y-8493104D02*
X3577723Y-8493104D01*
X3596771Y-8502628D01*
X3606295Y-8512151D01*
X3615818Y-8531199D01*
X3625342Y-8569294D01*
X3625342Y-8616913D01*
X3615818Y-8655008D01*
X3606295Y-8674056D01*
X3596771Y-8683580D01*
X3577723Y-8693104D01*
X3558676Y-8693104D01*
X3539628Y-8683580D01*
X3530104Y-8674056D01*
X3520580Y-8655008D01*
X3511057Y-8616913D01*
X3511057Y-8569294D01*
X3520580Y-8531199D01*
X3530104Y-8512151D01*
X3539628Y-8502628D01*
X3558676Y-8493104D01*
X3749152Y-8493104D02*
X3768199Y-8493104D01*
X3787247Y-8502628D01*
X3796771Y-8512151D01*
X3806295Y-8531199D01*
X3815818Y-8569294D01*
X3815818Y-8616913D01*
X3806295Y-8655008D01*
X3796771Y-8674056D01*
X3787247Y-8683580D01*
X3768199Y-8693104D01*
X3749152Y-8693104D01*
X3730104Y-8683580D01*
X3720580Y-8674056D01*
X3711057Y-8655008D01*
X3701533Y-8616913D01*
X3701533Y-8569294D01*
X3711057Y-8531199D01*
X3720580Y-8512151D01*
X3730104Y-8502628D01*
X3749152Y-8493104D01*
X3901533Y-8693104D02*
X3901533Y-8559770D01*
X3901533Y-8578818D02*
X3911057Y-8569294D01*
X3930104Y-8559770D01*
X3958676Y-8559770D01*
X3977723Y-8569294D01*
X3987247Y-8588342D01*
X3987247Y-8693104D01*
X3987247Y-8588342D02*
X3996771Y-8569294D01*
X4015818Y-8559770D01*
X4044390Y-8559770D01*
X4063437Y-8569294D01*
X4072961Y-8588342D01*
X4072961Y-8693104D01*
X4168199Y-8693104D02*
X4168199Y-8559770D01*
X4168199Y-8578818D02*
X4177723Y-8569294D01*
X4196771Y-8559770D01*
X4225342Y-8559770D01*
X4244390Y-8569294D01*
X4253914Y-8588342D01*
X4253914Y-8693104D01*
X4253914Y-8588342D02*
X4263438Y-8569294D01*
X4282485Y-8559770D01*
X4311057Y-8559770D01*
X4330104Y-8569294D01*
X4339628Y-8588342D01*
X4339628Y-8693104D01*
X4730104Y-8483580D02*
X4558676Y-8740723D01*
X4987247Y-8493104D02*
X5006295Y-8493104D01*
X5025342Y-8502628D01*
X5034866Y-8512151D01*
X5044390Y-8531199D01*
X5053914Y-8569294D01*
X5053914Y-8616913D01*
X5044390Y-8655008D01*
X5034866Y-8674056D01*
X5025342Y-8683580D01*
X5006295Y-8693104D01*
X4987247Y-8693104D01*
X4968199Y-8683580D01*
X4958676Y-8674056D01*
X4949152Y-8655008D01*
X4939628Y-8616913D01*
X4939628Y-8569294D01*
X4949152Y-8531199D01*
X4958676Y-8512151D01*
X4968199Y-8502628D01*
X4987247Y-8493104D01*
X5139628Y-8674056D02*
X5149152Y-8683580D01*
X5139628Y-8693104D01*
X5130104Y-8683580D01*
X5139628Y-8674056D01*
X5139628Y-8693104D01*
X5339628Y-8693104D02*
X5225342Y-8693104D01*
X5282485Y-8693104D02*
X5282485Y-8493104D01*
X5263438Y-8521675D01*
X5244390Y-8540723D01*
X5225342Y-8550247D01*
X5463438Y-8493104D02*
X5482485Y-8493104D01*
X5501533Y-8502628D01*
X5511057Y-8512151D01*
X5520580Y-8531199D01*
X5530104Y-8569294D01*
X5530104Y-8616913D01*
X5520580Y-8655008D01*
X5511057Y-8674056D01*
X5501533Y-8683580D01*
X5482485Y-8693104D01*
X5463438Y-8693104D01*
X5444390Y-8683580D01*
X5434866Y-8674056D01*
X5425342Y-8655008D01*
X5415819Y-8616913D01*
X5415819Y-8569294D01*
X5425342Y-8531199D01*
X5434866Y-8512151D01*
X5444390Y-8502628D01*
X5463438Y-8493104D01*
X5701533Y-8493104D02*
X5663437Y-8493104D01*
X5644390Y-8502628D01*
X5634866Y-8512151D01*
X5615818Y-8540723D01*
X5606295Y-8578818D01*
X5606295Y-8655008D01*
X5615818Y-8674056D01*
X5625342Y-8683580D01*
X5644390Y-8693104D01*
X5682485Y-8693104D01*
X5701533Y-8683580D01*
X5711057Y-8674056D01*
X5720580Y-8655008D01*
X5720580Y-8607389D01*
X5711057Y-8588342D01*
X5701533Y-8578818D01*
X5682485Y-8569294D01*
X5644390Y-8569294D01*
X5625342Y-8578818D01*
X5615818Y-8588342D01*
X5606295Y-8607389D01*
X5787247Y-8493104D02*
X5911057Y-8493104D01*
X5844390Y-8569294D01*
X5872961Y-8569294D01*
X5892009Y-8578818D01*
X5901533Y-8588342D01*
X5911057Y-8607389D01*
X5911057Y-8655008D01*
X5901533Y-8674056D01*
X5892009Y-8683580D01*
X5872961Y-8693104D01*
X5815818Y-8693104D01*
X5796771Y-8683580D01*
X5787247Y-8674056D01*
X5987247Y-8493104D02*
X5987247Y-8531199D01*
X6063437Y-8493104D02*
X6063437Y-8531199D01*
X6358676Y-8769294D02*
X6349152Y-8759770D01*
X6330104Y-8731199D01*
X6320580Y-8712151D01*
X6311057Y-8683580D01*
X6301533Y-8635961D01*
X6301533Y-8597866D01*
X6311057Y-8550247D01*
X6320580Y-8521675D01*
X6330104Y-8502628D01*
X6349152Y-8474056D01*
X6358676Y-8464532D01*
X6520580Y-8493104D02*
X6482485Y-8493104D01*
X6463437Y-8502628D01*
X6453914Y-8512151D01*
X6434866Y-8540723D01*
X6425342Y-8578818D01*
X6425342Y-8655008D01*
X6434866Y-8674056D01*
X6444390Y-8683580D01*
X6463437Y-8693104D01*
X6501533Y-8693104D01*
X6520580Y-8683580D01*
X6530104Y-8674056D01*
X6539628Y-8655008D01*
X6539628Y-8607389D01*
X6530104Y-8588342D01*
X6520580Y-8578818D01*
X6501533Y-8569294D01*
X6463437Y-8569294D01*
X6444390Y-8578818D01*
X6434866Y-8588342D01*
X6425342Y-8607389D01*
X6777723Y-8693104D02*
X6777723Y-8493104D01*
X6863437Y-8693104D02*
X6863437Y-8588342D01*
X6853914Y-8569294D01*
X6834866Y-8559770D01*
X6806295Y-8559770D01*
X6787247Y-8569294D01*
X6777723Y-8578818D01*
X6987247Y-8693104D02*
X6968199Y-8683580D01*
X6958676Y-8674056D01*
X6949152Y-8655008D01*
X6949152Y-8597866D01*
X6958676Y-8578818D01*
X6968199Y-8569294D01*
X6987247Y-8559770D01*
X7015818Y-8559770D01*
X7034866Y-8569294D01*
X7044390Y-8578818D01*
X7053914Y-8597866D01*
X7053914Y-8655008D01*
X7044390Y-8674056D01*
X7034866Y-8683580D01*
X7015818Y-8693104D01*
X6987247Y-8693104D01*
X7168199Y-8693104D02*
X7149152Y-8683580D01*
X7139628Y-8664532D01*
X7139628Y-8493104D01*
X7320580Y-8683580D02*
X7301533Y-8693104D01*
X7263437Y-8693104D01*
X7244390Y-8683580D01*
X7234866Y-8664532D01*
X7234866Y-8588342D01*
X7244390Y-8569294D01*
X7263437Y-8559770D01*
X7301533Y-8559770D01*
X7320580Y-8569294D01*
X7330104Y-8588342D01*
X7330104Y-8607389D01*
X7234866Y-8626437D01*
X7406295Y-8683580D02*
X7425342Y-8693104D01*
X7463437Y-8693104D01*
X7482485Y-8683580D01*
X7492009Y-8664532D01*
X7492009Y-8655008D01*
X7482485Y-8635961D01*
X7463437Y-8626437D01*
X7434866Y-8626437D01*
X7415818Y-8616913D01*
X7406295Y-8597866D01*
X7406295Y-8588342D01*
X7415818Y-8569294D01*
X7434866Y-8559770D01*
X7463437Y-8559770D01*
X7482485Y-8569294D01*
X7558676Y-8769294D02*
X7568199Y-8759770D01*
X7587247Y-8731199D01*
X7596771Y-8712151D01*
X7606295Y-8683580D01*
X7615818Y-8635961D01*
X7615818Y-8597866D01*
X7606295Y-8550247D01*
X7596771Y-8521675D01*
X7587247Y-8502628D01*
X7568199Y-8474056D01*
X7558676Y-8464532D01*
X7920580Y-8769294D02*
X7911057Y-8759770D01*
X7892009Y-8731199D01*
X7882485Y-8712151D01*
X7872961Y-8683580D01*
X7863437Y-8635961D01*
X7863437Y-8597866D01*
X7872961Y-8550247D01*
X7882485Y-8521675D01*
X7892009Y-8502628D01*
X7911057Y-8474056D01*
X7920580Y-8464532D01*
X7996771Y-8559770D02*
X7996771Y-8693104D01*
X7996771Y-8578818D02*
X8006295Y-8569294D01*
X8025342Y-8559770D01*
X8053914Y-8559770D01*
X8072961Y-8569294D01*
X8082485Y-8588342D01*
X8082485Y-8693104D01*
X8206295Y-8693104D02*
X8187247Y-8683580D01*
X8177723Y-8674056D01*
X8168199Y-8655008D01*
X8168199Y-8597866D01*
X8177723Y-8578818D01*
X8187247Y-8569294D01*
X8206295Y-8559770D01*
X8234866Y-8559770D01*
X8253914Y-8569294D01*
X8263437Y-8578818D01*
X8272961Y-8597866D01*
X8272961Y-8655008D01*
X8263437Y-8674056D01*
X8253914Y-8683580D01*
X8234866Y-8693104D01*
X8206295Y-8693104D01*
X8330104Y-8559770D02*
X8406295Y-8559770D01*
X8358676Y-8493104D02*
X8358676Y-8664532D01*
X8368199Y-8683580D01*
X8387247Y-8693104D01*
X8406295Y-8693104D01*
X8625342Y-8559770D02*
X8625342Y-8759770D01*
X8625342Y-8569294D02*
X8644390Y-8559770D01*
X8682485Y-8559770D01*
X8701533Y-8569294D01*
X8711057Y-8578818D01*
X8720580Y-8597866D01*
X8720580Y-8655008D01*
X8711057Y-8674056D01*
X8701533Y-8683580D01*
X8682485Y-8693104D01*
X8644390Y-8693104D01*
X8625342Y-8683580D01*
X8834866Y-8693104D02*
X8815819Y-8683580D01*
X8806295Y-8664532D01*
X8806295Y-8493104D01*
X8996771Y-8693104D02*
X8996771Y-8588342D01*
X8987247Y-8569294D01*
X8968199Y-8559770D01*
X8930104Y-8559770D01*
X8911057Y-8569294D01*
X8996771Y-8683580D02*
X8977723Y-8693104D01*
X8930104Y-8693104D01*
X8911057Y-8683580D01*
X8901533Y-8664532D01*
X8901533Y-8645485D01*
X8911057Y-8626437D01*
X8930104Y-8616913D01*
X8977723Y-8616913D01*
X8996771Y-8607389D01*
X9063438Y-8559770D02*
X9139628Y-8559770D01*
X9092009Y-8493104D02*
X9092009Y-8664532D01*
X9101533Y-8683580D01*
X9120580Y-8693104D01*
X9139628Y-8693104D01*
X9282485Y-8683580D02*
X9263438Y-8693104D01*
X9225342Y-8693104D01*
X9206295Y-8683580D01*
X9196771Y-8664532D01*
X9196771Y-8588342D01*
X9206295Y-8569294D01*
X9225342Y-8559770D01*
X9263438Y-8559770D01*
X9282485Y-8569294D01*
X9292009Y-8588342D01*
X9292009Y-8607389D01*
X9196771Y-8626437D01*
X9463438Y-8693104D02*
X9463438Y-8493104D01*
X9463438Y-8683580D02*
X9444390Y-8693104D01*
X9406295Y-8693104D01*
X9387247Y-8683580D01*
X9377723Y-8674056D01*
X9368199Y-8655008D01*
X9368199Y-8597866D01*
X9377723Y-8578818D01*
X9387247Y-8569294D01*
X9406295Y-8559770D01*
X9444390Y-8559770D01*
X9463438Y-8569294D01*
X9539628Y-8769294D02*
X9549152Y-8759770D01*
X9568199Y-8731199D01*
X9577723Y-8712151D01*
X9587247Y-8683580D01*
X9596771Y-8635961D01*
X9596771Y-8597866D01*
X9587247Y-8550247D01*
X9577723Y-8521675D01*
X9568199Y-8502628D01*
X9549152Y-8474056D01*
X9539628Y-8464532D01*
M02*
