%TF.GenerationSoftware,KiCad,Pcbnew,6.0.7-1.fc36*%
%TF.CreationDate,2022-08-13T19:35:49+02:00*%
%TF.ProjectId,drahtlos_klingel,64726168-746c-46f7-935f-6b6c696e6765,rev?*%
%TF.SameCoordinates,Original*%
%TF.FileFunction,Drillmap*%
%TF.FilePolarity,Positive*%
%FSLAX45Y45*%
G04 Gerber Fmt 4.5, Leading zero omitted, Abs format (unit mm)*
G04 Created by KiCad (PCBNEW 6.0.7-1.fc36) date 2022-08-13 19:35:49*
%MOMM*%
%LPD*%
G01*
G04 APERTURE LIST*
%ADD10C,0.264583*%
%ADD11C,0.200000*%
%ADD12C,0.040000*%
%ADD13C,0.070000*%
%ADD14C,0.080000*%
%ADD15C,0.100000*%
%ADD16C,0.120000*%
%ADD17C,0.152000*%
G04 APERTURE END LIST*
D10*
X9352581Y-7649471D02*
X9355123Y-7649650D01*
X9288059Y-2515099D02*
X9284018Y-2502290D01*
X9398884Y-7680267D02*
X9399880Y-7682483D01*
X9165669Y-7899807D02*
X9176440Y-7892337D01*
X3084517Y-7949008D02*
X3100000Y-7949397D01*
X9345101Y-7649631D02*
X9347540Y-7649466D01*
X9131387Y-7919361D02*
X9143129Y-7913333D01*
X9307263Y-2578383D02*
X9305885Y-2576521D01*
X9395335Y-2574841D02*
X9393975Y-2576825D01*
X9403720Y-2551838D02*
X9403713Y-2551901D01*
X2920284Y-7889949D02*
X2932041Y-7898298D01*
X9143128Y-2335462D02*
X9131387Y-2329433D01*
X2908958Y-7881058D02*
X2920284Y-7889949D01*
X9374021Y-7655017D02*
X9376164Y-7656141D01*
X9241222Y-7828141D02*
X9248793Y-7817436D01*
X12776498Y-2408907D02*
X12770506Y-2398796D01*
X9524968Y-2355859D02*
X9514594Y-2363690D01*
X3024854Y-7939984D02*
X3039392Y-7943323D01*
X9255901Y-2442407D02*
X9248793Y-2431359D01*
X9401576Y-2561727D02*
X9400778Y-2564044D01*
X9504575Y-2371953D02*
X9494926Y-2380634D01*
X9331189Y-2596017D02*
X9329014Y-2595154D01*
X9378248Y-2591439D02*
X9376163Y-2592654D01*
X12740553Y-7884776D02*
X12748901Y-7876906D01*
X9403710Y-7696833D02*
X9403714Y-7696899D01*
X9396609Y-7676000D02*
X9397793Y-7678105D01*
X9558094Y-7913698D02*
X9569757Y-7919661D01*
X9014073Y-2299718D02*
X9000000Y-2299397D01*
X9402858Y-2556959D02*
X9402270Y-2559365D01*
X2800000Y-2599397D02*
X2800000Y-2599397D01*
X12798459Y-7766289D02*
X12799614Y-7751743D01*
X9241222Y-2420654D02*
X9233202Y-2410304D01*
X9700000Y-2299397D02*
X9700000Y-2299397D01*
X9606421Y-2314310D02*
X9593934Y-2318727D01*
X9248793Y-2431359D02*
X9241222Y-2420654D01*
X2887675Y-7861722D02*
X2898083Y-7871643D01*
X2823503Y-2482407D02*
X2818146Y-2496041D01*
X9055213Y-2304425D02*
X9041694Y-2302246D01*
X12643226Y-2315298D02*
X12630287Y-2312097D01*
X12712325Y-2343517D02*
X12701918Y-2337674D01*
X12800003Y-5124398D02*
X12800003Y-5124398D01*
X2996644Y-7931251D02*
X3010598Y-7935954D01*
X9262534Y-7795013D02*
X9268675Y-7783322D01*
X9700000Y-2299397D02*
X9686066Y-2299716D01*
X9476792Y-7849602D02*
X9485661Y-7859077D01*
X9403708Y-7696767D02*
X9403708Y-7696767D01*
X2829495Y-7779684D02*
X2836105Y-7792623D01*
X9494926Y-7868162D02*
X9504575Y-7876843D01*
X9335672Y-2597462D02*
X9333409Y-2596787D01*
X9304585Y-7674197D02*
X9305885Y-7672274D01*
X9206590Y-2381530D02*
X9196915Y-2372743D01*
X9119350Y-7924881D02*
X9131387Y-7919361D01*
X9581708Y-7925123D02*
X9593934Y-7930069D01*
X9297262Y-7691488D02*
X9297855Y-7689163D01*
X9027976Y-2300673D02*
X9014073Y-2299718D01*
X9206590Y-7867265D02*
X9215872Y-7858067D01*
X9288059Y-7733696D02*
X9291540Y-7720642D01*
X9324807Y-2593157D02*
X9322781Y-2592029D01*
X9186860Y-2364380D02*
X9176440Y-2356458D01*
X9268675Y-2465472D02*
X9262533Y-2453782D01*
X9274312Y-7771332D02*
X9279431Y-7759055D01*
X9384130Y-2587271D02*
X9382235Y-2588745D01*
X9324808Y-7655637D02*
X9326886Y-7654595D01*
X9385958Y-2585717D02*
X9384130Y-2587271D01*
X9313508Y-2585178D02*
X9311842Y-2583582D01*
X9311842Y-2583582D02*
X9310244Y-2581916D01*
X12655790Y-2318906D02*
X12643226Y-2315298D01*
X9382235Y-7660049D02*
X9384131Y-7661523D01*
X9317036Y-7660644D02*
X9318893Y-7659271D01*
X9396609Y-2572795D02*
X9395335Y-2574841D01*
X2800000Y-7649397D02*
X2800389Y-7664881D01*
X9196915Y-2372743D02*
X9186860Y-2364380D01*
X9403740Y-7697093D02*
X9403752Y-7697155D01*
X9331190Y-7652778D02*
X9333410Y-7652008D01*
X9308718Y-7668613D02*
X9310245Y-7666879D01*
X9248793Y-7817436D02*
X9255902Y-7806388D01*
X12756689Y-7868495D02*
X12763896Y-7859531D01*
X3100000Y-7949397D02*
X3100000Y-7949397D01*
X12500000Y-7949398D02*
X12500000Y-7949398D01*
X9081602Y-7938252D02*
X9094443Y-7934340D01*
X2813443Y-2509995D02*
X2809413Y-2524251D01*
X9546732Y-7907247D02*
X9558094Y-7913698D01*
X12786558Y-7817872D02*
X12790589Y-7805940D01*
X9337975Y-7650755D02*
X9340316Y-7650277D01*
X9403707Y-2552028D02*
X9403338Y-2554512D01*
X9186860Y-7884414D02*
X9196915Y-7876052D01*
X9398884Y-2568528D02*
X9397793Y-2570690D01*
X9347540Y-2599328D02*
X9345100Y-2599164D01*
X9367273Y-2596571D02*
X9364926Y-2597301D01*
X12790589Y-7805940D02*
X12793928Y-7793374D01*
X12691042Y-7916490D02*
X12701918Y-7911121D01*
X12770506Y-7850000D02*
X12776498Y-7839889D01*
X9426959Y-7773526D02*
X9432670Y-7785341D01*
X9360102Y-2598444D02*
X9357630Y-2598851D01*
X9409302Y-7723620D02*
X9412911Y-7736465D01*
X9296766Y-2554941D02*
X9296766Y-2554941D01*
X2920284Y-2358845D02*
X2908958Y-2367737D01*
X9301173Y-2568489D02*
X9300206Y-2566346D01*
X2983009Y-2322900D02*
X2969713Y-2328893D01*
X9305885Y-2576521D02*
X9304584Y-2574598D01*
X9081602Y-2310543D02*
X9068521Y-2307195D01*
X9296766Y-2554941D02*
X9294447Y-2541438D01*
X9329015Y-7653641D02*
X9331190Y-7652778D01*
X12616991Y-7939506D02*
X12643226Y-7933498D01*
X9417065Y-2499722D02*
X9412910Y-2512331D01*
X9403707Y-2552028D02*
X9403707Y-2552028D01*
X9342691Y-2598893D02*
X9340315Y-2598517D01*
X9376163Y-2592654D02*
X9374021Y-2593777D01*
X9397793Y-2570690D02*
X9396609Y-2572795D01*
X9403708Y-7696767D02*
X9403708Y-7696800D01*
X9460298Y-7829538D02*
X9468333Y-7839751D01*
X2932041Y-2350497D02*
X2920284Y-2358845D01*
X9297261Y-2557307D02*
X9296766Y-2554941D01*
X9546732Y-2341549D02*
X9535685Y-2348474D01*
X2956774Y-7913293D02*
X2969713Y-7919902D01*
X9279431Y-2489740D02*
X9274312Y-2477463D01*
X9445554Y-2440716D02*
X9438873Y-2451932D01*
X9215872Y-7858067D02*
X9224748Y-7848470D01*
X9224748Y-2400324D02*
X9215872Y-2390728D01*
X9296767Y-7693854D02*
X9297262Y-7691488D01*
X3039392Y-7943323D02*
X3054194Y-7945953D01*
X9403708Y-7696800D02*
X9403710Y-7696833D01*
X12530758Y-2299962D02*
X12500000Y-2299397D01*
X9176440Y-7892337D02*
X9186860Y-7884414D01*
X3010598Y-2312841D02*
X2996644Y-2317544D01*
X2800000Y-2599397D02*
X2800000Y-5124398D01*
X9362535Y-7650868D02*
X9364926Y-7651494D01*
X9412911Y-7736465D02*
X9417066Y-7749074D01*
X12800003Y-2512287D02*
X12799614Y-2497053D01*
X9403714Y-7696899D02*
X9403721Y-7696964D01*
X9094443Y-2314455D02*
X9081602Y-2310543D01*
X9294447Y-7707356D02*
X9296767Y-7693854D01*
X9041694Y-7946549D02*
X9055213Y-7944370D01*
X9352580Y-2599324D02*
X9350008Y-2599384D01*
X9233202Y-2410304D02*
X9224748Y-2400324D01*
X12589402Y-2304802D02*
X12560608Y-2301728D01*
X2836105Y-7792623D02*
X2843312Y-7805187D01*
X9417066Y-7749074D02*
X9421753Y-7761432D01*
X9452701Y-7818976D02*
X9460298Y-7829538D01*
X2996644Y-2317544D02*
X2983009Y-2322900D01*
X12701918Y-2337674D02*
X12691042Y-2332305D01*
X2800000Y-7649397D02*
X2800000Y-7649397D01*
X9403740Y-2551711D02*
X9403729Y-2551774D01*
X9402270Y-2559365D02*
X9401576Y-2561727D01*
X12589402Y-7943994D02*
X12616991Y-7939506D01*
X9485660Y-2389719D02*
X9476791Y-2399194D01*
X9380273Y-7658659D02*
X9382235Y-7660049D01*
X2898083Y-7871643D02*
X2908958Y-7881058D01*
X12793928Y-2455421D02*
X12790589Y-2442856D01*
X12560608Y-7947068D02*
X12589402Y-7943994D01*
X12781855Y-7829184D02*
X12786558Y-7817872D01*
X9310244Y-2581916D02*
X9308717Y-2580182D01*
X2944211Y-7906085D02*
X2956774Y-7913293D01*
X2801543Y-7680155D02*
X2803444Y-7695203D01*
X9000000Y-2299397D02*
X3100000Y-2299397D01*
X9320809Y-7657978D02*
X9322781Y-7656766D01*
X9268675Y-7783322D02*
X9274312Y-7771332D01*
X9360103Y-7650351D02*
X9362535Y-7650868D01*
X9645313Y-2304379D02*
X9632124Y-2307122D01*
X12799614Y-7751743D02*
X12800003Y-7736509D01*
X9299330Y-2564154D02*
X9298545Y-2561916D01*
X3054194Y-2302842D02*
X3039392Y-2305471D01*
X12530758Y-7948833D02*
X12560608Y-7947068D01*
X2851100Y-2431438D02*
X2843312Y-2443608D01*
X9296767Y-7693854D02*
X9296767Y-7693854D01*
X9494926Y-2380634D02*
X9485660Y-2389719D01*
X12770506Y-2398796D02*
X12763896Y-2389265D01*
X9406253Y-2538244D02*
X9403777Y-2551521D01*
X9412910Y-2512331D02*
X9409302Y-2525176D01*
X12781855Y-2419612D02*
X12776498Y-2408907D01*
X9672297Y-2300661D02*
X9658709Y-2302220D01*
X2859448Y-2419681D02*
X2851100Y-2431438D01*
X9393975Y-7671970D02*
X9395336Y-7673954D01*
X9387714Y-2584084D02*
X9385958Y-2585717D01*
X9304584Y-2574598D02*
X9303364Y-2572617D01*
X9311842Y-7665213D02*
X9313508Y-7663617D01*
X9645313Y-7944417D02*
X9658709Y-7946576D01*
X9262533Y-2453782D02*
X9255901Y-2442407D01*
X12630287Y-2312097D02*
X12616991Y-2309289D01*
X9315240Y-2586702D02*
X9313508Y-2585178D01*
X9438873Y-7796864D02*
X9445555Y-7808080D01*
X9485661Y-7859077D02*
X9494926Y-7868162D01*
X9274312Y-2477463D02*
X9268675Y-2465472D01*
X9421753Y-7761432D02*
X9426959Y-7773526D01*
X9320808Y-2590817D02*
X9318892Y-2589524D01*
X9000000Y-7949397D02*
X9000000Y-7949397D01*
X9301173Y-7680306D02*
X9302226Y-7678215D01*
X9300207Y-7682449D02*
X9301173Y-7680306D01*
X9367273Y-7652224D02*
X9369573Y-7653056D01*
X3100000Y-2299397D02*
X3100000Y-2299397D01*
X2868339Y-7840439D02*
X2877754Y-7851315D01*
X12731661Y-2356676D02*
X12722246Y-2349847D01*
X9364926Y-7651494D02*
X9367273Y-7652224D01*
X9300206Y-2566346D02*
X9299330Y-2564154D01*
X9369573Y-2595738D02*
X9367273Y-2596571D01*
X9299330Y-7684641D02*
X9300207Y-7682449D01*
X9402271Y-7689430D02*
X9402859Y-7691836D01*
X9014073Y-7949076D02*
X9027976Y-7948122D01*
X9399880Y-7682483D02*
X9400778Y-7684751D01*
X12740553Y-2364020D02*
X12731661Y-2356676D01*
X9385958Y-7663078D02*
X9387714Y-7664710D01*
X12722246Y-7898949D02*
X12731661Y-7892119D01*
X9569757Y-7919661D02*
X9581708Y-7925123D01*
X9347540Y-7649466D02*
X9350008Y-7649411D01*
X9284018Y-7746505D02*
X9288059Y-7733696D01*
X9374021Y-2593777D02*
X9371823Y-2594806D01*
X9403339Y-7694282D02*
X9403708Y-7696767D01*
X9658709Y-7946576D02*
X9672297Y-7948134D01*
X12800003Y-5124398D02*
X12800003Y-2512287D01*
X2806074Y-7710006D02*
X2809413Y-7724544D01*
X9233202Y-7838491D02*
X9241222Y-7828141D01*
X12731661Y-7892119D02*
X12740553Y-7884776D01*
X9514594Y-2363690D02*
X9504575Y-2371953D01*
X9476791Y-2399194D02*
X9468332Y-2409045D01*
X9460297Y-2419258D02*
X9452700Y-2429820D01*
X12748901Y-7876906D02*
X12756689Y-7868495D01*
X9107030Y-2318916D02*
X9094443Y-2314455D01*
X9000000Y-2299397D02*
X9000000Y-2299397D01*
X2800389Y-2583914D02*
X2800000Y-2599397D01*
X9632124Y-2307122D02*
X9619156Y-2310438D01*
X9403777Y-2551521D02*
X9403752Y-2551648D01*
X2843312Y-7805187D02*
X2851100Y-7817356D01*
X9322781Y-2592029D02*
X9320808Y-2590817D01*
X12796558Y-2468634D02*
X12793928Y-2455421D01*
X9452700Y-2429820D02*
X9445554Y-2440716D01*
X2868339Y-2408356D02*
X2859448Y-2419681D01*
X2809413Y-2524251D02*
X2806074Y-2538789D01*
X9305885Y-7672274D02*
X9307264Y-7670412D01*
X9403338Y-2554512D02*
X9402858Y-2556959D01*
X9357630Y-2598851D02*
X9355122Y-2599145D01*
X2818146Y-7752754D02*
X2823503Y-7766388D01*
X9068521Y-7941600D02*
X9081602Y-7938252D01*
X3054194Y-7945953D02*
X3069242Y-7947854D01*
X9255902Y-7806388D02*
X9262534Y-7795013D01*
X12763896Y-7859531D02*
X12770506Y-7850000D01*
X9403713Y-2551901D02*
X9403709Y-2551964D01*
X12560608Y-2301728D02*
X12530758Y-2299962D01*
X9055213Y-7944370D02*
X9068521Y-7941600D01*
X12679716Y-2327396D02*
X12667959Y-2322935D01*
X9294447Y-2541438D02*
X9291540Y-2528153D01*
X9318893Y-7659271D02*
X9320809Y-7657978D01*
X9350008Y-7649411D02*
X9350008Y-7649411D01*
X3100000Y-7949397D02*
X9000000Y-7949397D01*
X9094443Y-7934340D02*
X9107030Y-7929879D01*
X2932041Y-7898298D02*
X2944211Y-7906085D01*
X9401576Y-7687067D02*
X9402271Y-7689430D01*
X9107030Y-7929879D02*
X9119350Y-7924881D01*
X9403708Y-2551996D02*
X9403707Y-2552028D01*
X9308717Y-2580182D02*
X9307263Y-2578383D01*
X9350008Y-2599384D02*
X9350008Y-2599384D01*
X9406254Y-7710552D02*
X9409302Y-7723620D01*
X3100000Y-2299397D02*
X3084517Y-2299786D01*
X2829495Y-2469111D02*
X2823503Y-2482407D01*
X9378249Y-7657356D02*
X9380273Y-7658659D01*
X9426958Y-2475270D02*
X9421752Y-2487364D01*
X2887675Y-2387072D02*
X2877754Y-2397480D01*
X2843312Y-2443608D02*
X2836105Y-2456172D01*
X2969713Y-7919902D02*
X2983009Y-7925894D01*
X9403709Y-2551964D02*
X9403708Y-2551996D01*
X2803444Y-7695203D02*
X2806074Y-7710006D01*
X9000000Y-7949397D02*
X9014073Y-7949076D01*
X9393975Y-2576825D02*
X9392530Y-2578743D01*
X12748901Y-2371890D02*
X12740553Y-2364020D01*
X9432670Y-7785341D02*
X9438873Y-7796864D01*
X2806074Y-2538789D02*
X2803444Y-2553591D01*
X9027976Y-7948122D02*
X9041694Y-7946549D01*
X9686066Y-2299716D02*
X9672297Y-2300661D01*
X9581708Y-2323673D02*
X9569756Y-2329135D01*
X9445555Y-7808080D02*
X9452701Y-7818976D01*
X9317035Y-2588151D02*
X9315240Y-2586702D01*
X9196915Y-7876052D02*
X9206590Y-7867265D01*
X9297855Y-2559632D02*
X9297261Y-2557307D01*
X9382235Y-2588745D02*
X9380273Y-2590135D01*
X9279431Y-7759055D02*
X9284018Y-7746505D01*
X12667959Y-7925861D02*
X12691042Y-7916490D01*
X9165669Y-2348987D02*
X9154561Y-2341984D01*
X9468333Y-7839751D02*
X9476792Y-7849602D01*
X12500000Y-7949398D02*
X12530758Y-7948833D01*
X12500000Y-2299397D02*
X9700000Y-2299397D01*
X9384131Y-7661523D02*
X9385958Y-7663078D01*
X9154561Y-7906811D02*
X9165669Y-7899807D01*
X12763896Y-2389265D02*
X12756689Y-2380301D01*
X9569756Y-2329135D02*
X9558093Y-2335098D01*
X9176440Y-2356458D02*
X9165669Y-2348987D01*
X9400778Y-7684751D02*
X9401576Y-7687067D01*
X9371823Y-7653988D02*
X9374021Y-7655017D01*
X9399880Y-2566311D02*
X9398884Y-2568528D01*
X12798459Y-2482507D02*
X12796558Y-2468634D01*
X9335673Y-7651332D02*
X9337975Y-7650755D01*
X9432669Y-2463455D02*
X9426958Y-2475270D01*
X2836105Y-2456172D02*
X2829495Y-2469111D01*
X9619156Y-7938358D02*
X9632124Y-7941673D01*
X9593934Y-7930069D02*
X9606421Y-7934485D01*
X12667959Y-2322935D02*
X12655790Y-2318906D01*
X12800003Y-7736509D02*
X12800003Y-7736509D01*
X12691042Y-2332305D02*
X12679716Y-2327396D01*
X3010598Y-7935954D02*
X3024854Y-7939984D01*
X12799614Y-2497053D02*
X12798459Y-2482507D01*
X12796558Y-7780162D02*
X12798459Y-7766289D01*
X2877754Y-7851315D02*
X2887675Y-7861722D01*
X12500000Y-2299397D02*
X12500000Y-2299397D01*
X9376164Y-7656141D02*
X9378249Y-7657356D01*
X12616991Y-2309289D02*
X12589402Y-2304802D01*
X9369573Y-7653056D02*
X9371823Y-7653988D01*
X2983009Y-7925894D02*
X2996644Y-7931251D01*
X9392530Y-7670051D02*
X9393975Y-7671970D01*
X9403752Y-7697155D02*
X9403765Y-7697216D01*
X9350008Y-7649411D02*
X9352581Y-7649471D01*
X9298545Y-2561916D02*
X9297855Y-2559632D01*
X9355123Y-7649650D02*
X9357631Y-7649944D01*
X9392530Y-2578743D02*
X9391003Y-2580595D01*
X9154561Y-2341984D02*
X9143128Y-2335462D01*
X9143129Y-7913333D02*
X9154561Y-7906811D01*
X9307264Y-7670412D02*
X9308718Y-7668613D01*
X2969713Y-2328893D02*
X2956774Y-2335502D01*
X9068521Y-2307195D02*
X9055213Y-2304425D01*
X9313508Y-7663617D02*
X9315240Y-7662093D01*
X2809413Y-7724544D02*
X2813443Y-7738799D01*
X9357631Y-7649944D02*
X9360103Y-7650351D01*
X9333410Y-7652008D02*
X9335673Y-7651332D01*
X9524969Y-7892937D02*
X9535686Y-7900321D01*
X3069242Y-7947854D02*
X3084517Y-7949008D01*
X2956774Y-2335502D02*
X2944211Y-2342710D01*
X9400778Y-2564044D02*
X9399880Y-2566311D01*
X2877754Y-2397480D02*
X2868339Y-2408356D01*
X9224748Y-7848470D02*
X9233202Y-7838491D01*
X9658709Y-2302220D02*
X9645313Y-2304379D01*
X2823503Y-7766388D02*
X2829495Y-7779684D01*
X9504575Y-7876843D02*
X9514594Y-7885106D01*
X9672297Y-7948134D02*
X9686066Y-7949080D01*
X9302226Y-2570580D02*
X9301173Y-2568489D01*
X9364926Y-2597301D02*
X9362535Y-2597926D01*
X2800389Y-7664881D02*
X2801543Y-7680155D01*
X9438873Y-2451932D02*
X9432669Y-2463455D01*
X2803444Y-2553591D02*
X2801543Y-2568639D01*
X9310245Y-7666879D02*
X9311842Y-7665213D01*
X9468332Y-2409045D02*
X9460297Y-2419258D01*
X2813443Y-7738799D02*
X2818146Y-7752754D01*
X9606421Y-7934485D02*
X9619156Y-7938358D01*
X3024854Y-2308810D02*
X3010598Y-2312841D01*
X9403721Y-7696964D02*
X9403730Y-7697029D01*
X9395336Y-7673954D02*
X9396609Y-7676000D01*
X9302226Y-7678215D02*
X9303364Y-7676178D01*
X12756689Y-2380301D02*
X12748901Y-2371890D01*
X9303364Y-2572617D02*
X9302226Y-2570580D01*
X3084517Y-2299786D02*
X3069242Y-2300941D01*
X9342692Y-7649902D02*
X9345101Y-7649631D01*
X9387714Y-7664710D02*
X9389397Y-7666419D01*
X9350008Y-2599384D02*
X9347540Y-2599328D01*
X9041694Y-2302246D02*
X9027976Y-2300673D01*
X9326886Y-2594200D02*
X9324807Y-2593157D01*
X9403752Y-2551648D02*
X9403740Y-2551711D01*
X12722246Y-2349847D02*
X12712325Y-2343517D01*
X12712325Y-7905279D02*
X12722246Y-7898949D01*
X9403765Y-7697216D02*
X9403778Y-7697275D01*
X2800000Y-5124398D02*
X2800000Y-5124398D01*
X9686066Y-7949080D02*
X9700000Y-7949398D01*
X9329014Y-2595154D02*
X9326886Y-2594200D01*
X9337975Y-2598040D02*
X9335672Y-2597462D01*
X9700000Y-7949398D02*
X9700000Y-7949398D01*
X9340316Y-7650277D02*
X9342692Y-7649902D01*
X9403778Y-7697275D02*
X9406254Y-7710552D01*
X9535686Y-7900321D02*
X9546732Y-7907247D01*
X9131387Y-2329433D02*
X9119349Y-2323914D01*
X9284018Y-2502290D02*
X9279431Y-2489740D01*
X12643226Y-7933498D02*
X12667959Y-7925861D01*
X9409302Y-2525176D02*
X9406253Y-2538244D01*
X2801543Y-2568639D02*
X2800389Y-2583914D01*
X12800003Y-7736509D02*
X12800003Y-5124398D01*
X9700000Y-7949398D02*
X12500000Y-7949398D01*
X9322781Y-7656766D02*
X9324808Y-7655637D01*
X9403777Y-2551521D02*
X9403777Y-2551521D01*
X9402859Y-7691836D02*
X9403339Y-7694282D01*
X9291540Y-7720642D02*
X9294447Y-7707356D01*
X9119349Y-2323914D02*
X9107030Y-2318916D01*
X9326886Y-7654595D02*
X9329015Y-7653641D01*
X9403729Y-2551774D02*
X9403720Y-2551838D01*
X9297855Y-7689163D02*
X9298546Y-7686879D01*
X9535685Y-2348474D02*
X9524968Y-2355859D01*
X2800000Y-5124398D02*
X2800000Y-7649397D01*
X9389397Y-2582376D02*
X9387714Y-2584084D01*
X9340315Y-2598517D02*
X9337975Y-2598040D01*
X9371823Y-2594806D02*
X9369573Y-2595738D01*
X9380273Y-2590135D02*
X9378248Y-2591439D01*
X9421752Y-2487364D02*
X9417065Y-2499722D01*
X9403730Y-7697029D02*
X9403740Y-7697093D01*
X9362535Y-2597926D02*
X9360102Y-2598444D01*
X2859448Y-7829113D02*
X2868339Y-7840439D01*
X9333409Y-2596787D02*
X9331189Y-2596017D01*
X12793928Y-7793374D02*
X12796558Y-7780162D01*
X9593934Y-2318727D02*
X9581708Y-2323673D01*
X9345100Y-2599164D02*
X9342691Y-2598893D01*
X9303364Y-7676178D02*
X9304585Y-7674197D01*
X2851100Y-7817356D02*
X2859448Y-7829113D01*
X9632124Y-7941673D02*
X9645313Y-7944417D01*
X2898083Y-2377152D02*
X2887675Y-2387072D01*
X12790589Y-2442856D02*
X12786558Y-2430924D01*
X9391003Y-7668200D02*
X9392530Y-7670051D01*
X9403778Y-7697275D02*
X9403778Y-7697275D01*
X12786558Y-2430924D02*
X12781855Y-2419612D01*
X9391003Y-2580595D02*
X9389397Y-2582376D01*
X9514594Y-7885106D02*
X9524969Y-7892937D01*
X2908958Y-2367737D02*
X2898083Y-2377152D01*
X12776498Y-7839889D02*
X12781855Y-7829184D01*
X9619156Y-2310438D02*
X9606421Y-2314310D01*
X9558093Y-2335098D02*
X9546732Y-2341549D01*
X3069242Y-2300941D02*
X3054194Y-2302842D01*
X9291540Y-2528153D02*
X9288059Y-2515099D01*
X9355122Y-2599145D02*
X9352580Y-2599324D01*
X9318892Y-2589524D02*
X9317035Y-2588151D01*
X9215872Y-2390728D02*
X9206590Y-2381530D01*
X2944211Y-2342710D02*
X2932041Y-2350497D01*
X9389397Y-7666419D02*
X9391003Y-7668200D01*
X9298546Y-7686879D02*
X9299330Y-7684641D01*
X12701918Y-7911121D02*
X12712325Y-7905279D01*
X9397793Y-7678105D02*
X9398884Y-7680267D01*
X9315240Y-7662093D02*
X9317036Y-7660644D01*
X2818146Y-2496041D02*
X2813443Y-2509995D01*
X3039392Y-2305471D02*
X3024854Y-2308810D01*
D11*
D12*
X2964500Y-6838000D02*
X3004500Y-6878000D01*
X3004500Y-6838000D02*
X2964500Y-6878000D01*
X2964500Y-6965000D02*
X3004500Y-7005000D01*
X3004500Y-6965000D02*
X2964500Y-7005000D01*
X2964500Y-7092000D02*
X3004500Y-7132000D01*
X3004500Y-7092000D02*
X2964500Y-7132000D01*
X3053400Y-3124520D02*
X3093400Y-3164520D01*
X3093400Y-3124520D02*
X3053400Y-3164520D01*
X3053400Y-3251520D02*
X3093400Y-3291520D01*
X3093400Y-3251520D02*
X3053400Y-3291520D01*
X3053400Y-3378520D02*
X3093400Y-3418520D01*
X3093400Y-3378520D02*
X3053400Y-3418520D01*
X3053400Y-3505520D02*
X3093400Y-3545520D01*
X3093400Y-3505520D02*
X3053400Y-3545520D01*
X3091500Y-4298000D02*
X3131500Y-4338000D01*
X3131500Y-4298000D02*
X3091500Y-4338000D01*
X3091500Y-4425000D02*
X3131500Y-4465000D01*
X3131500Y-4425000D02*
X3091500Y-4465000D01*
X3091500Y-4552000D02*
X3131500Y-4592000D01*
X3131500Y-4552000D02*
X3091500Y-4592000D01*
X3091500Y-6838000D02*
X3131500Y-6878000D01*
X3131500Y-6838000D02*
X3091500Y-6878000D01*
X3091500Y-6965000D02*
X3131500Y-7005000D01*
X3131500Y-6965000D02*
X3091500Y-7005000D01*
X3091500Y-7092000D02*
X3131500Y-7132000D01*
X3131500Y-7092000D02*
X3091500Y-7132000D01*
X3218500Y-6838000D02*
X3258500Y-6878000D01*
X3258500Y-6838000D02*
X3218500Y-6878000D01*
X3218500Y-6965000D02*
X3258500Y-7005000D01*
X3258500Y-6965000D02*
X3218500Y-7005000D01*
X3218500Y-7092000D02*
X3258500Y-7132000D01*
X3258500Y-7092000D02*
X3218500Y-7132000D01*
X3423940Y-3013060D02*
X3463940Y-3053060D01*
X3463940Y-3013060D02*
X3423940Y-3053060D01*
X3583400Y-3987520D02*
X3623400Y-4027520D01*
X3623400Y-3987520D02*
X3583400Y-4027520D01*
X3613400Y-3867520D02*
X3653400Y-3907520D01*
X3653400Y-3867520D02*
X3613400Y-3907520D01*
X3624900Y-6299520D02*
X3664900Y-6339520D01*
X3664900Y-6299520D02*
X3624900Y-6339520D01*
X3624900Y-6426520D02*
X3664900Y-6466520D01*
X3664900Y-6426520D02*
X3624900Y-6466520D01*
X3713400Y-3947520D02*
X3753400Y-3987520D01*
X3753400Y-3947520D02*
X3713400Y-3987520D01*
X3751900Y-6299520D02*
X3791900Y-6339520D01*
X3791900Y-6299520D02*
X3751900Y-6339520D01*
X3751900Y-6426520D02*
X3791900Y-6466520D01*
X3791900Y-6426520D02*
X3751900Y-6466520D01*
X3878900Y-6299520D02*
X3918900Y-6339520D01*
X3918900Y-6299520D02*
X3878900Y-6339520D01*
X3878900Y-6426520D02*
X3918900Y-6466520D01*
X3918900Y-6426520D02*
X3878900Y-6466520D01*
X4196400Y-3061020D02*
X4236400Y-3101020D01*
X4236400Y-3061020D02*
X4196400Y-3101020D01*
X4196400Y-3188020D02*
X4236400Y-3228020D01*
X4236400Y-3188020D02*
X4196400Y-3228020D01*
X4323400Y-3061020D02*
X4363400Y-3101020D01*
X4363400Y-3061020D02*
X4323400Y-3101020D01*
X4323400Y-3188020D02*
X4363400Y-3228020D01*
X4363400Y-3188020D02*
X4323400Y-3228020D01*
X4501200Y-3767400D02*
X4541200Y-3807400D01*
X4541200Y-3767400D02*
X4501200Y-3807400D01*
X4628200Y-3129600D02*
X4668200Y-3169600D01*
X4668200Y-3129600D02*
X4628200Y-3169600D01*
X4733400Y-4106520D02*
X4773400Y-4146520D01*
X4773400Y-4106520D02*
X4733400Y-4146520D01*
X4768400Y-5042520D02*
X4808400Y-5082520D01*
X4808400Y-5042520D02*
X4768400Y-5082520D01*
X4774677Y-4515324D02*
X4814677Y-4555324D01*
X4814677Y-4515324D02*
X4774677Y-4555324D01*
X4844100Y-4920300D02*
X4884100Y-4960300D01*
X4884100Y-4920300D02*
X4844100Y-4960300D01*
X4844100Y-5174300D02*
X4884100Y-5214300D01*
X4884100Y-5174300D02*
X4844100Y-5214300D01*
X4869500Y-3688400D02*
X4909500Y-3728400D01*
X4909500Y-3688400D02*
X4869500Y-3728400D01*
X4959652Y-5387650D02*
X4999652Y-5427650D01*
X4999652Y-5387650D02*
X4959652Y-5427650D01*
X5003400Y-4036520D02*
X5043400Y-4076520D01*
X5043400Y-4036520D02*
X5003400Y-4076520D01*
X5021900Y-6426520D02*
X5061900Y-6466520D01*
X5061900Y-6426520D02*
X5021900Y-6466520D01*
X5037277Y-4777924D02*
X5077277Y-4817924D01*
X5077277Y-4777924D02*
X5037277Y-4817924D01*
X5037700Y-5466650D02*
X5077700Y-5506650D01*
X5077700Y-5466650D02*
X5037700Y-5506650D01*
X5077544Y-4897740D02*
X5117544Y-4937740D01*
X5117544Y-4897740D02*
X5077544Y-4937740D01*
X5148900Y-5139050D02*
X5188900Y-5179050D01*
X5188900Y-5139050D02*
X5148900Y-5179050D01*
X5148900Y-6426520D02*
X5188900Y-6466520D01*
X5188900Y-6426520D02*
X5148900Y-6466520D01*
X5187000Y-4981000D02*
X5227000Y-5021000D01*
X5227000Y-4981000D02*
X5187000Y-5021000D01*
X5275900Y-6426520D02*
X5315900Y-6466520D01*
X5315900Y-6426520D02*
X5275900Y-6466520D01*
X5390587Y-5111187D02*
X5430587Y-5151187D01*
X5430587Y-5111187D02*
X5390587Y-5151187D01*
X5625791Y-5110800D02*
X5665791Y-5150800D01*
X5665791Y-5110800D02*
X5625791Y-5150800D01*
X5753400Y-5250000D02*
X5793400Y-5290000D01*
X5793400Y-5250000D02*
X5753400Y-5290000D01*
X5753400Y-6187520D02*
X5793400Y-6227520D01*
X5793400Y-6187520D02*
X5753400Y-6227520D01*
X6020120Y-3647760D02*
X6060120Y-3687760D01*
X6060120Y-3647760D02*
X6020120Y-3687760D01*
X6020120Y-3779840D02*
X6060120Y-3819840D01*
X6060120Y-3779840D02*
X6020120Y-3819840D01*
X6025200Y-3129600D02*
X6065200Y-3169600D01*
X6065200Y-3129600D02*
X6025200Y-3169600D01*
X6153400Y-5237520D02*
X6193400Y-5277520D01*
X6193400Y-5237520D02*
X6153400Y-5277520D01*
X6163400Y-7302520D02*
X6203400Y-7342520D01*
X6203400Y-7302520D02*
X6163400Y-7342520D01*
X6164900Y-6914200D02*
X6204900Y-6954200D01*
X6204900Y-6914200D02*
X6164900Y-6954200D01*
X6164900Y-7112520D02*
X6204900Y-7152520D01*
X6204900Y-7112520D02*
X6164900Y-7152520D01*
X6177600Y-5441000D02*
X6217600Y-5481000D01*
X6217600Y-5441000D02*
X6177600Y-5481000D01*
X6253400Y-5237520D02*
X6293400Y-5277520D01*
X6293400Y-5237520D02*
X6253400Y-5277520D01*
X6398580Y-3647760D02*
X6438580Y-3687760D01*
X6438580Y-3647760D02*
X6398580Y-3687760D01*
X6405000Y-4595000D02*
X6445000Y-4635000D01*
X6445000Y-4595000D02*
X6405000Y-4635000D01*
X6660200Y-4602800D02*
X6700200Y-4642800D01*
X6700200Y-4602800D02*
X6660200Y-4642800D01*
X6660200Y-4704400D02*
X6700200Y-4744400D01*
X6700200Y-4704400D02*
X6660200Y-4744400D01*
X6736400Y-4780600D02*
X6776400Y-4820600D01*
X6776400Y-4780600D02*
X6736400Y-4820600D01*
X7142800Y-5258120D02*
X7182800Y-5298120D01*
X7182800Y-5258120D02*
X7142800Y-5298120D01*
X7244400Y-3950020D02*
X7284400Y-3990020D01*
X7284400Y-3950020D02*
X7244400Y-3990020D01*
X7358700Y-5258120D02*
X7398700Y-5298120D01*
X7398700Y-5258120D02*
X7358700Y-5298120D01*
X7434900Y-3950020D02*
X7474900Y-3990020D01*
X7474900Y-3950020D02*
X7434900Y-3990020D01*
X7498400Y-4712020D02*
X7538400Y-4752020D01*
X7538400Y-4712020D02*
X7498400Y-4752020D01*
X7561900Y-6126800D02*
X7601900Y-6166800D01*
X7601900Y-6126800D02*
X7561900Y-6166800D01*
X7561900Y-6241100D02*
X7601900Y-6281100D01*
X7601900Y-6241100D02*
X7561900Y-6281100D01*
X7625400Y-3950020D02*
X7665400Y-3990020D01*
X7665400Y-3950020D02*
X7625400Y-3990020D01*
X7676200Y-6126800D02*
X7716200Y-6166800D01*
X7716200Y-6126800D02*
X7676200Y-6166800D01*
X7676200Y-6241100D02*
X7716200Y-6281100D01*
X7716200Y-6241100D02*
X7676200Y-6281100D01*
X7698400Y-5407520D02*
X7738400Y-5447520D01*
X7738400Y-5407520D02*
X7698400Y-5447520D01*
X7752400Y-4712020D02*
X7792400Y-4752020D01*
X7792400Y-4712020D02*
X7752400Y-4752020D01*
X7752400Y-4902520D02*
X7792400Y-4942520D01*
X7792400Y-4902520D02*
X7752400Y-4942520D01*
X7752400Y-5093020D02*
X7792400Y-5133020D01*
X7792400Y-5093020D02*
X7752400Y-5133020D01*
X7783400Y-5502520D02*
X7823400Y-5542520D01*
X7823400Y-5502520D02*
X7783400Y-5542520D01*
X7813360Y-7061520D02*
X7853360Y-7101520D01*
X7853360Y-7061520D02*
X7813360Y-7101520D01*
X7815900Y-3950020D02*
X7855900Y-3990020D01*
X7855900Y-3950020D02*
X7815900Y-3990020D01*
X7873400Y-5597520D02*
X7913400Y-5637520D01*
X7913400Y-5597520D02*
X7873400Y-5637520D01*
X7899513Y-6868633D02*
X7939513Y-6908633D01*
X7939513Y-6868633D02*
X7899513Y-6908633D01*
X8005000Y-3530000D02*
X8045000Y-3570000D01*
X8045000Y-3530000D02*
X8005000Y-3570000D01*
X8038400Y-6927520D02*
X8078400Y-6967520D01*
X8078400Y-6927520D02*
X8038400Y-6967520D01*
X8209600Y-3530920D02*
X8249600Y-3570920D01*
X8249600Y-3530920D02*
X8209600Y-3570920D01*
X8387400Y-5156520D02*
X8427400Y-5196520D01*
X8427400Y-5156520D02*
X8387400Y-5196520D01*
X8387400Y-5283520D02*
X8427400Y-5323520D01*
X8427400Y-5283520D02*
X8387400Y-5323520D01*
X8387400Y-5410520D02*
X8427400Y-5450520D01*
X8427400Y-5410520D02*
X8387400Y-5450520D01*
X8387400Y-6807520D02*
X8427400Y-6847520D01*
X8427400Y-6807520D02*
X8387400Y-6847520D01*
X8387400Y-6934520D02*
X8427400Y-6974520D01*
X8427400Y-6934520D02*
X8387400Y-6974520D01*
X8387400Y-7061520D02*
X8427400Y-7101520D01*
X8427400Y-7061520D02*
X8387400Y-7101520D01*
X8405000Y-3530000D02*
X8445000Y-3570000D01*
X8445000Y-3530000D02*
X8405000Y-3570000D01*
X8450900Y-5855020D02*
X8490900Y-5895020D01*
X8490900Y-5855020D02*
X8450900Y-5895020D01*
X3819000Y-7280900D02*
G75*
G03*
X3819000Y-7280900I-20000J0D01*
G01*
X3819000Y-7780900D02*
G75*
G03*
X3819000Y-7780900I-20000J0D01*
G01*
X4019000Y-7280900D02*
G75*
G03*
X4019000Y-7280900I-20000J0D01*
G01*
X4019000Y-7780900D02*
G75*
G03*
X4019000Y-7780900I-20000J0D01*
G01*
X4219000Y-7280900D02*
G75*
G03*
X4219000Y-7280900I-20000J0D01*
G01*
X4219000Y-7780900D02*
G75*
G03*
X4219000Y-7780900I-20000J0D01*
G01*
X4419000Y-7280900D02*
G75*
G03*
X4419000Y-7280900I-20000J0D01*
G01*
X4419000Y-7780900D02*
G75*
G03*
X4419000Y-7780900I-20000J0D01*
G01*
X4619000Y-7280900D02*
G75*
G03*
X4619000Y-7280900I-20000J0D01*
G01*
X4619000Y-7780900D02*
G75*
G03*
X4619000Y-7780900I-20000J0D01*
G01*
X4819000Y-7280900D02*
G75*
G03*
X4819000Y-7280900I-20000J0D01*
G01*
X4819000Y-7780900D02*
G75*
G03*
X4819000Y-7780900I-20000J0D01*
G01*
X5019000Y-7280900D02*
G75*
G03*
X5019000Y-7280900I-20000J0D01*
G01*
X5019000Y-7780900D02*
G75*
G03*
X5019000Y-7780900I-20000J0D01*
G01*
X5219000Y-7280900D02*
G75*
G03*
X5219000Y-7280900I-20000J0D01*
G01*
X5219000Y-7780900D02*
G75*
G03*
X5219000Y-7780900I-20000J0D01*
G01*
X5419000Y-7280900D02*
G75*
G03*
X5419000Y-7280900I-20000J0D01*
G01*
X5419000Y-7780900D02*
G75*
G03*
X5419000Y-7780900I-20000J0D01*
G01*
X5619000Y-7780900D02*
G75*
G03*
X5619000Y-7780900I-20000J0D01*
G01*
D13*
X10477500Y-4283000D02*
X10477500Y-4353000D01*
X10442500Y-4318000D02*
X10512500Y-4318000D01*
X11239500Y-4283000D02*
X11239500Y-4353000D01*
X11204500Y-4318000D02*
X11274500Y-4318000D01*
X11400000Y-4727500D02*
X11400000Y-4797500D01*
X11365000Y-4762500D02*
X11435000Y-4762500D01*
X11400000Y-5489500D02*
X11400000Y-5559500D01*
X11365000Y-5524500D02*
X11435000Y-5524500D01*
D14*
X6008484Y-6333284D02*
X6008484Y-6276715D01*
X5951915Y-6276715D01*
X5951915Y-6333284D01*
X6008484Y-6333284D01*
X6008484Y-7693284D02*
X6008484Y-7636715D01*
X5951915Y-7636715D01*
X5951915Y-7693284D01*
X6008484Y-7693284D01*
X6208484Y-6333284D02*
X6208484Y-6276715D01*
X6151915Y-6276715D01*
X6151915Y-6333284D01*
X6208484Y-6333284D01*
X6208484Y-7693284D02*
X6208484Y-7636715D01*
X6151915Y-7636715D01*
X6151915Y-7693284D01*
X6208484Y-7693284D01*
X6408484Y-6333284D02*
X6408484Y-6276715D01*
X6351915Y-6276715D01*
X6351915Y-6333284D01*
X6408484Y-6333284D01*
X6408484Y-7693284D02*
X6408484Y-7636715D01*
X6351915Y-7636715D01*
X6351915Y-7693284D01*
X6408484Y-7693284D01*
X6608484Y-6333284D02*
X6608484Y-6276715D01*
X6551915Y-6276715D01*
X6551915Y-6333284D01*
X6608484Y-6333284D01*
X6608484Y-7693284D02*
X6608484Y-7636715D01*
X6551915Y-7636715D01*
X6551915Y-7693284D01*
X6608484Y-7693284D01*
X6808484Y-6333284D02*
X6808484Y-6276715D01*
X6751915Y-6276715D01*
X6751915Y-6333284D01*
X6808484Y-6333284D01*
X6808484Y-7693284D02*
X6808484Y-7636715D01*
X6751915Y-7636715D01*
X6751915Y-7693284D01*
X6808484Y-7693284D01*
X7008484Y-6333284D02*
X7008484Y-6276715D01*
X6951915Y-6276715D01*
X6951915Y-6333284D01*
X7008484Y-6333284D01*
X7008484Y-7693284D02*
X7008484Y-7636715D01*
X6951915Y-7636715D01*
X6951915Y-7693284D01*
X7008484Y-7693284D01*
X7208484Y-6333284D02*
X7208484Y-6276715D01*
X7151915Y-6276715D01*
X7151915Y-6333284D01*
X7208484Y-6333284D01*
X7208484Y-7693284D02*
X7208484Y-7636715D01*
X7151915Y-7636715D01*
X7151915Y-7693284D01*
X7208484Y-7693284D01*
X7408484Y-6333284D02*
X7408484Y-6276715D01*
X7351915Y-6276715D01*
X7351915Y-6333284D01*
X7408484Y-6333284D01*
X7408484Y-7693284D02*
X7408484Y-7636715D01*
X7351915Y-7636715D01*
X7351915Y-7693284D01*
X7408484Y-7693284D01*
X8130884Y-7267284D02*
X8130884Y-7210715D01*
X8074315Y-7210715D01*
X8074315Y-7267284D01*
X8130884Y-7267284D01*
X8130884Y-7517284D02*
X8130884Y-7460715D01*
X8074315Y-7460715D01*
X8074315Y-7517284D01*
X8130884Y-7517284D01*
X9806285Y-2820784D02*
X9806285Y-2764216D01*
X9749716Y-2764216D01*
X9749716Y-2820784D01*
X9806285Y-2820784D01*
X9806285Y-3074784D02*
X9806285Y-3018215D01*
X9749716Y-3018215D01*
X9749716Y-3074784D01*
X9806285Y-3074784D01*
X9806285Y-3328784D02*
X9806285Y-3272215D01*
X9749716Y-3272215D01*
X9749716Y-3328784D01*
X9806285Y-3328784D01*
X10505785Y-4790785D02*
X10505785Y-4734216D01*
X10449216Y-4734216D01*
X10449216Y-4790785D01*
X10505785Y-4790785D01*
X10568285Y-2820784D02*
X10568285Y-2764216D01*
X10511716Y-2764216D01*
X10511716Y-2820784D01*
X10568285Y-2820784D01*
X10568285Y-3074784D02*
X10568285Y-3018215D01*
X10511716Y-3018215D01*
X10511716Y-3074784D01*
X10568285Y-3074784D01*
X10568285Y-3328784D02*
X10568285Y-3272215D01*
X10511716Y-3272215D01*
X10511716Y-3328784D01*
X10568285Y-3328784D01*
X10928285Y-2822284D02*
X10928285Y-2765716D01*
X10871716Y-2765716D01*
X10871716Y-2822284D01*
X10928285Y-2822284D01*
X10928285Y-3838284D02*
X10928285Y-3781715D01*
X10871716Y-3781715D01*
X10871716Y-3838284D01*
X10928285Y-3838284D01*
X11005785Y-4790785D02*
X11005785Y-4734216D01*
X10949216Y-4734216D01*
X10949216Y-4790785D01*
X11005785Y-4790785D01*
X11394784Y-2822284D02*
X11394784Y-2765716D01*
X11338215Y-2765716D01*
X11338215Y-2822284D01*
X11394784Y-2822284D01*
X11394784Y-3838284D02*
X11394784Y-3781715D01*
X11338215Y-3781715D01*
X11338215Y-3838284D01*
X11394784Y-3838284D01*
D15*
X3635300Y-4406350D02*
X3685300Y-4356350D01*
X3635300Y-4306350D01*
X3585300Y-4356350D01*
X3635300Y-4406350D01*
X3635300Y-5930350D02*
X3685300Y-5880350D01*
X3635300Y-5830350D01*
X3585300Y-5880350D01*
X3635300Y-5930350D01*
X3636500Y-2576000D02*
X3686500Y-2526000D01*
X3636500Y-2476000D01*
X3586500Y-2526000D01*
X3636500Y-2576000D01*
X3636500Y-2830000D02*
X3686500Y-2780000D01*
X3636500Y-2730000D01*
X3586500Y-2780000D01*
X3636500Y-2830000D01*
X3889300Y-4406350D02*
X3939300Y-4356350D01*
X3889300Y-4306350D01*
X3839300Y-4356350D01*
X3889300Y-4406350D01*
X3889300Y-5930350D02*
X3939300Y-5880350D01*
X3889300Y-5830350D01*
X3839300Y-5880350D01*
X3889300Y-5930350D01*
X3890500Y-2576000D02*
X3940500Y-2526000D01*
X3890500Y-2476000D01*
X3840500Y-2526000D01*
X3890500Y-2576000D01*
X3890500Y-2830000D02*
X3940500Y-2780000D01*
X3890500Y-2730000D01*
X3840500Y-2780000D01*
X3890500Y-2830000D01*
X4143300Y-4406350D02*
X4193300Y-4356350D01*
X4143300Y-4306350D01*
X4093300Y-4356350D01*
X4143300Y-4406350D01*
X4143300Y-5930350D02*
X4193300Y-5880350D01*
X4143300Y-5830350D01*
X4093300Y-5880350D01*
X4143300Y-5930350D01*
X4144500Y-2576000D02*
X4194500Y-2526000D01*
X4144500Y-2476000D01*
X4094500Y-2526000D01*
X4144500Y-2576000D01*
X4144500Y-2830000D02*
X4194500Y-2780000D01*
X4144500Y-2730000D01*
X4094500Y-2780000D01*
X4144500Y-2830000D01*
X4397300Y-4406350D02*
X4447300Y-4356350D01*
X4397300Y-4306350D01*
X4347300Y-4356350D01*
X4397300Y-4406350D01*
X4397300Y-5930350D02*
X4447300Y-5880350D01*
X4397300Y-5830350D01*
X4347300Y-5880350D01*
X4397300Y-5930350D01*
X4398500Y-2576000D02*
X4448500Y-2526000D01*
X4398500Y-2476000D01*
X4348500Y-2526000D01*
X4398500Y-2576000D01*
X4398500Y-2830000D02*
X4448500Y-2780000D01*
X4398500Y-2730000D01*
X4348500Y-2780000D01*
X4398500Y-2830000D01*
X4651300Y-4406350D02*
X4701300Y-4356350D01*
X4651300Y-4306350D01*
X4601300Y-4356350D01*
X4651300Y-4406350D01*
X4651300Y-5930350D02*
X4701300Y-5880350D01*
X4651300Y-5830350D01*
X4601300Y-5880350D01*
X4651300Y-5930350D01*
X4652500Y-2576000D02*
X4702500Y-2526000D01*
X4652500Y-2476000D01*
X4602500Y-2526000D01*
X4652500Y-2576000D01*
X4652500Y-2830000D02*
X4702500Y-2780000D01*
X4652500Y-2730000D01*
X4602500Y-2780000D01*
X4652500Y-2830000D01*
X4905300Y-4406350D02*
X4955300Y-4356350D01*
X4905300Y-4306350D01*
X4855300Y-4356350D01*
X4905300Y-4406350D01*
X4905300Y-5930350D02*
X4955300Y-5880350D01*
X4905300Y-5830350D01*
X4855300Y-5880350D01*
X4905300Y-5930350D01*
X4906500Y-2576000D02*
X4956500Y-2526000D01*
X4906500Y-2476000D01*
X4856500Y-2526000D01*
X4906500Y-2576000D01*
X4906500Y-2830000D02*
X4956500Y-2780000D01*
X4906500Y-2730000D01*
X4856500Y-2780000D01*
X4906500Y-2830000D01*
X5159300Y-4406350D02*
X5209300Y-4356350D01*
X5159300Y-4306350D01*
X5109300Y-4356350D01*
X5159300Y-4406350D01*
X5159300Y-5930350D02*
X5209300Y-5880350D01*
X5159300Y-5830350D01*
X5109300Y-5880350D01*
X5159300Y-5930350D01*
X5160500Y-2576000D02*
X5210500Y-2526000D01*
X5160500Y-2476000D01*
X5110500Y-2526000D01*
X5160500Y-2576000D01*
X5160500Y-2830000D02*
X5210500Y-2780000D01*
X5160500Y-2730000D01*
X5110500Y-2780000D01*
X5160500Y-2830000D01*
X5413300Y-4406350D02*
X5463300Y-4356350D01*
X5413300Y-4306350D01*
X5363300Y-4356350D01*
X5413300Y-4406350D01*
X5413300Y-5930350D02*
X5463300Y-5880350D01*
X5413300Y-5830350D01*
X5363300Y-5880350D01*
X5413300Y-5930350D01*
X5414500Y-2576000D02*
X5464500Y-2526000D01*
X5414500Y-2476000D01*
X5364500Y-2526000D01*
X5414500Y-2576000D01*
X5414500Y-2830000D02*
X5464500Y-2780000D01*
X5414500Y-2730000D01*
X5364500Y-2780000D01*
X5414500Y-2830000D01*
X5599000Y-7080900D02*
X5649000Y-7030900D01*
X5599000Y-6980900D01*
X5549000Y-7030900D01*
X5599000Y-7080900D01*
X5667300Y-4406350D02*
X5717300Y-4356350D01*
X5667300Y-4306350D01*
X5617300Y-4356350D01*
X5667300Y-4406350D01*
X5667300Y-5930350D02*
X5717300Y-5880350D01*
X5667300Y-5830350D01*
X5617300Y-5880350D01*
X5667300Y-5930350D01*
X5668500Y-2576000D02*
X5718500Y-2526000D01*
X5668500Y-2476000D01*
X5618500Y-2526000D01*
X5668500Y-2576000D01*
X5668500Y-2830000D02*
X5718500Y-2780000D01*
X5668500Y-2730000D01*
X5618500Y-2780000D01*
X5668500Y-2830000D01*
X5921300Y-4406350D02*
X5971300Y-4356350D01*
X5921300Y-4306350D01*
X5871300Y-4356350D01*
X5921300Y-4406350D01*
X5921300Y-5930350D02*
X5971300Y-5880350D01*
X5921300Y-5830350D01*
X5871300Y-5880350D01*
X5921300Y-5930350D01*
X5922500Y-2576000D02*
X5972500Y-2526000D01*
X5922500Y-2476000D01*
X5872500Y-2526000D01*
X5922500Y-2576000D01*
X5922500Y-2830000D02*
X5972500Y-2780000D01*
X5922500Y-2730000D01*
X5872500Y-2780000D01*
X5922500Y-2830000D01*
X6175300Y-4406350D02*
X6225300Y-4356350D01*
X6175300Y-4306350D01*
X6125300Y-4356350D01*
X6175300Y-4406350D01*
X6175300Y-5930350D02*
X6225300Y-5880350D01*
X6175300Y-5830350D01*
X6125300Y-5880350D01*
X6175300Y-5930350D01*
X6176500Y-2576000D02*
X6226500Y-2526000D01*
X6176500Y-2476000D01*
X6126500Y-2526000D01*
X6176500Y-2576000D01*
X6176500Y-2830000D02*
X6226500Y-2780000D01*
X6176500Y-2730000D01*
X6126500Y-2780000D01*
X6176500Y-2830000D01*
X6429300Y-4406350D02*
X6479300Y-4356350D01*
X6429300Y-4306350D01*
X6379300Y-4356350D01*
X6429300Y-4406350D01*
X6429300Y-5930350D02*
X6479300Y-5880350D01*
X6429300Y-5830350D01*
X6379300Y-5880350D01*
X6429300Y-5930350D01*
X6430500Y-2576000D02*
X6480500Y-2526000D01*
X6430500Y-2476000D01*
X6380500Y-2526000D01*
X6430500Y-2576000D01*
X6430500Y-2830000D02*
X6480500Y-2780000D01*
X6430500Y-2730000D01*
X6380500Y-2780000D01*
X6430500Y-2830000D01*
X6683300Y-4406350D02*
X6733300Y-4356350D01*
X6683300Y-4306350D01*
X6633300Y-4356350D01*
X6683300Y-4406350D01*
X6683300Y-5930350D02*
X6733300Y-5880350D01*
X6683300Y-5830350D01*
X6633300Y-5880350D01*
X6683300Y-5930350D01*
X6684500Y-2576000D02*
X6734500Y-2526000D01*
X6684500Y-2476000D01*
X6634500Y-2526000D01*
X6684500Y-2576000D01*
X6684500Y-2830000D02*
X6734500Y-2780000D01*
X6684500Y-2730000D01*
X6634500Y-2780000D01*
X6684500Y-2830000D01*
X6937300Y-4406350D02*
X6987300Y-4356350D01*
X6937300Y-4306350D01*
X6887300Y-4356350D01*
X6937300Y-4406350D01*
X6937300Y-5930350D02*
X6987300Y-5880350D01*
X6937300Y-5830350D01*
X6887300Y-5880350D01*
X6937300Y-5930350D01*
X6938500Y-2576000D02*
X6988500Y-2526000D01*
X6938500Y-2476000D01*
X6888500Y-2526000D01*
X6938500Y-2576000D01*
X6938500Y-2830000D02*
X6988500Y-2780000D01*
X6938500Y-2730000D01*
X6888500Y-2780000D01*
X6938500Y-2830000D01*
X7191300Y-4406350D02*
X7241300Y-4356350D01*
X7191300Y-4306350D01*
X7141300Y-4356350D01*
X7191300Y-4406350D01*
X7191300Y-5930350D02*
X7241300Y-5880350D01*
X7191300Y-5830350D01*
X7141300Y-5880350D01*
X7191300Y-5930350D01*
X7192500Y-2576000D02*
X7242500Y-2526000D01*
X7192500Y-2476000D01*
X7142500Y-2526000D01*
X7192500Y-2576000D01*
X7192500Y-2830000D02*
X7242500Y-2780000D01*
X7192500Y-2730000D01*
X7142500Y-2780000D01*
X7192500Y-2830000D01*
X7446500Y-2576000D02*
X7496500Y-2526000D01*
X7446500Y-2476000D01*
X7396500Y-2526000D01*
X7446500Y-2576000D01*
X7446500Y-2830000D02*
X7496500Y-2780000D01*
X7446500Y-2730000D01*
X7396500Y-2780000D01*
X7446500Y-2830000D01*
X7700500Y-2576000D02*
X7750500Y-2526000D01*
X7700500Y-2476000D01*
X7650500Y-2526000D01*
X7700500Y-2576000D01*
X7700500Y-2830000D02*
X7750500Y-2780000D01*
X7700500Y-2730000D01*
X7650500Y-2780000D01*
X7700500Y-2830000D01*
X7954500Y-2576000D02*
X8004500Y-2526000D01*
X7954500Y-2476000D01*
X7904500Y-2526000D01*
X7954500Y-2576000D01*
X7954500Y-2830000D02*
X8004500Y-2780000D01*
X7954500Y-2730000D01*
X7904500Y-2780000D01*
X7954500Y-2830000D01*
X8208500Y-2576000D02*
X8258500Y-2526000D01*
X8208500Y-2476000D01*
X8158500Y-2526000D01*
X8208500Y-2576000D01*
X8208500Y-2830000D02*
X8258500Y-2780000D01*
X8208500Y-2730000D01*
X8158500Y-2780000D01*
X8208500Y-2830000D01*
X8343400Y-4407520D02*
X8393400Y-4357520D01*
X8343400Y-4307520D01*
X8293400Y-4357520D01*
X8343400Y-4407520D01*
X8343400Y-4661520D02*
X8393400Y-4611520D01*
X8343400Y-4561520D01*
X8293400Y-4611520D01*
X8343400Y-4661520D01*
X8462500Y-2576000D02*
X8512500Y-2526000D01*
X8462500Y-2476000D01*
X8412500Y-2526000D01*
X8462500Y-2576000D01*
X8462500Y-2830000D02*
X8512500Y-2780000D01*
X8462500Y-2730000D01*
X8412500Y-2780000D01*
X8462500Y-2830000D01*
X9779000Y-4049000D02*
X9829000Y-3999000D01*
X9779000Y-3949000D01*
X9729000Y-3999000D01*
X9779000Y-4049000D01*
X9779000Y-4303000D02*
X9829000Y-4253000D01*
X9779000Y-4203000D01*
X9729000Y-4253000D01*
X9779000Y-4303000D01*
X9779000Y-4557000D02*
X9829000Y-4507000D01*
X9779000Y-4457000D01*
X9729000Y-4507000D01*
X9779000Y-4557000D01*
X10016690Y-7280310D02*
X10066690Y-7230310D01*
X10016690Y-7180310D01*
X9966690Y-7230310D01*
X10016690Y-7280310D01*
X10375900Y-6921100D02*
X10425900Y-6871100D01*
X10375900Y-6821100D01*
X10325900Y-6871100D01*
X10375900Y-6921100D01*
X10375900Y-7639520D02*
X10425900Y-7589520D01*
X10375900Y-7539520D01*
X10325900Y-7589520D01*
X10375900Y-7639520D01*
X10735110Y-7280310D02*
X10785110Y-7230310D01*
X10735110Y-7180310D01*
X10685110Y-7230310D01*
X10735110Y-7280310D01*
D16*
X10163500Y-5389396D02*
X10283500Y-5509396D01*
X10283500Y-5389396D02*
X10163500Y-5509396D01*
X10283500Y-5449396D02*
G75*
G03*
X10283500Y-5449396I-60000J0D01*
G01*
X10163500Y-6139396D02*
X10283500Y-6259396D01*
X10283500Y-6139396D02*
X10163500Y-6259396D01*
X10283500Y-6199396D02*
G75*
G03*
X10283500Y-6199396I-60000J0D01*
G01*
X11814500Y-2734000D02*
X11934500Y-2854000D01*
X11934500Y-2734000D02*
X11814500Y-2854000D01*
X11934500Y-2794000D02*
G75*
G03*
X11934500Y-2794000I-60000J0D01*
G01*
X11814500Y-4004000D02*
X11934500Y-4124000D01*
X11934500Y-4004000D02*
X11814500Y-4124000D01*
X11934500Y-4064000D02*
G75*
G03*
X11934500Y-4064000I-60000J0D01*
G01*
X11814500Y-6163000D02*
X11934500Y-6283000D01*
X11934500Y-6163000D02*
X11814500Y-6283000D01*
X11934500Y-6223000D02*
G75*
G03*
X11934500Y-6223000I-60000J0D01*
G01*
X11814500Y-7433000D02*
X11934500Y-7553000D01*
X11934500Y-7433000D02*
X11814500Y-7553000D01*
X11934500Y-7493000D02*
G75*
G03*
X11934500Y-7493000I-60000J0D01*
G01*
D17*
X12306500Y-4559500D02*
X12458500Y-4711500D01*
X12458500Y-4559500D02*
X12306500Y-4711500D01*
X12382500Y-4559500D02*
X12382500Y-4711500D01*
X12306500Y-4635500D02*
X12458500Y-4635500D01*
X12306500Y-5067500D02*
X12458500Y-5219500D01*
X12458500Y-5067500D02*
X12306500Y-5219500D01*
X12382500Y-5067500D02*
X12382500Y-5219500D01*
X12306500Y-5143500D02*
X12458500Y-5143500D01*
X12306500Y-5575500D02*
X12458500Y-5727500D01*
X12458500Y-5575500D02*
X12306500Y-5727500D01*
X12382500Y-5575500D02*
X12382500Y-5727500D01*
X12306500Y-5651500D02*
X12458500Y-5651500D01*
D11*
X3044390Y-8273104D02*
X3044390Y-8073104D01*
X3092009Y-8073104D01*
X3120580Y-8082627D01*
X3139628Y-8101675D01*
X3149152Y-8120723D01*
X3158676Y-8158818D01*
X3158676Y-8187389D01*
X3149152Y-8225485D01*
X3139628Y-8244532D01*
X3120580Y-8263580D01*
X3092009Y-8273104D01*
X3044390Y-8273104D01*
X3244390Y-8273104D02*
X3244390Y-8139770D01*
X3244390Y-8177865D02*
X3253914Y-8158818D01*
X3263437Y-8149294D01*
X3282485Y-8139770D01*
X3301533Y-8139770D01*
X3368199Y-8273104D02*
X3368199Y-8139770D01*
X3368199Y-8073104D02*
X3358676Y-8082627D01*
X3368199Y-8092151D01*
X3377723Y-8082627D01*
X3368199Y-8073104D01*
X3368199Y-8092151D01*
X3492009Y-8273104D02*
X3472961Y-8263580D01*
X3463437Y-8244532D01*
X3463437Y-8073104D01*
X3596771Y-8273104D02*
X3577723Y-8263580D01*
X3568199Y-8244532D01*
X3568199Y-8073104D01*
X3825342Y-8273104D02*
X3825342Y-8073104D01*
X3892009Y-8215961D01*
X3958676Y-8073104D01*
X3958676Y-8273104D01*
X4139628Y-8273104D02*
X4139628Y-8168342D01*
X4130104Y-8149294D01*
X4111057Y-8139770D01*
X4072961Y-8139770D01*
X4053914Y-8149294D01*
X4139628Y-8263580D02*
X4120580Y-8273104D01*
X4072961Y-8273104D01*
X4053914Y-8263580D01*
X4044390Y-8244532D01*
X4044390Y-8225485D01*
X4053914Y-8206437D01*
X4072961Y-8196913D01*
X4120580Y-8196913D01*
X4139628Y-8187389D01*
X4234866Y-8139770D02*
X4234866Y-8339770D01*
X4234866Y-8149294D02*
X4253914Y-8139770D01*
X4292009Y-8139770D01*
X4311057Y-8149294D01*
X4320580Y-8158818D01*
X4330104Y-8177865D01*
X4330104Y-8235008D01*
X4320580Y-8254056D01*
X4311057Y-8263580D01*
X4292009Y-8273104D01*
X4253914Y-8273104D01*
X4234866Y-8263580D01*
X4415819Y-8254056D02*
X4425342Y-8263580D01*
X4415819Y-8273104D01*
X4406295Y-8263580D01*
X4415819Y-8254056D01*
X4415819Y-8273104D01*
X4415819Y-8149294D02*
X4425342Y-8158818D01*
X4415819Y-8168342D01*
X4406295Y-8158818D01*
X4415819Y-8149294D01*
X4415819Y-8168342D01*
D12*
X2746771Y-8582628D02*
X2786771Y-8622628D01*
X2786771Y-8582628D02*
X2746771Y-8622628D01*
D11*
X3082485Y-8493104D02*
X3101533Y-8493104D01*
X3120580Y-8502628D01*
X3130104Y-8512151D01*
X3139628Y-8531199D01*
X3149152Y-8569294D01*
X3149152Y-8616913D01*
X3139628Y-8655008D01*
X3130104Y-8674056D01*
X3120580Y-8683580D01*
X3101533Y-8693104D01*
X3082485Y-8693104D01*
X3063437Y-8683580D01*
X3053914Y-8674056D01*
X3044390Y-8655008D01*
X3034866Y-8616913D01*
X3034866Y-8569294D01*
X3044390Y-8531199D01*
X3053914Y-8512151D01*
X3063437Y-8502628D01*
X3082485Y-8493104D01*
X3234866Y-8674056D02*
X3244390Y-8683580D01*
X3234866Y-8693104D01*
X3225342Y-8683580D01*
X3234866Y-8674056D01*
X3234866Y-8693104D01*
X3415818Y-8559770D02*
X3415818Y-8693104D01*
X3368199Y-8483580D02*
X3320580Y-8626437D01*
X3444390Y-8626437D01*
X3558676Y-8493104D02*
X3577723Y-8493104D01*
X3596771Y-8502628D01*
X3606295Y-8512151D01*
X3615818Y-8531199D01*
X3625342Y-8569294D01*
X3625342Y-8616913D01*
X3615818Y-8655008D01*
X3606295Y-8674056D01*
X3596771Y-8683580D01*
X3577723Y-8693104D01*
X3558676Y-8693104D01*
X3539628Y-8683580D01*
X3530104Y-8674056D01*
X3520580Y-8655008D01*
X3511057Y-8616913D01*
X3511057Y-8569294D01*
X3520580Y-8531199D01*
X3530104Y-8512151D01*
X3539628Y-8502628D01*
X3558676Y-8493104D01*
X3749152Y-8493104D02*
X3768199Y-8493104D01*
X3787247Y-8502628D01*
X3796771Y-8512151D01*
X3806295Y-8531199D01*
X3815818Y-8569294D01*
X3815818Y-8616913D01*
X3806295Y-8655008D01*
X3796771Y-8674056D01*
X3787247Y-8683580D01*
X3768199Y-8693104D01*
X3749152Y-8693104D01*
X3730104Y-8683580D01*
X3720580Y-8674056D01*
X3711057Y-8655008D01*
X3701533Y-8616913D01*
X3701533Y-8569294D01*
X3711057Y-8531199D01*
X3720580Y-8512151D01*
X3730104Y-8502628D01*
X3749152Y-8493104D01*
X3901533Y-8693104D02*
X3901533Y-8559770D01*
X3901533Y-8578818D02*
X3911057Y-8569294D01*
X3930104Y-8559770D01*
X3958676Y-8559770D01*
X3977723Y-8569294D01*
X3987247Y-8588342D01*
X3987247Y-8693104D01*
X3987247Y-8588342D02*
X3996771Y-8569294D01*
X4015818Y-8559770D01*
X4044390Y-8559770D01*
X4063437Y-8569294D01*
X4072961Y-8588342D01*
X4072961Y-8693104D01*
X4168199Y-8693104D02*
X4168199Y-8559770D01*
X4168199Y-8578818D02*
X4177723Y-8569294D01*
X4196771Y-8559770D01*
X4225342Y-8559770D01*
X4244390Y-8569294D01*
X4253914Y-8588342D01*
X4253914Y-8693104D01*
X4253914Y-8588342D02*
X4263438Y-8569294D01*
X4282485Y-8559770D01*
X4311057Y-8559770D01*
X4330104Y-8569294D01*
X4339628Y-8588342D01*
X4339628Y-8693104D01*
X4730104Y-8483580D02*
X4558676Y-8740723D01*
X4987247Y-8493104D02*
X5006295Y-8493104D01*
X5025342Y-8502628D01*
X5034866Y-8512151D01*
X5044390Y-8531199D01*
X5053914Y-8569294D01*
X5053914Y-8616913D01*
X5044390Y-8655008D01*
X5034866Y-8674056D01*
X5025342Y-8683580D01*
X5006295Y-8693104D01*
X4987247Y-8693104D01*
X4968199Y-8683580D01*
X4958676Y-8674056D01*
X4949152Y-8655008D01*
X4939628Y-8616913D01*
X4939628Y-8569294D01*
X4949152Y-8531199D01*
X4958676Y-8512151D01*
X4968199Y-8502628D01*
X4987247Y-8493104D01*
X5139628Y-8674056D02*
X5149152Y-8683580D01*
X5139628Y-8693104D01*
X5130104Y-8683580D01*
X5139628Y-8674056D01*
X5139628Y-8693104D01*
X5272961Y-8493104D02*
X5292009Y-8493104D01*
X5311057Y-8502628D01*
X5320580Y-8512151D01*
X5330104Y-8531199D01*
X5339628Y-8569294D01*
X5339628Y-8616913D01*
X5330104Y-8655008D01*
X5320580Y-8674056D01*
X5311057Y-8683580D01*
X5292009Y-8693104D01*
X5272961Y-8693104D01*
X5253914Y-8683580D01*
X5244390Y-8674056D01*
X5234866Y-8655008D01*
X5225342Y-8616913D01*
X5225342Y-8569294D01*
X5234866Y-8531199D01*
X5244390Y-8512151D01*
X5253914Y-8502628D01*
X5272961Y-8493104D01*
X5530104Y-8693104D02*
X5415819Y-8693104D01*
X5472961Y-8693104D02*
X5472961Y-8493104D01*
X5453914Y-8521675D01*
X5434866Y-8540723D01*
X5415819Y-8550247D01*
X5711057Y-8493104D02*
X5615818Y-8493104D01*
X5606295Y-8588342D01*
X5615818Y-8578818D01*
X5634866Y-8569294D01*
X5682485Y-8569294D01*
X5701533Y-8578818D01*
X5711057Y-8588342D01*
X5720580Y-8607389D01*
X5720580Y-8655008D01*
X5711057Y-8674056D01*
X5701533Y-8683580D01*
X5682485Y-8693104D01*
X5634866Y-8693104D01*
X5615818Y-8683580D01*
X5606295Y-8674056D01*
X5787247Y-8493104D02*
X5920580Y-8493104D01*
X5834866Y-8693104D01*
X5987247Y-8493104D02*
X5987247Y-8531199D01*
X6063437Y-8493104D02*
X6063437Y-8531199D01*
X6358676Y-8769294D02*
X6349152Y-8759770D01*
X6330104Y-8731199D01*
X6320580Y-8712151D01*
X6311057Y-8683580D01*
X6301533Y-8635961D01*
X6301533Y-8597866D01*
X6311057Y-8550247D01*
X6320580Y-8521675D01*
X6330104Y-8502628D01*
X6349152Y-8474056D01*
X6358676Y-8464532D01*
X6444390Y-8693104D02*
X6482485Y-8693104D01*
X6501533Y-8683580D01*
X6511057Y-8674056D01*
X6530104Y-8645485D01*
X6539628Y-8607389D01*
X6539628Y-8531199D01*
X6530104Y-8512151D01*
X6520580Y-8502628D01*
X6501533Y-8493104D01*
X6463437Y-8493104D01*
X6444390Y-8502628D01*
X6434866Y-8512151D01*
X6425342Y-8531199D01*
X6425342Y-8578818D01*
X6434866Y-8597866D01*
X6444390Y-8607389D01*
X6463437Y-8616913D01*
X6501533Y-8616913D01*
X6520580Y-8607389D01*
X6530104Y-8597866D01*
X6539628Y-8578818D01*
X6711057Y-8493104D02*
X6672961Y-8493104D01*
X6653914Y-8502628D01*
X6644390Y-8512151D01*
X6625342Y-8540723D01*
X6615818Y-8578818D01*
X6615818Y-8655008D01*
X6625342Y-8674056D01*
X6634866Y-8683580D01*
X6653914Y-8693104D01*
X6692009Y-8693104D01*
X6711057Y-8683580D01*
X6720580Y-8674056D01*
X6730104Y-8655008D01*
X6730104Y-8607389D01*
X6720580Y-8588342D01*
X6711057Y-8578818D01*
X6692009Y-8569294D01*
X6653914Y-8569294D01*
X6634866Y-8578818D01*
X6625342Y-8588342D01*
X6615818Y-8607389D01*
X6968199Y-8693104D02*
X6968199Y-8493104D01*
X7053914Y-8693104D02*
X7053914Y-8588342D01*
X7044390Y-8569294D01*
X7025342Y-8559770D01*
X6996771Y-8559770D01*
X6977723Y-8569294D01*
X6968199Y-8578818D01*
X7177723Y-8693104D02*
X7158676Y-8683580D01*
X7149152Y-8674056D01*
X7139628Y-8655008D01*
X7139628Y-8597866D01*
X7149152Y-8578818D01*
X7158676Y-8569294D01*
X7177723Y-8559770D01*
X7206295Y-8559770D01*
X7225342Y-8569294D01*
X7234866Y-8578818D01*
X7244390Y-8597866D01*
X7244390Y-8655008D01*
X7234866Y-8674056D01*
X7225342Y-8683580D01*
X7206295Y-8693104D01*
X7177723Y-8693104D01*
X7358676Y-8693104D02*
X7339628Y-8683580D01*
X7330104Y-8664532D01*
X7330104Y-8493104D01*
X7511057Y-8683580D02*
X7492009Y-8693104D01*
X7453914Y-8693104D01*
X7434866Y-8683580D01*
X7425342Y-8664532D01*
X7425342Y-8588342D01*
X7434866Y-8569294D01*
X7453914Y-8559770D01*
X7492009Y-8559770D01*
X7511057Y-8569294D01*
X7520580Y-8588342D01*
X7520580Y-8607389D01*
X7425342Y-8626437D01*
X7596771Y-8683580D02*
X7615818Y-8693104D01*
X7653914Y-8693104D01*
X7672961Y-8683580D01*
X7682485Y-8664532D01*
X7682485Y-8655008D01*
X7672961Y-8635961D01*
X7653914Y-8626437D01*
X7625342Y-8626437D01*
X7606295Y-8616913D01*
X7596771Y-8597866D01*
X7596771Y-8588342D01*
X7606295Y-8569294D01*
X7625342Y-8559770D01*
X7653914Y-8559770D01*
X7672961Y-8569294D01*
X7749152Y-8769294D02*
X7758676Y-8759770D01*
X7777723Y-8731199D01*
X7787247Y-8712151D01*
X7796771Y-8683580D01*
X7806295Y-8635961D01*
X7806295Y-8597866D01*
X7796771Y-8550247D01*
X7787247Y-8521675D01*
X7777723Y-8502628D01*
X7758676Y-8474056D01*
X7749152Y-8464532D01*
D12*
X2786771Y-8866628D02*
G75*
G03*
X2786771Y-8866628I-20000J0D01*
G01*
D11*
X3082485Y-8757104D02*
X3101533Y-8757104D01*
X3120580Y-8766628D01*
X3130104Y-8776151D01*
X3139628Y-8795199D01*
X3149152Y-8833294D01*
X3149152Y-8880913D01*
X3139628Y-8919008D01*
X3130104Y-8938056D01*
X3120580Y-8947580D01*
X3101533Y-8957104D01*
X3082485Y-8957104D01*
X3063437Y-8947580D01*
X3053914Y-8938056D01*
X3044390Y-8919008D01*
X3034866Y-8880913D01*
X3034866Y-8833294D01*
X3044390Y-8795199D01*
X3053914Y-8776151D01*
X3063437Y-8766628D01*
X3082485Y-8757104D01*
X3234866Y-8938056D02*
X3244390Y-8947580D01*
X3234866Y-8957104D01*
X3225342Y-8947580D01*
X3234866Y-8938056D01*
X3234866Y-8957104D01*
X3415818Y-8823770D02*
X3415818Y-8957104D01*
X3368199Y-8747580D02*
X3320580Y-8890437D01*
X3444390Y-8890437D01*
X3558676Y-8757104D02*
X3577723Y-8757104D01*
X3596771Y-8766628D01*
X3606295Y-8776151D01*
X3615818Y-8795199D01*
X3625342Y-8833294D01*
X3625342Y-8880913D01*
X3615818Y-8919008D01*
X3606295Y-8938056D01*
X3596771Y-8947580D01*
X3577723Y-8957104D01*
X3558676Y-8957104D01*
X3539628Y-8947580D01*
X3530104Y-8938056D01*
X3520580Y-8919008D01*
X3511057Y-8880913D01*
X3511057Y-8833294D01*
X3520580Y-8795199D01*
X3530104Y-8776151D01*
X3539628Y-8766628D01*
X3558676Y-8757104D01*
X3749152Y-8757104D02*
X3768199Y-8757104D01*
X3787247Y-8766628D01*
X3796771Y-8776151D01*
X3806295Y-8795199D01*
X3815818Y-8833294D01*
X3815818Y-8880913D01*
X3806295Y-8919008D01*
X3796771Y-8938056D01*
X3787247Y-8947580D01*
X3768199Y-8957104D01*
X3749152Y-8957104D01*
X3730104Y-8947580D01*
X3720580Y-8938056D01*
X3711057Y-8919008D01*
X3701533Y-8880913D01*
X3701533Y-8833294D01*
X3711057Y-8795199D01*
X3720580Y-8776151D01*
X3730104Y-8766628D01*
X3749152Y-8757104D01*
X3901533Y-8957104D02*
X3901533Y-8823770D01*
X3901533Y-8842818D02*
X3911057Y-8833294D01*
X3930104Y-8823770D01*
X3958676Y-8823770D01*
X3977723Y-8833294D01*
X3987247Y-8852342D01*
X3987247Y-8957104D01*
X3987247Y-8852342D02*
X3996771Y-8833294D01*
X4015818Y-8823770D01*
X4044390Y-8823770D01*
X4063437Y-8833294D01*
X4072961Y-8852342D01*
X4072961Y-8957104D01*
X4168199Y-8957104D02*
X4168199Y-8823770D01*
X4168199Y-8842818D02*
X4177723Y-8833294D01*
X4196771Y-8823770D01*
X4225342Y-8823770D01*
X4244390Y-8833294D01*
X4253914Y-8852342D01*
X4253914Y-8957104D01*
X4253914Y-8852342D02*
X4263438Y-8833294D01*
X4282485Y-8823770D01*
X4311057Y-8823770D01*
X4330104Y-8833294D01*
X4339628Y-8852342D01*
X4339628Y-8957104D01*
X4730104Y-8747580D02*
X4558676Y-9004723D01*
X4987247Y-8757104D02*
X5006295Y-8757104D01*
X5025342Y-8766628D01*
X5034866Y-8776151D01*
X5044390Y-8795199D01*
X5053914Y-8833294D01*
X5053914Y-8880913D01*
X5044390Y-8919008D01*
X5034866Y-8938056D01*
X5025342Y-8947580D01*
X5006295Y-8957104D01*
X4987247Y-8957104D01*
X4968199Y-8947580D01*
X4958676Y-8938056D01*
X4949152Y-8919008D01*
X4939628Y-8880913D01*
X4939628Y-8833294D01*
X4949152Y-8795199D01*
X4958676Y-8776151D01*
X4968199Y-8766628D01*
X4987247Y-8757104D01*
X5139628Y-8938056D02*
X5149152Y-8947580D01*
X5139628Y-8957104D01*
X5130104Y-8947580D01*
X5139628Y-8938056D01*
X5139628Y-8957104D01*
X5272961Y-8757104D02*
X5292009Y-8757104D01*
X5311057Y-8766628D01*
X5320580Y-8776151D01*
X5330104Y-8795199D01*
X5339628Y-8833294D01*
X5339628Y-8880913D01*
X5330104Y-8919008D01*
X5320580Y-8938056D01*
X5311057Y-8947580D01*
X5292009Y-8957104D01*
X5272961Y-8957104D01*
X5253914Y-8947580D01*
X5244390Y-8938056D01*
X5234866Y-8919008D01*
X5225342Y-8880913D01*
X5225342Y-8833294D01*
X5234866Y-8795199D01*
X5244390Y-8776151D01*
X5253914Y-8766628D01*
X5272961Y-8757104D01*
X5530104Y-8957104D02*
X5415819Y-8957104D01*
X5472961Y-8957104D02*
X5472961Y-8757104D01*
X5453914Y-8785675D01*
X5434866Y-8804723D01*
X5415819Y-8814247D01*
X5711057Y-8757104D02*
X5615818Y-8757104D01*
X5606295Y-8852342D01*
X5615818Y-8842818D01*
X5634866Y-8833294D01*
X5682485Y-8833294D01*
X5701533Y-8842818D01*
X5711057Y-8852342D01*
X5720580Y-8871389D01*
X5720580Y-8919008D01*
X5711057Y-8938056D01*
X5701533Y-8947580D01*
X5682485Y-8957104D01*
X5634866Y-8957104D01*
X5615818Y-8947580D01*
X5606295Y-8938056D01*
X5787247Y-8757104D02*
X5920580Y-8757104D01*
X5834866Y-8957104D01*
X5987247Y-8757104D02*
X5987247Y-8795199D01*
X6063437Y-8757104D02*
X6063437Y-8795199D01*
X6358676Y-9033294D02*
X6349152Y-9023770D01*
X6330104Y-8995199D01*
X6320580Y-8976151D01*
X6311057Y-8947580D01*
X6301533Y-8899961D01*
X6301533Y-8861866D01*
X6311057Y-8814247D01*
X6320580Y-8785675D01*
X6330104Y-8766628D01*
X6349152Y-8738056D01*
X6358676Y-8728532D01*
X6539628Y-8957104D02*
X6425342Y-8957104D01*
X6482485Y-8957104D02*
X6482485Y-8757104D01*
X6463437Y-8785675D01*
X6444390Y-8804723D01*
X6425342Y-8814247D01*
X6634866Y-8957104D02*
X6672961Y-8957104D01*
X6692009Y-8947580D01*
X6701533Y-8938056D01*
X6720580Y-8909485D01*
X6730104Y-8871389D01*
X6730104Y-8795199D01*
X6720580Y-8776151D01*
X6711057Y-8766628D01*
X6692009Y-8757104D01*
X6653914Y-8757104D01*
X6634866Y-8766628D01*
X6625342Y-8776151D01*
X6615818Y-8795199D01*
X6615818Y-8842818D01*
X6625342Y-8861866D01*
X6634866Y-8871389D01*
X6653914Y-8880913D01*
X6692009Y-8880913D01*
X6711057Y-8871389D01*
X6720580Y-8861866D01*
X6730104Y-8842818D01*
X6968199Y-8957104D02*
X6968199Y-8757104D01*
X7053914Y-8957104D02*
X7053914Y-8852342D01*
X7044390Y-8833294D01*
X7025342Y-8823770D01*
X6996771Y-8823770D01*
X6977723Y-8833294D01*
X6968199Y-8842818D01*
X7177723Y-8957104D02*
X7158676Y-8947580D01*
X7149152Y-8938056D01*
X7139628Y-8919008D01*
X7139628Y-8861866D01*
X7149152Y-8842818D01*
X7158676Y-8833294D01*
X7177723Y-8823770D01*
X7206295Y-8823770D01*
X7225342Y-8833294D01*
X7234866Y-8842818D01*
X7244390Y-8861866D01*
X7244390Y-8919008D01*
X7234866Y-8938056D01*
X7225342Y-8947580D01*
X7206295Y-8957104D01*
X7177723Y-8957104D01*
X7358676Y-8957104D02*
X7339628Y-8947580D01*
X7330104Y-8928532D01*
X7330104Y-8757104D01*
X7511057Y-8947580D02*
X7492009Y-8957104D01*
X7453914Y-8957104D01*
X7434866Y-8947580D01*
X7425342Y-8928532D01*
X7425342Y-8852342D01*
X7434866Y-8833294D01*
X7453914Y-8823770D01*
X7492009Y-8823770D01*
X7511057Y-8833294D01*
X7520580Y-8852342D01*
X7520580Y-8871389D01*
X7425342Y-8890437D01*
X7596771Y-8947580D02*
X7615818Y-8957104D01*
X7653914Y-8957104D01*
X7672961Y-8947580D01*
X7682485Y-8928532D01*
X7682485Y-8919008D01*
X7672961Y-8899961D01*
X7653914Y-8890437D01*
X7625342Y-8890437D01*
X7606295Y-8880913D01*
X7596771Y-8861866D01*
X7596771Y-8852342D01*
X7606295Y-8833294D01*
X7625342Y-8823770D01*
X7653914Y-8823770D01*
X7672961Y-8833294D01*
X7749152Y-9033294D02*
X7758676Y-9023770D01*
X7777723Y-8995199D01*
X7787247Y-8976151D01*
X7796771Y-8947580D01*
X7806295Y-8899961D01*
X7806295Y-8861866D01*
X7796771Y-8814247D01*
X7787247Y-8785675D01*
X7777723Y-8766628D01*
X7758676Y-8738056D01*
X7749152Y-8728532D01*
D13*
X2751771Y-9095628D02*
X2751771Y-9165628D01*
X2716771Y-9130628D02*
X2786771Y-9130628D01*
D11*
X3082485Y-9021104D02*
X3101533Y-9021104D01*
X3120580Y-9030628D01*
X3130104Y-9040151D01*
X3139628Y-9059199D01*
X3149152Y-9097294D01*
X3149152Y-9144913D01*
X3139628Y-9183008D01*
X3130104Y-9202056D01*
X3120580Y-9211580D01*
X3101533Y-9221104D01*
X3082485Y-9221104D01*
X3063437Y-9211580D01*
X3053914Y-9202056D01*
X3044390Y-9183008D01*
X3034866Y-9144913D01*
X3034866Y-9097294D01*
X3044390Y-9059199D01*
X3053914Y-9040151D01*
X3063437Y-9030628D01*
X3082485Y-9021104D01*
X3234866Y-9202056D02*
X3244390Y-9211580D01*
X3234866Y-9221104D01*
X3225342Y-9211580D01*
X3234866Y-9202056D01*
X3234866Y-9221104D01*
X3311057Y-9021104D02*
X3444390Y-9021104D01*
X3358676Y-9221104D01*
X3558676Y-9021104D02*
X3577723Y-9021104D01*
X3596771Y-9030628D01*
X3606295Y-9040151D01*
X3615818Y-9059199D01*
X3625342Y-9097294D01*
X3625342Y-9144913D01*
X3615818Y-9183008D01*
X3606295Y-9202056D01*
X3596771Y-9211580D01*
X3577723Y-9221104D01*
X3558676Y-9221104D01*
X3539628Y-9211580D01*
X3530104Y-9202056D01*
X3520580Y-9183008D01*
X3511057Y-9144913D01*
X3511057Y-9097294D01*
X3520580Y-9059199D01*
X3530104Y-9040151D01*
X3539628Y-9030628D01*
X3558676Y-9021104D01*
X3749152Y-9021104D02*
X3768199Y-9021104D01*
X3787247Y-9030628D01*
X3796771Y-9040151D01*
X3806295Y-9059199D01*
X3815818Y-9097294D01*
X3815818Y-9144913D01*
X3806295Y-9183008D01*
X3796771Y-9202056D01*
X3787247Y-9211580D01*
X3768199Y-9221104D01*
X3749152Y-9221104D01*
X3730104Y-9211580D01*
X3720580Y-9202056D01*
X3711057Y-9183008D01*
X3701533Y-9144913D01*
X3701533Y-9097294D01*
X3711057Y-9059199D01*
X3720580Y-9040151D01*
X3730104Y-9030628D01*
X3749152Y-9021104D01*
X3901533Y-9221104D02*
X3901533Y-9087770D01*
X3901533Y-9106818D02*
X3911057Y-9097294D01*
X3930104Y-9087770D01*
X3958676Y-9087770D01*
X3977723Y-9097294D01*
X3987247Y-9116342D01*
X3987247Y-9221104D01*
X3987247Y-9116342D02*
X3996771Y-9097294D01*
X4015818Y-9087770D01*
X4044390Y-9087770D01*
X4063437Y-9097294D01*
X4072961Y-9116342D01*
X4072961Y-9221104D01*
X4168199Y-9221104D02*
X4168199Y-9087770D01*
X4168199Y-9106818D02*
X4177723Y-9097294D01*
X4196771Y-9087770D01*
X4225342Y-9087770D01*
X4244390Y-9097294D01*
X4253914Y-9116342D01*
X4253914Y-9221104D01*
X4253914Y-9116342D02*
X4263438Y-9097294D01*
X4282485Y-9087770D01*
X4311057Y-9087770D01*
X4330104Y-9097294D01*
X4339628Y-9116342D01*
X4339628Y-9221104D01*
X4730104Y-9011580D02*
X4558676Y-9268723D01*
X4987247Y-9021104D02*
X5006295Y-9021104D01*
X5025342Y-9030628D01*
X5034866Y-9040151D01*
X5044390Y-9059199D01*
X5053914Y-9097294D01*
X5053914Y-9144913D01*
X5044390Y-9183008D01*
X5034866Y-9202056D01*
X5025342Y-9211580D01*
X5006295Y-9221104D01*
X4987247Y-9221104D01*
X4968199Y-9211580D01*
X4958676Y-9202056D01*
X4949152Y-9183008D01*
X4939628Y-9144913D01*
X4939628Y-9097294D01*
X4949152Y-9059199D01*
X4958676Y-9040151D01*
X4968199Y-9030628D01*
X4987247Y-9021104D01*
X5139628Y-9202056D02*
X5149152Y-9211580D01*
X5139628Y-9221104D01*
X5130104Y-9211580D01*
X5139628Y-9202056D01*
X5139628Y-9221104D01*
X5272961Y-9021104D02*
X5292009Y-9021104D01*
X5311057Y-9030628D01*
X5320580Y-9040151D01*
X5330104Y-9059199D01*
X5339628Y-9097294D01*
X5339628Y-9144913D01*
X5330104Y-9183008D01*
X5320580Y-9202056D01*
X5311057Y-9211580D01*
X5292009Y-9221104D01*
X5272961Y-9221104D01*
X5253914Y-9211580D01*
X5244390Y-9202056D01*
X5234866Y-9183008D01*
X5225342Y-9144913D01*
X5225342Y-9097294D01*
X5234866Y-9059199D01*
X5244390Y-9040151D01*
X5253914Y-9030628D01*
X5272961Y-9021104D01*
X5415819Y-9040151D02*
X5425342Y-9030628D01*
X5444390Y-9021104D01*
X5492009Y-9021104D01*
X5511057Y-9030628D01*
X5520580Y-9040151D01*
X5530104Y-9059199D01*
X5530104Y-9078247D01*
X5520580Y-9106818D01*
X5406295Y-9221104D01*
X5530104Y-9221104D01*
X5596771Y-9021104D02*
X5730104Y-9021104D01*
X5644390Y-9221104D01*
X5892009Y-9021104D02*
X5853914Y-9021104D01*
X5834866Y-9030628D01*
X5825342Y-9040151D01*
X5806295Y-9068723D01*
X5796771Y-9106818D01*
X5796771Y-9183008D01*
X5806295Y-9202056D01*
X5815818Y-9211580D01*
X5834866Y-9221104D01*
X5872961Y-9221104D01*
X5892009Y-9211580D01*
X5901533Y-9202056D01*
X5911057Y-9183008D01*
X5911057Y-9135389D01*
X5901533Y-9116342D01*
X5892009Y-9106818D01*
X5872961Y-9097294D01*
X5834866Y-9097294D01*
X5815818Y-9106818D01*
X5806295Y-9116342D01*
X5796771Y-9135389D01*
X5987247Y-9021104D02*
X5987247Y-9059199D01*
X6063437Y-9021104D02*
X6063437Y-9059199D01*
X6358676Y-9297294D02*
X6349152Y-9287770D01*
X6330104Y-9259199D01*
X6320580Y-9240151D01*
X6311057Y-9211580D01*
X6301533Y-9163961D01*
X6301533Y-9125866D01*
X6311057Y-9078247D01*
X6320580Y-9049675D01*
X6330104Y-9030628D01*
X6349152Y-9002056D01*
X6358676Y-8992532D01*
X6520580Y-9087770D02*
X6520580Y-9221104D01*
X6472961Y-9011580D02*
X6425342Y-9154437D01*
X6549152Y-9154437D01*
X6777723Y-9221104D02*
X6777723Y-9021104D01*
X6863437Y-9221104D02*
X6863437Y-9116342D01*
X6853914Y-9097294D01*
X6834866Y-9087770D01*
X6806295Y-9087770D01*
X6787247Y-9097294D01*
X6777723Y-9106818D01*
X6987247Y-9221104D02*
X6968199Y-9211580D01*
X6958676Y-9202056D01*
X6949152Y-9183008D01*
X6949152Y-9125866D01*
X6958676Y-9106818D01*
X6968199Y-9097294D01*
X6987247Y-9087770D01*
X7015818Y-9087770D01*
X7034866Y-9097294D01*
X7044390Y-9106818D01*
X7053914Y-9125866D01*
X7053914Y-9183008D01*
X7044390Y-9202056D01*
X7034866Y-9211580D01*
X7015818Y-9221104D01*
X6987247Y-9221104D01*
X7168199Y-9221104D02*
X7149152Y-9211580D01*
X7139628Y-9192532D01*
X7139628Y-9021104D01*
X7320580Y-9211580D02*
X7301533Y-9221104D01*
X7263437Y-9221104D01*
X7244390Y-9211580D01*
X7234866Y-9192532D01*
X7234866Y-9116342D01*
X7244390Y-9097294D01*
X7263437Y-9087770D01*
X7301533Y-9087770D01*
X7320580Y-9097294D01*
X7330104Y-9116342D01*
X7330104Y-9135389D01*
X7234866Y-9154437D01*
X7406295Y-9211580D02*
X7425342Y-9221104D01*
X7463437Y-9221104D01*
X7482485Y-9211580D01*
X7492009Y-9192532D01*
X7492009Y-9183008D01*
X7482485Y-9163961D01*
X7463437Y-9154437D01*
X7434866Y-9154437D01*
X7415818Y-9144913D01*
X7406295Y-9125866D01*
X7406295Y-9116342D01*
X7415818Y-9097294D01*
X7434866Y-9087770D01*
X7463437Y-9087770D01*
X7482485Y-9097294D01*
X7558676Y-9297294D02*
X7568199Y-9287770D01*
X7587247Y-9259199D01*
X7596771Y-9240151D01*
X7606295Y-9211580D01*
X7615818Y-9163961D01*
X7615818Y-9125866D01*
X7606295Y-9078247D01*
X7596771Y-9049675D01*
X7587247Y-9030628D01*
X7568199Y-9002056D01*
X7558676Y-8992532D01*
D14*
X2775055Y-9422912D02*
X2775055Y-9366343D01*
X2718486Y-9366343D01*
X2718486Y-9422912D01*
X2775055Y-9422912D01*
D11*
X3082485Y-9285104D02*
X3101533Y-9285104D01*
X3120580Y-9294628D01*
X3130104Y-9304151D01*
X3139628Y-9323199D01*
X3149152Y-9361294D01*
X3149152Y-9408913D01*
X3139628Y-9447008D01*
X3130104Y-9466056D01*
X3120580Y-9475580D01*
X3101533Y-9485104D01*
X3082485Y-9485104D01*
X3063437Y-9475580D01*
X3053914Y-9466056D01*
X3044390Y-9447008D01*
X3034866Y-9408913D01*
X3034866Y-9361294D01*
X3044390Y-9323199D01*
X3053914Y-9304151D01*
X3063437Y-9294628D01*
X3082485Y-9285104D01*
X3234866Y-9466056D02*
X3244390Y-9475580D01*
X3234866Y-9485104D01*
X3225342Y-9475580D01*
X3234866Y-9466056D01*
X3234866Y-9485104D01*
X3358676Y-9370818D02*
X3339628Y-9361294D01*
X3330104Y-9351770D01*
X3320580Y-9332723D01*
X3320580Y-9323199D01*
X3330104Y-9304151D01*
X3339628Y-9294628D01*
X3358676Y-9285104D01*
X3396771Y-9285104D01*
X3415818Y-9294628D01*
X3425342Y-9304151D01*
X3434866Y-9323199D01*
X3434866Y-9332723D01*
X3425342Y-9351770D01*
X3415818Y-9361294D01*
X3396771Y-9370818D01*
X3358676Y-9370818D01*
X3339628Y-9380342D01*
X3330104Y-9389866D01*
X3320580Y-9408913D01*
X3320580Y-9447008D01*
X3330104Y-9466056D01*
X3339628Y-9475580D01*
X3358676Y-9485104D01*
X3396771Y-9485104D01*
X3415818Y-9475580D01*
X3425342Y-9466056D01*
X3434866Y-9447008D01*
X3434866Y-9408913D01*
X3425342Y-9389866D01*
X3415818Y-9380342D01*
X3396771Y-9370818D01*
X3558676Y-9285104D02*
X3577723Y-9285104D01*
X3596771Y-9294628D01*
X3606295Y-9304151D01*
X3615818Y-9323199D01*
X3625342Y-9361294D01*
X3625342Y-9408913D01*
X3615818Y-9447008D01*
X3606295Y-9466056D01*
X3596771Y-9475580D01*
X3577723Y-9485104D01*
X3558676Y-9485104D01*
X3539628Y-9475580D01*
X3530104Y-9466056D01*
X3520580Y-9447008D01*
X3511057Y-9408913D01*
X3511057Y-9361294D01*
X3520580Y-9323199D01*
X3530104Y-9304151D01*
X3539628Y-9294628D01*
X3558676Y-9285104D01*
X3749152Y-9285104D02*
X3768199Y-9285104D01*
X3787247Y-9294628D01*
X3796771Y-9304151D01*
X3806295Y-9323199D01*
X3815818Y-9361294D01*
X3815818Y-9408913D01*
X3806295Y-9447008D01*
X3796771Y-9466056D01*
X3787247Y-9475580D01*
X3768199Y-9485104D01*
X3749152Y-9485104D01*
X3730104Y-9475580D01*
X3720580Y-9466056D01*
X3711057Y-9447008D01*
X3701533Y-9408913D01*
X3701533Y-9361294D01*
X3711057Y-9323199D01*
X3720580Y-9304151D01*
X3730104Y-9294628D01*
X3749152Y-9285104D01*
X3901533Y-9485104D02*
X3901533Y-9351770D01*
X3901533Y-9370818D02*
X3911057Y-9361294D01*
X3930104Y-9351770D01*
X3958676Y-9351770D01*
X3977723Y-9361294D01*
X3987247Y-9380342D01*
X3987247Y-9485104D01*
X3987247Y-9380342D02*
X3996771Y-9361294D01*
X4015818Y-9351770D01*
X4044390Y-9351770D01*
X4063437Y-9361294D01*
X4072961Y-9380342D01*
X4072961Y-9485104D01*
X4168199Y-9485104D02*
X4168199Y-9351770D01*
X4168199Y-9370818D02*
X4177723Y-9361294D01*
X4196771Y-9351770D01*
X4225342Y-9351770D01*
X4244390Y-9361294D01*
X4253914Y-9380342D01*
X4253914Y-9485104D01*
X4253914Y-9380342D02*
X4263438Y-9361294D01*
X4282485Y-9351770D01*
X4311057Y-9351770D01*
X4330104Y-9361294D01*
X4339628Y-9380342D01*
X4339628Y-9485104D01*
X4730104Y-9275580D02*
X4558676Y-9532723D01*
X4987247Y-9285104D02*
X5006295Y-9285104D01*
X5025342Y-9294628D01*
X5034866Y-9304151D01*
X5044390Y-9323199D01*
X5053914Y-9361294D01*
X5053914Y-9408913D01*
X5044390Y-9447008D01*
X5034866Y-9466056D01*
X5025342Y-9475580D01*
X5006295Y-9485104D01*
X4987247Y-9485104D01*
X4968199Y-9475580D01*
X4958676Y-9466056D01*
X4949152Y-9447008D01*
X4939628Y-9408913D01*
X4939628Y-9361294D01*
X4949152Y-9323199D01*
X4958676Y-9304151D01*
X4968199Y-9294628D01*
X4987247Y-9285104D01*
X5139628Y-9466056D02*
X5149152Y-9475580D01*
X5139628Y-9485104D01*
X5130104Y-9475580D01*
X5139628Y-9466056D01*
X5139628Y-9485104D01*
X5272961Y-9285104D02*
X5292009Y-9285104D01*
X5311057Y-9294628D01*
X5320580Y-9304151D01*
X5330104Y-9323199D01*
X5339628Y-9361294D01*
X5339628Y-9408913D01*
X5330104Y-9447008D01*
X5320580Y-9466056D01*
X5311057Y-9475580D01*
X5292009Y-9485104D01*
X5272961Y-9485104D01*
X5253914Y-9475580D01*
X5244390Y-9466056D01*
X5234866Y-9447008D01*
X5225342Y-9408913D01*
X5225342Y-9361294D01*
X5234866Y-9323199D01*
X5244390Y-9304151D01*
X5253914Y-9294628D01*
X5272961Y-9285104D01*
X5406295Y-9285104D02*
X5530104Y-9285104D01*
X5463438Y-9361294D01*
X5492009Y-9361294D01*
X5511057Y-9370818D01*
X5520580Y-9380342D01*
X5530104Y-9399389D01*
X5530104Y-9447008D01*
X5520580Y-9466056D01*
X5511057Y-9475580D01*
X5492009Y-9485104D01*
X5434866Y-9485104D01*
X5415819Y-9475580D01*
X5406295Y-9466056D01*
X5720580Y-9485104D02*
X5606295Y-9485104D01*
X5663437Y-9485104D02*
X5663437Y-9285104D01*
X5644390Y-9313675D01*
X5625342Y-9332723D01*
X5606295Y-9342247D01*
X5901533Y-9285104D02*
X5806295Y-9285104D01*
X5796771Y-9380342D01*
X5806295Y-9370818D01*
X5825342Y-9361294D01*
X5872961Y-9361294D01*
X5892009Y-9370818D01*
X5901533Y-9380342D01*
X5911057Y-9399389D01*
X5911057Y-9447008D01*
X5901533Y-9466056D01*
X5892009Y-9475580D01*
X5872961Y-9485104D01*
X5825342Y-9485104D01*
X5806295Y-9475580D01*
X5796771Y-9466056D01*
X5987247Y-9285104D02*
X5987247Y-9323199D01*
X6063437Y-9285104D02*
X6063437Y-9323199D01*
X6358676Y-9561294D02*
X6349152Y-9551770D01*
X6330104Y-9523199D01*
X6320580Y-9504151D01*
X6311057Y-9475580D01*
X6301533Y-9427961D01*
X6301533Y-9389866D01*
X6311057Y-9342247D01*
X6320580Y-9313675D01*
X6330104Y-9294628D01*
X6349152Y-9266056D01*
X6358676Y-9256532D01*
X6415818Y-9285104D02*
X6539628Y-9285104D01*
X6472961Y-9361294D01*
X6501533Y-9361294D01*
X6520580Y-9370818D01*
X6530104Y-9380342D01*
X6539628Y-9399389D01*
X6539628Y-9447008D01*
X6530104Y-9466056D01*
X6520580Y-9475580D01*
X6501533Y-9485104D01*
X6444390Y-9485104D01*
X6425342Y-9475580D01*
X6415818Y-9466056D01*
X6663437Y-9285104D02*
X6682485Y-9285104D01*
X6701533Y-9294628D01*
X6711057Y-9304151D01*
X6720580Y-9323199D01*
X6730104Y-9361294D01*
X6730104Y-9408913D01*
X6720580Y-9447008D01*
X6711057Y-9466056D01*
X6701533Y-9475580D01*
X6682485Y-9485104D01*
X6663437Y-9485104D01*
X6644390Y-9475580D01*
X6634866Y-9466056D01*
X6625342Y-9447008D01*
X6615818Y-9408913D01*
X6615818Y-9361294D01*
X6625342Y-9323199D01*
X6634866Y-9304151D01*
X6644390Y-9294628D01*
X6663437Y-9285104D01*
X6968199Y-9485104D02*
X6968199Y-9285104D01*
X7053914Y-9485104D02*
X7053914Y-9380342D01*
X7044390Y-9361294D01*
X7025342Y-9351770D01*
X6996771Y-9351770D01*
X6977723Y-9361294D01*
X6968199Y-9370818D01*
X7177723Y-9485104D02*
X7158676Y-9475580D01*
X7149152Y-9466056D01*
X7139628Y-9447008D01*
X7139628Y-9389866D01*
X7149152Y-9370818D01*
X7158676Y-9361294D01*
X7177723Y-9351770D01*
X7206295Y-9351770D01*
X7225342Y-9361294D01*
X7234866Y-9370818D01*
X7244390Y-9389866D01*
X7244390Y-9447008D01*
X7234866Y-9466056D01*
X7225342Y-9475580D01*
X7206295Y-9485104D01*
X7177723Y-9485104D01*
X7358676Y-9485104D02*
X7339628Y-9475580D01*
X7330104Y-9456532D01*
X7330104Y-9285104D01*
X7511057Y-9475580D02*
X7492009Y-9485104D01*
X7453914Y-9485104D01*
X7434866Y-9475580D01*
X7425342Y-9456532D01*
X7425342Y-9380342D01*
X7434866Y-9361294D01*
X7453914Y-9351770D01*
X7492009Y-9351770D01*
X7511057Y-9361294D01*
X7520580Y-9380342D01*
X7520580Y-9399389D01*
X7425342Y-9418437D01*
X7596771Y-9475580D02*
X7615818Y-9485104D01*
X7653914Y-9485104D01*
X7672961Y-9475580D01*
X7682485Y-9456532D01*
X7682485Y-9447008D01*
X7672961Y-9427961D01*
X7653914Y-9418437D01*
X7625342Y-9418437D01*
X7606295Y-9408913D01*
X7596771Y-9389866D01*
X7596771Y-9380342D01*
X7606295Y-9361294D01*
X7625342Y-9351770D01*
X7653914Y-9351770D01*
X7672961Y-9361294D01*
X7749152Y-9561294D02*
X7758676Y-9551770D01*
X7777723Y-9523199D01*
X7787247Y-9504151D01*
X7796771Y-9475580D01*
X7806295Y-9427961D01*
X7806295Y-9389866D01*
X7796771Y-9342247D01*
X7787247Y-9313675D01*
X7777723Y-9294628D01*
X7758676Y-9266056D01*
X7749152Y-9256532D01*
D15*
X2736771Y-9708628D02*
X2786771Y-9658628D01*
X2736771Y-9608628D01*
X2686771Y-9658628D01*
X2736771Y-9708628D01*
D11*
X3149152Y-9749104D02*
X3034866Y-9749104D01*
X3092009Y-9749104D02*
X3092009Y-9549104D01*
X3072961Y-9577675D01*
X3053914Y-9596723D01*
X3034866Y-9606247D01*
X3234866Y-9730056D02*
X3244390Y-9739580D01*
X3234866Y-9749104D01*
X3225342Y-9739580D01*
X3234866Y-9730056D01*
X3234866Y-9749104D01*
X3368199Y-9549104D02*
X3387247Y-9549104D01*
X3406295Y-9558628D01*
X3415818Y-9568151D01*
X3425342Y-9587199D01*
X3434866Y-9625294D01*
X3434866Y-9672913D01*
X3425342Y-9711008D01*
X3415818Y-9730056D01*
X3406295Y-9739580D01*
X3387247Y-9749104D01*
X3368199Y-9749104D01*
X3349152Y-9739580D01*
X3339628Y-9730056D01*
X3330104Y-9711008D01*
X3320580Y-9672913D01*
X3320580Y-9625294D01*
X3330104Y-9587199D01*
X3339628Y-9568151D01*
X3349152Y-9558628D01*
X3368199Y-9549104D01*
X3558676Y-9549104D02*
X3577723Y-9549104D01*
X3596771Y-9558628D01*
X3606295Y-9568151D01*
X3615818Y-9587199D01*
X3625342Y-9625294D01*
X3625342Y-9672913D01*
X3615818Y-9711008D01*
X3606295Y-9730056D01*
X3596771Y-9739580D01*
X3577723Y-9749104D01*
X3558676Y-9749104D01*
X3539628Y-9739580D01*
X3530104Y-9730056D01*
X3520580Y-9711008D01*
X3511057Y-9672913D01*
X3511057Y-9625294D01*
X3520580Y-9587199D01*
X3530104Y-9568151D01*
X3539628Y-9558628D01*
X3558676Y-9549104D01*
X3749152Y-9549104D02*
X3768199Y-9549104D01*
X3787247Y-9558628D01*
X3796771Y-9568151D01*
X3806295Y-9587199D01*
X3815818Y-9625294D01*
X3815818Y-9672913D01*
X3806295Y-9711008D01*
X3796771Y-9730056D01*
X3787247Y-9739580D01*
X3768199Y-9749104D01*
X3749152Y-9749104D01*
X3730104Y-9739580D01*
X3720580Y-9730056D01*
X3711057Y-9711008D01*
X3701533Y-9672913D01*
X3701533Y-9625294D01*
X3711057Y-9587199D01*
X3720580Y-9568151D01*
X3730104Y-9558628D01*
X3749152Y-9549104D01*
X3901533Y-9749104D02*
X3901533Y-9615770D01*
X3901533Y-9634818D02*
X3911057Y-9625294D01*
X3930104Y-9615770D01*
X3958676Y-9615770D01*
X3977723Y-9625294D01*
X3987247Y-9644342D01*
X3987247Y-9749104D01*
X3987247Y-9644342D02*
X3996771Y-9625294D01*
X4015818Y-9615770D01*
X4044390Y-9615770D01*
X4063437Y-9625294D01*
X4072961Y-9644342D01*
X4072961Y-9749104D01*
X4168199Y-9749104D02*
X4168199Y-9615770D01*
X4168199Y-9634818D02*
X4177723Y-9625294D01*
X4196771Y-9615770D01*
X4225342Y-9615770D01*
X4244390Y-9625294D01*
X4253914Y-9644342D01*
X4253914Y-9749104D01*
X4253914Y-9644342D02*
X4263438Y-9625294D01*
X4282485Y-9615770D01*
X4311057Y-9615770D01*
X4330104Y-9625294D01*
X4339628Y-9644342D01*
X4339628Y-9749104D01*
X4730104Y-9539580D02*
X4558676Y-9796723D01*
X4987247Y-9549104D02*
X5006295Y-9549104D01*
X5025342Y-9558628D01*
X5034866Y-9568151D01*
X5044390Y-9587199D01*
X5053914Y-9625294D01*
X5053914Y-9672913D01*
X5044390Y-9711008D01*
X5034866Y-9730056D01*
X5025342Y-9739580D01*
X5006295Y-9749104D01*
X4987247Y-9749104D01*
X4968199Y-9739580D01*
X4958676Y-9730056D01*
X4949152Y-9711008D01*
X4939628Y-9672913D01*
X4939628Y-9625294D01*
X4949152Y-9587199D01*
X4958676Y-9568151D01*
X4968199Y-9558628D01*
X4987247Y-9549104D01*
X5139628Y-9730056D02*
X5149152Y-9739580D01*
X5139628Y-9749104D01*
X5130104Y-9739580D01*
X5139628Y-9730056D01*
X5139628Y-9749104D01*
X5272961Y-9549104D02*
X5292009Y-9549104D01*
X5311057Y-9558628D01*
X5320580Y-9568151D01*
X5330104Y-9587199D01*
X5339628Y-9625294D01*
X5339628Y-9672913D01*
X5330104Y-9711008D01*
X5320580Y-9730056D01*
X5311057Y-9739580D01*
X5292009Y-9749104D01*
X5272961Y-9749104D01*
X5253914Y-9739580D01*
X5244390Y-9730056D01*
X5234866Y-9711008D01*
X5225342Y-9672913D01*
X5225342Y-9625294D01*
X5234866Y-9587199D01*
X5244390Y-9568151D01*
X5253914Y-9558628D01*
X5272961Y-9549104D01*
X5406295Y-9549104D02*
X5530104Y-9549104D01*
X5463438Y-9625294D01*
X5492009Y-9625294D01*
X5511057Y-9634818D01*
X5520580Y-9644342D01*
X5530104Y-9663389D01*
X5530104Y-9711008D01*
X5520580Y-9730056D01*
X5511057Y-9739580D01*
X5492009Y-9749104D01*
X5434866Y-9749104D01*
X5415819Y-9739580D01*
X5406295Y-9730056D01*
X5625342Y-9749104D02*
X5663437Y-9749104D01*
X5682485Y-9739580D01*
X5692009Y-9730056D01*
X5711057Y-9701485D01*
X5720580Y-9663389D01*
X5720580Y-9587199D01*
X5711057Y-9568151D01*
X5701533Y-9558628D01*
X5682485Y-9549104D01*
X5644390Y-9549104D01*
X5625342Y-9558628D01*
X5615818Y-9568151D01*
X5606295Y-9587199D01*
X5606295Y-9634818D01*
X5615818Y-9653866D01*
X5625342Y-9663389D01*
X5644390Y-9672913D01*
X5682485Y-9672913D01*
X5701533Y-9663389D01*
X5711057Y-9653866D01*
X5720580Y-9634818D01*
X5892009Y-9615770D02*
X5892009Y-9749104D01*
X5844390Y-9539580D02*
X5796771Y-9682437D01*
X5920580Y-9682437D01*
X5987247Y-9549104D02*
X5987247Y-9587199D01*
X6063437Y-9549104D02*
X6063437Y-9587199D01*
X6358676Y-9825294D02*
X6349152Y-9815770D01*
X6330104Y-9787199D01*
X6320580Y-9768151D01*
X6311057Y-9739580D01*
X6301533Y-9691961D01*
X6301533Y-9653866D01*
X6311057Y-9606247D01*
X6320580Y-9577675D01*
X6330104Y-9558628D01*
X6349152Y-9530056D01*
X6358676Y-9520532D01*
X6463437Y-9634818D02*
X6444390Y-9625294D01*
X6434866Y-9615770D01*
X6425342Y-9596723D01*
X6425342Y-9587199D01*
X6434866Y-9568151D01*
X6444390Y-9558628D01*
X6463437Y-9549104D01*
X6501533Y-9549104D01*
X6520580Y-9558628D01*
X6530104Y-9568151D01*
X6539628Y-9587199D01*
X6539628Y-9596723D01*
X6530104Y-9615770D01*
X6520580Y-9625294D01*
X6501533Y-9634818D01*
X6463437Y-9634818D01*
X6444390Y-9644342D01*
X6434866Y-9653866D01*
X6425342Y-9672913D01*
X6425342Y-9711008D01*
X6434866Y-9730056D01*
X6444390Y-9739580D01*
X6463437Y-9749104D01*
X6501533Y-9749104D01*
X6520580Y-9739580D01*
X6530104Y-9730056D01*
X6539628Y-9711008D01*
X6539628Y-9672913D01*
X6530104Y-9653866D01*
X6520580Y-9644342D01*
X6501533Y-9634818D01*
X6663437Y-9549104D02*
X6682485Y-9549104D01*
X6701533Y-9558628D01*
X6711057Y-9568151D01*
X6720580Y-9587199D01*
X6730104Y-9625294D01*
X6730104Y-9672913D01*
X6720580Y-9711008D01*
X6711057Y-9730056D01*
X6701533Y-9739580D01*
X6682485Y-9749104D01*
X6663437Y-9749104D01*
X6644390Y-9739580D01*
X6634866Y-9730056D01*
X6625342Y-9711008D01*
X6615818Y-9672913D01*
X6615818Y-9625294D01*
X6625342Y-9587199D01*
X6634866Y-9568151D01*
X6644390Y-9558628D01*
X6663437Y-9549104D01*
X6968199Y-9749104D02*
X6968199Y-9549104D01*
X7053914Y-9749104D02*
X7053914Y-9644342D01*
X7044390Y-9625294D01*
X7025342Y-9615770D01*
X6996771Y-9615770D01*
X6977723Y-9625294D01*
X6968199Y-9634818D01*
X7177723Y-9749104D02*
X7158676Y-9739580D01*
X7149152Y-9730056D01*
X7139628Y-9711008D01*
X7139628Y-9653866D01*
X7149152Y-9634818D01*
X7158676Y-9625294D01*
X7177723Y-9615770D01*
X7206295Y-9615770D01*
X7225342Y-9625294D01*
X7234866Y-9634818D01*
X7244390Y-9653866D01*
X7244390Y-9711008D01*
X7234866Y-9730056D01*
X7225342Y-9739580D01*
X7206295Y-9749104D01*
X7177723Y-9749104D01*
X7358676Y-9749104D02*
X7339628Y-9739580D01*
X7330104Y-9720532D01*
X7330104Y-9549104D01*
X7511057Y-9739580D02*
X7492009Y-9749104D01*
X7453914Y-9749104D01*
X7434866Y-9739580D01*
X7425342Y-9720532D01*
X7425342Y-9644342D01*
X7434866Y-9625294D01*
X7453914Y-9615770D01*
X7492009Y-9615770D01*
X7511057Y-9625294D01*
X7520580Y-9644342D01*
X7520580Y-9663389D01*
X7425342Y-9682437D01*
X7596771Y-9739580D02*
X7615818Y-9749104D01*
X7653914Y-9749104D01*
X7672961Y-9739580D01*
X7682485Y-9720532D01*
X7682485Y-9711008D01*
X7672961Y-9691961D01*
X7653914Y-9682437D01*
X7625342Y-9682437D01*
X7606295Y-9672913D01*
X7596771Y-9653866D01*
X7596771Y-9644342D01*
X7606295Y-9625294D01*
X7625342Y-9615770D01*
X7653914Y-9615770D01*
X7672961Y-9625294D01*
X7749152Y-9825294D02*
X7758676Y-9815770D01*
X7777723Y-9787199D01*
X7787247Y-9768151D01*
X7796771Y-9739580D01*
X7806295Y-9691961D01*
X7806295Y-9653866D01*
X7796771Y-9606247D01*
X7787247Y-9577675D01*
X7777723Y-9558628D01*
X7758676Y-9530056D01*
X7749152Y-9520532D01*
D16*
X2666771Y-9862628D02*
X2786771Y-9982628D01*
X2786771Y-9862628D02*
X2666771Y-9982628D01*
X2786771Y-9922628D02*
G75*
G03*
X2786771Y-9922628I-60000J0D01*
G01*
D11*
X3149152Y-10013104D02*
X3034866Y-10013104D01*
X3092009Y-10013104D02*
X3092009Y-9813104D01*
X3072961Y-9841675D01*
X3053914Y-9860723D01*
X3034866Y-9870247D01*
X3234866Y-9994056D02*
X3244390Y-10003580D01*
X3234866Y-10013104D01*
X3225342Y-10003580D01*
X3234866Y-9994056D01*
X3234866Y-10013104D01*
X3320580Y-9832151D02*
X3330104Y-9822628D01*
X3349152Y-9813104D01*
X3396771Y-9813104D01*
X3415818Y-9822628D01*
X3425342Y-9832151D01*
X3434866Y-9851199D01*
X3434866Y-9870247D01*
X3425342Y-9898818D01*
X3311057Y-10013104D01*
X3434866Y-10013104D01*
X3558676Y-9813104D02*
X3577723Y-9813104D01*
X3596771Y-9822628D01*
X3606295Y-9832151D01*
X3615818Y-9851199D01*
X3625342Y-9889294D01*
X3625342Y-9936913D01*
X3615818Y-9975008D01*
X3606295Y-9994056D01*
X3596771Y-10003580D01*
X3577723Y-10013104D01*
X3558676Y-10013104D01*
X3539628Y-10003580D01*
X3530104Y-9994056D01*
X3520580Y-9975008D01*
X3511057Y-9936913D01*
X3511057Y-9889294D01*
X3520580Y-9851199D01*
X3530104Y-9832151D01*
X3539628Y-9822628D01*
X3558676Y-9813104D01*
X3749152Y-9813104D02*
X3768199Y-9813104D01*
X3787247Y-9822628D01*
X3796771Y-9832151D01*
X3806295Y-9851199D01*
X3815818Y-9889294D01*
X3815818Y-9936913D01*
X3806295Y-9975008D01*
X3796771Y-9994056D01*
X3787247Y-10003580D01*
X3768199Y-10013104D01*
X3749152Y-10013104D01*
X3730104Y-10003580D01*
X3720580Y-9994056D01*
X3711057Y-9975008D01*
X3701533Y-9936913D01*
X3701533Y-9889294D01*
X3711057Y-9851199D01*
X3720580Y-9832151D01*
X3730104Y-9822628D01*
X3749152Y-9813104D01*
X3901533Y-10013104D02*
X3901533Y-9879770D01*
X3901533Y-9898818D02*
X3911057Y-9889294D01*
X3930104Y-9879770D01*
X3958676Y-9879770D01*
X3977723Y-9889294D01*
X3987247Y-9908342D01*
X3987247Y-10013104D01*
X3987247Y-9908342D02*
X3996771Y-9889294D01*
X4015818Y-9879770D01*
X4044390Y-9879770D01*
X4063437Y-9889294D01*
X4072961Y-9908342D01*
X4072961Y-10013104D01*
X4168199Y-10013104D02*
X4168199Y-9879770D01*
X4168199Y-9898818D02*
X4177723Y-9889294D01*
X4196771Y-9879770D01*
X4225342Y-9879770D01*
X4244390Y-9889294D01*
X4253914Y-9908342D01*
X4253914Y-10013104D01*
X4253914Y-9908342D02*
X4263438Y-9889294D01*
X4282485Y-9879770D01*
X4311057Y-9879770D01*
X4330104Y-9889294D01*
X4339628Y-9908342D01*
X4339628Y-10013104D01*
X4730104Y-9803580D02*
X4558676Y-10060723D01*
X4987247Y-9813104D02*
X5006295Y-9813104D01*
X5025342Y-9822628D01*
X5034866Y-9832151D01*
X5044390Y-9851199D01*
X5053914Y-9889294D01*
X5053914Y-9936913D01*
X5044390Y-9975008D01*
X5034866Y-9994056D01*
X5025342Y-10003580D01*
X5006295Y-10013104D01*
X4987247Y-10013104D01*
X4968199Y-10003580D01*
X4958676Y-9994056D01*
X4949152Y-9975008D01*
X4939628Y-9936913D01*
X4939628Y-9889294D01*
X4949152Y-9851199D01*
X4958676Y-9832151D01*
X4968199Y-9822628D01*
X4987247Y-9813104D01*
X5139628Y-9994056D02*
X5149152Y-10003580D01*
X5139628Y-10013104D01*
X5130104Y-10003580D01*
X5139628Y-9994056D01*
X5139628Y-10013104D01*
X5272961Y-9813104D02*
X5292009Y-9813104D01*
X5311057Y-9822628D01*
X5320580Y-9832151D01*
X5330104Y-9851199D01*
X5339628Y-9889294D01*
X5339628Y-9936913D01*
X5330104Y-9975008D01*
X5320580Y-9994056D01*
X5311057Y-10003580D01*
X5292009Y-10013104D01*
X5272961Y-10013104D01*
X5253914Y-10003580D01*
X5244390Y-9994056D01*
X5234866Y-9975008D01*
X5225342Y-9936913D01*
X5225342Y-9889294D01*
X5234866Y-9851199D01*
X5244390Y-9832151D01*
X5253914Y-9822628D01*
X5272961Y-9813104D01*
X5511057Y-9879770D02*
X5511057Y-10013104D01*
X5463438Y-9803580D02*
X5415819Y-9946437D01*
X5539628Y-9946437D01*
X5596771Y-9813104D02*
X5730104Y-9813104D01*
X5644390Y-10013104D01*
X5796771Y-9832151D02*
X5806295Y-9822628D01*
X5825342Y-9813104D01*
X5872961Y-9813104D01*
X5892009Y-9822628D01*
X5901533Y-9832151D01*
X5911057Y-9851199D01*
X5911057Y-9870247D01*
X5901533Y-9898818D01*
X5787247Y-10013104D01*
X5911057Y-10013104D01*
X5987247Y-9813104D02*
X5987247Y-9851199D01*
X6063437Y-9813104D02*
X6063437Y-9851199D01*
X6358676Y-10089294D02*
X6349152Y-10079770D01*
X6330104Y-10051199D01*
X6320580Y-10032151D01*
X6311057Y-10003580D01*
X6301533Y-9955961D01*
X6301533Y-9917866D01*
X6311057Y-9870247D01*
X6320580Y-9841675D01*
X6330104Y-9822628D01*
X6349152Y-9794056D01*
X6358676Y-9784532D01*
X6520580Y-9813104D02*
X6482485Y-9813104D01*
X6463437Y-9822628D01*
X6453914Y-9832151D01*
X6434866Y-9860723D01*
X6425342Y-9898818D01*
X6425342Y-9975008D01*
X6434866Y-9994056D01*
X6444390Y-10003580D01*
X6463437Y-10013104D01*
X6501533Y-10013104D01*
X6520580Y-10003580D01*
X6530104Y-9994056D01*
X6539628Y-9975008D01*
X6539628Y-9927389D01*
X6530104Y-9908342D01*
X6520580Y-9898818D01*
X6501533Y-9889294D01*
X6463437Y-9889294D01*
X6444390Y-9898818D01*
X6434866Y-9908342D01*
X6425342Y-9927389D01*
X6777723Y-10013104D02*
X6777723Y-9813104D01*
X6863437Y-10013104D02*
X6863437Y-9908342D01*
X6853914Y-9889294D01*
X6834866Y-9879770D01*
X6806295Y-9879770D01*
X6787247Y-9889294D01*
X6777723Y-9898818D01*
X6987247Y-10013104D02*
X6968199Y-10003580D01*
X6958676Y-9994056D01*
X6949152Y-9975008D01*
X6949152Y-9917866D01*
X6958676Y-9898818D01*
X6968199Y-9889294D01*
X6987247Y-9879770D01*
X7015818Y-9879770D01*
X7034866Y-9889294D01*
X7044390Y-9898818D01*
X7053914Y-9917866D01*
X7053914Y-9975008D01*
X7044390Y-9994056D01*
X7034866Y-10003580D01*
X7015818Y-10013104D01*
X6987247Y-10013104D01*
X7168199Y-10013104D02*
X7149152Y-10003580D01*
X7139628Y-9984532D01*
X7139628Y-9813104D01*
X7320580Y-10003580D02*
X7301533Y-10013104D01*
X7263437Y-10013104D01*
X7244390Y-10003580D01*
X7234866Y-9984532D01*
X7234866Y-9908342D01*
X7244390Y-9889294D01*
X7263437Y-9879770D01*
X7301533Y-9879770D01*
X7320580Y-9889294D01*
X7330104Y-9908342D01*
X7330104Y-9927389D01*
X7234866Y-9946437D01*
X7406295Y-10003580D02*
X7425342Y-10013104D01*
X7463437Y-10013104D01*
X7482485Y-10003580D01*
X7492009Y-9984532D01*
X7492009Y-9975008D01*
X7482485Y-9955961D01*
X7463437Y-9946437D01*
X7434866Y-9946437D01*
X7415818Y-9936913D01*
X7406295Y-9917866D01*
X7406295Y-9908342D01*
X7415818Y-9889294D01*
X7434866Y-9879770D01*
X7463437Y-9879770D01*
X7482485Y-9889294D01*
X7558676Y-10089294D02*
X7568199Y-10079770D01*
X7587247Y-10051199D01*
X7596771Y-10032151D01*
X7606295Y-10003580D01*
X7615818Y-9955961D01*
X7615818Y-9917866D01*
X7606295Y-9870247D01*
X7596771Y-9841675D01*
X7587247Y-9822628D01*
X7568199Y-9794056D01*
X7558676Y-9784532D01*
D17*
X2634771Y-10110628D02*
X2786771Y-10262628D01*
X2786771Y-10110628D02*
X2634771Y-10262628D01*
X2710771Y-10110628D02*
X2710771Y-10262628D01*
X2634771Y-10186628D02*
X2786771Y-10186628D01*
D11*
X3149152Y-10277104D02*
X3034866Y-10277104D01*
X3092009Y-10277104D02*
X3092009Y-10077104D01*
X3072961Y-10105675D01*
X3053914Y-10124723D01*
X3034866Y-10134247D01*
X3234866Y-10258056D02*
X3244390Y-10267580D01*
X3234866Y-10277104D01*
X3225342Y-10267580D01*
X3234866Y-10258056D01*
X3234866Y-10277104D01*
X3425342Y-10077104D02*
X3330104Y-10077104D01*
X3320580Y-10172342D01*
X3330104Y-10162818D01*
X3349152Y-10153294D01*
X3396771Y-10153294D01*
X3415818Y-10162818D01*
X3425342Y-10172342D01*
X3434866Y-10191389D01*
X3434866Y-10239008D01*
X3425342Y-10258056D01*
X3415818Y-10267580D01*
X3396771Y-10277104D01*
X3349152Y-10277104D01*
X3330104Y-10267580D01*
X3320580Y-10258056D01*
X3511057Y-10096151D02*
X3520580Y-10086628D01*
X3539628Y-10077104D01*
X3587247Y-10077104D01*
X3606295Y-10086628D01*
X3615818Y-10096151D01*
X3625342Y-10115199D01*
X3625342Y-10134247D01*
X3615818Y-10162818D01*
X3501533Y-10277104D01*
X3625342Y-10277104D01*
X3749152Y-10077104D02*
X3768199Y-10077104D01*
X3787247Y-10086628D01*
X3796771Y-10096151D01*
X3806295Y-10115199D01*
X3815818Y-10153294D01*
X3815818Y-10200913D01*
X3806295Y-10239008D01*
X3796771Y-10258056D01*
X3787247Y-10267580D01*
X3768199Y-10277104D01*
X3749152Y-10277104D01*
X3730104Y-10267580D01*
X3720580Y-10258056D01*
X3711057Y-10239008D01*
X3701533Y-10200913D01*
X3701533Y-10153294D01*
X3711057Y-10115199D01*
X3720580Y-10096151D01*
X3730104Y-10086628D01*
X3749152Y-10077104D01*
X3901533Y-10277104D02*
X3901533Y-10143770D01*
X3901533Y-10162818D02*
X3911057Y-10153294D01*
X3930104Y-10143770D01*
X3958676Y-10143770D01*
X3977723Y-10153294D01*
X3987247Y-10172342D01*
X3987247Y-10277104D01*
X3987247Y-10172342D02*
X3996771Y-10153294D01*
X4015818Y-10143770D01*
X4044390Y-10143770D01*
X4063437Y-10153294D01*
X4072961Y-10172342D01*
X4072961Y-10277104D01*
X4168199Y-10277104D02*
X4168199Y-10143770D01*
X4168199Y-10162818D02*
X4177723Y-10153294D01*
X4196771Y-10143770D01*
X4225342Y-10143770D01*
X4244390Y-10153294D01*
X4253914Y-10172342D01*
X4253914Y-10277104D01*
X4253914Y-10172342D02*
X4263438Y-10153294D01*
X4282485Y-10143770D01*
X4311057Y-10143770D01*
X4330104Y-10153294D01*
X4339628Y-10172342D01*
X4339628Y-10277104D01*
X4730104Y-10067580D02*
X4558676Y-10324723D01*
X4987247Y-10077104D02*
X5006295Y-10077104D01*
X5025342Y-10086628D01*
X5034866Y-10096151D01*
X5044390Y-10115199D01*
X5053914Y-10153294D01*
X5053914Y-10200913D01*
X5044390Y-10239008D01*
X5034866Y-10258056D01*
X5025342Y-10267580D01*
X5006295Y-10277104D01*
X4987247Y-10277104D01*
X4968199Y-10267580D01*
X4958676Y-10258056D01*
X4949152Y-10239008D01*
X4939628Y-10200913D01*
X4939628Y-10153294D01*
X4949152Y-10115199D01*
X4958676Y-10096151D01*
X4968199Y-10086628D01*
X4987247Y-10077104D01*
X5139628Y-10258056D02*
X5149152Y-10267580D01*
X5139628Y-10277104D01*
X5130104Y-10267580D01*
X5139628Y-10258056D01*
X5139628Y-10277104D01*
X5272961Y-10077104D02*
X5292009Y-10077104D01*
X5311057Y-10086628D01*
X5320580Y-10096151D01*
X5330104Y-10115199D01*
X5339628Y-10153294D01*
X5339628Y-10200913D01*
X5330104Y-10239008D01*
X5320580Y-10258056D01*
X5311057Y-10267580D01*
X5292009Y-10277104D01*
X5272961Y-10277104D01*
X5253914Y-10267580D01*
X5244390Y-10258056D01*
X5234866Y-10239008D01*
X5225342Y-10200913D01*
X5225342Y-10153294D01*
X5234866Y-10115199D01*
X5244390Y-10096151D01*
X5253914Y-10086628D01*
X5272961Y-10077104D01*
X5520580Y-10077104D02*
X5425342Y-10077104D01*
X5415819Y-10172342D01*
X5425342Y-10162818D01*
X5444390Y-10153294D01*
X5492009Y-10153294D01*
X5511057Y-10162818D01*
X5520580Y-10172342D01*
X5530104Y-10191389D01*
X5530104Y-10239008D01*
X5520580Y-10258056D01*
X5511057Y-10267580D01*
X5492009Y-10277104D01*
X5444390Y-10277104D01*
X5425342Y-10267580D01*
X5415819Y-10258056D01*
X5625342Y-10277104D02*
X5663437Y-10277104D01*
X5682485Y-10267580D01*
X5692009Y-10258056D01*
X5711057Y-10229485D01*
X5720580Y-10191389D01*
X5720580Y-10115199D01*
X5711057Y-10096151D01*
X5701533Y-10086628D01*
X5682485Y-10077104D01*
X5644390Y-10077104D01*
X5625342Y-10086628D01*
X5615818Y-10096151D01*
X5606295Y-10115199D01*
X5606295Y-10162818D01*
X5615818Y-10181866D01*
X5625342Y-10191389D01*
X5644390Y-10200913D01*
X5682485Y-10200913D01*
X5701533Y-10191389D01*
X5711057Y-10181866D01*
X5720580Y-10162818D01*
X5834866Y-10162818D02*
X5815818Y-10153294D01*
X5806295Y-10143770D01*
X5796771Y-10124723D01*
X5796771Y-10115199D01*
X5806295Y-10096151D01*
X5815818Y-10086628D01*
X5834866Y-10077104D01*
X5872961Y-10077104D01*
X5892009Y-10086628D01*
X5901533Y-10096151D01*
X5911057Y-10115199D01*
X5911057Y-10124723D01*
X5901533Y-10143770D01*
X5892009Y-10153294D01*
X5872961Y-10162818D01*
X5834866Y-10162818D01*
X5815818Y-10172342D01*
X5806295Y-10181866D01*
X5796771Y-10200913D01*
X5796771Y-10239008D01*
X5806295Y-10258056D01*
X5815818Y-10267580D01*
X5834866Y-10277104D01*
X5872961Y-10277104D01*
X5892009Y-10267580D01*
X5901533Y-10258056D01*
X5911057Y-10239008D01*
X5911057Y-10200913D01*
X5901533Y-10181866D01*
X5892009Y-10172342D01*
X5872961Y-10162818D01*
X5987247Y-10077104D02*
X5987247Y-10115199D01*
X6063437Y-10077104D02*
X6063437Y-10115199D01*
X6358676Y-10353294D02*
X6349152Y-10343770D01*
X6330104Y-10315199D01*
X6320580Y-10296151D01*
X6311057Y-10267580D01*
X6301533Y-10219961D01*
X6301533Y-10181866D01*
X6311057Y-10134247D01*
X6320580Y-10105675D01*
X6330104Y-10086628D01*
X6349152Y-10058056D01*
X6358676Y-10048532D01*
X6415818Y-10077104D02*
X6539628Y-10077104D01*
X6472961Y-10153294D01*
X6501533Y-10153294D01*
X6520580Y-10162818D01*
X6530104Y-10172342D01*
X6539628Y-10191389D01*
X6539628Y-10239008D01*
X6530104Y-10258056D01*
X6520580Y-10267580D01*
X6501533Y-10277104D01*
X6444390Y-10277104D01*
X6425342Y-10267580D01*
X6415818Y-10258056D01*
X6777723Y-10277104D02*
X6777723Y-10077104D01*
X6863437Y-10277104D02*
X6863437Y-10172342D01*
X6853914Y-10153294D01*
X6834866Y-10143770D01*
X6806295Y-10143770D01*
X6787247Y-10153294D01*
X6777723Y-10162818D01*
X6987247Y-10277104D02*
X6968199Y-10267580D01*
X6958676Y-10258056D01*
X6949152Y-10239008D01*
X6949152Y-10181866D01*
X6958676Y-10162818D01*
X6968199Y-10153294D01*
X6987247Y-10143770D01*
X7015818Y-10143770D01*
X7034866Y-10153294D01*
X7044390Y-10162818D01*
X7053914Y-10181866D01*
X7053914Y-10239008D01*
X7044390Y-10258056D01*
X7034866Y-10267580D01*
X7015818Y-10277104D01*
X6987247Y-10277104D01*
X7168199Y-10277104D02*
X7149152Y-10267580D01*
X7139628Y-10248532D01*
X7139628Y-10077104D01*
X7320580Y-10267580D02*
X7301533Y-10277104D01*
X7263437Y-10277104D01*
X7244390Y-10267580D01*
X7234866Y-10248532D01*
X7234866Y-10172342D01*
X7244390Y-10153294D01*
X7263437Y-10143770D01*
X7301533Y-10143770D01*
X7320580Y-10153294D01*
X7330104Y-10172342D01*
X7330104Y-10191389D01*
X7234866Y-10210437D01*
X7406295Y-10267580D02*
X7425342Y-10277104D01*
X7463437Y-10277104D01*
X7482485Y-10267580D01*
X7492009Y-10248532D01*
X7492009Y-10239008D01*
X7482485Y-10219961D01*
X7463437Y-10210437D01*
X7434866Y-10210437D01*
X7415818Y-10200913D01*
X7406295Y-10181866D01*
X7406295Y-10172342D01*
X7415818Y-10153294D01*
X7434866Y-10143770D01*
X7463437Y-10143770D01*
X7482485Y-10153294D01*
X7558676Y-10353294D02*
X7568199Y-10343770D01*
X7587247Y-10315199D01*
X7596771Y-10296151D01*
X7606295Y-10267580D01*
X7615818Y-10219961D01*
X7615818Y-10181866D01*
X7606295Y-10134247D01*
X7596771Y-10105675D01*
X7587247Y-10086628D01*
X7568199Y-10058056D01*
X7558676Y-10048532D01*
M02*
