M48
; DRILL file {KiCad 6.0.7-1.fc36} date Sat 13 Aug 2022 19:35:50 CEST
; FORMAT={-:-/ absolute / metric / decimal}
; #@! TF.CreationDate,2022-08-13T19:35:50+02:00
; #@! TF.GenerationSoftware,Kicad,Pcbnew,6.0.7-1.fc36
; #@! TF.FileFunction,Plated,1,2,PTH
FMAT,2
METRIC
; #@! TA.AperFunction,Plated,PTH,ViaDrill
T1C0.400
; #@! TA.AperFunction,Plated,PTH,ComponentDrill
T2C0.400
; #@! TA.AperFunction,Plated,PTH,ComponentDrill
T3C0.700
; #@! TA.AperFunction,Plated,PTH,ComponentDrill
T4C0.800
; #@! TA.AperFunction,Plated,PTH,ComponentDrill
T5C1.000
; #@! TA.AperFunction,Plated,PTH,ComponentDrill
T6C1.200
; #@! TA.AperFunction,Plated,PTH,ComponentDrill
T7C1.520
%
G90
G05
T1
X29.845Y-68.58
X29.845Y-69.85
X29.845Y-71.12
X30.734Y-31.445
X30.734Y-32.715
X30.734Y-33.985
X30.734Y-35.255
X31.115Y-43.18
X31.115Y-44.45
X31.115Y-45.72
X31.115Y-68.58
X31.115Y-69.85
X31.115Y-71.12
X32.385Y-68.58
X32.385Y-69.85
X32.385Y-71.12
X34.439Y-30.331
X36.034Y-40.075
X36.334Y-38.875
X36.449Y-63.195
X36.449Y-64.465
X37.334Y-39.675
X37.719Y-63.195
X37.719Y-64.465
X38.989Y-63.195
X38.989Y-64.465
X42.164Y-30.81
X42.164Y-32.08
X43.434Y-30.81
X43.434Y-32.08
X45.212Y-37.874
X46.482Y-31.496
X47.534Y-41.265
X47.884Y-50.625
X47.947Y-45.353
X48.641Y-49.403
X48.641Y-51.943
X48.895Y-37.084
X49.797Y-54.076
X50.234Y-40.565
X50.419Y-64.465
X50.573Y-47.979
X50.577Y-54.866
X50.975Y-49.177
X51.689Y-51.59
X51.689Y-64.465
X52.07Y-50.01
X52.959Y-64.465
X54.106Y-51.312
X56.458Y-51.308
X57.734Y-52.7
X57.734Y-62.075
X60.401Y-36.678
X60.401Y-37.998
X60.452Y-31.496
X61.734Y-52.575
X61.834Y-73.225
X61.849Y-69.342
X61.849Y-71.325
X61.976Y-54.61
X62.734Y-52.575
X64.186Y-36.678
X64.25Y-46.15
X66.802Y-46.228
X66.802Y-47.244
X67.564Y-48.006
X71.628Y-52.781
X72.644Y-39.7
X73.787Y-52.781
X74.549Y-39.7
X75.184Y-47.32
X75.819Y-61.468
X75.819Y-62.611
X76.454Y-39.7
X76.962Y-61.468
X76.962Y-62.611
X77.184Y-54.275
X77.724Y-47.32
X77.724Y-49.225
X77.724Y-51.13
X78.034Y-55.225
X78.334Y-70.815
X78.359Y-39.7
X78.934Y-56.175
X79.195Y-68.886
X80.25Y-35.5
X80.584Y-69.475
X82.296Y-35.509
X84.074Y-51.765
X84.074Y-53.035
X84.074Y-54.305
X84.074Y-68.275
X84.074Y-69.545
X84.074Y-70.815
X84.25Y-35.5
X84.709Y-58.75
T2
X37.99Y-72.809
X37.99Y-77.809
X39.99Y-72.809
X39.99Y-77.809
X41.99Y-72.809
X41.99Y-77.809
X43.99Y-72.809
X43.99Y-77.809
X45.99Y-72.809
X45.99Y-77.809
X47.99Y-72.809
X47.99Y-77.809
X49.99Y-72.809
X49.99Y-77.809
X51.99Y-72.809
X51.99Y-77.809
X53.99Y-72.809
X53.99Y-77.809
X55.99Y-77.809
T3
X104.775Y-43.18
X112.395Y-43.18
X114.0Y-47.625
X114.0Y-55.245
T4
X59.802Y-63.05
X59.802Y-76.65
X61.802Y-63.05
X61.802Y-76.65
X63.802Y-63.05
X63.802Y-76.65
X65.802Y-63.05
X65.802Y-76.65
X67.802Y-63.05
X67.802Y-76.65
X69.802Y-63.05
X69.802Y-76.65
X71.802Y-63.05
X71.802Y-76.65
X73.802Y-63.05
X73.802Y-76.65
X81.026Y-72.39
X81.026Y-74.89
X97.78Y-27.925
X97.78Y-30.465
X97.78Y-33.005
X104.775Y-47.625
X105.4Y-27.925
X105.4Y-30.465
X105.4Y-33.005
X109.0Y-27.94
X109.0Y-38.1
X109.775Y-47.625
X113.665Y-27.94
X113.665Y-38.1
T5
X36.353Y-43.563
X36.353Y-58.803
X36.365Y-25.26
X36.365Y-27.8
X38.893Y-43.563
X38.893Y-58.803
X38.905Y-25.26
X38.905Y-27.8
X41.433Y-43.563
X41.433Y-58.803
X41.445Y-25.26
X41.445Y-27.8
X43.973Y-43.563
X43.973Y-58.803
X43.985Y-25.26
X43.985Y-27.8
X46.513Y-43.563
X46.513Y-58.803
X46.525Y-25.26
X46.525Y-27.8
X49.053Y-43.563
X49.053Y-58.803
X49.065Y-25.26
X49.065Y-27.8
X51.593Y-43.563
X51.593Y-58.803
X51.605Y-25.26
X51.605Y-27.8
X54.133Y-43.563
X54.133Y-58.803
X54.145Y-25.26
X54.145Y-27.8
X55.99Y-70.309
X56.673Y-43.563
X56.673Y-58.803
X56.685Y-25.26
X56.685Y-27.8
X59.213Y-43.563
X59.213Y-58.803
X59.225Y-25.26
X59.225Y-27.8
X61.753Y-43.563
X61.753Y-58.803
X61.765Y-25.26
X61.765Y-27.8
X64.293Y-43.563
X64.293Y-58.803
X64.305Y-25.26
X64.305Y-27.8
X66.833Y-43.563
X66.833Y-58.803
X66.845Y-25.26
X66.845Y-27.8
X69.373Y-43.563
X69.373Y-58.803
X69.385Y-25.26
X69.385Y-27.8
X71.913Y-43.563
X71.913Y-58.803
X71.925Y-25.26
X71.925Y-27.8
X74.465Y-25.26
X74.465Y-27.8
X77.005Y-25.26
X77.005Y-27.8
X79.545Y-25.26
X79.545Y-27.8
X82.085Y-25.26
X82.085Y-27.8
X83.434Y-43.575
X83.434Y-46.115
X84.625Y-25.26
X84.625Y-27.8
X97.79Y-39.99
X97.79Y-42.53
X97.79Y-45.07
X100.167Y-72.303
X103.759Y-68.711
X103.759Y-75.895
X107.351Y-72.303
T6
X102.235Y-54.494
X102.235Y-61.994
X118.745Y-27.94
X118.745Y-40.64
X118.745Y-62.23
X118.745Y-74.93
T7
X123.825Y-46.355
X123.825Y-51.435
X123.825Y-56.515
T0
M30
